<svg width="360" height="3204" viewBox="0 0 360 3204" fill="none" xmlns="http://www.w3.org/2000/svg">
<path d="M123.832 3192.97C116.439 3191.76 109.018 3190.64 101.583 3189.6C102.173 3187.24 102.656 3184.83 103.102 3182.42C105.328 3183.06 107.604 3183.35 109.799 3184.18C112.18 3185.09 114.415 3186.29 116.505 3187.74C116.77 3187.93 117.119 3187.75 117.1 3187.42C116.471 3177.87 115.567 3166.52 108.594 3159.15C108.594 3159.11 108.583 3159.07 108.551 3159.04C108.44 3158.95 108.329 3158.85 108.219 3158.76C108.175 3158.71 108.134 3158.67 108.09 3158.62C108.068 3158.6 108.041 3158.59 108.016 3158.58C108.009 3158.58 108.004 3158.57 107.996 3158.56C107.855 3158.45 107.709 3158.31 107.541 3158.22C107.669 3157.47 107.792 3156.72 107.913 3155.97C107.925 3155.89 107.903 3155.83 107.864 3155.79C107.816 3155.67 107.686 3155.57 107.543 3155.65C96.1723 3161.69 87.4504 3172.88 83.093 3184.79C82.9941 3185.06 83.1795 3185.31 83.466 3185.3C89.511 3185.05 95.5046 3185.27 101.541 3185.54C101.309 3186.86 101.096 3188.18 100.921 3189.5C92.7442 3188.37 84.5514 3187.33 76.3643 3186.41C76.3599 3186.38 76.355 3186.36 76.3533 3186.33C76.3064 3186.05 75.9055 3186.1 75.9127 3186.38C75.9129 3186.4 75.9158 3186.42 75.9165 3186.43C75.829 3186.52 75.8266 3186.68 75.9351 3186.75C76.0527 3189.05 76.5559 3191.34 77.2517 3193.53C77.9537 3195.74 78.5937 3196.38 80.8564 3196.73C86.4301 3197.6 92.0112 3198.42 97.586 3199.26C103.158 3200.1 108.726 3201.07 114.314 3201.79C116.1 3202.02 117.079 3201.39 118.252 3200.09C120.13 3198 121.96 3195.87 123.799 3193.75C123.823 3193.72 123.842 3193.69 123.856 3193.66C124.19 3193.6 124.241 3193.04 123.832 3192.97ZM107.452 3158.71C107.545 3158.77 107.644 3158.83 107.738 3158.89C107.787 3158.92 107.834 3158.94 107.884 3158.97C110.808 3162.77 112.912 3166.88 114.18 3171.5C115.543 3176.47 115.978 3181.63 116.322 3186.75C114.37 3185.46 112.297 3184.36 110.099 3183.52C107.976 3182.72 105.506 3181.86 103.208 3181.84C103.752 3178.84 104.247 3175.82 104.814 3172.85C105.706 3168.14 106.637 3163.43 107.452 3158.71ZM83.9552 3184.56C86.145 3178.75 89.2842 3173.33 93.2691 3168.55C97.3138 3163.69 102.104 3159.84 107.355 3156.37C106.162 3161.8 105.155 3167.27 104.103 3172.73C103.327 3176.75 102.404 3180.79 101.666 3184.84C95.8027 3184.3 89.8316 3184.33 83.9552 3184.56ZM118.47 3198.73C117.784 3199.51 116.981 3200.72 115.94 3201.07C114.892 3201.41 113.372 3200.93 112.329 3200.78C107.647 3200.07 102.966 3199.38 98.2845 3198.67C93.7027 3197.98 89.1237 3197.29 84.5424 3196.6C83.346 3196.42 82.1524 3196.24 80.9565 3196.06C79.9583 3195.9 79.0574 3195.89 78.4097 3194.79C78.1648 3194.38 78.0208 3193.75 77.8753 3193.3C77.1877 3191.18 76.7933 3189.03 76.4319 3186.85C91.9398 3189.16 107.466 3191.4 122.992 3193.57C121.477 3195.28 119.976 3197.01 118.47 3198.73Z" fill="#BAD266" fill-opacity="0.8"/>
<path d="M272.761 3163.31C274.59 3160.28 273.106 3156.13 269.714 3154.86C266.495 3153.67 262.758 3155.7 260.962 3158.59C259.512 3152.77 254.714 3149.87 248.638 3152.43C244.909 3153.99 241.983 3158.82 244.132 3162.36C241.474 3161.65 238.151 3163.31 237.219 3165.98C236.667 3167.56 237.184 3169.13 238.488 3170.14C240.093 3171.37 242.294 3171.28 244.175 3170.91C241.163 3174.97 245.263 3180.05 249.44 3181.4C254.239 3182.96 259.038 3180.66 261.342 3176.46C262.248 3177.97 264.406 3178.86 266.063 3178.54C268.514 3178.06 270.12 3175.87 270.292 3173.49C273.322 3175.5 277.965 3175 279.467 3171.23C281.279 3166.66 276.783 3163.43 272.761 3163.31ZM277.542 3171.22C275.704 3174.02 272.597 3173.15 270.172 3171.83C270.137 3171.67 270.102 3171.51 270.051 3171.37C269.749 3170.42 268.48 3170.82 268.618 3171.77C268.929 3173.88 268.376 3176.25 266.089 3176.95C264.044 3177.57 262.853 3176.31 262.11 3174.71C262.136 3174.64 262.171 3174.57 262.188 3174.49C262.481 3173.58 261.109 3173.22 260.79 3174.1C259.357 3178.04 255.948 3180.73 251.693 3180.3C247.472 3179.87 242.397 3175.5 245.436 3170.97C245.738 3170.52 245.133 3170.01 244.728 3170.28C244.745 3169.89 244.503 3169.47 244.046 3169.5C242.898 3169.56 241.698 3169.79 240.568 3169.46C239.006 3168.99 238.03 3167.63 238.937 3166.01C240.188 3163.76 243.381 3163.03 245.53 3164.24C245.841 3164.41 246.152 3164.2 246.212 3163.92C246.402 3163.74 246.497 3163.46 246.333 3163.24C243.347 3159.25 246.074 3154.7 250.493 3153.54C252.737 3152.94 255.128 3152.82 257.009 3154.36C258.882 3155.9 259.374 3158.27 259.823 3160.53C260.004 3161.45 261.213 3161.12 261.264 3160.3C262.671 3158.32 264.881 3156.34 267.341 3156.2C271.449 3155.98 272.7 3160.11 271.078 3163.28C270.896 3163.63 271.043 3164.01 271.311 3164.22C271.319 3164.62 271.57 3165 272.088 3164.98C275.169 3164.84 280.019 3167.43 277.542 3171.22Z" fill="#F18E85" fill-opacity="0.8"/>
<path d="M318.014 2960.29C319.481 2957.86 318.291 2954.53 315.571 2953.51C312.989 2952.55 309.992 2954.18 308.552 2956.5C307.389 2951.83 303.541 2949.51 298.669 2951.56C295.678 2952.81 293.332 2956.69 295.056 2959.53C292.924 2958.96 290.259 2960.29 289.512 2962.43C289.069 2963.7 289.484 2964.96 290.529 2965.76C291.816 2966.75 293.581 2966.68 295.09 2966.39C292.675 2969.64 295.962 2973.71 299.312 2974.79C303.161 2976.05 307.009 2974.21 308.857 2970.83C309.584 2972.04 311.314 2972.76 312.643 2972.5C314.608 2972.11 315.896 2970.36 316.034 2968.46C318.464 2970.06 322.187 2969.67 323.392 2966.64C324.845 2962.98 321.239 2960.38 318.014 2960.29ZM321.848 2966.63C320.374 2968.88 317.882 2968.18 315.937 2967.12C315.91 2966.99 315.882 2966.87 315.84 2966.75C315.598 2965.99 314.581 2966.32 314.692 2967.07C314.941 2968.76 314.498 2970.67 312.664 2971.23C311.023 2971.72 310.068 2970.72 309.473 2969.43C309.494 2969.37 309.521 2969.32 309.535 2969.25C309.77 2968.53 308.67 2968.24 308.414 2968.94C307.265 2972.1 304.531 2974.26 301.119 2973.91C297.734 2973.57 293.664 2970.06 296.101 2966.43C296.343 2966.07 295.858 2965.66 295.533 2965.87C295.547 2965.57 295.353 2965.23 294.986 2965.25C294.066 2965.3 293.104 2965.48 292.197 2965.22C290.944 2964.85 290.162 2963.75 290.889 2962.45C291.893 2960.65 294.453 2960.07 296.177 2961.03C296.426 2961.17 296.675 2961 296.724 2960.77C296.876 2960.63 296.952 2960.41 296.821 2960.24C294.426 2957.03 296.613 2953.39 300.157 2952.45C301.956 2951.97 303.873 2951.88 305.382 2953.11C306.884 2954.35 307.279 2956.25 307.639 2958.06C307.784 2958.79 308.753 2958.53 308.795 2957.87C309.923 2956.28 311.695 2954.7 313.667 2954.59C316.962 2954.41 317.965 2957.72 316.664 2960.26C316.519 2960.54 316.636 2960.85 316.851 2961.02C316.858 2961.34 317.059 2961.64 317.474 2961.63C319.945 2961.52 323.835 2963.59 321.848 2966.63Z" fill="#BAD266" fill-opacity="0.8"/>
<path d="M284.273 2783.29C281.81 2783.26 280.059 2784.82 278.981 2786.82C278.148 2782.32 272.646 2779.93 268.918 2783.35C263.448 2788.36 270.887 2794.37 274.813 2797.34C274.816 2797.78 275.146 2798.2 275.687 2798.03C280.577 2796.54 290.268 2794.55 289.157 2787.44C288.768 2784.99 286.743 2783.32 284.273 2783.29ZM287.158 2790.64C286.639 2791.59 285.753 2792.34 284.883 2792.94C282.13 2794.85 278.522 2795.55 275.363 2796.56C275.355 2796.56 275.355 2796.56 275.348 2796.56C273.042 2793.95 267.772 2790.58 268.523 2786.82C269.014 2784.37 271.389 2782.76 273.857 2783.15C276.324 2783.53 277.626 2785.57 277.867 2787.91C277.911 2788.33 278.371 2788.45 278.719 2788.33C278.916 2788.42 279.171 2788.41 279.303 2788.19C279.903 2787.12 280.809 2785.93 281.861 2785.28C283.198 2784.43 285.796 2784.51 286.917 2785.71C288.024 2786.89 287.886 2789.3 287.158 2790.64Z" fill="#F18E85" fill-opacity="0.8"/>
<path d="M240.232 2940.87C239.511 2940.71 238.747 2940.74 238.015 2940.7C237.307 2940.67 236.605 2940.62 235.897 2940.62C236.207 2939.01 235.909 2937.44 235.164 2936.15C235.773 2935.84 236.369 2935.49 236.965 2935.14C237.772 2934.67 238.636 2934.24 239.362 2933.65C239.84 2933.25 239.232 2932.62 238.747 2932.84C237.828 2933.27 236.99 2933.95 236.152 2934.51C235.667 2934.83 235.195 2935.16 234.736 2935.5C233.711 2934.15 232.128 2933.22 230.233 2933.07C230.705 2931.85 231.084 2930.35 231.146 2929.09C231.177 2928.51 230.37 2928.47 230.19 2928.96C229.935 2929.67 229.848 2930.47 229.724 2931.22C229.631 2931.78 229.532 2932.36 229.501 2932.94C227.675 2932.44 225.818 2932.76 224.259 2933.64C224.098 2933.01 223.85 2932.4 223.62 2931.8C223.384 2931.17 223.204 2930.5 222.775 2929.98C222.533 2929.69 221.943 2929.92 221.993 2930.31C222.08 2930.98 222.434 2931.56 222.732 2932.17C223.03 2932.78 223.316 2933.42 223.694 2933.98C222.291 2934.94 221.198 2936.39 220.689 2938.12C220.037 2937.86 219.335 2937.75 218.652 2937.61C217.782 2937.42 216.913 2937.19 216.025 2937.11C215.398 2937.05 215.311 2938 215.882 2938.18C216.745 2938.43 217.671 2938.54 218.559 2938.69C219.192 2938.8 219.85 2938.94 220.496 2938.95C220.217 2940.6 220.571 2942.1 221.347 2943.34C220.633 2943.72 219.968 2944.21 219.298 2944.65C218.646 2945.08 217.944 2945.49 217.391 2946.05C217.186 2946.25 217.391 2946.65 217.683 2946.55C218.422 2946.3 219.093 2945.85 219.763 2945.45C220.484 2945.03 221.241 2944.63 221.912 2944.13C223.067 2945.48 224.787 2946.41 226.737 2946.71C226.806 2946.72 226.88 2946.72 226.948 2946.73C226.675 2948.12 226.514 2949.53 226.216 2950.92C226.067 2951.61 227.097 2951.9 227.278 2951.21C227.631 2949.83 227.88 2948.24 227.762 2946.79C229.327 2946.83 230.861 2946.45 232.183 2945.69C232.736 2947 233.233 2948.29 233.674 2949.64C233.879 2950.29 234.854 2950.02 234.692 2949.36C234.345 2947.95 233.686 2946.48 232.848 2945.27C234.146 2944.35 235.164 2943.05 235.686 2941.43C237.052 2941.75 238.735 2942.04 240.095 2941.88C240.629 2941.83 240.853 2941.01 240.232 2940.87ZM233.152 2943.5C231.351 2945.45 228.451 2946.07 225.942 2945.34C222.372 2944.31 220.533 2940.68 222.297 2937.26C223.756 2934.42 226.576 2933.55 229.488 2933.68C229.526 2933.94 229.699 2934.18 230.029 2934.2C231.78 2934.32 233.059 2935.12 233.854 2936.26C233.792 2936.41 233.916 2936.56 234.071 2936.6C235.245 2938.62 235.003 2941.5 233.152 2943.5Z" fill="#FACA4E" fill-opacity="0.8"/>
<path d="M30.2809 2605.76C29.9793 2605.52 29.4959 2605.55 29.1827 2605.82C28.7139 2606.23 28.9036 2606.97 29.3252 2607.33C29.7944 2607.73 30.5497 2607.72 30.8776 2607.15C31.1824 2606.61 30.8876 2605.9 30.2809 2605.76ZM29.6364 2606.95C29.4515 2606.78 29.3134 2606.47 29.4605 2606.24C29.5748 2606.06 29.8153 2606 30.0209 2606.04C30.0335 2606.08 30.0564 2606.12 30.0981 2606.15C30.3539 2606.31 30.6316 2606.57 30.4395 2606.9C30.2696 2607.2 29.8678 2607.15 29.6364 2606.95Z" fill="#FACA4E" fill-opacity="0.8"/>
<path d="M41.3014 2608.18C41.3864 2608.15 41.455 2608.07 41.474 2607.96C41.674 2606.68 41.7682 2605.22 41.0048 2604.11C40.4906 2603.36 39.61 2602.9 38.738 2603.09C39.599 2600.19 38.2673 2597 35.2707 2596.02C31.8173 2594.89 29.926 2597.99 29.8091 2601.1C28.7173 2600.54 27.3829 2600.8 26.4583 2601.65C25.3454 2602.67 25.0493 2604.36 25.3884 2605.77C25.3126 2605.85 25.313 2606 25.4415 2606.05C25.4585 2606.05 25.4806 2606.06 25.4997 2606.07C25.557 2606.12 25.6314 2606.14 25.7026 2606.13C26.1938 2606.28 26.721 2606.42 27.2276 2606.48C27.3448 2607.36 27.8887 2608.22 28.5965 2608.67C29.7319 2609.39 31.3552 2609.07 32.1531 2607.98C32.2568 2607.83 32.3426 2607.68 32.4101 2607.52C32.7965 2607.62 33.1886 2607.68 33.584 2607.74C33.9693 2607.8 34.3844 2607.88 34.7782 2607.83C34.8315 2608.85 35.4389 2609.8 36.3949 2610.24C37.6131 2610.8 39.1461 2610.28 39.726 2609.03C39.837 2608.8 39.8954 2608.56 39.9224 2608.33C40.0841 2608.34 40.2438 2608.35 40.4052 2608.37C40.6099 2608.4 40.8223 2608.49 41.028 2608.48C41.2155 2608.47 41.3183 2608.33 41.3014 2608.18ZM29.1484 2608.29C28.2032 2607.86 27.5236 2606.63 27.8748 2605.59C28.2651 2604.44 29.8266 2604.25 30.8481 2604.62C30.8327 2604.71 30.8597 2604.8 30.9735 2604.87C33.1712 2606.11 31.3802 2609.29 29.1484 2608.29ZM36.8288 2609.75C34.3669 2608.89 35.4081 2605.11 37.9099 2605.8C37.9208 2605.85 37.9441 2605.89 37.9859 2605.92C38.7592 2606.5 39.5989 2607.43 39.2773 2608.51C38.9742 2609.52 37.8124 2610.1 36.8288 2609.75ZM40.4454 2607.88C40.2736 2607.87 40.1043 2607.88 39.9309 2607.89C39.8543 2606.88 39.1224 2605.97 38.194 2605.52C38.174 2605.51 38.1579 2605.5 38.1387 2605.5C37.0514 2604.8 35.5694 2605.39 35.0219 2606.55C34.9055 2606.8 34.8303 2607.06 34.7967 2607.32C34.4444 2607.24 34.0677 2607.25 33.7081 2607.22C33.3171 2607.19 32.9306 2607.14 32.5408 2607.1C32.7728 2606.05 32.2919 2604.89 31.3083 2604.38C31.2593 2604.36 31.2079 2604.35 31.1612 2604.35C30.2436 2603.5 28.3758 2603.84 27.6295 2604.81C27.367 2605.16 27.2348 2605.56 27.2117 2605.97C26.7832 2605.86 26.3253 2605.79 25.882 2605.75C25.8213 2604.66 25.8346 2603.53 26.4708 2602.59C27.2203 2601.49 28.6608 2601.07 29.843 2601.7C30.0309 2601.8 30.2195 2601.66 30.2386 2601.5C30.2398 2601.49 30.244 2601.48 30.2461 2601.48C30.4696 2600.28 30.6954 2598.99 31.3707 2597.94C32.4559 2596.27 34.3642 2596.09 36.002 2597.09C38.1275 2598.38 38.8352 2600.88 38.032 2603.19C37.922 2603.51 38.2867 2603.7 38.5097 2603.57C41.0349 2603.24 41.0881 2606.13 40.8741 2607.9C40.7268 2607.88 40.5749 2607.88 40.4454 2607.88Z" fill="#FACA4E" fill-opacity="0.8"/>
<path d="M38.1925 2607.27C37.8556 2606.92 37.3064 2606.8 36.9094 2607.08C36.4329 2607.42 36.3964 2608.17 36.853 2608.61C37.2775 2609.03 38.0172 2609.08 38.3871 2608.67C38.743 2608.28 38.6413 2607.61 38.1925 2607.27ZM37.9752 2608.35C37.7705 2608.51 37.3861 2608.46 37.1908 2608.25C36.9943 2608.03 37.0163 2607.66 37.2134 2607.49C37.3598 2607.36 37.5843 2607.33 37.7921 2607.37C37.8006 2607.42 37.8226 2607.47 37.8661 2607.51C38.1144 2607.72 38.2378 2608.13 37.9752 2608.35Z" fill="#FACA4E" fill-opacity="0.8"/>
<path d="M34.192 2601.57C34.2948 2600.25 34.2895 2598.85 34.2559 2597.51C34.2559 2597.48 34.2424 2597.46 34.2299 2597.44C34.279 2597.38 34.2677 2597.29 34.2073 2597.24C32.8796 2596.21 31.6943 2598.41 31.4357 2599.35C31.2891 2599.88 30.8742 2600.92 31.2464 2601.44C31.63 2601.97 33.079 2601.93 33.6278 2602.02C33.808 2602.04 33.9029 2601.93 33.9135 2601.79C34.0427 2601.79 34.1813 2601.72 34.192 2601.57ZM31.9688 2601.06C31.6597 2600.82 31.7327 2600.79 31.7988 2600.42C31.8607 2600.07 31.9248 2599.72 32.0263 2599.38C32.3392 2598.34 32.887 2597.63 33.9851 2597.49C33.6854 2598.74 33.5575 2600.16 33.6838 2601.46C33.6754 2601.46 33.6744 2601.46 33.6661 2601.45C33.1423 2601.36 32.3902 2601.39 31.9688 2601.06Z" fill="#FACA4E" fill-opacity="0.8"/>
<path d="M37.6417 2602.27C37.8266 2600.35 37.2017 2597.81 35.0422 2597.29C34.981 2597.27 34.9315 2597.29 34.8942 2597.32C34.8317 2597.32 34.7737 2597.37 34.7664 2597.44C34.6253 2598.85 34.6749 2600.36 34.8225 2601.76C34.844 2601.97 35.0777 2602.01 35.2183 2601.93C35.8649 2602.16 36.535 2602.33 37.202 2602.5C37.2602 2602.51 37.3094 2602.51 37.3546 2602.49C37.4875 2602.51 37.6257 2602.44 37.6417 2602.27ZM35.0855 2597.67C36.7936 2598.52 37.1413 2600.16 37.1282 2601.9C36.5345 2601.75 35.9367 2601.62 35.3319 2601.53C35.3583 2600.26 35.2897 2598.91 35.0855 2597.67Z" fill="#FACA4E" fill-opacity="0.8"/>
<path d="M129.903 1174.35C130.184 1173.99 129.809 1173.38 129.362 1173.42C127.064 1173.62 124.729 1173.75 122.452 1174.1C122.452 1174 122.437 1173.9 122.372 1173.8C121.039 1171.54 119.432 1169.49 117.573 1167.63C117.285 1167.34 116.672 1167.45 116.586 1167.89C116.168 1170.14 115.692 1172.44 115.512 1174.73C113.22 1174.76 110.914 1175.12 108.623 1175.26C108.075 1175.3 107.794 1175.91 108.176 1176.32C109.711 1177.95 111.858 1179.85 114.1 1180.39C114.136 1180.4 114.164 1180.4 114.2 1180.4C113.602 1182.64 113.66 1185.13 113.682 1187.41C113.689 1187.95 114.33 1188.18 114.719 1187.84C116.636 1186.14 118.337 1184.26 119.857 1182.21C121.904 1183.91 124.289 1185.22 126.667 1186.4C127.136 1186.64 127.777 1186.25 127.604 1185.69C126.963 1183.66 126.545 1181.62 126.055 1179.56C126.04 1179.49 126.004 1179.43 125.968 1179.38C126.012 1179.34 126.062 1179.31 126.098 1179.26C127.366 1177.63 128.642 1175.99 129.903 1174.35ZM120.189 1181.35C120.052 1181.27 119.908 1181.28 119.785 1181.35C119.519 1181.18 119.13 1181.17 118.892 1181.49C117.695 1183.11 116.362 1184.6 114.914 1186C114.979 1184.02 115.173 1182.03 115.051 1180.07C115.036 1179.85 114.878 1179.73 114.705 1179.71C114.669 1179.61 114.604 1179.52 114.503 1179.44C113.624 1178.82 112.608 1178.4 111.721 1177.77C111.131 1177.36 110.59 1176.89 110.064 1176.4C111.988 1176.28 113.97 1176.11 115.8 1175.6C115.966 1175.56 116.06 1175.44 116.096 1175.31C116.139 1175.27 116.175 1175.22 116.189 1175.17C116.78 1173.26 117.148 1171.26 117.515 1169.29C118.964 1170.86 120.239 1172.55 121.327 1174.39C121.421 1174.56 121.558 1174.63 121.702 1174.66C121.738 1174.89 121.911 1175.11 122.178 1175.11C124.116 1175.12 126.062 1174.94 128 1174.77C127.006 1176.06 126.012 1177.35 125.017 1178.64C124.83 1178.89 124.873 1179.12 125.024 1179.28C124.902 1179.38 124.83 1179.53 124.851 1179.72C125.046 1181.37 125.449 1183.01 125.932 1184.61C123.987 1183.59 122.113 1182.43 120.189 1181.35Z" fill="#FACA4E" fill-opacity="0.8"/>
<path d="M26.6552 998.668C26.8267 998.447 26.598 998.073 26.3253 998.099C24.9221 998.221 23.497 998.299 22.1071 998.516C22.1071 998.455 22.0983 998.395 22.0587 998.329C21.2449 996.954 20.2641 995.699 19.1292 994.567C18.9533 994.389 18.5794 994.454 18.5266 994.723C18.2715 996.099 17.9812 997.505 17.8713 998.902C16.4725 998.915 15.065 999.141 13.6663 999.224C13.332 999.245 13.1604 999.623 13.3935 999.87C14.3304 1000.86 15.6412 1002.02 17.0091 1002.36C17.0311 1002.36 17.0487 1002.36 17.0707 1002.36C16.7056 1003.73 16.7408 1005.25 16.754 1006.64C16.7584 1006.97 17.1499 1007.11 17.3874 1006.9C18.5574 1005.86 19.5955 1004.71 20.5236 1003.46C21.7728 1004.5 23.2287 1005.3 24.6802 1006.02C24.9661 1006.17 25.3576 1005.93 25.252 1005.59C24.8605 1004.35 24.6054 1003.11 24.3063 1001.85C24.2975 1001.81 24.2755 1001.77 24.2535 1001.74C24.2799 1001.71 24.3107 1001.7 24.3327 1001.67C25.1069 1000.67 25.8854 999.671 26.6552 998.668ZM20.7259 1002.94C20.6423 1002.89 20.5544 1002.9 20.4796 1002.94C20.3169 1002.84 20.0793 1002.83 19.9342 1003.03C19.204 1004.02 18.3903 1004.93 17.5062 1005.78C17.5458 1004.57 17.6645 1003.36 17.5898 1002.16C17.581 1002.03 17.4842 1001.95 17.3786 1001.94C17.3566 1001.88 17.317 1001.82 17.2555 1001.78C16.7188 1001.39 16.0987 1001.14 15.5576 1000.76C15.197 1000.5 14.8671 1000.22 14.546 999.922C15.7204 999.844 16.93 999.74 18.0472 999.432C18.1484 999.406 18.2056 999.332 18.2275 999.254C18.2539 999.232 18.2759 999.202 18.2847 999.167C18.6454 998.004 18.8697 996.784 19.0941 995.578C19.9782 996.537 20.7567 997.57 21.4209 998.694C21.4781 998.794 21.5616 998.842 21.6496 998.859C21.6716 998.998 21.7772 999.132 21.9399 999.132C23.1231 999.137 24.3107 999.028 25.4939 998.924C24.8869 999.714 24.2799 1000.5 23.6729 1001.29C23.5586 1001.44 23.585 1001.58 23.6773 1001.68C23.6026 1001.74 23.5586 1001.83 23.5718 1001.94C23.6905 1002.95 23.9369 1003.95 24.2316 1004.93C23.0439 1004.31 21.9003 1003.6 20.7259 1002.94Z" fill="#F18E85" fill-opacity="0.8"/>
<path d="M307.674 730.695C305.941 724.737 299.2 725.482 295.784 729.149C294.928 723.808 287.988 721.261 284.194 726.241C278.146 734.185 286.341 740.222 292.846 743.719C292.86 744.138 293.202 744.549 293.744 744.407C298.944 743.066 309.678 737.59 307.674 730.695ZM304.093 736.682C301.24 739.747 297.532 741.634 293.602 742.91C293.566 742.875 293.545 742.832 293.495 742.797C290.314 740.484 284.772 737.86 283.681 733.817C282.889 730.88 284.501 727.113 287.026 725.616C290.87 723.332 295.228 726.759 294.472 731.057C294.343 731.767 295.321 732.299 295.713 731.582C297.054 729.121 299.735 726.929 302.781 727.752C307.417 729.007 306.64 733.951 304.093 736.682Z" fill="#FACA4E" fill-opacity="0.8"/>
<path d="M320.708 48.3435C318.717 47.673 320.017 45.0286 320.062 43.6408C320.086 42.881 319.983 42.1217 319.607 41.4485C318.993 40.3499 317.913 39.8118 316.721 39.8244C317.746 38.9886 318.474 37.7687 318.851 36.5116C319.906 36.2675 320.912 35.3545 321.314 34.4667C321.844 33.2909 321.54 31.7812 320.514 31.1255C320.534 31.1019 320.551 31.0801 320.565 31.047C322.004 27.3748 322.75 22.8477 320.707 19.2061C319.956 17.8711 318.694 16.5933 317.123 16.3715C316.107 16.2272 316.362 16.1304 316.023 15.1324C315.718 14.2402 315.236 13.4008 314.639 12.6719C311.918 9.33811 307.343 8.47534 303.293 8.3526C299.04 8.22208 294.69 9.13389 291.241 11.7091C287.173 14.7474 285.613 19.5507 285.392 24.5172C284.462 24.9542 283.757 25.8319 283.698 26.936C283.638 28.0743 284.31 29.2111 285.31 29.6809C285.258 30.3607 285.316 31.0407 285.464 31.7039C285.454 31.6929 285.444 31.682 285.426 31.6714C283.879 30.7776 282.143 31.432 281.146 32.8191C279.529 35.0738 280.543 38.1493 278.232 40.0253C278.062 40.1624 278.112 40.5178 278.369 40.5281C281.128 40.6189 285.81 39.4462 286.801 36.4036C287.328 37.9804 288.127 39.4466 289.155 40.5717C291.786 43.456 296.374 44.9031 300.084 45.5454C303.827 46.1945 308.212 46.3048 311.558 44.2961C312.296 43.8541 312.967 43.3288 313.581 42.7474C312.238 46.8332 316.914 49.557 320.632 48.8862C320.893 48.8443 320.989 48.4406 320.708 48.3435ZM314.323 41.9868C314.512 41.7725 314.693 41.5586 314.868 41.3319C314.977 41.4752 315.079 41.622 315.164 41.7874C315.287 42.0309 315.421 42.1812 315.216 42.3832C314.936 42.6565 314.592 42.2907 314.323 41.9868ZM315.237 40.842C315.294 40.76 315.353 40.6811 315.41 40.5991C315.413 40.5974 315.42 40.602 315.423 40.6002C315.623 40.522 315.813 40.4279 315.999 40.3243C316.009 40.3937 316.043 40.4621 316.121 40.506C316.245 40.5739 316.56 40.7232 316.621 40.8766C316.875 41.5094 316.092 41.2432 315.94 41.1781C315.692 41.0585 315.482 40.926 315.237 40.842ZM315.722 40.1246C316.459 38.958 317.046 37.6921 317.482 36.3853C317.767 36.5261 318.065 36.5803 318.37 36.5724C317.872 38.0718 316.931 39.1608 315.722 40.1246ZM289.226 14.4371C291.406 11.7753 294.58 10.1085 297.907 9.39395C303.862 8.11752 314.726 8.89713 315.78 16.7267C315.803 16.885 315.956 17.0037 316.111 16.9793C319.327 16.5391 320.945 20.3481 321.273 22.9617C321.612 25.6479 320.992 28.3369 320.022 30.8131C320.012 30.8395 320.01 30.8656 320.009 30.8916C319.896 30.859 319.779 30.8281 319.656 30.8138C319.653 30.5865 319.279 30.4705 319.145 30.7247C318.755 31.4804 318.307 32.1978 317.817 32.8845C318.027 31.8374 318.005 30.7579 317.649 29.7151C317.639 29.683 317.62 29.6643 317.595 29.6491C317.606 29.543 317.549 29.4333 317.417 29.4112C316.977 29.3402 316.527 29.3006 316.078 29.2723C316.454 28.012 316.426 26.7231 316.039 25.4638C315.981 25.2713 315.653 25.2671 315.597 25.4612C315.304 26.4126 314.962 27.3791 314.752 28.3595C314.724 28.3461 314.692 28.3344 314.65 28.3329C310.504 28.0891 306.376 27.643 302.276 26.9228C298.247 26.2126 294.343 25.104 290.369 24.1591C290.384 24.1341 290.4 24.1042 290.405 24.0683C290.652 22.7256 290.9 21.378 291.147 20.0353C291.19 19.8028 290.84 19.6403 290.708 19.8473C289.32 22.0697 288.433 24.471 288.036 27.0353C287.799 25.5634 287.824 24.0903 288.112 22.5915C288.164 22.3164 287.778 22.2448 287.666 22.4656C287.369 23.0402 287.148 23.6101 286.99 24.2276C286.975 24.2233 286.964 24.2173 286.946 24.2148C286.573 24.1898 286.208 24.236 285.856 24.3369C286.518 20.8028 286.85 17.333 289.226 14.4371ZM285.563 29.7857C285.798 29.8669 286.045 29.9117 286.302 29.914C286.126 30.7419 286.061 31.6285 286.09 32.529C285.787 31.64 285.625 30.7385 285.563 29.7857ZM285.561 32.1872C285.569 32.1869 285.574 32.1802 285.582 32.1799C285.664 32.4592 285.757 32.7363 285.871 33.0062C285.355 33.0782 284.243 33.1914 284.151 32.7841C284.034 32.2708 285.245 32.2476 285.561 32.1872ZM286.056 33.4111C286.084 33.4538 286.116 33.4817 286.158 33.4913C286.193 33.8262 286.244 34.1604 286.303 34.4943C286.141 34.6554 285.953 34.79 285.731 34.8724C285.5 34.9601 284.889 35.1352 284.924 34.7486C284.948 34.4681 285.229 34.1071 285.392 33.8906C285.513 33.7312 285.651 33.5873 285.793 33.4498C285.894 33.439 285.986 33.4254 286.056 33.4111ZM279.122 39.9734C279.991 39.0498 280.369 37.9633 280.55 36.6201C280.863 34.29 282.033 30.8305 285.055 31.8705C284.405 31.8961 283.576 32.1307 283.605 32.8103C283.633 33.4281 284.467 33.541 285.192 33.5107C285.017 33.6837 284.862 33.8787 284.737 34.0822C284.547 34.3842 284.237 34.8993 284.514 35.2402C284.776 35.5688 285.393 35.478 285.739 35.3807C285.989 35.3117 286.215 35.1933 286.414 35.0404C286.428 35.095 286.442 35.1497 286.455 35.2012C286.445 35.2276 286.435 35.254 286.432 35.2931C286.31 38.504 281.973 39.8588 279.122 39.9734ZM311.632 43.5667C308.486 45.6435 304.306 45.6058 300.692 45.0553C297.143 44.5151 293.074 43.2395 290.259 40.8797C287.008 38.1595 286.586 33.7106 286.722 29.7956C286.729 29.5711 286.467 29.509 286.367 29.6692C285.301 29.228 284.283 28.3884 284.29 27.1256C284.294 25.7314 285.538 24.7271 286.879 24.7814C287.049 24.7906 287.156 24.6642 287.181 24.5332C287.207 24.5191 287.228 24.4987 287.243 24.4656C287.31 24.2987 287.379 24.1349 287.453 23.9726C287.323 25.4794 287.463 26.9683 287.874 28.4719C287.94 28.7064 288.317 28.7621 288.341 28.4735C288.551 25.9511 289.25 23.5805 290.406 21.3792C290.247 22.2519 290.086 23.1214 289.923 23.9958C289.909 24.0663 289.928 24.1224 289.958 24.1682C289.882 24.2689 289.888 24.449 290.033 24.5014C297.748 27.3546 306.43 28.4921 314.579 28.9062C314.608 28.9066 314.634 28.9006 314.659 28.8947C314.682 29.0156 314.867 29.0452 314.925 28.9209C315.285 28.1487 315.54 27.3142 315.787 26.4882C315.926 27.3858 315.859 28.2823 315.62 29.1826C315.601 29.2598 315.629 29.3236 315.675 29.3688C315.653 29.4477 315.688 29.5405 315.798 29.5668C316.31 29.6802 316.84 29.7879 317.363 29.8456C317.381 29.8481 317.39 29.8429 317.406 29.8422C317.565 31.3206 317.486 32.6985 316.91 34.0793C316.793 34.3572 317.167 34.569 317.356 34.3466C318.144 33.4102 318.819 32.407 319.406 31.3328C321.21 31.5659 321.383 33.6904 320.382 34.9006C319.599 35.8514 318.67 36.0041 317.558 36.1011C317.567 35.8001 317.113 35.629 317.008 35.9584C316.034 38.971 314.304 41.8056 311.632 43.5667ZM314.311 42.4601C314.628 42.8286 315.111 43.0797 315.533 42.8687C316.043 42.6166 315.824 41.9889 315.527 41.4797C316.03 41.7235 316.565 41.9871 316.998 41.5156C317.466 41.0037 316.942 40.4554 316.472 40.168C317.91 40.2637 319.175 41.1774 319.443 42.6821C319.65 43.8417 319.231 44.9056 319.089 46.031C318.974 46.9457 319.106 47.8387 319.707 48.4115C316.429 48.5277 312.69 46.1302 314.311 42.4601Z" fill="#F18E85" fill-opacity="0.8"/>
<path d="M286.517 26.4639C286.162 26.5043 285.825 26.6778 285.562 26.9153C285.545 26.9323 285.535 26.949 285.529 26.9715C285.424 26.6206 285.571 26.2303 285.972 25.9725C286.082 25.9035 285.976 25.7485 285.865 25.7881C284.932 26.1147 284.896 27.5357 285.852 27.8424C286.07 27.912 286.18 27.6325 285.99 27.5246C285.794 27.4126 285.658 27.2636 285.577 27.0985C285.61 27.1174 285.649 27.1183 285.689 27.0883C285.943 26.8822 286.227 26.7763 286.548 26.7243C286.715 26.695 286.682 26.4465 286.517 26.4639Z" fill="#F18E85" fill-opacity="0.8"/>
<path d="M320.556 33.5867C320.405 33.4931 320.237 33.4295 320.057 33.3922C320.041 32.9118 319.874 32.4433 319.553 32.0766C319.433 31.9377 319.214 32.1048 319.311 32.2565C319.529 32.5919 319.643 32.9568 319.642 33.3537C319.181 33.3566 318.706 33.5093 318.374 33.8042C318.265 33.9012 318.354 34.1143 318.506 34.0335C318.898 33.8225 319.248 33.736 319.61 33.7559C319.589 33.8645 319.56 33.9737 319.521 34.0803C319.49 34.1625 319.093 34.8538 319.016 34.7311C318.899 34.5456 318.562 34.6935 318.6 34.9069C318.648 35.1677 318.847 35.2787 319.124 35.2084C319.489 35.1177 319.704 34.7669 319.85 34.4545C319.943 34.2529 320.008 34.0388 320.039 33.8271C320.141 33.8553 320.24 33.8884 320.347 33.9259C320.547 34.0081 320.747 33.7064 320.556 33.5867Z" fill="#F18E85" fill-opacity="0.8"/>
<path d="M302.596 33.9174C302.285 33.9376 301.99 33.9728 301.679 33.8999C301.527 33.8633 301.336 33.8077 301.217 33.7004C301.021 33.5219 301.146 33.3025 301.292 33.1437C301.698 32.7018 302.241 32.7341 302.788 32.7725C302.95 32.7835 303.052 32.5807 302.912 32.4727C302.185 31.8987 300.88 32.3932 300.613 33.2477C300.261 34.3768 302.03 34.6354 302.734 34.3995C303.007 34.3036 302.864 33.8975 302.596 33.9174Z" fill="#F18E85" fill-opacity="0.8"/>
<path d="M296.497 30.5155C296.287 29.0624 295.157 27.8484 293.663 27.7189C292.843 27.6473 290.505 28.2734 290.984 29.4768C291.03 29.5946 291.215 29.571 291.227 29.4445C291.363 28.3278 293.37 28.1144 294.14 28.3531C295.166 28.6725 295.807 29.5422 295.982 30.5847C296.043 30.9134 296.544 30.848 296.497 30.5155Z" fill="#F18E85" fill-opacity="0.8"/>
<path d="M313.025 33.9816C312.703 31.2413 308.837 29.9263 307.438 32.6766C307.356 32.8326 307.581 32.9322 307.687 32.8198C309.294 31.1188 312.171 31.416 312.479 34.0577C312.519 34.4079 313.064 34.3318 313.025 33.9816Z" fill="#F18E85" fill-opacity="0.8"/>
<path d="M303.922 39.1074C303.879 38.8323 303.511 38.8616 303.445 39.1161C303.056 40.5874 302.394 42.3179 300.456 42.0866C299.569 41.9803 298.905 41.3805 298.759 40.5079C298.643 39.819 298.933 39.1404 298.81 38.4633C298.798 38.3962 298.713 38.3741 298.667 38.4286C297.334 39.9813 298.487 42.4095 300.369 42.6476C302.268 42.8877 304.21 40.9822 303.922 39.1074Z" fill="#F18E85" fill-opacity="0.8"/>
<path d="M189.714 245.164C187.702 238.246 179.877 239.111 175.911 243.368C174.917 237.167 166.86 234.211 162.455 239.992C155.434 249.215 164.948 256.224 172.499 260.284C172.516 260.769 172.913 261.247 173.543 261.082C179.579 259.526 192.041 253.168 189.714 245.164ZM185.557 252.114C182.245 255.672 177.94 257.862 173.377 259.345C173.336 259.304 173.311 259.254 173.253 259.213C169.56 256.528 163.126 253.481 161.859 248.787C160.94 245.378 162.811 241.005 165.743 239.267C170.206 236.616 175.265 240.593 174.387 245.584C174.238 246.407 175.373 247.025 175.828 246.193C177.385 243.336 180.498 240.791 184.034 241.746C189.416 243.204 188.513 248.944 185.557 252.114Z" fill="#BAD266"/>
<path d="M51.2457 230.985C50.8577 230.017 49.991 229.437 49.0608 229.342C48.589 227.314 47.8666 225.404 46.8738 223.589C47.0761 223.649 47.2854 223.689 47.5284 223.718C47.7373 223.743 47.9 223.586 47.849 223.368C47.0307 219.92 44.0295 217.446 40.5751 217.262C41.0098 216.783 41.4723 216.357 42.0036 215.952C42.1707 215.826 42.1627 215.508 41.9193 215.468C40.0182 215.163 38.1727 215.705 36.8754 217.11C36.6835 215.815 36.0164 214.743 34.9125 213.92C34.7427 213.794 34.4863 213.839 34.4354 214.07C34.3062 214.649 34.2549 215.168 34.2689 215.719C30.6313 213.385 26.3108 214.737 22.5182 216.148C22.3381 216.214 22.2302 216.439 22.352 216.612L22.8435 217.328C16.8262 218.367 11.8265 222.945 10.2672 228.95C10.2015 229.197 10.5184 229.45 10.73 229.284C10.99 229.082 11.2461 228.876 11.506 228.674C10.1898 233.515 11.1782 238.742 14.2034 242.756C13.9429 243.388 13.928 244.143 14.233 244.822C14.7308 245.936 15.9493 246.649 17.0814 246.494C17.8058 248.929 20.022 250.756 22.3438 251.525C22.4316 251.553 22.4991 251.529 22.5434 251.481C23.4891 252.19 24.5114 252.781 25.549 253.23C29.3892 254.892 33.7366 254.751 37.6822 253.551C41.6654 252.338 45.4829 250.266 47.5258 246.457C47.6739 246.177 47.8144 245.894 47.9435 245.607C50.8948 242.68 51.1286 238.161 50.4566 234.21C50.4475 234.149 50.42 234.111 50.3889 234.077C51.2918 233.399 51.7187 232.165 51.2457 230.985ZM12.3727 227.908C12.4573 227.66 12.1142 227.42 11.9137 227.578C11.6537 227.78 11.3939 227.986 11.1377 228.188C12.9272 222.748 17.7308 218.647 23.3874 217.871C23.6025 217.842 23.782 217.604 23.6366 217.393C23.4557 217.129 23.2748 216.865 23.0939 216.601C26.7331 215.263 30.9828 213.959 34.4065 216.513C34.5878 216.647 34.919 216.566 34.8893 216.29C34.8336 215.736 34.843 215.21 34.9203 214.675C35.7763 215.432 36.3156 216.388 36.5412 217.521C36.4905 217.611 36.5155 217.702 36.5775 217.758C36.5908 217.834 36.6041 217.911 36.6136 217.987C36.6378 218.194 36.9369 218.19 36.939 217.975C36.94 217.864 36.9371 217.753 36.9344 217.645C38.1314 216.465 39.5657 215.834 41.2038 215.923C40.7034 216.35 40.2494 216.814 39.8196 217.334C39.6763 217.507 39.7893 217.784 40.0202 217.778C43.3544 217.705 46.2925 219.927 47.2257 223.127C46.9211 223.062 46.6303 222.943 46.3605 222.758C46.1146 222.619 45.8649 222.924 46.0032 223.155C47.147 225.104 47.9714 227.149 48.5003 229.341C48.0811 229.386 47.6646 229.534 47.2887 229.793C46.8081 227.865 45.54 226.54 43.6774 225.809C40.9273 224.729 38.5195 224.154 37.3165 221.063C37.2315 220.847 36.8846 220.756 36.7774 221.012C33.958 227.797 26.3847 225.413 21.0532 228.109C16.2563 230.535 15.022 236.513 16.1838 241.41C15.4867 241.397 14.9229 241.714 14.5449 242.188C11.5513 238.073 10.7311 232.761 12.3727 227.908ZM17.3716 246.441C17.6988 246.352 18.0127 246.187 18.2939 245.927C18.3088 245.915 18.3159 245.899 18.3231 245.884C18.9235 247.759 20.124 249.403 21.6116 250.727C19.7104 249.82 18.4226 248.312 17.3716 246.441ZM49.9156 234.381C50.5316 237.915 50.3293 241.432 48.446 244.371C49.5525 241.264 49.6701 237.838 49.039 234.602C49.0427 234.602 49.0466 234.606 49.0541 234.602C49.3638 234.571 49.6533 234.487 49.9189 234.362C49.9192 234.373 49.9155 234.377 49.9156 234.381ZM48.9915 234.224C48.9802 234.228 48.9765 234.232 48.9653 234.236C48.9566 234.19 48.9477 234.141 48.9352 234.095C48.8498 233.714 48.2789 233.897 48.3642 234.275C49.2297 238.24 48.9151 242.561 46.9808 246.172C45.0137 249.833 41.3222 251.798 37.5008 252.969C29.7905 255.338 21.6984 252.803 18.359 245.058C18.2945 244.907 18.0803 244.97 18.1185 245.134C18.1653 245.336 18.2195 245.53 18.2775 245.728C18.2349 245.69 18.1702 245.677 18.1142 245.709C17.0176 246.369 15.5177 246.055 14.8414 244.922C14.4697 244.298 14.4248 243.575 14.6485 242.986C14.7986 242.933 14.9046 242.784 14.8324 242.625C15.1424 242.157 15.6684 241.845 16.3773 241.873C16.6009 241.883 16.6362 241.632 16.5154 241.497C16.5449 241.466 16.5627 241.42 16.5537 241.366C16.1006 238.28 16.0685 235.075 17.6029 232.268C19.2638 229.224 22.1243 227.94 25.3906 227.428C29.943 226.71 34.7481 226.4 37.0187 221.865C37.7866 223.474 39.0143 224.701 40.6945 225.406C43.3852 226.534 46.1123 226.859 46.7867 230.304C46.8392 230.583 47.1567 230.559 47.296 230.379C47.3337 230.375 47.3713 230.362 47.4084 230.334C47.8031 230.068 48.2461 229.918 48.6886 229.896C48.7695 229.951 48.8754 229.944 48.965 229.896C49.7464 229.945 50.4697 230.395 50.7874 231.276C51.2922 232.667 50.3092 233.922 48.9915 234.224Z" fill="#BAD266" fill-opacity="0.8"/>
<path d="M17.7091 243.363C17.1246 243.068 16.2674 243.161 15.7648 243.587C15.7474 243.371 15.8011 243.135 15.942 242.886C16.0524 242.69 15.7777 242.525 15.6142 242.671C15.1822 243.054 15.1785 243.691 15.4293 244.165C15.7344 244.742 16.375 245.05 17.0372 245.115C17.2367 245.136 17.3099 244.881 17.1095 244.826C16.5204 244.666 16.0227 244.34 15.8363 243.894C16.408 243.53 16.9272 243.446 17.5857 243.675C17.7742 243.733 17.8784 243.448 17.7091 243.363Z" fill="#BAD266" fill-opacity="0.8"/>
<path d="M49.9846 231.286C49.8882 231.278 49.7887 231.294 49.693 231.314C49.391 230.932 48.8711 230.713 48.282 230.826C48.1089 230.859 48.1568 231.146 48.3339 231.124C48.7507 231.071 49.0984 231.213 49.3119 231.461C48.9581 231.663 48.667 232.004 48.583 232.337C48.5425 232.492 48.77 232.564 48.8518 232.432C48.9904 232.207 49.1221 232.003 49.3513 231.846C49.3986 231.817 49.4424 231.791 49.4899 231.769C49.5582 231.982 49.557 232.224 49.4597 232.476C49.3693 232.703 49.7912 232.854 49.8816 232.624C50.0208 232.276 50.0084 231.932 49.8899 231.636C49.9413 231.621 49.9928 231.609 50.0479 231.593C50.2316 231.543 50.1662 231.299 49.9846 231.286Z" fill="#BAD266" fill-opacity="0.8"/>
<path d="M34.8157 238.865C33.9097 237.921 31.8153 238.358 31.8799 239.782C31.8888 239.974 32.1737 239.989 32.2303 239.815C32.532 238.889 33.7417 238.347 34.4484 239.288C35.1173 240.182 34.2783 241.076 33.2765 241.161C32.871 241.198 32.8963 241.713 33.2953 241.74C34.9196 241.842 35.8761 239.971 34.8157 238.865Z" fill="#BAD266" fill-opacity="0.8"/>
<path d="M41.5875 243.478C42.518 249.656 34.0311 252.196 30.3596 247.792C30.2318 247.636 29.9092 247.729 30.004 247.96C31.1051 250.64 35.6013 251.097 37.9835 250.283C40.8069 249.319 42.6646 246.435 42.2178 243.462C42.1573 243.06 41.527 243.076 41.5875 243.478Z" fill="#BAD266" fill-opacity="0.8"/>
<path d="M20.804 242.508C20.9484 242.729 21.3414 242.568 21.2383 242.304C19.9581 238.947 25.7985 237.426 26.8018 240.81C26.9155 241.19 27.4892 241.009 27.3909 240.629C26.1768 236.08 18.5031 239.034 20.804 242.508Z" fill="#BAD266" fill-opacity="0.8"/>
<path d="M40.6611 232.47C39.7209 232.918 39.0255 233.718 38.6758 234.659C38.4879 235.156 38.113 236.192 38.8344 236.418C38.9494 236.452 39.0797 236.321 39.0298 236.213C38.4756 234.983 40.2283 233.232 41.2653 232.879C42.9651 232.299 44.5196 233.281 44.8282 234.905C44.8914 235.226 45.4553 235.133 45.4234 234.807C45.1981 232.588 42.6854 231.505 40.6611 232.47Z" fill="#BAD266" fill-opacity="0.8"/>
<path d="M23.8095 558.422C27.7359 553.56 27.2134 546.243 21.7513 542.553C15.9568 538.636 8.99066 542.772 5.48385 547.822C2.07995 537.886 -17.726 546.344 -11.8048 555.772C-16.119 555.186 -20.5203 558.375 -20.9161 562.855C-21.3674 567.944 -16.6731 570.391 -12.2402 569.75C-12.7785 572.4 -11.5673 575.542 -9.08957 576.73C-6.96015 577.755 -3.88082 577.176 -2.62217 575.151C0.172194 585.478 18.102 580.624 17.2234 572.204C21.5614 575.261 28.1475 573.908 30.3482 568.765C32.3984 563.965 28.9154 558.493 23.8095 558.422ZM28.7096 568.765C26.0973 573.447 20.5006 573.017 16.7959 569.992C16.0993 569.429 15.181 570.297 15.7985 570.977C15.8064 570.985 15.8143 570.993 15.8222 571C16.1626 575.534 11.7217 578.927 7.50246 579.506C3.21988 580.092 -0.24736 577.692 -1.51393 573.666C-1.76724 572.853 -2.82006 573.134 -2.85964 573.869C-2.90714 573.901 -2.95465 573.932 -2.99422 573.987C-4.28454 575.785 -6.72268 576.535 -8.72544 575.331C-10.9261 574.01 -10.9894 571.563 -10.6015 569.366C-10.4511 569.312 -10.2928 569.273 -10.1424 569.218C-9.54871 568.983 -9.54079 567.889 -10.3086 567.991C-10.467 568.014 -10.6332 568.03 -10.7915 568.045C-11.0448 567.873 -11.3852 567.866 -11.6148 568.131C-15.3037 568.46 -19.7208 568.092 -19.4675 563.206C-19.2379 558.805 -14.8604 556.702 -10.8865 557.031C-10.8549 557.062 -10.8311 557.101 -10.7994 557.132C-10.5461 557.414 -10.1741 557.296 -9.99201 557.046C-9.67537 556.89 -9.63577 556.413 -10.0553 556.249C-10.0712 556.241 -10.0791 556.241 -10.0949 556.233C-14.995 547.173 0.670912 539.973 4.55769 549.753C4.88225 550.566 5.99049 550.245 5.86383 549.393C5.85592 549.331 5.84009 549.276 5.82426 549.221C8.92735 545.25 14.7773 540.552 20.081 543.374C25.646 546.329 25.9627 553.396 22.3371 557.945C22.1551 558.18 22.1392 558.438 22.2184 558.664C21.9651 558.922 22.1234 559.493 22.5667 559.485C27.4905 559.399 31.2585 564.199 28.7096 568.765Z" fill="#FACA4E" fill-opacity="0.8"/>
<path d="M399.1 442.684C399.69 437.756 395.607 434.201 391.007 434.76C391.733 431.859 390.997 428.86 389.038 427.001C393.21 412.604 383.575 398.757 369.752 394.606C357.29 390.857 340.604 396.146 337.902 410.305C337.586 410.207 337.265 410.118 336.944 410.052C331.874 409.118 326.342 412.457 326.33 417.696C323.206 414.162 317.356 412.995 314.206 417.361C310.616 422.341 315.838 427.052 320.72 427.532C318.472 430.481 320.335 435.236 323.2 437.202C326.142 439.215 331.339 439.704 334.179 437.238C335.026 441.724 340.235 444.566 344.662 443.152C348.728 441.85 350.614 436.654 347.766 433.739C349.574 433.783 351.404 433.553 352.788 432.303C354.624 430.665 354.812 427.967 354.1 425.739C353.607 424.201 352.601 422.768 351.333 421.694C356.087 412.515 371.78 418.57 369 428.614L368.996 428.623C368.649 428.841 368.306 429.095 367.991 429.406C365.496 431.861 366.66 435.574 368.947 437.735C367.945 438.122 367.047 439.001 366.514 439.834C365.332 441.645 365.201 443.907 366.228 445.824C368.158 449.432 373.118 450.137 375.949 447.304C376.173 450.431 379.869 453.05 382.739 453.244C385.544 453.439 388.432 451.47 388.179 448.792C392.896 450.779 398.475 447.937 399.1 442.684ZM368.697 396.18C381.726 399.827 390.642 412.468 387.343 425.831C386.583 425.465 385.705 425.229 384.741 425.15C384.145 425.105 383.471 425.11 382.757 425.174C383.21 414.24 377.204 403.631 366.144 400.745C356.532 398.238 344.841 403.589 342.616 413.58C341.621 412.351 340.314 411.335 338.893 410.694C343.918 398.438 355.845 392.574 368.697 396.18ZM376.453 429.43C376.291 429.308 376.125 429.195 375.959 429.082C378.065 420.367 374.462 411.929 365.561 409.159C357.618 406.685 347.16 410.393 346.923 419.756C345.932 419.686 344.94 419.847 344.01 420.335C344.739 418.549 344.45 416.679 343.564 415.018C347.061 406.07 354.936 399.971 365.102 402.337C375.605 404.778 381.479 414.838 380.87 425.179C380.863 425.286 380.886 425.374 380.91 425.462C378.645 426.024 376.558 427.244 376.453 429.43ZM352.619 425.841C353.361 428.028 353.207 430.543 350.919 431.699C349.43 432.458 347.544 432.232 345.948 432.069C344.974 431.963 344.686 433.477 345.673 433.578C345.744 433.59 345.811 433.589 345.882 433.602C350.087 436.4 346.612 441.667 342.504 441.891C338.716 442.092 335.885 439.119 335.593 435.517C335.577 435.389 335.531 435.279 335.468 435.182C335.445 435.138 335.409 435.098 335.364 435.055C335.35 435.037 335.328 435.015 335.31 435.006C334.883 434.68 334.13 434.779 334.082 435.428C334.079 435.504 334.084 435.584 334.081 435.659C331.625 437.737 327.65 437.617 324.907 436.129C321.265 434.153 321.118 430.798 322.618 427.433C322.79 427.053 322.553 426.631 322.214 426.489C322.128 426.37 322.002 426.288 321.829 426.259C319.453 425.93 316.974 425.495 315.505 423.376C314.163 421.451 314.491 418.964 316.267 417.451C319.924 414.343 324.204 417.123 326.835 420.077C327.237 420.524 327.791 419.877 327.563 419.436C327.512 419.335 327.449 419.238 327.385 419.141C327.769 414.687 330.6 411.236 335.361 411.416C340.985 411.636 343.875 416.248 342.037 421.367C341.934 421.648 342.054 421.926 342.251 422.088C342.353 422.379 342.698 422.601 342.992 422.357C346.508 419.589 351.246 421.807 352.619 425.841ZM350.386 420.984C349.557 420.441 348.65 420.059 347.728 419.868C349.984 411.049 359.067 407.703 367.125 411.4C373.9 414.513 375.879 421.473 374.398 428.274C373.22 427.838 371.944 427.697 370.744 427.945C372.779 417.069 354.362 410.195 350.386 420.984ZM388.567 447.028C388.209 446.878 387.891 446.967 387.667 447.156C387.346 446.748 386.638 447.189 386.787 447.702C387.926 451.491 383.07 452.169 380.695 450.925C378.601 449.827 378.154 448.058 377.14 446.159C377.021 445.925 376.767 445.858 376.542 445.892C376.313 445.474 375.702 445.256 375.251 445.711C373.252 447.711 370.124 448.143 368.203 445.773C367.303 444.667 366.977 443.286 367.343 441.887C367.679 440.595 369.141 438.544 370.693 438.775C371.236 438.86 371.497 438.182 371.111 437.863C371.108 437.686 371.03 437.505 370.859 437.334C369.035 435.54 366.777 432.633 369.368 430.367C371.66 428.354 374.44 429.628 376.693 430.989C376.693 430.989 376.689 430.998 376.698 431.002C376.814 431.356 377.095 431.458 377.356 431.397C377.365 431.401 377.374 431.406 377.383 431.41C377.687 431.601 378.028 431.192 377.877 430.91C377.894 430.852 377.907 430.803 377.915 430.741C378.083 427.097 382.37 426.365 385.287 426.967C389.347 427.8 390.016 431.605 389.271 435.07C389.105 435.827 390.186 436.304 390.636 435.805C394.48 435.487 398.034 438.699 397.374 442.723C396.685 446.942 392.256 448.586 388.567 447.028Z" fill="#F18E85" fill-opacity="0.8"/>
</svg>
