<svg width="1920" height="784" viewBox="0 0 1920 784" fill="none" xmlns="http://www.w3.org/2000/svg">
<path d="M1924 784V25.7649C1707.71 140.201 1302.05 160.378 954.543 72.7124C698.09 -13.3594 242.037 -14.7476 -4 25.7646V784H1924Z" fill="#FACA4E"/>
<path d="M1655.25 561.162C1654.87 560.077 1653.09 560.509 1653.06 561.582C1653 564.038 1652.95 566.127 1651.35 568.18C1649.58 570.438 1646.81 571.48 1643.95 571.259C1638.18 570.804 1634.91 565.617 1634.4 560.364C1634.32 559.495 1633 559.657 1632.91 560.457C1632.07 567.603 1637.68 574.063 1645.12 573.842C1651.28 573.654 1657.42 567.461 1655.25 561.162Z" fill="#F6F6F6" fill-opacity="0.8"/>
<path d="M1646.23 561.547C1645.43 560.455 1643.99 560.148 1642.74 560.053C1641.92 559.989 1641.58 561.349 1642.43 561.551C1643.13 561.72 1644.98 561.982 1644.7 563.104C1644.65 563.304 1644.5 563.407 1644.4 563.586C1644.2 563.916 1644.15 564.33 1644.32 564.682C1644.7 565.427 1645.66 565.377 1646.18 564.838C1647.02 563.971 1646.9 562.465 1646.23 561.547Z" fill="#F6F6F6" fill-opacity="0.8"/>
<path d="M1637.91 553.314C1637.85 554.255 1637.88 555.229 1637.96 556.167C1638.05 557.297 1640.18 557.45 1640.44 556.345C1640.65 555.428 1640.82 554.469 1640.9 553.529C1641.02 551.779 1638.02 551.558 1637.91 553.314Z" fill="#F6F6F6" fill-opacity="0.8"/>
<path d="M1651.7 552.989C1651.48 552.471 1651 552.07 1650.28 552.104C1649.65 552.135 1649.04 552.539 1649.04 553.089C1649.04 553.58 1649.19 554.044 1649.16 554.538C1649.12 555.005 1648.96 555.447 1648.77 555.886C1648.35 556.838 1650.02 557.525 1650.72 556.712C1651.54 555.761 1652.18 554.167 1651.7 552.989Z" fill="#F6F6F6" fill-opacity="0.8"/>
<path d="M1722.85 649.741C1722.87 648.279 1720.74 648.115 1720.58 649.578C1720.04 654.413 1714.7 655.604 1710.62 655.335C1706.38 655.06 1702.6 652.684 1701.54 648.404C1701.32 647.556 1699.85 647.531 1699.9 648.508C1700.54 660.004 1722.66 661.521 1722.85 649.741Z" fill="#F6F6F6" fill-opacity="0.8"/>
<path d="M1713.09 647.099C1712.26 646.926 1711.44 647.649 1710.56 647.527C1710.25 647.483 1709.74 647.301 1709.66 646.976C1709.59 646.702 1709.87 646.349 1710.2 646.384C1710.95 646.46 1711.02 645.564 1710.44 645.296C1709.1 644.676 1707.76 645.858 1707.87 647.102C1708.01 648.633 1709.87 649.344 1711.35 649.191C1712.04 649.122 1713.23 648.889 1713.64 648.33C1714.02 647.834 1713.71 647.23 1713.09 647.099Z" fill="#F6F6F6" fill-opacity="0.8"/>
<path d="M1704.67 640.037C1704.21 638.767 1702.3 638.761 1702.08 640.175C1701.99 640.747 1702.12 641.353 1702.07 641.934C1702.02 642.515 1701.87 643.057 1701.69 643.617C1701.35 644.705 1703.11 645.708 1703.76 644.592C1704.47 643.356 1705.18 641.442 1704.67 640.037Z" fill="#F6F6F6" fill-opacity="0.8"/>
<path d="M1715.92 640.137C1715.86 641.428 1715.81 642.726 1715.78 644.019C1715.75 645.325 1717.34 645.438 1717.49 644.142C1717.65 642.858 1717.79 641.572 1717.91 640.28C1718.06 638.767 1715.99 638.619 1715.92 640.137Z" fill="#F6F6F6" fill-opacity="0.8"/>
<path d="M1817.35 657.758C1818.61 646.959 1818.12 635.21 1813.04 625.396C1809 617.582 1801.71 610.71 1792.81 609.147C1792.35 607.095 1791.84 605.052 1791.3 603.017C1801.5 601.953 1810.65 592.832 1807.07 581.464C1805.06 575.053 1799.38 570.866 1793.01 569.894C1800.68 565.172 1808.31 575.321 1809.89 582.087C1811.73 590.019 1808.16 597.018 1802.74 602.545C1802.06 603.234 1802.95 604.281 1803.73 603.687C1811 598.152 1813.79 587.516 1810.62 579.074C1808.22 572.694 1800.34 564.346 1793.4 568.406C1795.87 565.535 1799.98 564.508 1803.69 565.797C1808.04 567.309 1810.95 571.49 1812.56 575.597C1816.13 584.624 1814.42 595.127 1808.67 602.831C1808.05 603.669 1809.39 604.585 1810.02 603.746C1816.77 594.623 1818.32 581.428 1812.31 571.494C1809.95 567.604 1806.16 564.126 1801.42 563.78C1798.27 563.548 1795.03 564.644 1793.01 566.957C1792.63 562.207 1788.23 558.381 1783.33 558.492C1776.97 558.632 1771.27 563.899 1767.8 568.799C1764.11 573.988 1762.03 580.228 1761.45 586.535C1760.94 592.092 1760.87 599.974 1765.62 603.826C1766.19 604.282 1766.96 603.413 1766.47 602.886C1762.7 598.83 1762.44 592.75 1762.83 587.488C1763.22 582.262 1764.66 577.064 1767.24 572.486C1769.75 568.038 1773.45 563.897 1778.05 561.554C1781.06 560.026 1784.76 559.319 1787.79 561.187C1790.31 562.743 1791.67 565.357 1792.12 568.18C1791.87 568.601 1791.66 569.048 1791.49 569.527C1791.47 569.596 1791.46 569.66 1791.47 569.719C1790.5 569.649 1789.52 569.655 1788.53 569.736C1788.43 569.536 1788.25 569.383 1787.97 569.38C1780.84 569.36 1774.53 574.068 1772.5 580.932C1770.36 588.157 1773.18 595.943 1779.44 600.149C1781.16 601.302 1783.01 602.095 1784.9 602.571C1784.05 605.359 1783.21 608.148 1782.37 610.944C1782.16 610.87 1781.92 610.882 1781.68 611.017C1763.74 621.215 1754.77 643.433 1749.32 662.258C1747.8 661.967 1746.25 662.371 1744.94 663.365C1743.99 664.087 1743.12 665.312 1742.82 666.595C1742.46 666.382 1742 666.337 1741.57 666.616C1734.66 671.194 1725.57 671.7 1718.51 667.133C1718.1 665.261 1717.7 663.388 1717.3 661.511C1718.09 661.287 1718.87 661.033 1719.64 660.737C1726.5 658.081 1729.22 651.559 1727.86 644.545C1727.72 643.786 1727.52 643.035 1727.29 642.287C1733.46 647.563 1746.68 644.789 1747.6 636.02C1747.69 635.189 1746.68 634.438 1745.92 634.893C1738.43 639.353 1738.38 627.096 1732.77 625.524C1727.86 624.142 1722.55 628.893 1721.93 633.658C1719.04 630.975 1715.29 629.355 1711.02 629.727C1710.94 629.733 1710.86 629.751 1710.79 629.775C1707.71 629.115 1704.72 629.89 1702.15 631.49C1701.72 627.615 1699.75 623.6 1695.58 622.768C1693.62 622.376 1691.81 623.013 1690.24 624.152C1687.57 626.079 1684.7 630.29 1681.2 626.874C1680.46 626.142 1679.32 626.529 1679.16 627.553C1678.44 632.123 1681.44 636.973 1685.03 639.659C1687.67 641.632 1691.75 642.639 1694.75 641.07C1692.74 646.894 1693.49 653.384 1698.23 657.82C1700.77 660.197 1703.87 661.572 1707.15 662.128C1706.35 664.084 1705.57 666.041 1704.79 667.998C1704.71 668.01 1704.64 668.028 1704.56 668.057C1691.5 673.428 1680.96 664.673 1672.46 655.65C1673.28 654.679 1673.64 653.382 1673.21 652.034C1672.74 650.585 1671.04 649.059 1669.43 649.077C1669.45 648.95 1669.45 648.822 1669.43 648.674C1667.93 638.25 1665.8 627.929 1663 617.775C1660.6 609.059 1658.18 599.5 1653.01 591.938C1650.51 588.278 1647.22 585.49 1643.56 584.672C1643.69 583.19 1643.8 581.681 1643.28 580.334C1645.78 580.589 1648.33 580.427 1650.77 579.765C1659.08 577.529 1665.22 569.819 1665.95 561.311C1666.02 560.415 1666.03 559.532 1665.98 558.657C1666.24 558.687 1666.51 558.718 1666.77 558.749C1667.5 558.842 1668.23 558.999 1668.96 558.9C1669.83 558.775 1669.93 557.407 1669.08 557.165C1668.37 556.956 1667.63 557.014 1666.9 557.002C1666.54 556.994 1666.17 556.974 1665.81 556.977C1665.64 555.818 1665.38 554.688 1665.01 553.585C1665.46 553.365 1665.88 553.05 1666.3 552.781C1666.52 552.64 1666.75 552.492 1666.97 552.35C1667.36 552.115 1667.55 551.953 1667.75 551.534C1668.08 550.873 1667.33 550.293 1666.74 550.367C1666.13 550.447 1665.62 551.019 1665.16 551.389C1664.91 551.588 1664.66 551.78 1664.41 551.979C1663.96 550.935 1663.44 549.932 1662.83 548.975C1663.27 548.732 1663.7 548.452 1664.08 548.129C1664.66 547.638 1665.46 546.906 1665.47 546.093C1665.47 545.444 1664.84 544.965 1664.23 545.26C1663.62 545.545 1663.3 546.235 1662.83 546.693C1662.52 547.004 1662.17 547.266 1661.81 547.492C1661.2 546.693 1660.55 545.933 1659.84 545.221C1660.11 544.866 1660.39 544.517 1660.66 544.162C1661.12 543.569 1661.57 543.045 1661.7 542.288C1661.8 541.722 1661.05 541.229 1660.57 541.529C1659.93 541.927 1659.6 542.536 1659.22 543.175C1659.04 543.49 1658.85 543.804 1658.66 544.118C1657.82 543.391 1656.93 542.713 1655.99 542.118C1656.16 541.663 1656.38 541.233 1656.65 540.82C1656.99 540.312 1657.53 539.87 1657.53 539.21C1657.53 538.695 1657.15 538.375 1656.64 538.426C1655.88 538.506 1655.44 539.282 1655.11 539.891C1654.87 540.335 1654.67 540.789 1654.52 541.264C1653.71 540.843 1652.89 540.474 1652.04 540.156C1652.13 539.624 1652.19 539.078 1652.26 538.545C1652.34 537.93 1652.44 537.335 1652.28 536.721C1652.09 535.982 1651.1 535.911 1650.81 536.615C1650.56 537.2 1650.58 537.798 1650.57 538.424C1650.56 538.839 1650.55 539.259 1650.55 539.675C1650.42 539.636 1650.29 539.597 1650.15 539.558C1649.71 539.438 1649.32 539.545 1649.03 539.758C1648.12 539.506 1647.21 539.353 1646.28 539.274C1646.27 538.882 1646.26 538.495 1646.25 538.102C1646.23 537.345 1646.26 536.722 1645.64 536.209C1645.41 536.023 1644.94 536.036 1644.74 536.262C1644.19 536.86 1644.29 537.453 1644.37 538.219C1644.41 538.555 1644.44 538.891 1644.48 539.222C1643.28 539.252 1642.07 539.405 1640.88 539.677C1640.9 539.584 1640.9 539.485 1640.89 539.373C1640.81 538.759 1640.7 538.154 1640.6 537.545C1640.5 536.941 1640.5 536.303 1640.04 535.848C1639.58 535.394 1638.85 535.5 1638.6 536.12C1638.35 536.734 1638.59 537.307 1638.75 537.915C1638.9 538.511 1639.04 539.112 1639.22 539.71C1639.26 539.853 1639.33 539.975 1639.41 540.069C1638.39 540.382 1637.4 540.767 1636.44 541.231C1636.04 540.734 1635.73 540.185 1635.52 539.579C1635.29 538.89 1635.28 538.193 1634.65 537.72C1634.29 537.461 1633.82 537.603 1633.56 537.923C1632.98 538.66 1633.39 539.684 1633.74 540.44C1634.01 541.039 1634.37 541.591 1634.79 542.096C1633.85 542.637 1632.96 543.246 1632.12 543.905C1631.76 543.598 1631.43 543.247 1631.14 542.852C1630.74 542.291 1630.56 541.482 1629.85 541.238C1629.45 541.098 1629.03 541.32 1628.88 541.7C1628.54 542.519 1629.32 543.411 1629.83 543.986C1630.15 544.343 1630.51 544.667 1630.88 544.957C1630.37 545.424 1629.88 545.909 1629.44 546.416C1629.08 546.215 1628.74 545.998 1628.43 545.735C1627.99 545.364 1627.65 544.825 1627.14 544.554C1626.52 544.229 1625.71 544.633 1625.86 545.399C1626.01 546.199 1626.73 546.819 1627.38 547.263C1627.68 547.472 1628 547.635 1628.34 547.782C1627.77 548.566 1627.26 549.39 1626.82 550.242C1626.79 550.234 1626.75 550.225 1626.7 550.222C1626.12 550.169 1625.53 550.044 1625 549.778C1624.46 549.505 1624.06 549.096 1623.48 548.908C1622.73 548.673 1622.19 549.395 1622.44 550.074C1622.92 551.384 1624.65 551.894 1626.05 551.936C1623.56 558.165 1624.27 565.653 1627.95 571.282C1631.07 576.07 1636.25 579.175 1641.82 580.129C1641.09 581.423 1641.03 582.928 1640.97 584.434C1638.91 584.514 1636.77 585.244 1634.62 586.792C1631.36 589.133 1628.95 592.459 1626.65 595.682C1623.76 599.734 1621.07 603.93 1618.59 608.252C1613.18 617.7 1608.96 627.631 1605.93 638.08C1603.71 637.511 1601.19 638.986 1600.41 641.101C1599.53 643.484 1601.05 645.91 1603.34 646.718C1605.55 647.497 1608.12 646.552 1608.89 644.249C1609.53 642.364 1608.91 640.172 1607.27 639.112C1607.27 639.112 1607.27 639.106 1607.26 639.106C1607.31 639.04 1607.36 638.961 1607.39 638.87C1611.07 628.297 1615.72 617.958 1621.39 608.301C1624.17 603.573 1627.19 598.951 1630.5 594.577C1632.97 591.309 1636.47 587.2 1640.82 586.769C1640.65 589.086 1640.51 591.405 1640.36 593.723C1640.01 599.32 1639.65 604.918 1639.3 610.51C1638.61 621.379 1637.76 632.253 1637.26 643.13C1634.19 643.834 1632.38 648.55 1631.45 651.005C1629.39 656.48 1628.2 662.381 1626.9 668.068C1625.58 673.889 1624.41 679.744 1623.4 685.629C1621.18 698.675 1619.67 711.89 1619.52 725.132C1615.77 722.98 1608.96 722.304 1608.01 726.694C1607.42 729.419 1610 730.676 1612.29 731.085C1615.19 731.598 1618.05 730.978 1620.49 729.351C1620.51 729.34 1620.52 729.324 1620.54 729.307C1620.87 729.255 1621.15 729.017 1621.18 728.575C1621.19 728.517 1621.19 728.459 1621.2 728.401C1621.72 728.134 1621.94 727.424 1621.53 726.833C1621.47 726.747 1621.41 726.666 1621.34 726.585C1623.02 705.296 1625.52 684.206 1630.67 663.424C1631.88 658.52 1632.88 653.167 1635.34 648.698C1635.64 648.152 1635.97 647.573 1636.34 647.073C1637.11 646.045 1636.99 646.019 1638.31 646.576C1639.99 647.276 1640.12 648.842 1640.55 650.528C1641.21 653.086 1641.62 655.708 1641.86 658.34C1642.83 669.17 1641.89 680.313 1641.19 691.135C1640.39 703.693 1639.18 716.216 1637.93 728.735C1637.88 728.861 1637.87 728.994 1637.89 729.13C1637.89 729.218 1637.88 729.305 1637.87 729.398C1637.77 730.379 1638.63 730.845 1639.39 730.73C1641.65 732.636 1644.52 733.795 1647.55 733.661C1649.65 733.567 1652.45 732.527 1652.73 730.101C1653.01 727.541 1650.38 726.223 1648.26 725.802C1645.94 725.343 1643.05 725.557 1640.77 726.669C1641.96 714.706 1643.08 702.739 1643.84 690.74C1644.59 678.746 1645.86 666.093 1643.96 654.149C1643.52 651.379 1642.9 645.249 1639.83 643.508C1640.71 632.588 1641.23 621.631 1641.91 610.697C1642.24 605.291 1642.58 599.891 1642.92 594.485C1643.07 591.975 1643.24 589.47 1643.38 586.958C1648.44 588.164 1651.73 594.035 1653.75 598.358C1656.17 603.529 1657.77 609.085 1659.37 614.548C1662.69 625.897 1665.17 637.473 1666.86 649.18C1666.88 649.292 1666.9 649.394 1666.94 649.484C1665.5 650.136 1664.87 652.706 1665.11 654.04C1665.53 656.381 1667.88 657.708 1670.14 657.104C1670.16 657.1 1670.19 657.09 1670.21 657.08C1678.17 665.848 1691.46 677 1703.66 670.789C1698.51 683.597 1693.33 696.356 1687.32 708.815C1686.95 709.584 1687.68 710.503 1688.46 710.547C1692.79 710.793 1697.11 711.091 1701.43 711.407C1700.07 715.189 1699.05 719.118 1697.94 722.976C1697.19 725.573 1696.21 728.27 1695.57 730.98C1695.46 730.89 1695.35 730.806 1695.24 730.734C1693.1 729.329 1689.65 729.795 1688.55 732.285C1687.54 734.559 1688.92 737.466 1691.34 738.084C1693.12 738.54 1695.52 737.431 1696.38 735.702C1696.69 735.613 1696.97 735.399 1697.13 735.047C1698.78 731.222 1699.29 726.683 1700.32 722.644C1701.26 718.949 1702.32 715.269 1703.13 711.54C1707.61 711.879 1712.09 712.247 1716.56 712.656C1715.78 718.849 1715.43 725.132 1715.27 731.363C1715.18 734.657 1714.47 741.107 1719.84 740.416C1722.82 740.032 1724.01 736.081 1722.14 733.887C1720.96 732.503 1719.1 732.34 1717.63 733.007C1717.59 731.015 1717.74 728.984 1717.79 727.009C1717.9 722.272 1718.22 717.556 1718.48 712.829C1721.69 713.13 1724.9 713.442 1728.11 713.783C1728.91 713.87 1729.71 713.032 1729.49 712.22C1725.57 698.031 1722.14 683.736 1718.99 669.361C1726.28 673.787 1735.95 673.697 1742.8 668.32C1742.87 668.553 1742.96 668.787 1743.08 669.007C1744.3 671.137 1747.65 671.014 1749.51 669.93C1751.64 668.69 1752.69 665.934 1751.74 663.636C1751.66 663.438 1751.54 663.3 1751.41 663.203C1754.64 653.201 1758.08 643.249 1763.45 634.149C1768.25 625.998 1774.35 619.449 1781.58 613.508C1778.26 624.697 1775.01 635.909 1771.46 647.03C1766.61 662.234 1761.41 677.332 1755.92 692.321C1755.66 693.027 1756.19 693.896 1756.97 693.917C1760.33 694.018 1763.69 694.171 1767.05 694.348C1764.61 708.42 1763.26 722.782 1761.39 736.96C1760.14 735.671 1758.63 734.544 1756.81 734.472C1754.95 734.397 1752.89 735.654 1752.52 737.552C1751.55 742.503 1760.38 743.225 1763.24 741.592C1764.03 741.134 1763.83 739.95 1762.89 739.841C1762.8 739.828 1762.69 739.827 1762.59 739.82C1763.07 739.726 1763.51 739.388 1763.6 738.774C1765.69 724.15 1768 709.202 1768.59 694.429C1776.32 694.861 1784.03 695.496 1791.73 696.323C1791.81 703.889 1791.08 711.425 1790.69 718.975C1790.5 722.589 1790.31 726.203 1790.14 729.812C1789.97 733.188 1789.42 736.829 1789.78 740.219C1789.47 740.402 1789.31 740.806 1789.63 741.18C1791.18 743.006 1793.08 744.652 1795.51 745.101C1797.51 745.473 1800.37 744.982 1801.54 743.094C1802.77 741.104 1800.79 739.985 1799.09 739.396C1796.82 738.6 1794.38 738.683 1792.15 739.512C1792.61 736.59 1792.48 733.485 1792.62 730.564C1792.81 726.57 1792.98 722.574 1793.15 718.578C1793.47 711.392 1794.44 703.667 1793.43 696.504C1797.91 697 1802.38 697.561 1806.84 698.191C1807.56 698.289 1808.36 697.475 1808.12 696.75C1799.03 669.095 1799.39 639.612 1793.28 611.346C1801.41 614.018 1807.6 619.862 1811.26 627.656C1815.75 637.187 1815.59 647.825 1814.77 658.076C1813.07 657.768 1811.13 658.804 1810.26 660.257C1808.85 662.596 1810.38 665.439 1812.71 666.425C1815.19 667.475 1817.9 666.288 1818.94 663.835C1819.67 662.231 1819.43 658.335 1817.35 657.758ZM1604.3 644.475C1603.27 644.179 1602.33 643.205 1602.67 642.076C1603.06 640.765 1604.57 640.118 1605.81 640.541C1605.99 640.601 1606.17 640.625 1606.32 640.613C1607.47 642.234 1606.73 645.176 1604.3 644.475ZM1614.58 728.944C1613.26 728.931 1608.22 727.733 1611.65 726.218C1614.09 725.141 1616.69 726.86 1618.98 727.92C1617.58 728.539 1616.13 728.956 1614.58 728.944ZM1640.25 577.144C1630.51 574.398 1625.05 564.047 1627.96 554.408C1630.82 544.929 1639.93 541.446 1648.97 541.919C1649.06 541.966 1649.16 542.014 1649.27 542.04C1658.78 544.554 1665.4 554.309 1662.84 564.066C1660.23 573.978 1650.2 579.952 1640.25 577.144ZM1644.53 728.115C1646.01 727.882 1650.27 727.801 1650.03 729.902C1649.78 732.043 1646.05 731.483 1644.57 731.154C1643.19 730.844 1641.91 730.296 1640.72 729.579C1641.94 728.959 1643.08 728.344 1644.53 728.115ZM1670.56 654.162C1670.09 654.152 1669.65 654.412 1669.39 654.791C1668.39 654.971 1667.56 654.385 1667.49 653.344C1667.42 652.233 1668.24 651.824 1668.69 651.049C1669.63 651.321 1670.55 651.686 1670.88 652.734C1671.07 653.297 1670.9 653.794 1670.56 654.162ZM1694.82 733.612C1694.76 733.754 1694.69 733.889 1694.62 734.031C1693.84 733.805 1693.44 734.742 1693.95 735.206C1693.64 735.582 1693.25 735.869 1692.64 735.972C1691.56 736.151 1690.7 735.306 1690.51 734.28C1690.33 733.237 1690.97 732.44 1691.98 732.232C1692.51 732.124 1693.04 732.186 1693.56 732.357C1693.82 732.446 1694.07 732.558 1694.29 732.714L1694.66 733.027C1694.83 733.162 1694.92 733.303 1694.93 733.45C1694.88 733.506 1694.85 733.55 1694.82 733.612ZM1719.02 735.249C1720.3 735.352 1720.73 735.998 1720.35 737.193L1718.86 737.87C1718.34 737.306 1717.99 736.696 1717.81 736.051C1718.14 735.7 1718.53 735.424 1719.02 735.249ZM1723.22 634.897C1723.79 631.293 1728.29 626.355 1732.32 627.891C1734.96 628.893 1735.52 632.14 1736.86 634.343C1738.61 637.201 1741.71 638.617 1744.76 637.899C1742.1 644.092 1730.44 643.963 1726.85 638.627C1726.54 638.166 1726.02 638.181 1725.62 638.434C1724.93 637.191 1724.12 636.015 1723.19 634.965C1723.2 634.942 1723.21 634.926 1723.22 634.897ZM1695.41 638.355C1691.99 640.041 1688.75 639.949 1685.79 637.355C1683.64 635.481 1681.79 632.721 1681.45 629.835C1683.86 630.979 1686.54 630.417 1688.83 628.533C1690.87 626.865 1692.73 624.307 1695.74 625.12C1699.15 626.032 1700.26 629.382 1700.77 632.485C1698.78 634.045 1697.12 636.085 1695.97 638.261C1695.8 638.231 1695.61 638.259 1695.41 638.355ZM1696.4 645.214C1697.44 637.717 1702.86 632.049 1710.36 631.862C1710.55 632.087 1710.83 632.235 1711.18 632.237C1719.28 632.274 1724.86 639.046 1725.53 646.801C1725.89 650.905 1724.61 655.049 1720.92 657.254C1717.65 659.213 1713.35 660.046 1709.57 659.827C1701.74 659.377 1695.27 653.371 1696.4 645.214ZM1726.45 711.013C1714.51 709.777 1702.55 708.801 1690.57 708.1C1697.63 693.306 1704.25 678.087 1708.94 662.374C1710.87 662.536 1712.83 662.431 1714.76 662.101C1718.01 678.536 1722.02 694.844 1726.45 711.013ZM1748.56 667.796C1747.68 668.424 1744.98 668.909 1745.08 667.249C1745.2 665.279 1747.37 663.932 1749.28 663.904C1749.42 664.12 1749.64 664.282 1749.89 664.369C1749.96 665.679 1749.69 666.982 1748.56 667.796ZM1755.37 739.191C1753.33 737.628 1756.57 736.286 1757.98 736.833C1759.22 737.314 1760.2 738.337 1761.16 739.214C1761.21 739.264 1761.27 739.303 1761.32 739.337C1761.47 739.593 1761.72 739.757 1762 739.83C1759.8 739.859 1757.24 740.612 1755.37 739.191ZM1796.69 741.061C1797.39 741.134 1798.08 741.295 1798.73 741.547C1800 742.041 1799.82 742.309 1798.66 742.875C1796.53 743.933 1794.28 743.065 1792.43 741.773C1793.79 741.192 1795.2 740.895 1796.69 741.061ZM1774.28 587.18C1773.57 579.043 1779.52 572.717 1787.1 571.014C1787.18 571.675 1787.73 572.341 1788.58 572.279C1796.7 571.703 1804.47 576.831 1805.24 585.3C1805.99 593.563 1798.74 600 1790.9 600.66C1782.78 601.354 1774.99 595.423 1774.28 587.18ZM1805.24 695.572C1789.82 693.471 1774.32 692.154 1758.77 691.618C1769.39 662.609 1779.53 633.009 1786.7 602.939C1787.42 603.043 1788.14 603.101 1788.86 603.118C1788.87 603.148 1788.87 603.171 1788.88 603.201C1797.06 633.495 1795.79 665.562 1805.24 695.572ZM1816.93 662.602C1816.52 663.901 1815.36 664.789 1813.98 664.415C1812.78 664.089 1811.69 662.905 1812.12 661.608C1812.64 660.106 1814.22 659.74 1815.6 660.049C1815.88 660.116 1816.19 659.986 1816.38 659.783C1816.6 660.039 1816.8 660.311 1816.92 660.647C1817.15 661.278 1817.13 661.961 1816.93 662.602Z" fill="#F6F6F6" fill-opacity="0.8"/>
<path d="M1791.58 568.25C1789.65 564.326 1784.92 563.563 1780.99 564.634C1775.75 566.058 1771.56 570.188 1769.1 574.859C1766.56 579.693 1765.76 585.385 1767.03 590.701C1768.14 595.351 1771.05 601.267 1775.53 603.591C1776.04 603.86 1776.64 603.305 1776.24 602.806C1773.27 599.173 1770.24 596.343 1768.86 591.663C1767.64 587.476 1767.77 582.974 1769.2 578.861C1770.7 574.539 1773.57 570.599 1777.51 568.147C1781.19 565.856 1787.53 564.383 1790.29 568.877C1790.75 569.654 1791.99 569.092 1791.58 568.25Z" fill="#F6F6F6" fill-opacity="0.8"/>
<path d="M1801.82 588.364C1801.73 587.363 1800.37 587.516 1800.03 588.236C1797.97 592.617 1794.22 594.595 1789.27 594.48C1784.55 594.37 1780.29 591.474 1779.25 586.791C1779.1 586.094 1777.94 586.107 1777.94 586.874C1777.97 593.12 1783.67 596.8 1789.58 596.824C1794.3 596.847 1802.32 594.267 1801.82 588.364Z" fill="#F6F6F6" fill-opacity="0.8"/>
<path d="M1792.78 587.07C1792.76 586.751 1792.44 586.57 1792.17 586.521C1791.56 586.407 1791.07 586.983 1790.53 587.221C1790.01 587.453 1789.24 587.604 1788.75 587.198C1788.23 586.767 1788.11 585.513 1788.9 585.317C1789.51 585.167 1789.52 584.098 1788.83 584.137C1786.96 584.243 1786.25 586.72 1787.33 588.143C1788.01 589.044 1789.19 589.31 1790.24 589.151C1791.27 588.99 1792.87 588.317 1792.78 587.07Z" fill="#F6F6F6" fill-opacity="0.8"/>
<path d="M1782.91 578.227C1782.84 579.204 1782.86 580.217 1782.97 581.188C1783.01 581.57 1783.42 581.866 1783.8 582.005C1783.97 582.065 1784.16 582.126 1784.33 582.085C1784.38 582.077 1784.43 582.063 1784.48 582.054C1784.88 581.965 1785.34 581.737 1785.43 581.365C1785.67 580.412 1785.83 579.413 1785.9 578.442C1786.03 576.806 1783.02 576.591 1782.91 578.227Z" fill="#F6F6F6" fill-opacity="0.8"/>
<path d="M1796.06 578.26C1795.57 578.038 1795.18 578.057 1794.74 578.311C1794.03 578.715 1794.17 579.421 1794.14 580.061C1794.11 580.654 1793.99 581.206 1793.77 581.763C1793.37 582.761 1795.12 583.623 1795.76 582.653C1796.4 581.665 1797.76 579.03 1796.06 578.26Z" fill="#F6F6F6" fill-opacity="0.8"/>
<path d="M183.598 303.064C179.019 299.179 173.499 296.728 167.451 296.464C165.68 296.388 165.737 299.009 167.451 299.179C172.199 299.651 176.476 301.121 180.282 303.874C175.59 306.741 170.899 309.645 166.302 312.624C165.906 311.624 164.173 311.398 163.759 312.737C161.724 319.129 159.764 325.541 157.805 331.952C153.66 324.107 147.612 315.547 137.778 316.357C135.347 316.546 125.55 322.505 124.156 321.185C124.081 321.109 135.084 307.042 137.25 304.176C137.797 304.855 139.172 304.214 138.833 303.309C136.817 297.991 134.669 292.749 132.502 287.507C136.289 288.846 140.057 290.222 143.863 291.467C145.596 292.033 147.367 292.862 149.176 292.165C151.663 291.222 153.302 288.129 154.885 286.206C157.617 282.887 160.348 279.568 163.099 276.25C164.55 282.887 164.832 289.43 164.004 296.275C163.796 297.991 166.453 297.953 166.679 296.275C167.696 288.337 167.131 280.7 165.077 272.987C164.832 272.082 163.495 271.611 162.835 272.403C158.973 277.098 155.205 283.453 150.551 287.318C145.408 291.599 136.214 285.998 130.505 284C129.3 283.585 128.584 284.999 128.998 285.961C131.447 291.561 133.915 297.143 136.497 302.686C136.402 302.724 136.289 302.781 136.214 302.875C130.769 309.041 125.531 315.377 120.369 321.769C119.823 322.448 119.86 323.334 120.633 323.843C124.458 326.314 127.171 324.334 130.826 322.184C143.712 314.604 151.644 325.541 156.957 336.326C157.504 337.439 159.143 337.062 159.463 336.006C161.573 329.142 163.721 322.278 165.793 315.415C171.728 312.152 177.55 308.702 183.353 305.232C184.031 304.761 184.276 303.648 183.598 303.064Z" fill="#F6F6F6" fill-opacity="0.8"/>
<path d="M1377.6 710.064C1373.02 706.179 1367.5 703.728 1361.45 703.464C1359.68 703.388 1359.74 706.009 1361.45 706.179C1366.2 706.651 1370.48 708.121 1374.28 710.874C1369.59 713.741 1364.9 716.645 1360.3 719.624C1359.91 718.624 1358.17 718.398 1357.76 719.737C1355.72 726.129 1353.76 732.541 1351.81 738.952C1347.66 731.107 1341.61 722.547 1331.78 723.357C1329.35 723.546 1319.55 729.505 1318.16 728.185C1318.08 728.109 1329.08 714.042 1331.25 711.176C1331.8 711.855 1333.17 711.214 1332.83 710.309C1330.82 704.991 1328.67 699.749 1326.5 694.507C1330.29 695.846 1334.06 697.222 1337.86 698.467C1339.6 699.033 1341.37 699.862 1343.18 699.165C1345.66 698.222 1347.3 695.129 1348.88 693.206C1351.62 689.887 1354.35 686.568 1357.1 683.25C1358.55 689.887 1358.83 696.43 1358 703.275C1357.8 704.991 1360.45 704.953 1360.68 703.275C1361.7 695.337 1361.13 687.7 1359.08 679.987C1358.83 679.082 1357.49 678.611 1356.84 679.403C1352.97 684.098 1349.21 690.453 1344.55 694.318C1339.41 698.599 1330.21 692.998 1324.51 691C1323.3 690.585 1322.58 691.999 1323 692.961C1325.45 698.561 1327.92 704.143 1330.5 709.686C1330.4 709.724 1330.29 709.781 1330.21 709.875C1324.77 716.041 1319.53 722.377 1314.37 728.769C1313.82 729.448 1313.86 730.334 1314.63 730.843C1318.46 733.314 1321.17 731.334 1324.83 729.184C1337.71 721.604 1345.64 732.541 1350.96 743.326C1351.5 744.439 1353.14 744.062 1353.46 743.006C1355.57 736.142 1357.72 729.278 1359.79 722.415C1365.73 719.152 1371.55 715.702 1377.35 712.232C1378.03 711.761 1378.28 710.648 1377.6 710.064Z" fill="#F6F6F6" fill-opacity="0.8"/>
<path d="M1764.02 425.599C1757.81 418.099 1746.21 415.986 1737.5 419.996C1729.31 423.763 1724.21 431.488 1721.87 439.941C1718.43 431.913 1711.92 425.348 1702.88 423.729C1692.44 421.858 1682.7 427.452 1679.29 437.498C1675.78 447.83 1679.75 458.586 1687.11 466.155C1696.39 475.699 1709.72 479.726 1722.46 481.977C1722.91 482.055 1723.27 481.925 1723.54 481.7C1723.9 481.882 1724.35 481.917 1724.87 481.7C1738.04 476.331 1750.16 468.052 1759.27 457.044C1766.36 448.462 1772.19 435.472 1764.02 425.599ZM1751.66 459.599C1743.72 467.523 1734.22 473.741 1723.83 477.976C1723.11 478.271 1722.72 478.851 1722.59 479.466C1705.88 474.027 1680.03 466.042 1681.89 443.725C1682.74 433.376 1691.26 425.703 1701.84 427.461C1712.6 429.254 1718.85 439.057 1720.49 449.138C1720.85 451.398 1724.18 450.688 1724.3 448.618C1724.88 438.91 1729.31 428.526 1738.36 423.867C1746.14 419.857 1757.36 421.927 1762.16 429.609C1768.73 440.105 1758.81 452.472 1751.66 459.599Z" fill="#F6F6F6" fill-opacity="0.8"/>
<path d="M1701.59 496.066C1698.49 494.05 1694.71 495.071 1692.29 497.637C1690.13 499.914 1689.6 502.793 1689.87 505.69C1687.95 504.521 1685.81 503.858 1683.41 504.329C1679.85 505.027 1677.48 508.011 1678.1 511.684C1679.59 520.488 1691.94 524.537 1699.43 522.469C1699.97 522.321 1700.23 521.884 1700.27 521.422C1700.81 521.465 1701.38 521.256 1701.78 520.75C1706.02 515.166 1708.72 500.69 1701.59 496.066ZM1698.97 519.572C1698.92 519.755 1698.91 519.921 1698.91 520.087C1694.25 520.174 1689.82 519.363 1686.02 516.457C1685.25 515.864 1684.53 515.253 1683.88 514.511C1683.28 513.901 1682.78 513.211 1682.37 512.443L1683.88 508.124C1686.17 506.475 1690.19 510.55 1691.63 511.92C1692.88 513.124 1695.4 511.937 1694.73 510.105C1693.65 507.191 1692.1 501.991 1695.28 499.8C1699.54 496.869 1701.89 501.275 1702.11 504.957C1702.44 510.271 1700.27 514.625 1698.97 519.572Z" fill="#F6F6F6" fill-opacity="0.8"/>
<path d="M1750.86 531.268C1751.61 527.627 1749.28 524.467 1746 523.122C1743.1 521.926 1740.23 522.476 1737.63 523.786C1738.02 521.559 1737.86 519.316 1736.55 517.238C1734.6 514.164 1730.96 513.021 1727.77 514.941C1720.12 519.534 1720.84 532.569 1725.49 538.829C1725.82 539.274 1726.33 539.362 1726.76 539.239C1726.92 539.755 1727.32 540.226 1727.94 540.401C1734.69 542.348 1749.13 539.615 1750.86 531.268ZM1728.02 537.336C1727.82 537.354 1727.67 537.406 1727.52 537.467C1725.74 533.137 1724.89 528.692 1726.21 524.083C1726.48 523.14 1726.8 522.249 1727.24 521.376C1727.59 520.59 1728.05 519.874 1728.61 519.211L1733.18 519.054C1735.55 520.599 1733.22 525.846 1732.45 527.688C1731.78 529.295 1733.81 531.233 1735.27 529.932C1737.59 527.872 1741.86 524.519 1745.06 526.711C1749.35 529.644 1746.09 533.433 1742.74 534.987C1737.94 537.223 1733.1 536.76 1728.02 537.336Z" fill="#F6F6F6" fill-opacity="0.8"/>
<g filter="url(#filter0_d_2_155)">
<path d="M294.649 641.812L294.629 641.813C294.622 641.668 294.636 641.523 294.63 641.378C293.733 621.546 276.923 606.198 257.083 607.096C254.523 607.211 252.058 607.592 249.666 608.217C241.76 591.225 224.197 579.798 204.316 580.698C189.39 581.373 176.386 588.868 168.139 600.015C162.22 597.325 155.748 596.073 149.252 596.361C127.761 597.333 110.849 614.497 109.733 635.536C86.3979 637.833 68.498 657.832 69.2835 681.598C70.0734 706.377 90.8327 725.807 115.601 725.017C117.522 724.951 119.416 724.741 121.263 724.43C131.734 744.159 152.928 757.2 176.732 756.123C191.101 755.473 204.043 749.801 213.962 740.874C222.091 746.338 231.972 749.385 242.522 748.908C264.158 747.929 281.71 732.598 286.49 712.51C290.115 713.524 293.944 714.013 297.907 713.833C317.809 712.933 333.204 696.087 332.304 676.193C331.425 656.319 314.551 640.911 294.649 641.812Z" fill="#FACA4E"/>
</g>
<g filter="url(#filter1_d_2_155)">
<path d="M406.456 137.546H406.442C406.442 137.447 406.456 137.348 406.456 137.249C406.456 123.672 395.499 112.666 381.982 112.666C380.238 112.666 378.55 112.85 376.904 113.203C372.052 101.35 360.462 93 346.917 93C336.747 93 327.675 97.7188 321.725 105.079C317.783 103.059 313.422 102.003 308.996 102C294.354 102 282.328 113.203 280.921 127.543C264.985 128.391 252.2 141.501 252.003 157.763C251.778 174.716 265.295 188.632 282.159 188.858C283.467 188.872 284.761 188.788 286.027 188.632C292.539 202.435 306.549 212 322.766 212C332.556 212 341.53 208.525 348.548 202.732C353.907 206.716 360.532 209.104 367.719 209.104C382.46 209.104 394.866 199.172 398.734 185.595C401.167 186.4 403.755 186.852 406.456 186.852C420.015 186.852 431 175.818 431 162.199C431.014 148.594 420.015 137.546 406.456 137.546Z" fill="white" fill-opacity="0.87" shape-rendering="crispEdges"/>
</g>
<g filter="url(#filter2_d_2_155)">
<path d="M1973.9 183.214L1973.88 183.215C1973.86 183.084 1973.87 182.952 1973.86 182.821C1972.22 164.869 1956.38 151.643 1938.48 153.278C1936.17 153.489 1933.96 153.936 1931.83 154.602C1923.97 139.517 1907.61 129.879 1889.68 131.517C1876.21 132.748 1864.77 140.084 1857.78 150.537C1852.32 148.341 1846.42 147.474 1840.56 148.004C1821.17 149.776 1806.6 166.044 1806.47 185.175C1785.47 188.223 1770.12 207.106 1771.83 228.63C1773.58 251.074 1793.16 267.839 1815.51 266.098C1817.25 265.958 1818.95 265.689 1820.61 265.331C1830.9 282.794 1850.6 293.745 1872.08 291.784C1885.04 290.599 1896.5 284.918 1905.1 276.41C1912.67 281.03 1921.73 283.385 1931.25 282.516C1950.77 280.732 1965.99 266.099 1969.48 247.68C1972.79 248.45 1976.28 248.735 1979.85 248.408C1997.81 246.768 2011.02 230.849 2009.37 212.841C2007.75 194.851 1991.85 181.573 1973.9 183.214Z" fill="white" fill-opacity="0.87" shape-rendering="crispEdges"/>
</g>
<defs>
<filter id="filter0_d_2_155" x="41.2585" y="547.648" width="319.083" height="231.538" filterUnits="userSpaceOnUse" color-interpolation-filters="sRGB">
<feFlood flood-opacity="0" result="BackgroundImageFix"/>
<feColorMatrix in="SourceAlpha" type="matrix" values="0 0 0 0 0 0 0 0 0 0 0 0 0 0 0 0 0 0 127 0" result="hardAlpha"/>
<feOffset dy="-5"/>
<feGaussianBlur stdDeviation="14"/>
<feComposite in2="hardAlpha" operator="out"/>
<feColorMatrix type="matrix" values="0 0 0 0 0.670588 0 0 0 0 0.52549 0 0 0 0 0.152941 0 0 0 0.6 0"/>
<feBlend mode="darken" in2="BackgroundImageFix" result="effect1_dropShadow_2_155"/>
<feBlend mode="normal" in="SourceGraphic" in2="effect1_dropShadow_2_155" result="shape"/>
</filter>
<filter id="filter1_d_2_155" x="224" y="60" width="235" height="175" filterUnits="userSpaceOnUse" color-interpolation-filters="sRGB">
<feFlood flood-opacity="0" result="BackgroundImageFix"/>
<feColorMatrix in="SourceAlpha" type="matrix" values="0 0 0 0 0 0 0 0 0 0 0 0 0 0 0 0 0 0 127 0" result="hardAlpha"/>
<feOffset dy="-5"/>
<feGaussianBlur stdDeviation="14"/>
<feComposite in2="hardAlpha" operator="out"/>
<feColorMatrix type="matrix" values="0 0 0 0 0.670588 0 0 0 0 0.52549 0 0 0 0 0.152941 0 0 0 0.6 0"/>
<feBlend mode="normal" in2="BackgroundImageFix" result="effect1_dropShadow_2_155"/>
<feBlend mode="normal" in="SourceGraphic" in2="effect1_dropShadow_2_155" result="shape"/>
</filter>
<filter id="filter2_d_2_155" x="1743.7" y="98.3364" width="293.813" height="216.674" filterUnits="userSpaceOnUse" color-interpolation-filters="sRGB">
<feFlood flood-opacity="0" result="BackgroundImageFix"/>
<feColorMatrix in="SourceAlpha" type="matrix" values="0 0 0 0 0 0 0 0 0 0 0 0 0 0 0 0 0 0 127 0" result="hardAlpha"/>
<feOffset dy="-5"/>
<feGaussianBlur stdDeviation="14"/>
<feComposite in2="hardAlpha" operator="out"/>
<feColorMatrix type="matrix" values="0 0 0 0 0.670588 0 0 0 0 0.52549 0 0 0 0 0.152941 0 0 0 0.6 0"/>
<feBlend mode="normal" in2="BackgroundImageFix" result="effect1_dropShadow_2_155"/>
<feBlend mode="normal" in="SourceGraphic" in2="effect1_dropShadow_2_155" result="shape"/>
</filter>
</defs>
</svg>
