<svg width="360" height="449" viewBox="0 0 360 449" fill="none" xmlns="http://www.w3.org/2000/svg">
<path d="M361.869 442.821V0.722168C289.197 47.7559 125.549 34.2945 -0.613206 0.72228L-0.613167 442.821H361.869Z" fill="#FACA4E"/>
<path d="M44.8397 32.3144C43.1944 30.8801 41.2106 29.975 39.0372 29.8775C38.4007 29.8497 38.4211 30.8174 39.0372 30.8801C40.7434 31.0542 42.2804 31.5972 43.6481 32.6137C41.9622 33.672 40.2762 34.7442 38.6242 35.8443C38.482 35.4753 37.8591 35.3917 37.7101 35.8861C36.9789 38.2463 36.2747 40.6135 35.5706 42.9808C34.081 40.0844 31.9076 36.9235 28.3732 37.2229C27.4998 37.2925 23.979 39.4926 23.478 39.0052C23.4509 38.9774 27.405 33.7834 28.1837 32.7251C28.38 32.9758 28.8743 32.7391 28.7524 32.4049C28.0279 30.4415 27.2561 28.5059 26.4774 26.5704C27.8383 27.0647 29.1925 27.573 30.5602 28.0325C31.1831 28.2414 31.8196 28.5477 32.4695 28.2901C33.3633 27.942 33.9523 26.8001 34.5211 26.09C35.5029 24.8646 36.4846 23.6392 37.4731 22.4138C37.9945 24.8646 38.0961 27.2805 37.7981 29.8079C37.7237 30.4415 38.6783 30.4276 38.7596 29.8079C39.1252 26.8767 38.9221 24.057 38.1841 21.2093C38.0961 20.8751 37.6153 20.7011 37.3784 20.9935C35.9903 22.7271 34.6362 25.0735 32.9638 26.5008C31.1154 28.0812 27.8113 26.0134 25.7597 25.2754C25.3264 25.1222 25.0691 25.6444 25.2181 25.9995C26.0983 28.0673 26.9852 30.1282 27.9128 32.1751C27.879 32.189 27.8383 32.2099 27.8113 32.2447C25.8545 34.5214 23.9722 36.8608 22.117 39.2211C21.9207 39.4717 21.9342 39.7989 22.2118 39.9869C23.5863 40.899 24.5613 40.1679 25.8748 39.3742C30.506 36.5753 33.3565 40.6135 35.2659 44.596C35.4622 45.0068 36.0513 44.8676 36.1664 44.4777C36.9247 41.9434 37.6966 39.409 38.4414 36.8747C40.5742 35.6702 42.6663 34.3961 44.7517 33.115C44.9955 32.941 45.0835 32.5302 44.8397 32.3144Z" fill="#F6F6F6" fill-opacity="0.8"/>
<g filter="url(#filter0_d_182_1541)">
<path d="M351.705 403.128L351.701 403.128C351.701 403.097 351.707 403.066 351.707 403.035C351.803 398.775 348.391 395.246 344.087 395.153C343.532 395.141 342.993 395.187 342.466 395.287C341.005 391.534 337.373 388.834 333.06 388.741C329.821 388.671 326.899 390.089 324.953 392.358C323.712 391.697 322.331 391.336 320.922 391.304C316.259 391.204 312.351 394.637 311.802 399.127C306.722 399.284 302.559 403.31 302.382 408.412C302.191 413.73 306.397 418.19 311.766 418.377C312.182 418.39 312.595 418.373 312.999 418.332C314.975 422.709 319.369 425.806 324.533 425.918C327.65 425.985 330.532 424.956 332.808 423.186C334.486 424.474 336.579 425.268 338.868 425.318C343.561 425.419 347.582 422.387 348.909 418.153C349.678 418.423 350.499 418.583 351.359 418.601C355.676 418.694 359.252 415.307 359.347 411.033C359.447 406.764 356.023 403.222 351.705 403.128Z" fill="white" fill-opacity="0.87" shape-rendering="crispEdges"/>
</g>
<path d="M341.73 60.2442C340.105 58.3214 337.071 57.7796 334.793 58.8076C332.65 59.7735 331.315 61.754 330.703 63.921C329.803 61.8628 328.1 60.1798 325.736 59.7646C323.006 59.285 320.458 60.7193 319.567 63.2948C318.649 65.9437 319.687 68.7013 321.612 70.6418C324.04 73.0885 327.525 74.121 330.859 74.6983C330.975 74.7182 331.07 74.6849 331.141 74.6272C331.236 74.6738 331.354 74.6827 331.49 74.6272C334.933 73.2506 338.105 71.128 340.488 68.306C342.342 66.1057 343.866 62.7753 341.73 60.2442ZM338.497 68.961C336.418 70.9926 333.934 72.5868 331.218 73.6725C331.03 73.748 330.927 73.8967 330.893 74.0544C326.52 72.66 319.76 70.6129 320.245 64.8912C320.469 62.238 322.698 60.2708 325.464 60.7215C328.28 61.1811 329.914 63.6945 330.343 66.2789C330.438 66.8584 331.308 66.6763 331.34 66.1457C331.492 63.6568 332.65 60.9946 335.017 59.8001C337.053 58.7721 339.987 59.3028 341.243 61.2722C342.961 63.9632 340.368 67.1337 338.497 68.961Z" fill="#F6F6F6" fill-opacity="0.8"/>
<path d="M35.8436 426.131C34.1983 424.697 32.2145 423.791 30.0411 423.694C29.4046 423.666 29.425 424.634 30.0411 424.697C31.7473 424.871 33.2843 425.414 34.652 426.43C32.9661 427.488 31.2801 428.561 29.6281 429.661C29.4859 429.292 28.863 429.208 28.714 429.702C27.9828 432.063 27.2786 434.43 26.5745 436.797C25.0849 433.901 22.9115 430.74 19.3771 431.039C18.5037 431.109 14.9829 433.309 14.4819 432.822C14.4548 432.794 18.4089 427.6 19.1876 426.542C19.3839 426.792 19.8782 426.555 19.7563 426.221C19.0318 424.258 18.26 422.322 17.4813 420.387C18.8422 420.881 20.1964 421.389 21.5641 421.849C22.187 422.058 22.8235 422.364 23.4735 422.106C24.3672 421.758 24.9563 420.617 25.525 419.906C26.5068 418.681 27.4885 417.456 28.477 416.23C28.9984 418.681 29.1 421.097 28.802 423.624C28.7276 424.258 29.6822 424.244 29.7635 423.624C30.1291 420.693 29.926 417.873 29.188 415.026C29.1 414.692 28.6192 414.517 28.3823 414.81C26.9943 416.544 25.6401 418.89 23.9677 420.317C22.1193 421.898 18.8152 419.83 16.7636 419.092C16.3303 418.939 16.073 419.461 16.222 419.816C17.1022 421.884 17.9891 423.945 18.9167 425.992C18.8829 426.005 18.8422 426.026 18.8152 426.061C16.8584 428.338 14.9761 430.677 13.121 433.037C12.9246 433.288 12.9381 433.615 13.2157 433.803C14.5902 434.715 15.5652 433.984 16.8787 433.191C21.5099 430.392 24.3604 434.43 26.2698 438.412C26.4661 438.823 27.0552 438.684 27.1703 438.294C27.9286 435.76 28.7005 433.225 29.4453 430.691C31.5781 429.487 33.6702 428.213 35.7556 426.931C35.9994 426.757 36.0874 426.347 35.8436 426.131Z" fill="#F6F6F6" fill-opacity="0.8"/>
<path d="M35.9348 196.671C36.2191 195.322 35.3364 194.152 34.0934 193.654C32.9926 193.211 31.905 193.415 30.9165 193.9C31.0653 193.075 31.0058 192.244 30.5066 191.474C29.7694 190.336 28.3876 189.913 27.1776 190.624C24.2751 192.325 24.5495 197.153 26.3115 199.471C26.4371 199.636 26.6289 199.668 26.7942 199.623C26.8537 199.814 27.0057 199.989 27.2404 200.053C29.8025 200.774 35.2802 199.762 35.9348 196.671ZM27.2702 198.918C27.1975 198.925 27.138 198.944 27.0818 198.967C26.4074 197.363 26.0834 195.717 26.5859 194.01C26.6884 193.66 26.8074 193.33 26.976 193.007C27.1082 192.716 27.2834 192.451 27.495 192.205L29.2273 192.147C30.1264 192.719 29.2438 194.663 28.9529 195.345C28.6983 195.94 29.4686 196.658 30.0206 196.176C30.9033 195.413 32.5232 194.171 33.7364 194.983C35.3629 196.069 34.1265 197.473 32.857 198.048C31.0355 198.876 29.1975 198.705 27.2702 198.918Z" fill="#F6F6F6" fill-opacity="0.8"/>
<defs>
<filter id="filter0_d_182_1541" x="274.375" y="355.738" width="112.975" height="93.1824" filterUnits="userSpaceOnUse" color-interpolation-filters="sRGB">
<feFlood flood-opacity="0" result="BackgroundImageFix"/>
<feColorMatrix in="SourceAlpha" type="matrix" values="0 0 0 0 0 0 0 0 0 0 0 0 0 0 0 0 0 0 127 0" result="hardAlpha"/>
<feOffset dy="-5"/>
<feGaussianBlur stdDeviation="14"/>
<feComposite in2="hardAlpha" operator="out"/>
<feColorMatrix type="matrix" values="0 0 0 0 0.670588 0 0 0 0 0.52549 0 0 0 0 0.152941 0 0 0 0.6 0"/>
<feBlend mode="normal" in2="BackgroundImageFix" result="effect1_dropShadow_182_1541"/>
<feBlend mode="normal" in="SourceGraphic" in2="effect1_dropShadow_182_1541" result="shape"/>
</filter>
</defs>
</svg>
