<svg width="774" height="459" viewBox="0 0 774 459" fill="none" xmlns="http://www.w3.org/2000/svg">
<path d="M770 459V92.4551C670.205 147.776 541.607 157.53 381.271 115.151C262.945 73.5418 113.52 72.8707 0 92.4551V459L770 459Z" fill="#FACA4E"/>
<path d="M271.855 35.4696C270.21 34.0354 268.226 33.1303 266.053 33.0328C265.416 33.0049 265.437 33.9727 266.053 34.0354C267.759 34.2094 269.296 34.7525 270.664 35.769C268.978 36.8273 267.292 37.8995 265.64 38.9996C265.498 38.6306 264.875 38.547 264.726 39.0413C263.995 41.4016 263.29 43.7688 262.586 46.136C261.097 43.2397 258.923 40.0787 255.389 40.3781C254.515 40.4478 250.995 42.6479 250.494 42.1605C250.467 42.1326 254.421 36.9387 255.199 35.8804C255.396 36.1311 255.89 35.8943 255.768 35.5601C255.044 33.5967 254.272 31.6612 253.493 29.7256C254.854 30.22 256.208 30.7282 257.576 31.1878C258.199 31.3966 258.835 31.703 259.485 31.4454C260.379 31.0972 260.968 29.9554 261.537 29.2452C262.518 28.0199 263.5 26.7945 264.489 25.5691C265.01 28.0199 265.112 30.4358 264.814 32.9632C264.739 33.5968 265.694 33.5828 265.775 32.9632C266.141 30.032 265.938 27.2122 265.2 24.3646C265.112 24.0304 264.631 23.8563 264.394 24.1488C263.006 25.8824 261.652 28.2287 259.979 29.656C258.131 31.2365 254.827 29.1687 252.775 28.4306C252.342 28.2775 252.085 28.7997 252.234 29.1547C253.114 31.2226 254.001 33.2834 254.928 35.3304C254.895 35.3443 254.854 35.3652 254.827 35.4C252.87 37.6767 250.988 40.0161 249.133 42.3763C248.936 42.627 248.95 42.9542 249.227 43.1422C250.602 44.0543 251.577 43.3232 252.89 42.5295C257.522 39.7306 260.372 43.7688 262.281 47.7513C262.478 48.1621 263.067 48.0228 263.182 47.6329C263.94 45.0986 264.712 42.5643 265.457 40.03C267.59 38.8255 269.682 37.5514 271.767 36.2703C272.011 36.0963 272.099 35.6855 271.855 35.4696Z" fill="#F6F6F6" fill-opacity="0.8"/>
<path d="M62.8554 11.4696C61.2101 10.0354 59.2262 9.13026 57.0528 9.03279C56.4164 9.00494 56.4367 9.97272 57.0528 10.0354C58.759 10.2094 60.296 10.7525 61.6637 11.769C59.9778 12.8273 58.2919 13.8995 56.6398 14.9996C56.4976 14.6306 55.8747 14.547 55.7257 15.0413C54.9945 17.4016 54.2903 19.7688 53.5862 22.136C52.0966 19.2397 49.9232 16.0787 46.3889 16.3781C45.5154 16.4478 41.9946 18.6479 41.4936 18.1605C41.4665 18.1326 45.4206 12.9387 46.1993 11.8804C46.3956 12.1311 46.8899 11.8943 46.768 11.5601C46.0435 9.59675 45.2717 7.6612 44.493 5.72565C45.854 6.21998 47.2081 6.72824 48.5758 7.18776C49.1987 7.39663 49.8352 7.70297 50.4852 7.44536C51.3789 7.09724 51.968 5.95541 52.5367 5.24524C53.5185 4.01986 54.5002 2.79448 55.4888 1.56909C56.0101 4.01986 56.1117 6.43582 55.8138 8.96317C55.7393 9.59675 56.694 9.58283 56.7752 8.96317C57.1408 6.032 56.9377 3.21222 56.1997 0.364602C56.1117 0.030407 55.631 -0.143651 55.394 0.14877C54.006 1.88241 52.6518 4.22874 50.9794 5.65603C49.131 7.2365 45.8269 5.16866 43.7753 4.43064C43.342 4.27747 43.0847 4.79966 43.2337 5.15474C44.1139 7.22257 45.0009 9.28344 45.9284 11.3304C45.8946 11.3443 45.854 11.3652 45.8269 11.4C43.8701 13.6767 41.9879 16.0161 40.1327 18.3763C39.9363 18.627 39.9499 18.9542 40.2275 19.1422C41.6019 20.0543 42.5769 19.3232 43.8904 18.5295C48.5216 15.7306 51.3721 19.7688 53.2815 23.7513C53.4779 24.1621 54.0669 24.0228 54.182 23.6329C54.9403 21.0986 55.7122 18.5643 56.457 16.03C58.5898 14.8255 60.6819 13.5514 62.7673 12.2703C63.0111 12.0963 63.0991 11.6855 62.8554 11.4696Z" fill="#F6F6F6" fill-opacity="0.8"/>
<path d="M459.542 296.731C457.263 294.036 453.011 293.276 449.817 294.717C446.814 296.071 444.942 298.847 444.084 301.885C442.823 299 440.436 296.641 437.122 296.059C433.295 295.386 429.723 297.397 428.475 301.007C427.187 304.72 428.643 308.586 431.341 311.306C434.744 314.735 439.629 316.183 444.304 316.992C444.466 317.02 444.599 316.973 444.698 316.892C444.831 316.958 444.996 316.97 445.187 316.892C450.014 314.963 454.46 311.987 457.8 308.032C460.4 304.947 462.535 300.279 459.542 296.731ZM455.01 308.95C452.096 311.797 448.613 314.032 444.806 315.554C444.542 315.66 444.399 315.868 444.351 316.089C438.221 314.135 428.745 311.265 429.425 303.245C429.739 299.526 432.863 296.768 436.74 297.4C440.687 298.044 442.978 301.567 443.579 305.19C443.712 306.002 444.933 305.747 444.977 305.003C445.19 301.515 446.814 297.783 450.132 296.109C452.986 294.668 457.098 295.411 458.858 298.172C461.267 301.944 457.632 306.388 455.01 308.95Z" fill="#F6F6F6" fill-opacity="0.8"/>
<path d="M745.946 60.3956C746.231 59.0472 745.348 57.8766 744.105 57.3786C743.004 56.9356 741.917 57.1393 740.928 57.6243C741.077 56.7998 741.018 55.9687 740.518 55.1991C739.781 54.0608 738.399 53.6372 737.189 54.3486C734.287 56.0495 734.561 60.8774 736.323 63.1959C736.449 63.3609 736.641 63.3932 736.806 63.3479C736.865 63.5387 737.017 63.7133 737.252 63.778C739.814 64.4991 745.292 63.487 745.946 60.3956ZM737.282 62.643C737.209 62.6495 737.15 62.6689 737.093 62.6915C736.419 61.0876 736.095 59.4417 736.598 57.7343C736.7 57.3851 736.819 57.0552 736.988 56.7318C737.12 56.4408 737.295 56.1757 737.507 55.9299L739.239 55.8717C740.138 56.4441 739.255 58.3875 738.965 59.0698C738.71 59.6648 739.48 60.3827 740.032 59.9008C740.915 59.1377 742.535 57.896 743.748 58.7076C745.375 59.7941 744.138 61.1975 742.869 61.7731C741.047 62.601 739.209 62.4296 737.282 62.643Z" fill="#F6F6F6" fill-opacity="0.8"/>
<g filter="url(#filter0_d_99_1734)">
<path d="M733.575 268.951L733.569 268.95C733.57 268.903 733.578 268.856 733.579 268.809C733.724 262.307 728.518 256.922 721.95 256.78C721.102 256.762 720.28 256.832 719.477 256.984C717.246 251.257 711.704 247.137 705.122 246.995C700.18 246.888 695.721 249.053 692.751 252.515C690.858 251.506 688.749 250.955 686.599 250.907C679.484 250.754 673.52 255.993 672.683 262.845C664.93 263.084 658.577 269.228 658.307 277.013C658.016 285.129 664.434 291.935 672.627 292.22C673.262 292.24 673.892 292.213 674.509 292.152C677.525 298.83 684.23 303.558 692.11 303.728C696.867 303.83 701.265 302.26 704.738 299.56C707.299 301.524 710.493 302.736 713.985 302.812C721.148 302.966 727.283 298.34 729.308 291.879C730.482 292.29 731.734 292.534 733.047 292.562C739.635 292.704 745.091 287.536 745.238 281.014C745.39 274.499 740.164 269.093 733.575 268.951Z" fill="white" fill-opacity="0.87" shape-rendering="crispEdges"/>
</g>
<g filter="url(#filter1_d_99_1734)">
<path d="M120.575 174.951L120.569 174.951C120.57 174.903 120.578 174.856 120.579 174.809C120.724 168.307 115.518 162.922 108.95 162.78C108.102 162.762 107.28 162.832 106.477 162.984C104.246 157.257 98.7037 153.137 92.1219 152.995C87.1804 152.888 82.7214 155.053 79.7514 158.515C77.8577 157.506 75.7495 156.955 73.599 156.907C66.4841 156.754 60.5203 161.993 59.683 168.845C51.9302 169.084 45.5768 175.228 45.3067 183.013C45.0155 191.129 51.4344 197.935 59.6268 198.22C60.2623 198.24 60.892 198.213 61.5088 198.152C64.5252 204.83 71.2299 209.558 79.1104 209.728C83.8673 209.83 88.2651 208.26 91.7378 205.56C94.2991 207.524 97.4926 208.736 100.985 208.812C108.148 208.966 114.283 204.34 116.308 197.879C117.482 198.29 118.734 198.534 120.047 198.562C126.635 198.704 132.091 193.536 132.238 187.014C132.39 180.499 127.164 175.093 120.575 174.951Z" fill="white" fill-opacity="0.87" shape-rendering="crispEdges"/>
</g>
<defs>
<filter id="filter0_d_99_1734" x="630.297" y="213.991" width="142.944" height="112.741" filterUnits="userSpaceOnUse" color-interpolation-filters="sRGB">
<feFlood flood-opacity="0" result="BackgroundImageFix"/>
<feColorMatrix in="SourceAlpha" type="matrix" values="0 0 0 0 0 0 0 0 0 0 0 0 0 0 0 0 0 0 127 0" result="hardAlpha"/>
<feOffset dy="-5"/>
<feGaussianBlur stdDeviation="14"/>
<feComposite in2="hardAlpha" operator="out"/>
<feColorMatrix type="matrix" values="0 0 0 0 0.670588 0 0 0 0 0.52549 0 0 0 0 0.152941 0 0 0 0.6 0"/>
<feBlend mode="normal" in2="BackgroundImageFix" result="effect1_dropShadow_99_1734"/>
<feBlend mode="normal" in="SourceGraphic" in2="effect1_dropShadow_99_1734" result="shape"/>
</filter>
<filter id="filter1_d_99_1734" x="17.2972" y="119.991" width="142.943" height="112.741" filterUnits="userSpaceOnUse" color-interpolation-filters="sRGB">
<feFlood flood-opacity="0" result="BackgroundImageFix"/>
<feColorMatrix in="SourceAlpha" type="matrix" values="0 0 0 0 0 0 0 0 0 0 0 0 0 0 0 0 0 0 127 0" result="hardAlpha"/>
<feOffset dy="-5"/>
<feGaussianBlur stdDeviation="14"/>
<feComposite in2="hardAlpha" operator="out"/>
<feColorMatrix type="matrix" values="0 0 0 0 0.670588 0 0 0 0 0.52549 0 0 0 0 0.152941 0 0 0 0.6 0"/>
<feBlend mode="normal" in2="BackgroundImageFix" result="effect1_dropShadow_99_1734"/>
<feBlend mode="normal" in="SourceGraphic" in2="effect1_dropShadow_99_1734" result="shape"/>
</filter>
</defs>
</svg>
