<svg width="548" height="160" viewBox="0 0 548 160" fill="none" xmlns="http://www.w3.org/2000/svg">
<path d="M545.618 133.308C532.451 134.499 519.275 135.85 506.114 137.353C506.082 133.041 505.847 128.704 505.549 124.373C509.635 124.487 513.65 123.973 517.77 124.437C522.237 124.942 526.585 126.016 530.796 127.58C531.329 127.777 531.848 127.319 531.67 126.765C526.389 110.653 519.851 91.6006 504.688 82.0279C504.672 81.9649 504.636 81.9037 504.568 81.8706C504.338 81.7587 504.108 81.6469 503.877 81.5301C503.782 81.4747 503.691 81.4139 503.595 81.3536C503.548 81.3235 503.497 81.3184 503.452 81.3178C503.437 81.3094 503.426 81.3054 503.41 81.297C503.118 81.1565 502.807 80.9829 502.48 80.9053C502.37 79.5636 502.251 78.2279 502.127 76.8877C502.114 76.7497 502.05 76.6565 501.964 76.6002C501.826 76.4048 501.561 76.2964 501.35 76.4909C484.582 91.883 474.602 114.918 472.402 137.281C472.35 137.783 472.778 138.134 473.263 137.987C483.482 134.886 493.822 132.618 504.258 130.42C504.441 132.783 504.659 135.143 504.939 137.483C490.467 139.144 476.012 140.992 461.615 143.023C461.596 142.98 461.577 142.942 461.563 142.899C461.359 142.436 460.696 142.7 460.832 143.179C460.84 143.208 460.852 143.236 460.86 143.26C460.748 143.445 460.814 143.722 461.031 143.796C462.245 147.69 464.114 151.401 466.268 154.851C468.438 158.324 469.814 159.139 473.835 158.743C483.741 157.765 493.638 156.703 503.534 155.681C513.426 154.66 523.369 153.872 533.235 152.639C536.389 152.248 537.784 150.73 539.214 147.976C541.507 143.572 543.694 139.103 545.903 134.658C545.932 134.595 545.951 134.539 545.96 134.478C546.504 134.221 546.345 133.243 545.618 133.308ZM502.546 81.7938C502.731 81.8553 502.926 81.906 503.111 81.9626C503.208 81.9928 503.301 82.0187 503.398 82.044C510.066 87.2671 515.469 93.379 519.672 100.746C524.187 108.664 527.202 117.325 530.046 125.958C526.139 124.598 522.116 123.637 517.992 123.173C514.008 122.725 509.408 122.342 505.473 123.326C505.083 117.94 504.602 112.553 504.26 107.201C503.712 98.7283 503.232 90.2485 502.546 81.7938ZM473.773 136.501C474.957 125.568 477.936 114.887 482.639 104.924C487.413 94.8095 493.902 86.0796 501.349 77.8184C501.7 87.6581 502.39 97.4896 502.995 107.315C503.439 114.55 503.638 121.884 504.161 129.156C493.902 130.815 483.713 133.511 473.773 136.501ZM538.99 145.552C538.161 147.198 537.324 149.631 535.694 150.675C534.054 151.724 531.248 151.585 529.396 151.775C521.085 152.637 512.781 153.51 504.47 154.367C496.337 155.208 488.208 156.048 480.075 156.884C477.951 157.105 475.833 157.326 473.709 157.542C471.936 157.72 470.392 158.099 468.801 156.498C468.198 155.891 467.677 154.883 467.229 154.17C465.123 150.845 463.502 147.329 461.924 143.749C489.44 140.854 516.959 137.84 544.447 134.71C542.61 138.314 540.805 141.935 538.99 145.552Z" fill="#BAD266" fill-opacity="0.8"/>
<path d="M66.6522 22.5082C70.0232 16.8952 67.2882 9.21762 61.0392 6.87886C55.1081 4.66914 48.223 8.42728 44.9156 13.7661C42.2443 3.00781 33.4034 -2.34714 22.2091 2.37876C15.3399 5.26592 9.94952 14.2016 13.9088 20.7501C9.01137 19.4275 2.88955 22.5082 1.17225 27.4438C0.15459 30.3632 1.10865 33.2665 3.50968 35.1214C6.46726 37.3956 10.522 37.2343 13.9884 36.5569C8.43896 44.0571 15.9919 53.4444 23.688 55.9444C32.5289 58.8316 41.3697 54.5895 45.6153 46.8152C47.2849 49.6056 51.2601 51.2508 54.3131 50.654C58.8289 49.7669 61.7865 45.7184 62.1045 41.3312C67.6857 45.041 76.2404 44.1216 79.0072 37.1537C82.3464 28.7019 74.062 22.7179 66.6522 22.5082ZM75.4613 37.1214C72.0744 42.299 66.3501 40.686 61.8819 38.2505C61.8183 37.9602 61.7547 37.6698 61.6593 37.3956C61.1028 35.6537 58.7653 36.3956 59.0197 38.1376C59.5922 42.0409 58.5745 46.4281 54.3608 47.7184C50.5923 48.8636 48.398 46.541 47.0305 43.5732C47.0782 43.4442 47.1418 43.3151 47.1736 43.17C47.7142 41.4925 45.186 40.8312 44.5976 42.4441C41.9581 49.7346 35.6772 54.7024 27.8381 53.9121C20.0625 53.1218 10.7128 45.041 16.3099 36.6698C16.8664 35.8311 15.7534 34.8956 15.006 35.3795C15.0378 34.6698 14.5926 33.8956 13.7499 33.9439C11.6351 34.0569 9.42478 34.4762 7.34176 33.8633C4.4637 33.0084 2.66692 30.4923 4.33651 27.4922C6.64215 23.3308 12.5255 21.9921 16.4848 24.2179C17.0572 24.5405 17.6297 24.1373 17.741 23.6211C18.0908 23.2986 18.2657 22.7824 17.9636 22.3792C12.4619 14.9919 17.4865 6.58854 25.6278 4.4272C29.7621 3.3304 34.1666 3.10459 37.633 5.95949C41.0835 8.79826 41.9899 13.1854 42.8167 17.363C43.1507 19.0565 45.3768 18.4436 45.4722 16.9275C48.064 13.2661 52.1347 9.60473 56.6664 9.36279C64.2353 8.94342 66.5409 16.5887 63.5515 22.4437C63.2176 23.0889 63.4879 23.7986 63.9809 24.1857C63.9968 24.9276 64.4579 25.6212 65.4119 25.5889C71.0886 25.3309 80.0249 30.1213 75.4613 37.1214Z" fill="#F18E85" fill-opacity="0.8"/>
</svg>
