<svg width="219" height="1004" viewBox="0 0 219 1004" fill="none" xmlns="http://www.w3.org/2000/svg">
<path d="M49.7111 992.694C42.2778 991.478 34.8165 990.347 27.3417 989.303C27.9346 986.928 28.4195 984.511 28.8682 982.088C31.1063 982.732 33.3945 983.02 35.6018 983.861C37.9953 984.773 40.2422 985.981 42.3441 987.44C42.6101 987.623 42.9616 987.445 42.9417 987.115C42.3094 977.509 41.4001 966.109 34.3892 958.692C34.3893 958.655 34.3781 958.617 34.3453 958.589C34.2341 958.495 34.1229 958.4 34.0121 958.304C33.9675 958.26 33.9261 958.213 33.8819 958.167C33.8598 958.143 33.8327 958.133 33.808 958.126C33.8005 958.12 33.7953 958.116 33.7878 958.109C33.6461 957.99 33.4991 957.851 33.3298 957.762C33.4594 957.009 33.5829 956.257 33.704 955.503C33.7162 955.426 33.6941 955.365 33.6551 955.322C33.6063 955.195 33.4755 955.098 33.3318 955.175C21.9003 961.251 13.1317 972.493 8.75115 984.472C8.65176 984.741 8.83814 984.994 9.12627 984.983C15.2039 984.73 21.2299 984.953 27.2993 985.228C27.0658 986.553 26.8518 987.882 26.6754 989.207C18.4547 988.063 10.2176 987.025 1.9862 986.095C1.98173 986.069 1.97683 986.045 1.97516 986.019C1.92794 985.736 1.52493 985.787 1.53215 986.069C1.53234 986.086 1.53531 986.104 1.53592 986.118C1.44804 986.204 1.44561 986.365 1.5547 986.437C1.67302 988.749 2.179 991.055 2.87869 993.257C3.58459 995.474 4.228 996.118 6.50299 996.472C12.1069 997.342 17.7181 998.165 23.3231 999.01C28.9253 999.854 34.5234 1000.83 40.1415 1001.56C41.9372 1001.79 42.9216 1001.16 44.1005 999.846C45.9893 997.751 47.8288 995.606 49.6772 993.476C49.702 993.446 49.7208 993.418 49.7344 993.386C50.0708 993.322 50.1215 992.761 49.7111 992.694ZM33.2403 958.259C33.334 958.319 33.4341 958.375 33.5281 958.432C33.5777 958.463 33.625 958.49 33.675 958.518C36.6149 962.336 38.7306 966.463 40.0061 971.11C41.376 976.104 41.8135 981.292 42.1599 986.441C40.1969 985.138 38.1134 984.038 35.9033 983.197C33.7689 982.385 31.2848 981.521 28.9744 981.502C29.5217 978.486 30.0196 975.457 30.5886 972.468C31.4857 967.733 32.4219 963.004 33.2403 958.259ZM9.61806 984.238C11.8195 978.397 14.9754 972.95 18.9817 968.143C23.048 963.262 27.8644 959.386 33.1429 955.904C31.9435 961.362 30.932 966.864 29.8742 972.35C29.0947 976.39 28.1662 980.449 27.4247 984.52C21.5295 983.974 15.5262 984.008 9.61806 984.238ZM44.3202 998.482C43.6299 999.269 42.8233 1000.49 41.7762 1000.83C40.7231 1001.17 39.1944 1000.7 38.1457 1000.54C33.4381 999.831 28.7325 999.13 24.0253 998.421C19.4188 997.727 14.815 997.033 10.2089 996.337C9.00604 996.157 7.80598 995.977 6.60356 995.794C5.59998 995.64 4.69418 995.628 4.04301 994.523C3.79673 994.103 3.65189 993.475 3.50566 993.02C2.81422 990.893 2.41762 988.73 2.05419 986.538C17.6459 988.857 33.2565 991.112 48.8663 993.298C47.3427 995.018 45.834 996.752 44.3202 998.482Z" fill="#BAD266" fill-opacity="0.8"/>
<path d="M198.861 962.667C200.695 959.671 199.207 955.573 195.805 954.324C192.577 953.145 188.83 955.151 187.029 958C185.575 952.258 180.763 949.399 174.67 951.922C170.931 953.463 167.997 958.233 170.152 961.728C167.486 961.022 164.154 962.667 163.22 965.301C162.666 966.86 163.185 968.409 164.492 969.4C166.102 970.614 168.309 970.527 170.195 970.166C167.175 974.169 171.286 979.18 175.475 980.515C180.287 982.056 185.099 979.791 187.41 975.642C188.319 977.131 190.483 978.009 192.144 977.691C194.602 977.217 196.212 975.056 196.385 972.714C199.423 974.695 204.08 974.204 205.585 970.484C207.403 965.973 202.894 962.779 198.861 962.667ZM203.655 970.467C201.812 973.231 198.696 972.37 196.264 971.07C196.229 970.915 196.195 970.76 196.143 970.614C195.84 969.684 194.568 970.08 194.706 971.01C195.018 973.093 194.464 975.435 192.17 976.124C190.119 976.735 188.925 975.495 188.18 973.911C188.206 973.842 188.241 973.773 188.258 973.696C188.553 972.8 187.176 972.447 186.856 973.308C185.419 977.2 182.001 979.852 177.734 979.43C173.502 979.008 168.413 974.695 171.459 970.226C171.762 969.778 171.156 969.279 170.749 969.537C170.767 969.159 170.524 968.745 170.066 968.771C168.915 968.831 167.711 969.055 166.578 968.728C165.011 968.272 164.033 966.929 164.942 965.327C166.197 963.106 169.399 962.391 171.554 963.579C171.866 963.752 172.177 963.536 172.238 963.261C172.428 963.089 172.524 962.813 172.359 962.598C169.365 958.655 172.1 954.169 176.531 953.015C178.781 952.43 181.179 952.309 183.065 953.833C184.943 955.349 185.437 957.691 185.887 959.92C186.069 960.824 187.28 960.497 187.332 959.688C188.743 957.734 190.959 955.779 193.425 955.65C197.545 955.426 198.8 959.507 197.173 962.632C196.991 962.977 197.138 963.356 197.407 963.562C197.415 963.958 197.666 964.329 198.186 964.311C201.275 964.174 206.139 966.731 203.655 970.467Z" fill="#F18E85" fill-opacity="0.8"/>
<path d="M218.903 702.039C219.184 701.669 218.809 701.043 218.362 701.087C216.064 701.29 213.729 701.421 211.452 701.785C211.452 701.683 211.437 701.581 211.372 701.472C210.039 699.167 208.432 697.065 206.573 695.167C206.285 694.869 205.672 694.978 205.586 695.429C205.168 697.734 204.692 700.09 204.512 702.432C202.22 702.454 199.914 702.832 197.623 702.97C197.075 703.007 196.794 703.639 197.176 704.054C198.711 705.719 200.858 707.661 203.1 708.221C203.136 708.228 203.164 708.228 203.2 708.228C202.602 710.519 202.66 713.064 202.682 715.399C202.689 715.951 203.33 716.184 203.719 715.835C205.636 714.097 207.337 712.17 208.857 710.075C210.904 711.813 213.289 713.159 215.667 714.366C216.136 714.606 216.777 714.206 216.604 713.639C215.963 711.566 215.545 709.479 215.055 707.37C215.04 707.297 215.004 707.239 214.968 707.181C215.012 707.145 215.062 707.116 215.098 707.065C216.366 705.392 217.642 703.719 218.903 702.039ZM209.189 709.195C209.052 709.115 208.908 709.13 208.785 709.195C208.519 709.028 208.13 709.014 207.892 709.341C206.695 710.999 205.362 712.526 203.914 713.959C203.979 711.93 204.173 709.894 204.051 707.886C204.036 707.668 203.878 707.545 203.705 707.523C203.669 707.421 203.604 707.326 203.503 707.246C202.624 706.606 201.608 706.177 200.721 705.537C200.131 705.116 199.59 704.636 199.064 704.141C200.988 704.01 202.97 703.836 204.8 703.319C204.966 703.276 205.06 703.152 205.096 703.021C205.139 702.985 205.175 702.934 205.189 702.876C205.78 700.927 206.148 698.883 206.515 696.862C207.964 698.469 209.239 700.2 210.327 702.083C210.421 702.25 210.558 702.33 210.702 702.359C210.738 702.592 210.911 702.818 211.178 702.818C213.116 702.825 215.062 702.643 217 702.469C216.006 703.792 215.012 705.108 214.017 706.432C213.83 706.679 213.873 706.919 214.024 707.086C213.902 707.188 213.83 707.334 213.851 707.53C214.046 709.217 214.449 710.897 214.932 712.533C212.987 711.486 211.113 710.308 209.189 709.195Z" fill="#F18E85" fill-opacity="0.8"/>
<path d="M205.752 7.17511C204.008 1.17988 197.227 1.92928 193.789 5.6192C192.928 0.244908 185.946 -2.31734 182.128 2.69296C176.043 10.6866 184.288 16.7603 190.833 20.279C190.847 20.7001 191.192 21.114 191.737 20.9713C196.968 19.6223 207.769 14.1124 205.752 7.17511ZM202.15 13.1989C199.279 16.2821 195.548 18.1806 191.593 19.4653C191.558 19.4296 191.536 19.3868 191.486 19.3511C188.285 17.0244 182.709 14.3837 181.611 10.3155C180.815 7.36067 182.437 3.57083 184.977 2.06489C188.845 -0.233282 193.23 3.21397 192.469 7.5391C192.34 8.25282 193.323 8.78811 193.718 8.06725C195.067 5.59065 197.765 3.38527 200.829 4.21318C205.494 5.47646 204.712 10.4511 202.15 13.1989Z" fill="#FACA4E" fill-opacity="0.8"/>
</svg>
