<svg width="591" height="900" viewBox="0 0 591 900" fill="none" xmlns="http://www.w3.org/2000/svg">
<path d="M545.432 872.863C532.266 874.05 519.09 875.396 505.928 876.894C505.896 872.597 505.662 868.275 505.363 863.96C509.449 864.074 513.464 863.561 517.584 864.024C522.051 864.528 526.399 865.597 530.61 867.156C531.143 867.352 531.662 866.896 531.484 866.343C526.203 850.289 519.665 831.306 504.502 821.768C504.486 821.705 504.45 821.644 504.382 821.611C504.152 821.499 503.922 821.388 503.691 821.272C503.596 821.216 503.505 821.156 503.41 821.096C503.362 821.066 503.312 821.061 503.267 821.06C503.251 821.052 503.24 821.048 503.225 821.039C502.932 820.899 502.621 820.726 502.294 820.649C502.185 819.312 502.066 817.981 501.941 816.646C501.928 816.508 501.864 816.416 501.779 816.359C501.64 816.165 501.375 816.057 501.165 816.251C484.397 831.587 474.416 854.539 472.216 876.821C472.165 877.322 472.593 877.672 473.077 877.526C483.296 874.435 493.636 872.175 504.072 869.985C504.255 872.34 504.473 874.692 504.754 877.023C490.281 878.677 475.826 880.519 461.429 882.543C461.41 882.5 461.391 882.462 461.377 882.419C461.173 881.958 460.51 882.221 460.646 882.698C460.654 882.727 460.666 882.755 460.674 882.78C460.562 882.964 460.629 883.24 460.845 883.313C462.059 887.193 463.928 890.891 466.082 894.328C468.253 897.788 469.628 898.601 473.65 898.207C483.555 897.232 493.452 896.174 503.348 895.156C513.24 894.138 523.183 893.353 533.049 892.125C536.203 891.735 537.598 890.222 539.028 887.478C541.321 883.09 543.508 878.638 545.717 874.208C545.746 874.146 545.765 874.089 545.775 874.029C546.318 873.773 546.159 872.798 545.432 872.863ZM502.36 821.534C502.545 821.596 502.74 821.646 502.925 821.703C503.023 821.733 503.115 821.758 503.212 821.784C509.881 826.988 515.284 833.078 519.486 840.418C524.001 848.308 527.017 856.938 529.86 865.539C525.953 864.184 521.93 863.226 517.806 862.764C513.822 862.318 509.222 861.936 505.287 862.917C504.897 857.55 504.417 852.182 504.075 846.85C503.526 838.408 503.046 829.959 502.36 821.534ZM473.587 876.045C474.771 865.15 477.75 854.508 482.454 844.581C487.228 834.503 493.716 825.805 501.163 817.573C501.515 827.378 502.204 837.174 502.809 846.963C503.253 854.172 503.452 861.48 503.975 868.726C493.716 870.379 483.528 873.065 473.587 876.045ZM538.804 885.063C537.975 886.703 537.138 889.128 535.508 890.167C533.869 891.213 531.062 891.074 529.21 891.263C520.9 892.123 512.595 892.992 504.284 893.847C496.151 894.684 488.023 895.521 479.889 896.354C477.766 896.574 475.647 896.794 473.524 897.01C471.75 897.187 470.206 897.564 468.615 895.97C468.013 895.364 467.491 894.36 467.044 893.65C464.937 890.337 463.316 886.833 461.738 883.266C489.254 880.382 516.773 877.379 544.261 874.26C542.424 877.851 540.619 881.459 538.804 885.063Z" fill="#BAD266" fill-opacity="0.8"/>
<path d="M66.4664 762.462C69.8374 756.869 67.1025 749.219 60.8534 746.889C54.9224 744.687 48.0372 748.432 44.7298 753.752C42.0585 743.032 33.2176 737.696 22.0233 742.405C15.1541 745.282 9.76373 754.186 13.7231 760.71C8.82558 759.393 2.70376 762.462 0.986457 767.38C-0.0312013 770.289 0.922856 773.182 3.32389 775.03C6.28146 777.296 10.3362 777.135 13.8026 776.46C8.25317 783.933 15.8061 793.287 23.5022 795.778C32.3431 798.655 41.1839 794.428 45.4295 786.682C47.0991 789.462 51.0743 791.101 54.1273 790.507C58.6432 789.623 61.6007 785.589 61.9187 781.217C67.5 784.914 76.0546 783.998 78.8214 777.055C82.1606 768.634 73.8762 762.671 66.4664 762.462ZM75.2755 777.023C71.8886 782.182 66.1643 780.575 61.6961 778.148C61.6325 777.859 61.5689 777.569 61.4735 777.296C60.917 775.56 58.5795 776.3 58.8339 778.035C59.4064 781.925 58.3887 786.296 54.175 787.582C50.4065 788.723 48.2122 786.408 46.8447 783.451C46.8924 783.323 46.956 783.194 46.9878 783.05C47.5284 781.378 45.0002 780.719 44.4119 782.326C41.7723 789.591 35.4914 794.541 27.6523 793.753C19.8767 792.966 10.527 784.914 16.1241 776.573C16.6806 775.737 15.5676 774.805 14.8202 775.287C14.852 774.58 14.4068 773.809 13.5641 773.857C11.4493 773.969 9.23899 774.387 7.15597 773.776C4.27791 772.925 2.48113 770.418 4.15072 767.428C6.45636 763.282 12.3397 761.948 16.299 764.166C16.8714 764.487 17.4439 764.085 17.5552 763.571C17.905 763.25 18.0799 762.735 17.7778 762.334C12.2761 754.973 17.3008 746.6 25.442 744.446C29.5763 743.353 33.9808 743.128 37.4472 745.973C40.8977 748.802 41.8041 753.173 42.631 757.335C42.9649 759.023 45.191 758.412 45.2864 756.902C47.8782 753.253 51.9489 749.605 56.4806 749.364C64.0495 748.946 66.3551 756.564 63.3657 762.398C63.0318 763.041 63.3021 763.748 63.7951 764.134C63.811 764.873 64.2721 765.564 65.2262 765.532C70.9028 765.275 79.8391 770.048 75.2755 777.023Z" fill="#F18E85" fill-opacity="0.8"/>
<path d="M576.293 370.434C571.463 370.363 568.036 373.421 565.933 377.36C564.277 368.504 553.474 363.77 546.181 370.479C535.479 380.311 550.098 392.163 557.813 398.034C557.82 398.9 558.47 399.726 559.53 399.406C569.111 396.489 588.107 392.615 585.892 378.629C585.117 373.803 581.137 370.498 576.293 370.434ZM581.988 384.91C580.975 386.774 579.242 388.247 577.538 389.421C572.149 393.166 565.077 394.537 558.887 396.496C558.872 396.504 558.872 396.504 558.857 396.512C554.322 391.347 543.97 384.69 545.423 377.295C546.375 372.475 551.025 369.332 555.865 370.098C560.706 370.863 563.269 374.886 563.754 379.488C563.843 380.329 564.746 380.566 565.427 380.316C565.813 380.508 566.313 380.487 566.571 380.046C567.742 377.946 569.513 375.621 571.573 374.333C574.19 372.672 579.285 372.848 581.491 375.208C583.666 377.546 583.407 382.28 581.988 384.91Z" fill="#F18E85" fill-opacity="0.8"/>
<path d="M432.498 10.7813C435.643 10.735 437.874 12.7255 439.243 15.2907C440.321 9.52433 447.355 6.44215 452.103 10.8101C459.071 17.212 449.553 24.9286 444.53 28.7506C444.525 29.3145 444.103 29.8525 443.412 29.6442C437.174 27.7448 424.806 25.2228 426.249 16.1163C426.753 12.9745 429.344 10.8225 432.498 10.7813ZM428.79 20.2059C429.45 21.4197 430.578 22.3789 431.687 23.143C435.196 25.5813 439.801 26.4738 443.831 27.7496C443.84 27.7547 443.84 27.7547 443.85 27.7598C446.803 24.3973 453.543 20.0625 452.597 15.2479C451.977 12.1097 448.95 10.0637 445.798 10.562C442.647 11.0603 440.978 13.6796 440.662 16.6758C440.604 17.2237 440.016 17.378 439.573 17.2153C439.321 17.3397 438.996 17.3261 438.828 17.0396C438.065 15.6722 436.912 14.1581 435.571 13.3197C433.867 12.238 430.55 12.3526 429.114 13.8891C427.697 15.4116 427.866 18.4938 428.79 20.2059Z" fill="#F18E85" fill-opacity="0.8"/>
</svg>
