<svg width="1874" height="1978" viewBox="0 0 1874 1978" fill="none" xmlns="http://www.w3.org/2000/svg">
<path d="M1873.26 1126.75C1871.96 1121.99 1865.24 1120.39 1861.21 1122.49C1860.18 1123.02 1859.33 1123.77 1858.63 1124.6C1858.4 1124.45 1858.16 1124.34 1857.95 1124.17C1855.75 1122.59 1853.8 1120.71 1852.07 1118.62C1857.85 1115.02 1862.81 1110.21 1866.3 1104.09C1876.4 1086.38 1865.85 1068.05 1850.66 1057.73C1860.48 1056.36 1867.85 1045.13 1862.69 1035.88C1859.26 1029.73 1850.99 1028.47 1846.18 1032.5C1845.72 1027.75 1842.02 1022.97 1837.8 1021.4C1832.32 1019.39 1826.38 1021.67 1823.2 1026.19C1822.09 1018.55 1817.9 1010.07 1809.11 1014.04C1798.24 1018.94 1794.17 1034.37 1791.75 1045C1786.51 1045.85 1781.47 1047.28 1776.86 1049.42C1785.15 1023.74 1753.92 1007.42 1734.88 1022.92C1734.81 1022.84 1734.73 1022.74 1734.63 1022.67C1729.87 1019.54 1724.5 1017.2 1719.42 1014.62C1718.31 1014.05 1716.63 1015.02 1717.13 1016.39C1718.72 1020.82 1721.47 1025.92 1722.22 1030.53C1722.77 1033.97 1721.68 1034.58 1718.99 1036.3C1716.68 1037.78 1714.38 1039.27 1712.07 1040.75C1710.87 1041.52 1711.12 1043.28 1712.45 1043.72C1716.68 1045.1 1720.84 1046.65 1725.1 1047.97C1727.74 1062.86 1742.98 1075.41 1760.29 1071.18C1760.56 1071.11 1760.77 1071 1760.94 1070.86C1759.61 1077.84 1760.46 1085.43 1763.47 1092.31C1772.05 1111.97 1793.04 1124.34 1813.79 1126.62C1817.71 1127.05 1821.79 1127.1 1825.87 1126.79C1826.66 1129.44 1828 1132 1829.73 1134.2C1827.96 1135.57 1826.6 1137.54 1826.2 1140.02C1826.03 1141.02 1827.5 1141.47 1827.76 1140.45C1828.26 1138.54 1829.43 1136.8 1831.01 1135.69C1833 1137.77 1835.4 1139.37 1838.15 1140.09C1839.33 1140.39 1839.89 1138.85 1838.94 1138.19C1837.2 1136.97 1835.62 1135.74 1834.2 1134.44C1834.22 1134.44 1834.24 1134.42 1834.25 1134.42C1837.56 1134.02 1840.14 1136.04 1842.01 1138.57C1842.59 1139.35 1844.07 1138.94 1843.72 1137.85C1841.94 1132.52 1836.8 1131.19 1832.52 1132.72C1830.89 1130.9 1829.56 1128.92 1828.59 1126.57C1836.15 1125.67 1843.6 1123.46 1850.16 1119.77C1852.07 1122.29 1854.55 1124.87 1857.31 1126.87C1856.27 1129.44 1856.33 1132.47 1857.73 1134.99C1858.33 1136.09 1859.91 1135.12 1859.39 1134.02C1858.53 1132.19 1858.56 1130 1859.31 1128.15C1861.16 1129.22 1863.09 1129.99 1865.07 1130.24C1866.13 1130.37 1866.28 1128.89 1865.57 1128.4C1864.1 1127.4 1862.47 1126.65 1860.89 1125.85C1861.42 1125.35 1862.01 1124.92 1862.72 1124.62C1866.33 1123.16 1869.13 1125.32 1871.56 1127.74C1872.24 1128.5 1873.54 1127.75 1873.26 1126.75ZM1801.72 1025.14C1804.63 1020.59 1809.41 1014.99 1815.6 1016.82C1821.21 1018.49 1820.59 1027.72 1820.72 1032.1C1820.77 1033.87 1823.3 1033.83 1823.44 1032.1C1823.49 1031.47 1823.5 1030.78 1823.5 1030.07C1825.87 1025.42 1831.24 1022.25 1836.48 1024.02C1842.49 1026.05 1842.99 1032.02 1842.79 1037.33C1842.74 1038.57 1844.44 1038.93 1845.03 1037.95C1845.33 1037.45 1845.55 1036.93 1845.73 1036.4C1849.74 1030.78 1858.66 1032.37 1860.69 1039.45C1863.19 1048.17 1855.63 1052.72 1848.66 1054.96C1848.18 1055.11 1847.88 1055.48 1847.75 1055.88C1833.02 1047.08 1812.34 1042.27 1793.93 1044.65C1795.93 1037.95 1797.91 1031.08 1801.72 1025.14ZM1724.76 1045.47C1722.03 1044.27 1719.27 1043.13 1716.53 1041.98C1720.19 1040.05 1724.98 1037.57 1725.98 1034.43C1726.69 1032.18 1725.21 1029.53 1724.48 1027.54C1723.48 1024.77 1722.47 1022 1721.45 1019.24C1725.2 1021.2 1728.97 1023.17 1732.88 1024.7C1732.77 1024.82 1732.65 1024.9 1732.53 1025.02C1726.46 1031.2 1724.21 1038.5 1724.76 1045.47ZM1759.41 1068.1C1736.51 1073.1 1717.06 1045.62 1734.86 1027.34C1751.74 1010.02 1780.92 1025.37 1774.92 1049.2C1774.8 1049.63 1774.97 1049.97 1775.23 1050.17C1775.07 1050.25 1774.88 1050.32 1774.72 1050.42C1774.28 1050.65 1774.1 1051 1774.07 1051.35C1767.28 1055.45 1763.05 1061.9 1761.27 1069.15C1761 1068.45 1760.34 1067.9 1759.41 1068.1ZM1849.24 1115.64C1842.66 1119.76 1835.15 1122.09 1827.41 1122.92C1827.35 1122.59 1827.25 1122.27 1827.18 1121.92C1826.96 1120.69 1824.9 1120.96 1824.98 1122.22C1825 1122.52 1825.03 1122.82 1825.08 1123.14C1811.46 1124.04 1797.31 1120.31 1786.2 1113.01C1767.14 1100.51 1751.62 1067.78 1775.33 1052.82C1775.46 1052.83 1775.6 1052.85 1775.75 1052.82C1787.54 1050.72 1798.43 1047.8 1810.59 1048.65C1822.39 1049.47 1834.37 1052.77 1844.69 1058.63C1854.32 1064.11 1863.82 1072.86 1866.02 1084.23C1868.58 1097.49 1859.91 1108.96 1849.24 1115.64Z" fill="#F18E85" fill-opacity="0.8"/>
<path d="M1808.26 1098.23C1807.68 1097.18 1806.02 1097.9 1806.34 1099.05C1808.68 1107.37 1798.63 1109.51 1792.9 1106.29C1789.57 1104.4 1787.09 1101.38 1785.57 1097.9C1782.71 1091.42 1783.41 1084.41 1787.06 1078.42C1787.59 1077.56 1786.3 1076.5 1785.63 1077.32C1778.69 1086.03 1780.32 1099.7 1788.82 1106.87C1793.09 1110.46 1799.8 1112.65 1804.91 1109.54C1808.93 1107.12 1810.52 1102.35 1808.26 1098.23Z" fill="#F18E85" fill-opacity="0.8"/>
<path d="M1829.05 1090.35C1828.09 1089.42 1826.27 1090.68 1827.12 1091.83C1830.2 1096.05 1830.2 1102.72 1825.51 1105.91C1820.37 1109.41 1813.16 1105.81 1811.48 1100.29C1811.05 1098.93 1809 1099.5 1809.33 1100.88C1811.02 1108.07 1820.01 1112.43 1826.63 1108.61C1832.92 1104.98 1834.33 1095.39 1829.05 1090.35Z" fill="#F18E85" fill-opacity="0.8"/>
<path d="M1845.74 1082.07C1844.27 1079.87 1840.87 1077.15 1837.98 1078.3C1837.2 1078.62 1836.83 1079.72 1837.72 1080.17C1839.47 1081.06 1841.28 1081.26 1842.67 1082.83C1844.16 1084.51 1844.93 1087.02 1843.97 1089.12C1842.21 1092.97 1836.36 1093.5 1833.45 1090.66C1832.3 1089.53 1830.54 1091.23 1831.65 1092.39C1835.73 1096.57 1843.87 1095.69 1846.53 1090.39C1847.85 1087.7 1847.39 1084.51 1845.74 1082.07Z" fill="#F18E85" fill-opacity="0.8"/>
<path d="M1745.99 1028.12C1741.48 1027.38 1737.45 1031.17 1737.3 1035.61C1737.26 1036.48 1738.7 1036.72 1738.82 1035.82C1739.25 1032.67 1742.2 1029.83 1745.51 1030.44C1748.74 1031.03 1750.32 1034.77 1749.78 1037.74C1749.54 1039.09 1751.29 1039.54 1751.79 1038.3C1753.54 1034.02 1750.52 1028.87 1745.99 1028.12Z" fill="#F18E85" fill-opacity="0.8"/>
<path d="M1834.36 32.0911C1828.21 30.1462 1821.37 34.865 1815.8 37.3192C1808.66 40.4891 1801.54 43.8577 1795 48.1318C1794.71 47.9688 1794.36 47.9685 1794.02 48.1863C1780.79 57.3652 1769.05 69.4283 1757.55 80.6404C1745.02 92.8479 1732.82 105.417 1721.12 118.438C1721.11 118.457 1721.1 118.477 1721.09 118.496C1717.98 119.195 1715.71 121.363 1714.8 124.339C1710.62 125.684 1708.86 128.332 1708.6 131.424C1704.38 133.994 1698.87 139.855 1698.88 145.019C1698.89 149.528 1702.8 153.241 1705.7 156.24C1708.91 159.554 1712.88 163.977 1717.75 164.617C1723.35 165.37 1728.37 159.75 1732.45 156.69C1732.95 156.316 1733.11 155.828 1733.1 155.353C1736.04 155.114 1738.76 153.552 1740.84 149.908C1740.87 149.85 1740.87 149.803 1740.9 149.745C1744.12 149.242 1746.8 147.026 1748.05 141.866C1748.39 141.791 1748.72 141.64 1749.01 141.329C1770.94 117.49 1794.92 94.4228 1814.81 68.825C1815.42 69.0177 1816.14 68.8656 1816.49 68.0876C1821.73 56.3575 1827.66 45.16 1834.85 34.4799C1835.35 33.7545 1835.4 32.4148 1834.36 32.0911ZM1723.81 120.778C1735.22 108.401 1746.82 96.1991 1758.83 84.4322C1769.76 73.748 1781.71 63.8722 1792.32 52.8545C1792.25 54.0429 1792.57 55.2687 1793.33 56.2358C1794.04 57.1568 1795.1 57.7459 1796.23 58.0197C1772.09 79.4866 1750.31 104.242 1728.1 127.671C1727.83 127.944 1727.76 128.24 1727.74 128.535C1725.14 125.765 1722.67 122.612 1723.27 121.182C1723.46 121.063 1723.65 120.963 1723.81 120.778ZM1797.33 59.6615C1797.37 60.5717 1797.63 61.4668 1798.16 62.2312C1799.03 63.4612 1800.44 64.1455 1801.9 64.3156C1777.11 85.1257 1754.86 109.685 1732.91 133.401C1732.84 133.345 1732.77 133.29 1732.71 133.235C1732.1 132.739 1730.67 131.457 1729.11 129.903C1729.49 129.941 1729.89 129.826 1730.22 129.466C1752.38 106.153 1776.19 83.8969 1797.33 59.6615ZM1716.32 160.781C1713.38 160.176 1709.84 155.817 1707.83 153.725C1706.54 152.392 1705.15 150.986 1704.07 149.448C1701.67 145.999 1702.85 143.129 1704.76 139.709C1706.11 137.29 1707.6 135.741 1708.62 133.569C1709.15 138.178 1712.24 143.241 1715.28 146.218C1718.81 149.656 1724.09 153.731 1729.22 155.01C1725.55 157.888 1721 161.759 1716.32 160.781ZM1714.35 127.085C1714.23 132.87 1718.57 137.558 1722.49 141.271C1726.06 144.66 1731.87 148.655 1737.14 149.626C1728.98 159.307 1702.92 136.102 1714.35 127.085ZM1720.68 121.165C1720.59 125.79 1725.54 131.09 1728.55 133.981C1732.97 138.212 1738.58 141.386 1744.59 142.613C1737.98 157.36 1707.98 128.953 1720.68 121.165ZM1746.11 138.842C1745.9 139.075 1745.77 139.316 1745.68 139.556C1742.06 138.494 1738.73 137.234 1735.6 135.295C1757.84 111.296 1781.94 89.0608 1804.17 65.1004C1804.39 65.93 1804.83 66.6777 1805.42 67.3076C1806.71 68.6597 1808.68 69.2814 1810.67 69.2762C1787.76 90.8054 1767.36 115.714 1746.11 138.842ZM1814.23 65.9733C1814.16 66.013 1814.11 66.0335 1814.07 66.063C1814.07 66.063 1814.06 66.0822 1814.04 66.0733C1812.18 65.999 1810.33 66.817 1808.5 66.0774C1807.62 65.7115 1806.8 64.9738 1806.63 63.9814C1806.41 62.7248 1807.54 61.8499 1808.22 60.949C1808.94 59.9713 1807.68 58.9603 1806.82 59.752C1806.46 60.0749 1806.08 60.3888 1805.74 60.7014C1805.61 60.6859 1805.45 60.6806 1805.32 60.7126C1804.47 60.9249 1803.8 61.4552 1802.88 61.5175C1802 61.5695 1801.04 61.3099 1800.46 60.6134C1799.6 59.6013 1799.75 58.3822 1800.32 57.3608C1800.74 57.0649 1801.07 56.6766 1801.24 56.1972C1801.37 56.0704 1801.52 55.9525 1801.67 55.8347C1802.32 55.3428 1802.02 54.0503 1801.09 54.2266C1800.41 54.3493 1799.84 54.6682 1799.32 55.0614C1798.89 55.2343 1798.45 55.4262 1797.94 55.4682C1797.08 55.5574 1796.18 55.2966 1795.56 54.677C1794.16 53.271 1795.01 50.9985 1796.41 49.9647C1796.62 49.8264 1796.72 49.6149 1796.76 49.4239C1802.22 47.0389 1807.57 44.3627 1812.99 41.8841C1814.8 41.048 1817.44 39.5638 1820.27 38.1694C1821.03 40.684 1822.98 42.9865 1825.49 43.8125C1821.28 50.9393 1817.48 58.3023 1814.23 65.9733Z" fill="#FACA4E" fill-opacity="0.8"/>
<path d="M59.6401 667.062C56.8663 664.851 52.4726 665.087 49.6567 667.465C45.442 671.078 47.2583 677.764 51.1386 681.067C55.4562 684.754 62.3256 684.715 65.2394 679.634C67.9461 674.85 65.1756 668.344 59.6401 667.062ZM53.9223 677.662C52.2199 676.116 50.9258 673.328 52.2354 671.267C53.2528 669.686 55.4333 669.115 57.3095 669.577C57.4291 669.941 57.6423 670.291 58.0243 670.516C60.3717 672.029 62.9298 674.372 61.223 677.361C59.7141 680.006 56.0529 679.547 53.9223 677.662Z" fill="#BAD266" fill-opacity="0.8"/>
<path d="M162.423 690.871C163.209 690.51 163.842 689.837 164.015 688.762C165.831 676.993 166.663 663.509 159.564 653.208C154.784 646.252 146.62 641.973 138.552 643.7C146.443 616.94 134.028 587.515 106.261 578.38C74.2604 567.825 56.8381 596.407 55.841 625.077C45.719 619.889 33.3736 622.269 24.838 630.104C14.5636 639.492 11.8693 655.063 15.047 668.162C14.3478 668.871 14.3552 670.279 15.5458 670.695C15.7036 670.763 15.9085 670.823 16.0857 670.864C16.6177 671.399 17.3071 671.59 17.9656 671.471C22.5172 672.906 27.4007 674.16 32.0923 674.744C33.2018 682.898 38.2602 690.872 44.8246 695.028C55.3554 701.696 70.3734 698.784 77.7299 688.685C78.6857 687.37 79.4753 685.94 80.0961 684.516C83.6756 685.399 87.3074 686.029 90.9695 686.556C94.5375 687.101 98.3825 687.838 102.027 687.446C102.548 696.799 108.197 705.638 117.059 709.742C128.351 714.961 142.528 710.185 147.863 698.679C148.884 696.503 149.418 694.317 149.661 692.136C151.159 692.229 152.637 692.351 154.131 692.566C156.027 692.854 157.996 693.688 159.9 693.611C161.635 693.54 162.583 692.178 162.423 690.871ZM49.9232 691.482C41.1617 687.53 34.8367 676.118 38.0592 666.524C41.6402 655.942 56.0897 654.202 65.5563 657.613C65.4162 658.464 65.6693 659.342 66.7245 659.952C87.1028 671.493 70.6113 700.805 49.9232 691.482ZM121.063 705.229C98.2481 697.189 107.783 662.335 130.961 668.73C131.064 669.173 131.28 669.571 131.668 669.841C138.843 675.246 146.642 683.89 143.694 693.799C140.917 703.166 130.178 708.437 121.063 705.229ZM154.491 688.032C152.899 687.956 151.333 688.02 149.728 688.141C148.991 678.802 142.191 670.317 133.584 666.143C133.398 666.055 133.249 666.033 133.072 665.993C122.987 659.511 109.284 664.905 104.247 675.629C103.177 677.935 102.488 680.343 102.184 682.73C98.92 681.985 95.433 682.033 92.1034 681.736C88.4831 681.444 84.9041 680.975 81.2948 680.608C83.413 670.946 78.9293 660.197 69.8098 655.459C69.3556 655.226 68.8795 655.142 68.4478 655.171C59.9301 647.265 42.6486 650.416 35.7666 659.361C33.3465 662.543 32.1337 666.236 31.9311 670.013C27.9612 668.982 23.7206 668.341 19.6159 667.918C19.0242 657.897 19.1156 647.485 24.9796 638.822C31.8876 628.658 45.2107 624.814 56.1721 630.627C57.914 631.551 59.6559 630.289 59.8283 628.8C59.8392 628.725 59.8779 628.67 59.8972 628.642C61.9333 617.562 63.9876 605.63 70.21 595.979C80.2107 580.544 97.8707 578.975 113.06 588.225C132.772 600.251 139.392 623.292 132.02 644.64C131.01 647.567 134.392 649.384 136.452 648.136C159.82 645.22 160.392 671.93 158.459 688.237C157.095 688.071 155.689 688.082 154.491 688.032Z" fill="#BAD266" fill-opacity="0.8"/>
<path d="M131.819 681.12C128.92 677.971 124.04 677.08 120.388 679.792C116.004 683.084 115.424 689.993 119.363 693.947C123.028 697.588 129.637 697.823 133.09 693.923C136.41 690.213 135.724 684.12 131.819 681.12ZM129.508 691.107C127.618 692.702 124.191 692.377 122.513 690.482C120.826 688.541 121.149 685.129 122.974 683.449C124.329 682.21 126.351 681.84 128.197 682.196C128.257 682.641 128.437 683.09 128.814 683.433C130.967 685.294 131.933 689.037 129.508 691.107Z" fill="#BAD266" fill-opacity="0.8"/>
<path d="M94.0349 629.313C95.1879 617.143 95.3746 604.341 95.2962 592.098C95.301 591.853 95.1836 591.606 95.0746 591.407C95.5262 590.936 95.4402 590.05 94.9025 589.634C83.0774 580.373 71.9941 600.755 69.4993 609.389C68.0855 614.272 64.1596 623.894 67.4363 628.57C70.8136 633.399 83.9154 632.807 88.8615 633.481C90.4852 633.702 91.363 632.619 91.4815 631.379C92.6487 631.365 93.9139 630.675 94.0349 629.313ZM74.0288 624.977C71.2765 622.814 71.94 622.574 72.5997 619.19C73.2181 615.985 73.856 612.751 74.8304 609.628C77.8337 600.026 82.9052 593.391 92.8528 591.926C89.9333 603.488 88.5382 616.482 89.4605 628.403C89.3854 628.392 89.377 628.345 89.3019 628.334C84.5834 627.57 77.7812 627.96 74.0288 624.977Z" fill="#BAD266" fill-opacity="0.8"/>
<path d="M127.624 636.015C129.516 618.218 124.054 594.847 104.331 590.263C103.772 590.124 103.317 590.306 102.973 590.565C102.4 590.623 101.864 591.04 101.789 591.736C100.353 604.697 100.651 618.7 101.859 631.632C102.035 633.499 104.171 633.905 105.467 633.103C111.365 635.172 117.483 636.687 123.574 638.183C124.105 638.303 124.557 638.244 124.973 638.117C126.188 638.256 127.461 637.605 127.624 636.015ZM104.689 593.754C120.243 601.502 123.259 616.606 122.96 632.645C117.538 631.365 112.078 630.142 106.549 629.369C106.92 617.702 106.431 605.27 104.689 593.754Z" fill="#BAD266" fill-opacity="0.8"/>
<path d="M1271.64 775.774C1263.32 775.674 1257.4 780.937 1253.76 787.71C1250.95 772.514 1232.36 764.435 1219.77 775.984C1201.29 792.911 1226.42 813.192 1239.68 823.235C1239.69 824.722 1240.81 826.137 1242.64 825.583C1259.15 820.533 1291.89 813.799 1288.14 789.798C1286.83 781.518 1279.99 775.862 1271.64 775.774ZM1281.39 800.598C1279.63 803.803 1276.64 806.34 1273.7 808.362C1264.4 814.815 1252.21 817.2 1241.54 820.591C1241.52 820.604 1241.52 820.604 1241.49 820.618C1233.7 811.772 1215.9 800.389 1218.43 787.688C1220.09 779.41 1228.12 773.995 1236.45 775.287C1244.79 776.579 1249.18 783.474 1250 791.372C1250.15 792.816 1251.7 793.219 1252.88 792.787C1253.54 793.113 1254.4 793.075 1254.85 792.318C1256.88 788.708 1259.94 784.708 1263.49 782.488C1268.01 779.625 1276.78 779.904 1280.57 783.945C1284.31 787.95 1283.84 796.078 1281.39 800.598Z" fill="#FACA4E" fill-opacity="0.8"/>
<path d="M1298.87 1637.88C1321.23 1641.13 1343.6 1644.66 1365.92 1648.44C1366.38 1641.06 1367.19 1633.65 1368.11 1626.26C1361.13 1626.08 1354.32 1624.83 1347.24 1625.25C1339.57 1625.71 1332.05 1627.14 1324.71 1629.44C1323.78 1629.72 1322.94 1628.89 1323.3 1627.96C1333.84 1600.85 1346.8 1568.82 1373.58 1553.82C1373.62 1553.72 1373.68 1553.61 1373.8 1553.56C1374.21 1553.39 1374.61 1553.22 1375.02 1553.04C1375.18 1552.96 1375.34 1552.86 1375.51 1552.77C1375.6 1552.72 1375.68 1552.72 1375.76 1552.72C1375.79 1552.71 1375.81 1552.7 1375.83 1552.69C1376.35 1552.47 1376.89 1552.21 1377.46 1552.1C1377.77 1549.82 1378.1 1547.54 1378.44 1545.25C1378.48 1545.02 1378.59 1544.87 1378.75 1544.78C1379 1544.46 1379.46 1544.29 1379.8 1544.65C1406.97 1572.55 1421.83 1612.91 1423.47 1651.41C1423.51 1652.28 1422.75 1652.84 1421.93 1652.55C1404.78 1646.3 1387.35 1641.46 1369.74 1636.74C1369.21 1640.77 1368.61 1644.79 1367.91 1648.77C1392.46 1652.95 1416.96 1657.44 1441.34 1662.24C1441.38 1662.17 1441.41 1662.11 1441.44 1662.03C1441.83 1661.26 1442.94 1661.77 1442.66 1662.58C1442.65 1662.63 1442.62 1662.68 1442.61 1662.72C1442.78 1663.04 1442.64 1663.51 1442.26 1663.62C1439.82 1670.17 1436.28 1676.36 1432.28 1682.07C1428.25 1687.82 1425.82 1689.09 1418.99 1688.04C1402.18 1685.45 1385.39 1682.73 1368.59 1680.07C1351.8 1677.41 1334.9 1675.15 1318.18 1672.13C1312.83 1671.17 1310.6 1668.44 1308.42 1663.59C1304.92 1655.84 1301.61 1647.99 1298.26 1640.17C1298.21 1640.06 1298.19 1639.96 1298.18 1639.86C1297.27 1639.37 1297.64 1637.7 1298.87 1637.88ZM1377.26 1553.62C1376.94 1553.71 1376.6 1553.78 1376.28 1553.86C1376.11 1553.9 1375.95 1553.93 1375.78 1553.97C1363.91 1562.3 1354.11 1572.27 1346.24 1584.5C1337.78 1597.65 1331.82 1612.2 1326.15 1626.73C1332.94 1624.76 1339.9 1623.48 1346.99 1623.06C1353.83 1622.66 1361.72 1622.43 1368.34 1624.48C1369.51 1615.29 1370.84 1606.11 1371.93 1596.97C1373.67 1582.51 1375.29 1568.03 1377.26 1553.62ZM1421.2 1649.95C1420.22 1631.12 1416.14 1612.56 1409.05 1595.06C1401.86 1577.3 1391.61 1561.75 1379.68 1546.92C1378.15 1563.74 1376.04 1580.51 1374.08 1597.28C1372.64 1609.63 1371.61 1622.18 1370.03 1634.58C1387.38 1638.37 1404.52 1643.92 1421.2 1649.95ZM1309.03 1659.46C1310.29 1662.36 1311.49 1666.6 1314.17 1668.54C1316.87 1670.49 1321.67 1670.5 1324.81 1671C1338.92 1673.24 1353.01 1675.5 1367.12 1677.73C1380.92 1679.92 1394.72 1682.1 1408.52 1684.28C1412.12 1684.86 1415.72 1685.43 1419.32 1685.99C1422.33 1686.46 1424.93 1687.25 1427.8 1684.66C1428.89 1683.67 1429.87 1681.99 1430.7 1680.82C1434.61 1675.31 1437.71 1669.44 1440.74 1663.45C1394.05 1655.97 1347.36 1648.28 1300.74 1640.39C1303.53 1646.73 1306.27 1653.1 1309.03 1659.46Z" fill="#BAD266" fill-opacity="0.8"/>
<path d="M648.11 1391.93C643.28 1391.86 639.854 1394.92 637.751 1398.86C636.095 1390 625.292 1385.27 617.999 1391.98C607.297 1401.81 621.916 1413.66 629.631 1419.53C629.638 1420.4 630.287 1421.23 631.348 1420.91C640.929 1417.99 659.924 1414.12 657.709 1400.13C656.934 1395.3 652.955 1392 648.11 1391.93ZM653.806 1406.41C652.793 1408.27 651.06 1409.75 649.356 1410.92C643.967 1414.67 636.895 1416.04 630.705 1418C630.69 1418 630.69 1418 630.675 1418.01C626.14 1412.85 615.788 1406.19 617.241 1398.79C618.193 1393.97 622.843 1390.83 627.683 1391.6C632.524 1392.36 635.086 1396.39 635.572 1400.99C635.661 1401.83 636.564 1402.07 637.245 1401.82C637.631 1402.01 638.131 1401.99 638.389 1401.55C639.56 1399.45 641.331 1397.12 643.391 1395.83C646.008 1394.17 651.103 1394.35 653.309 1396.71C655.484 1399.05 655.225 1403.78 653.806 1406.41Z" fill="#F18E85" fill-opacity="0.8"/>
<path d="M1625.92 1917.98C1621.94 1917.08 1617.71 1917.25 1613.65 1917.05C1609.73 1916.84 1605.84 1916.56 1601.93 1916.56C1603.64 1907.68 1601.99 1899.03 1597.87 1891.9C1601.24 1890.18 1604.54 1888.25 1607.84 1886.32C1612.31 1883.7 1617.09 1881.33 1621.11 1878.05C1623.76 1875.88 1620.39 1872.37 1617.71 1873.61C1612.62 1875.99 1607.98 1879.71 1603.34 1882.81C1600.65 1884.6 1598.04 1886.42 1595.5 1888.32C1589.82 1880.81 1581.06 1875.68 1570.57 1874.88C1573.18 1868.13 1575.28 1859.83 1575.62 1852.87C1575.8 1849.67 1571.33 1849.43 1570.33 1852.15C1568.92 1856.08 1568.44 1860.52 1567.75 1864.62C1567.24 1867.75 1566.69 1870.92 1566.51 1874.13C1556.41 1871.4 1546.13 1873.16 1537.5 1878.02C1536.6 1874.54 1535.23 1871.16 1533.95 1867.82C1532.65 1864.38 1531.65 1860.66 1529.28 1857.8C1527.94 1856.18 1524.67 1857.45 1524.95 1859.59C1525.43 1863.31 1527.39 1866.55 1529.04 1869.89C1530.69 1873.26 1532.27 1876.78 1534.37 1879.91C1526.6 1885.22 1520.55 1893.21 1517.73 1902.75C1514.12 1901.34 1510.23 1900.72 1506.45 1899.93C1501.64 1898.89 1496.82 1897.62 1491.91 1897.17C1488.43 1896.86 1487.95 1902.13 1491.12 1903.1C1495.89 1904.51 1501.02 1905.09 1505.93 1905.92C1509.44 1906.51 1513.09 1907.3 1516.66 1907.37C1515.11 1916.46 1517.07 1924.76 1521.37 1931.62C1517.42 1933.72 1513.74 1936.41 1510.03 1938.85C1506.42 1941.23 1502.53 1943.5 1499.47 1946.57C1498.34 1947.7 1499.47 1949.91 1501.09 1949.36C1505.18 1947.95 1508.89 1945.47 1512.6 1943.3C1516.59 1940.95 1520.79 1938.75 1524.5 1935.96C1530.89 1943.43 1540.42 1948.6 1551.21 1950.22C1551.59 1950.29 1552 1950.29 1552.38 1950.36C1550.87 1958 1549.98 1965.82 1548.33 1973.47C1547.5 1977.29 1553.21 1978.91 1554.2 1975.09C1556.16 1967.48 1557.54 1958.69 1556.89 1950.67C1565.55 1950.91 1574.04 1948.77 1581.37 1944.6C1584.43 1951.84 1587.18 1958.93 1589.62 1966.44C1590.75 1969.99 1596.15 1968.55 1595.26 1964.89C1593.33 1957.11 1589.69 1948.94 1585.04 1942.26C1592.23 1937.2 1597.87 1930 1600.76 1921.04C1608.32 1922.8 1617.64 1924.42 1625.17 1923.56C1628.12 1923.25 1629.36 1918.73 1625.92 1917.98ZM1586.73 1932.51C1576.76 1943.3 1560.7 1946.67 1546.81 1942.68C1527.04 1936.99 1516.87 1916.91 1526.63 1898C1534.71 1882.32 1550.32 1877.5 1566.44 1878.26C1566.65 1879.67 1567.61 1881.02 1569.44 1881.12C1579.13 1881.77 1586.21 1886.22 1590.61 1892.49C1590.27 1893.31 1590.96 1894.17 1591.82 1894.38C1598.32 1905.54 1596.97 1921.42 1586.73 1932.51Z" fill="#FACA4E" fill-opacity="0.8"/>
<path d="M1757.5 482.673C1756.55 482.172 1755.56 481.804 1754.56 481.569C1755.73 480.8 1756.8 479.864 1757.65 478.693C1759.78 475.8 1760.25 471.686 1757.92 468.743C1753.92 463.676 1746.82 466.903 1743.44 471.753C1743.19 468.341 1742.25 464.997 1739.89 462.405C1737.2 459.428 1732.74 458.023 1728.99 459.879C1725.26 461.736 1724.04 466.251 1725.06 470.097C1725.54 471.954 1726.58 473.676 1727.91 475.165C1725.88 474.797 1723.79 474.78 1721.78 475.047C1718.26 475.532 1712.39 477.305 1711.43 481.252C1710.58 484.847 1713.89 488.075 1716.86 489.429C1719.4 490.6 1722.15 490.717 1724.83 490.199C1720.05 495.299 1716.69 502.39 1722.35 506.771C1725.8 509.447 1730.2 507.474 1732.93 504.781C1734.79 502.958 1736.11 500.835 1737.01 498.527C1737.5 500.4 1738.29 502.172 1739.41 503.661C1741.67 506.638 1745.89 508.393 1749.43 506.654C1752.6 505.116 1753.77 501.353 1753.29 498.059C1753.1 496.737 1752.62 495.533 1751.98 494.413C1756.18 495.584 1760.42 495.099 1761.96 491.102C1763.3 487.64 1760.42 484.195 1757.5 482.673ZM1748.23 470.148C1751.21 468.392 1755.76 467.723 1756.97 471.92C1758.91 478.626 1750.1 481.135 1745.33 482.255C1745.22 480.499 1744.46 478.793 1743.24 477.489C1743.29 477.372 1743.34 477.255 1743.36 477.104C1743.39 476.753 1743.41 476.402 1743.42 476.068C1744.3 473.593 1745.87 471.552 1748.23 470.148ZM1728.79 471.753C1727.14 468.659 1726.93 463.926 1730.79 462.388C1734.3 460.983 1737.67 463.525 1739.21 466.552C1740.7 469.462 1740.73 472.723 1740.61 475.9C1738.42 475.633 1735.96 476.352 1734.22 477.74C1734.02 477.589 1733.8 477.472 1733.58 477.338C1731.89 475.566 1729.98 473.977 1728.79 471.753ZM1721.43 487.791C1717.89 487.456 1711.88 484.396 1716.07 480.098C1717.86 478.258 1722.18 477.723 1724.57 477.723C1727.54 477.74 1729.9 478.66 1732.54 479.78C1731.76 481.285 1731.61 483.024 1732.02 484.663C1730.92 485.182 1729.66 485.968 1728.39 486.954C1726.11 487.506 1723.77 488.008 1721.43 487.791ZM1736.41 494.129C1735.84 496.085 1735.02 497.958 1733.9 499.697C1731.76 503.009 1725.01 509.213 1722.78 502.122C1720.86 495.951 1728.73 490.098 1733.23 487.088C1733.58 487.54 1733.97 487.974 1734.45 488.326C1735.14 488.827 1735.91 489.162 1736.69 489.362C1736.44 490.868 1736.34 492.49 1736.41 494.129ZM1735.44 485.6C1733.88 483.777 1734.15 481.051 1736.08 479.613C1737.46 478.576 1739.12 478.509 1740.75 478.258C1740.75 478.559 1740.85 478.877 1741.13 479.161C1742.91 480.884 1743.36 483.894 1741.43 485.734C1739.81 487.289 1736.93 487.339 1735.44 485.6ZM1748.55 504.112C1744.66 506.403 1741.08 502.356 1739.96 498.945C1738.95 495.851 1739.11 492.69 1739.24 489.496C1740.41 489.346 1741.57 488.944 1742.55 488.259C1743.53 489.814 1745.37 491.369 1747.54 492.59C1748.43 493.51 1749.23 494.513 1749.84 495.667C1751.28 498.343 1751.49 502.373 1748.55 504.112ZM1758.39 491.169C1756.3 492.891 1752.7 491.921 1750.42 491.001C1747.86 489.965 1746.25 488.225 1744.21 486.52C1744.58 485.951 1744.9 485.366 1745.08 484.73C1745.28 484.797 1745.48 484.814 1745.74 484.78C1747.31 484.463 1748.95 484.078 1750.51 483.543C1751.53 483.509 1752.57 483.593 1753.6 483.844C1756.45 484.53 1762.12 488.092 1758.39 491.169Z" fill="#F18E85" fill-opacity="0.8"/>
</svg>
