<svg width="251" height="419" viewBox="0 0 251 419" fill="none" xmlns="http://www.w3.org/2000/svg">
<path d="M50.3549 408.595C42.9615 407.385 35.5404 406.261 28.1059 405.222C28.6956 402.86 29.1781 400.455 29.6244 398.045C31.8504 398.685 34.1264 398.971 36.3217 399.807C38.7023 400.715 40.9372 401.917 43.0276 403.368C43.2922 403.551 43.6418 403.374 43.6221 403.045C42.9935 393.489 42.0896 382.146 35.1166 374.768C35.1167 374.732 35.1057 374.693 35.073 374.665C34.9624 374.572 34.8518 374.478 34.7416 374.382C34.6972 374.338 34.656 374.292 34.6121 374.245C34.5901 374.222 34.5632 374.212 34.5386 374.205C34.5311 374.199 34.526 374.195 34.5185 374.188C34.3776 374.07 34.2314 373.931 34.063 373.842C34.1919 373.093 34.3147 372.346 34.4353 371.596C34.4474 371.518 34.4255 371.458 34.3866 371.415C34.3381 371.289 34.208 371.192 34.065 371.269C22.6948 377.315 13.9729 388.5 9.61542 400.417C9.51655 400.684 9.70192 400.936 9.9885 400.925C16.0335 400.674 22.0271 400.895 28.0638 401.168C27.8315 402.487 27.6186 403.808 27.4431 405.127C19.2667 403.989 11.0738 402.956 2.88678 402.032C2.88233 402.005 2.87745 401.982 2.87579 401.956C2.82884 401.675 2.428 401.725 2.43517 402.006C2.43535 402.023 2.4383 402.04 2.43892 402.055C2.35151 402.14 2.34908 402.301 2.45758 402.371C2.57517 404.672 3.07835 406.966 3.77419 409.157C4.4762 411.363 5.11613 412.003 7.37888 412.355C12.9526 413.221 18.5336 414.039 24.1085 414.88C29.6805 415.719 35.2484 416.694 40.8363 417.415C42.6224 417.647 43.6015 417.014 44.7742 415.71C46.6529 413.626 48.4825 411.492 50.3211 409.373C50.3458 409.343 50.3644 409.315 50.378 409.283C50.7126 409.22 50.763 408.662 50.3549 408.595ZM33.974 374.338C34.0671 374.397 34.1667 374.453 34.2602 374.51C34.3096 374.54 34.3566 374.567 34.4063 374.595C37.3303 378.394 39.4344 382.499 40.7029 387.122C42.0652 392.09 42.5001 397.252 42.8445 402.375C40.8921 401.078 38.8198 399.984 36.6217 399.147C34.4988 398.339 32.0281 397.48 29.7301 397.461C30.2746 394.461 30.7699 391.447 31.336 388.473C32.2284 383.762 33.1598 379.058 33.974 374.338ZM10.4777 400.184C12.6675 394.373 15.8067 388.954 19.7916 384.171C23.8362 379.315 28.6269 375.459 33.8772 371.995C32.684 377.425 31.6777 382.898 30.6254 388.356C29.8499 392.375 28.9262 396.413 28.1886 400.464C22.3251 399.921 16.3541 399.954 10.4777 400.184ZM44.9927 414.353C44.306 415.136 43.5038 416.348 42.4623 416.688C41.4149 417.03 39.8944 416.557 38.8513 416.399C34.1691 415.696 29.4887 414.999 24.8069 414.293C20.2252 413.603 15.6462 412.913 11.0649 412.22C9.86848 412.041 8.67488 411.863 7.47893 411.681C6.48075 411.527 5.57982 411.516 4.93219 410.416C4.68726 409.999 4.54322 409.373 4.39779 408.921C3.71015 406.805 3.31577 404.653 2.95438 402.472C18.4622 404.779 33.9888 407.022 49.5146 409.196C47.999 410.907 46.4984 412.632 44.9927 414.353Z" fill="#BAD266" fill-opacity="0.8"/>
<path d="M223.916 370.394C225.746 367.358 224.261 363.206 220.869 361.941C217.65 360.746 213.913 362.779 212.118 365.666C210.668 359.848 205.869 356.952 199.793 359.507C196.064 361.069 193.138 365.902 195.288 369.443C192.629 368.728 189.306 370.394 188.374 373.063C187.822 374.642 188.34 376.213 189.643 377.216C191.248 378.446 193.449 378.359 195.331 377.992C192.319 382.049 196.418 387.125 200.596 388.478C205.394 390.039 210.193 387.745 212.497 383.54C213.404 385.049 215.561 385.939 217.218 385.616C219.67 385.137 221.275 382.947 221.448 380.574C224.477 382.581 229.12 382.083 230.622 378.315C232.435 373.744 227.938 370.508 223.916 370.394ZM228.698 378.297C226.859 381.098 223.752 380.225 221.327 378.908C221.292 378.751 221.258 378.594 221.206 378.446C220.904 377.504 219.635 377.905 219.773 378.847C220.084 380.958 219.532 383.331 217.244 384.029C215.199 384.648 214.008 383.392 213.266 381.787C213.291 381.717 213.326 381.647 213.343 381.569C213.637 380.662 212.264 380.304 211.945 381.176C210.512 385.119 207.103 387.806 202.848 387.378C198.628 386.951 193.553 382.581 196.591 378.053C196.893 377.6 196.289 377.094 195.883 377.355C195.9 376.972 195.659 376.553 195.201 376.579C194.053 376.64 192.854 376.867 191.723 376.535C190.161 376.073 189.186 374.712 190.092 373.09C191.343 370.839 194.537 370.115 196.686 371.319C196.996 371.493 197.307 371.275 197.368 370.996C197.557 370.822 197.652 370.542 197.488 370.324C194.502 366.329 197.229 361.784 201.648 360.615C203.892 360.022 206.283 359.9 208.165 361.444C210.038 362.979 210.53 365.352 210.978 367.611C211.16 368.527 212.368 368.196 212.42 367.376C213.827 365.396 216.036 363.416 218.496 363.285C222.604 363.058 223.856 367.193 222.233 370.359C222.052 370.708 222.198 371.092 222.466 371.301C222.475 371.703 222.725 372.078 223.243 372.06C226.324 371.921 231.175 374.512 228.698 378.297Z" fill="#F18E85" fill-opacity="0.8"/>
<path d="M178.903 188.312C179.184 187.949 178.809 187.338 178.362 187.381C176.064 187.58 173.729 187.708 171.452 188.063C171.452 187.964 171.437 187.864 171.372 187.757C170.039 185.503 168.432 183.448 166.573 181.592C166.285 181.301 165.672 181.408 165.586 181.848C165.168 184.103 164.692 186.406 164.512 188.696C162.22 188.717 159.914 189.087 157.623 189.222C157.075 189.258 156.794 189.876 157.176 190.282C158.711 191.91 160.858 193.809 163.1 194.356C163.136 194.363 163.164 194.363 163.2 194.363C162.602 196.603 162.66 199.092 162.682 201.374C162.689 201.915 163.33 202.142 163.719 201.801C165.636 200.102 167.337 198.217 168.857 196.169C170.904 197.869 173.289 199.184 175.667 200.365C176.136 200.599 176.777 200.208 176.604 199.654C175.963 197.627 175.545 195.586 175.055 193.524C175.04 193.453 175.004 193.396 174.968 193.339C175.012 193.304 175.062 193.275 175.098 193.226C176.366 191.59 177.642 189.955 178.903 188.312ZM169.189 195.309C169.052 195.231 168.908 195.245 168.785 195.309C168.519 195.145 168.13 195.131 167.892 195.451C166.695 197.072 165.362 198.566 163.914 199.967C163.979 197.983 164.173 195.992 164.051 194.029C164.036 193.816 163.878 193.695 163.705 193.674C163.669 193.574 163.604 193.482 163.503 193.403C162.624 192.778 161.608 192.358 160.721 191.732C160.131 191.32 159.59 190.851 159.064 190.367C160.988 190.239 162.97 190.068 164.8 189.564C164.966 189.521 165.06 189.4 165.096 189.272C165.139 189.236 165.175 189.187 165.189 189.13C165.78 187.224 166.148 185.226 166.515 183.249C167.964 184.821 169.239 186.513 170.327 188.355C170.421 188.518 170.558 188.596 170.702 188.625C170.738 188.852 170.911 189.073 171.178 189.073C173.116 189.08 175.062 188.902 177 188.732C176.006 190.026 175.012 191.313 174.017 192.607C173.83 192.849 173.873 193.083 174.024 193.247C173.902 193.346 173.83 193.489 173.851 193.681C174.046 195.33 174.449 196.973 174.932 198.573C172.987 197.549 171.113 196.397 169.189 195.309Z" fill="#F18E85" fill-opacity="0.8"/>
<path d="M249.854 7.18612C248.121 1.22759 241.381 1.9724 237.965 5.63974C237.109 0.298341 230.169 -2.24822 226.375 2.73141C220.326 10.6761 228.522 16.7127 235.026 20.2098C235.041 20.6283 235.383 21.0397 235.925 20.8978C241.124 19.5572 251.859 14.081 249.854 7.18612ZM246.274 13.173C243.421 16.2374 239.712 18.1243 235.782 19.4011C235.747 19.3656 235.725 19.3231 235.675 19.2876C232.494 16.9751 226.952 14.3505 225.861 10.3073C225.07 7.37055 226.681 3.60391 229.206 2.10718C233.051 -0.176922 237.408 3.24923 236.652 7.54789C236.524 8.25724 237.501 8.78925 237.893 8.0728C239.234 5.61136 241.916 3.41948 244.962 4.24232C249.598 5.49787 248.82 10.442 246.274 13.173Z" fill="#FACA4E" fill-opacity="0.8"/>
</svg>
