<svg width="164" height="243" viewBox="0 0 164 243" fill="none" xmlns="http://www.w3.org/2000/svg">
<path d="M37.0947 112.662C36.7564 111.859 35.4409 112.284 35.4797 113.1C35.5658 114.966 35.639 116.555 34.5487 118.2C33.3456 120.01 31.3223 120.951 29.1735 120.937C24.8239 120.905 22.0992 117.145 21.4365 113.185C21.3283 112.53 20.3471 112.725 20.3208 113.337C20.0713 118.807 24.6232 123.405 30.1842 122.835C34.7902 122.359 39.0637 117.325 37.0947 112.662Z" fill="#BAD266"/>
<path d="M30.1662 113.666C29.4763 112.872 28.3217 112.715 27.3319 112.71C26.6808 112.706 26.4937 113.769 27.1752 113.878C27.7351 113.969 29.2024 114.07 29.0457 114.947C29.0196 115.103 28.9111 115.19 28.8372 115.333C28.7025 115.598 28.6807 115.919 28.8412 116.179C29.1753 116.731 29.935 116.64 30.3128 116.197C30.9252 115.486 30.7476 114.335 30.1662 113.666Z" fill="#BAD266"/>
<path d="M23.7959 107.856C23.8 108.503 23.8649 109.167 23.9558 109.805C24.064 110.574 25.3967 110.574 25.5099 109.806C25.6013 109.168 25.6666 108.504 25.6712 107.857C25.6674 106.654 23.792 106.649 23.7959 107.856Z" fill="#BAD266"/>
<path d="M33.5854 106.596C33.4206 106.192 33.0864 105.897 32.6219 105.966C32.2138 106.027 31.836 106.387 31.8619 106.83C31.8835 107.225 32.0049 107.59 32.0047 107.989C32.0002 108.367 31.9176 108.731 31.8133 109.096C31.5872 109.886 32.7027 110.342 33.124 109.648C33.6106 108.836 33.954 107.517 33.5854 106.596Z" fill="#BAD266"/>
<path d="M91.3504 175.007C91.2901 173.917 89.6926 173.908 89.6487 175.006C89.5041 178.635 85.5924 179.806 82.5363 179.822C79.3631 179.842 76.4161 178.274 75.3972 175.144C75.1934 174.523 74.0908 174.583 74.1817 175.308C75.2723 183.834 91.8375 183.789 91.3504 175.007Z" fill="#BAD266"/>
<path d="M84.3966 173.749C83.7802 173.658 83.22 174.287 82.5689 174.239C82.3388 174.222 81.9568 174.104 81.8788 173.848C81.8138 173.631 82.0006 173.332 82.2436 173.341C82.7993 173.358 82.8039 172.633 82.3655 172.451C81.3543 172.029 80.4336 173.058 80.5808 174.052C80.7626 175.276 82.1602 175.741 83.2282 175.533C83.7318 175.438 84.5871 175.182 84.8607 174.709C85.1127 174.288 84.8567 173.819 84.3966 173.749Z" fill="#BAD266"/>
<path d="M77.5875 168.72C77.2319 167.856 76.0077 167.946 75.9292 168.945C75.8986 169.349 76.0113 169.765 76.0025 170.173C75.998 170.581 75.9284 170.968 75.8414 171.367C75.6718 172.144 76.8436 172.757 77.2086 171.945C77.6127 171.047 77.9822 169.675 77.5875 168.72Z" fill="#BAD266"/>
<path d="M86.3348 168.363C86.3604 169.327 86.4035 170.295 86.4595 171.258C86.5156 172.231 87.9134 172.231 87.9702 171.259C88.027 170.295 88.0708 169.332 88.0972 168.364C88.128 167.231 86.3048 167.23 86.3348 168.363Z" fill="#BAD266"/>
<path d="M161.922 175.724C162.285 167.646 161.303 158.955 157.03 151.942C153.624 146.358 147.866 141.646 141.202 140.958C140.747 139.46 140.266 137.971 139.754 136.49C147.247 135.161 153.54 127.909 150.292 119.664C148.462 115.015 144.04 112.209 139.278 111.825C144.701 107.916 150.884 115.042 152.406 119.978C154.192 125.765 151.915 131.147 148.198 135.534C147.733 136.081 148.445 136.811 148.992 136.329C154.077 131.838 155.578 123.799 152.789 117.703C150.681 113.097 144.406 107.321 139.486 110.7C141.163 108.439 144.15 107.46 146.958 108.22C150.257 109.111 152.63 112.06 154.044 115.021C157.159 121.529 156.452 129.412 152.604 135.432C152.187 136.087 153.229 136.695 153.646 136.04C158.163 128.914 158.614 119.043 153.638 111.991C151.69 109.229 148.704 106.849 145.175 106.844C142.831 106.838 140.49 107.823 139.122 109.645C138.59 106.142 135.127 103.536 131.51 103.878C126.809 104.319 122.87 108.528 120.559 112.347C118.109 116.392 116.896 121.132 116.799 125.842C116.715 129.992 117.077 135.843 120.801 138.449C121.243 138.758 121.765 138.072 121.374 137.707C118.371 134.898 117.861 130.4 117.871 126.476C117.881 122.578 118.677 118.645 120.345 115.112C121.966 111.679 124.481 108.411 127.767 106.429C129.912 105.136 132.608 104.416 134.952 105.641C136.901 106.662 138.046 108.529 138.527 110.6C138.366 110.926 138.232 111.269 138.132 111.633C138.119 111.685 138.119 111.733 138.127 111.776C137.402 111.776 136.677 111.832 135.952 111.945C135.87 111.802 135.727 111.697 135.518 111.71C130.24 112.073 125.823 115.9 124.68 121.1C123.475 126.574 125.978 132.2 130.834 134.989C132.167 135.754 133.573 136.245 135.001 136.497C134.514 138.611 134.04 140.725 133.57 142.843C133.41 142.8 133.232 142.821 133.062 142.934C120.323 151.451 114.859 168.409 111.824 182.663C110.682 182.528 109.558 182.91 108.641 183.717C107.977 184.303 107.395 185.258 107.238 186.226C106.965 186.087 106.618 186.078 106.314 186.308C101.446 190.069 94.7474 190.926 89.279 187.912C88.8801 186.544 88.4813 185.176 88.0868 183.805C88.6642 183.596 89.2286 183.367 89.7801 183.106C94.7167 180.773 96.3812 175.79 95.0071 170.658C94.8597 170.103 94.6776 169.556 94.4651 169.013C99.3126 172.6 108.946 169.843 109.162 163.288C109.184 162.668 108.398 162.164 107.86 162.541C102.558 166.246 101.867 157.156 97.639 156.286C93.9277 155.521 90.2538 159.326 90.044 162.895C87.7614 161.058 84.9054 160.054 81.7666 160.556C81.7015 160.565 81.6451 160.582 81.593 160.604C79.2837 160.277 77.1129 161.01 75.2935 162.333C74.7737 159.481 73.0992 156.607 69.9695 156.21C68.5023 156.023 67.1955 156.591 66.0925 157.52C64.2209 159.091 62.3139 162.367 59.5496 160.018C58.9595 159.514 58.1389 159.861 58.0735 160.629C57.7813 164.059 60.2587 167.498 63.0579 169.3C65.1107 170.625 68.1839 171.156 70.3202 169.833C69.1464 174.26 70.0431 179.035 73.7839 182.076C75.7888 183.704 78.1543 184.56 80.6069 184.8C80.1244 186.293 79.6507 187.786 79.1726 189.279C79.1162 189.292 79.0641 189.31 79.0076 189.336C69.6249 194.012 61.362 188.074 54.6011 181.829C55.1571 181.066 55.3528 180.085 54.9625 179.108C54.5418 178.057 53.2009 177.015 52.007 177.114C52.0158 177.019 52.0115 176.923 51.9898 176.815C50.3258 169.161 48.2103 161.615 45.5999 154.23C43.3624 147.892 41.0644 140.928 36.8427 135.591C34.7991 133.007 32.2169 131.114 29.4649 130.7C29.487 129.593 29.4831 128.469 29.0321 127.496C30.8943 127.553 32.7697 127.298 34.5454 126.678C40.5715 124.579 44.7109 118.534 44.8001 112.183C44.8091 111.515 44.7659 110.859 44.6837 110.212C44.879 110.221 45.0787 110.23 45.2741 110.238C45.8167 110.269 46.3636 110.347 46.8976 110.235C47.5358 110.096 47.5405 109.076 46.8981 108.941C46.3642 108.824 45.8172 108.906 45.2746 108.936C45.0098 108.949 44.7363 108.953 44.4715 108.975C44.2851 108.124 44.0293 107.299 43.6997 106.5C44.021 106.314 44.312 106.058 44.6073 105.836C44.7679 105.719 44.9242 105.598 45.0849 105.481C45.3585 105.285 45.4887 105.155 45.6191 104.834C45.8277 104.326 45.2418 103.935 44.8076 104.022C44.3605 104.113 44.0174 104.564 43.6917 104.864C43.518 105.024 43.3399 105.18 43.1706 105.341C42.7845 104.59 42.342 103.873 41.8431 103.196C42.1557 102.992 42.4553 102.762 42.7202 102.502C43.1241 102.107 43.68 101.521 43.6411 100.918C43.6109 100.436 43.1205 100.114 42.6776 100.366C42.2478 100.609 42.0436 101.138 41.7222 101.503C41.505 101.75 41.2662 101.963 41.0057 102.15C40.5154 101.589 39.9946 101.06 39.4305 100.569C39.6129 100.291 39.7997 100.018 39.9821 99.7399C40.2905 99.2755 40.5945 98.8633 40.6555 98.2946C40.6991 97.8692 40.1175 97.5434 39.7789 97.7907C39.3229 98.1205 39.1144 98.5892 38.8667 99.084C38.7451 99.327 38.6235 99.5701 38.5018 99.8131C37.8422 99.318 37.1478 98.8619 36.4187 98.4709C36.523 98.1237 36.6577 97.7938 36.8401 97.4727C37.066 97.0777 37.4351 96.7219 37.4049 96.2314C37.379 95.8494 37.0753 95.6322 36.7062 95.6972C36.1462 95.7968 35.8638 96.3957 35.6509 96.8645C35.4945 97.2074 35.3728 97.5546 35.2815 97.9149C34.6652 97.6455 34.0359 97.4152 33.3891 97.2239C33.4284 96.8246 33.4459 96.4165 33.4677 96.0171C33.494 95.557 33.5419 95.1099 33.3901 94.6627C33.208 94.1244 32.4744 94.1241 32.2919 94.6623C32.1397 95.1094 32.1873 95.5522 32.2132 96.0166C32.2304 96.3249 32.2433 96.6374 32.2649 96.9456C32.1651 96.9239 32.0652 96.9022 31.9611 96.8804C31.6268 96.8152 31.349 96.9149 31.1405 97.0885C30.4591 96.9493 29.7732 96.8839 29.083 96.875C29.0571 96.5841 29.0268 96.2976 28.9965 96.0067C28.9403 95.4467 28.9318 94.9822 28.4457 94.6348C28.2678 94.5088 27.9205 94.5434 27.7815 94.7213C27.408 95.1943 27.5164 95.6285 27.616 96.1928C27.6593 96.4403 27.7026 96.6878 27.7503 96.9309C26.8604 97.0173 25.9747 97.195 25.1064 97.4594C25.1151 97.39 25.1108 97.3162 25.0978 97.2337C25.0068 96.7822 24.8942 96.3394 24.7901 95.8922C24.6861 95.4494 24.6472 94.9762 24.2827 94.6635C23.9182 94.3508 23.3842 94.4678 23.2321 94.941C23.08 95.4097 23.2882 95.8222 23.4356 96.265C23.5787 96.6992 23.7174 97.1377 23.8779 97.5718C23.9169 97.676 23.9733 97.7629 24.0384 97.828C23.3047 98.1142 22.5883 98.4526 21.9022 98.8473C21.5855 98.4999 21.3208 98.1091 21.1387 97.6706C20.9305 97.1713 20.8873 96.6547 20.3925 96.3376C20.1148 96.1639 19.7761 96.294 19.6024 96.5457C19.2071 97.1229 19.5672 97.861 19.8621 98.4037C20.0964 98.8336 20.3914 99.2244 20.7299 99.5762C20.0655 100.027 19.4359 100.526 18.8497 101.06C18.5632 100.852 18.3029 100.608 18.0686 100.33C17.7431 99.9353 17.5697 99.3449 17.0315 99.2014C16.7233 99.1188 16.4281 99.3053 16.3324 99.5962C16.1282 100.221 16.7487 100.842 17.1566 101.242C17.4126 101.489 17.6947 101.711 17.9898 101.906C17.638 102.279 17.2993 102.666 16.9953 103.065C16.7218 102.935 16.4614 102.791 16.2141 102.613C15.8669 102.361 15.5892 101.979 15.1986 101.805C14.7255 101.597 14.148 101.939 14.2954 102.499C14.4514 103.086 15.0156 103.507 15.5191 103.802C15.7534 103.941 16.0008 104.046 16.2569 104.137C15.8746 104.749 15.5445 105.387 15.2621 106.042C15.236 106.038 15.2056 106.033 15.1752 106.033C14.7412 106.025 14.2984 105.964 13.8904 105.794C13.4781 105.62 13.1613 105.338 12.7186 105.229C12.1499 105.095 11.7938 105.659 12.0106 106.149C12.4357 107.096 13.7422 107.383 14.7797 107.34C13.2672 112.093 14.1897 117.61 17.2095 121.592C19.7737 124.979 23.771 127.008 27.9382 127.422C27.4646 128.42 27.5032 129.54 27.5375 130.66C26.0181 130.829 24.4725 131.484 22.9613 132.747C20.6772 134.656 19.0657 137.251 17.5323 139.764C15.6081 142.923 13.84 146.178 12.2369 149.516C8.73088 156.812 6.13202 164.403 4.4403 172.316C2.76914 172.012 0.980175 173.239 0.515064 174.85C-0.0109001 176.664 1.24298 178.384 2.98353 178.862C4.65898 179.323 6.50857 178.486 6.96071 176.736C7.33459 175.304 6.75352 173.711 5.48622 173.011C5.48622 173.011 5.48622 173.007 5.48188 173.007C5.51662 172.955 5.54269 172.894 5.56443 172.825C7.72936 164.786 10.6235 156.869 14.3119 149.404C16.1192 145.75 18.1044 142.16 20.324 138.74C21.9833 136.184 24.3547 132.951 27.5499 132.401C27.5492 134.129 27.5659 135.856 27.5782 137.584C27.6114 141.756 27.6445 145.928 27.6776 150.095C27.7396 158.195 27.6843 166.309 27.8895 174.405C25.6537 175.09 24.567 178.684 24.0106 180.554C22.7762 184.726 22.2058 189.166 21.5443 193.455C20.8697 197.843 20.3124 202.249 19.8809 206.668C18.9264 216.465 18.5059 226.35 19.0924 236.182C16.2062 234.783 11.1316 234.642 10.6572 237.95C10.3655 240.003 12.3447 240.798 14.0594 240.981C16.2298 241.208 18.318 240.597 20.0332 239.26C20.0463 239.252 20.0549 239.239 20.068 239.226C20.3068 239.169 20.5022 238.978 20.5066 238.648C20.5067 238.605 20.5067 238.562 20.5067 238.518C20.8801 238.293 21.0062 237.754 20.6721 237.338C20.6244 237.277 20.5723 237.22 20.5159 237.164C20.6349 221.28 21.3703 205.501 24.0852 189.809C24.7248 186.107 25.1821 182.083 26.7636 178.637C26.9591 178.216 27.172 177.769 27.4196 177.378C27.9321 176.575 27.841 176.562 28.8523 176.905C30.1284 177.336 30.3102 178.49 30.7178 179.719C31.3422 181.582 31.7842 183.505 32.096 185.445C33.3865 193.429 33.2791 201.746 33.3368 209.812C33.4026 219.171 33.1732 228.526 32.9092 237.881C32.8787 237.976 32.8743 238.076 32.9004 238.176C32.9003 238.241 32.896 238.306 32.8959 238.375C32.874 239.109 33.5337 239.409 34.0894 239.283C35.8643 240.577 38.0476 241.286 40.2833 241.026C41.8374 240.845 43.852 239.925 43.9265 238.111C44.0054 236.196 41.9872 235.358 40.3984 235.157C38.6534 234.94 36.5306 235.251 34.9023 236.197C35.1489 227.259 35.3477 218.321 35.273 209.379C35.1984 200.44 35.4668 190.986 33.43 182.225C32.9576 180.193 32.1736 175.678 29.8125 174.549C29.8852 166.401 29.693 158.244 29.618 150.096C29.5805 146.067 29.5473 142.043 29.5098 138.015C29.4932 136.144 29.4809 134.277 29.4512 132.406C33.2624 133.033 36.0086 137.214 37.7308 140.314C39.7956 144.022 41.27 148.06 42.7444 152.028C45.8016 160.273 48.2467 168.73 50.1143 177.326C50.1316 177.409 50.1576 177.482 50.188 177.547C49.159 178.107 48.824 180.047 49.0754 181.024C49.5131 182.739 51.3187 183.599 52.9598 183.031C52.9771 183.027 52.9945 183.018 53.0119 183.01C59.3647 189.094 69.7845 196.664 78.4816 191.411C75.3522 201.185 72.1926 210.925 68.4035 220.487C68.1689 221.077 68.759 221.72 69.3364 221.711C72.5531 221.665 75.7654 221.658 78.9821 221.663C78.1735 224.541 77.6254 227.51 77.0079 230.431C76.5904 232.397 76.0079 234.451 75.6772 236.495C75.5904 236.434 75.5036 236.378 75.4168 236.33C73.7632 235.4 71.2365 235.929 70.5499 237.834C69.9241 239.575 71.0954 241.659 72.9185 241.99C74.2598 242.233 75.9835 241.283 76.5266 239.955C76.7524 239.873 76.9478 239.699 77.0434 239.43C78.0647 236.505 78.2049 233.11 78.7531 230.059C79.2534 227.267 79.8448 224.481 80.241 221.672C83.5748 221.687 86.9087 221.723 90.2425 221.789C89.989 226.425 90.061 231.105 90.2719 235.737C90.3838 238.185 90.1996 243.008 94.1372 242.211C96.3165 241.769 96.9905 238.774 95.4892 237.245C94.5432 236.281 93.1584 236.259 92.1077 236.831C91.9737 235.355 91.9743 233.84 91.9054 232.373C91.7418 228.852 91.7301 225.336 91.6707 221.816C94.0626 221.869 96.4545 221.93 98.8463 222.014C99.4454 222.036 99.9926 221.372 99.7844 220.781C96.1333 210.461 92.8426 200.037 89.7515 189.54C95.3807 192.437 102.535 191.858 107.32 187.506C107.381 187.675 107.459 187.845 107.563 188.001C108.578 189.517 111.049 189.248 112.364 188.346C113.875 187.313 114.51 185.213 113.686 183.558C113.616 183.415 113.521 183.32 113.421 183.254C115.282 175.663 117.303 168.097 120.792 161.062C123.916 154.76 128.081 149.578 133.122 144.788C131.252 153.265 129.443 161.755 127.404 170.193C124.617 181.731 121.565 193.207 118.292 204.618C118.136 205.157 118.574 205.773 119.151 205.747C121.647 205.644 124.139 205.58 126.635 205.533C125.572 216.103 125.333 226.83 124.695 237.447C123.706 236.557 122.525 235.801 121.175 235.844C119.795 235.887 118.336 236.928 118.162 238.356C117.709 242.081 124.281 242.149 126.309 240.786C126.873 240.404 126.661 239.536 125.962 239.505C125.888 239.501 125.81 239.505 125.736 239.505C126.088 239.41 126.396 239.137 126.427 238.677C127.199 227.716 128.124 216.503 127.781 205.512C133.524 205.423 139.263 205.486 145.002 205.692C145.46 211.301 145.319 216.931 145.429 222.553C145.48 225.244 145.527 227.936 145.591 230.623C145.647 233.136 145.433 235.867 145.875 238.363C145.658 238.515 145.562 238.823 145.814 239.083C147.059 240.356 148.552 241.476 150.375 241.681C151.877 241.851 153.965 241.335 154.73 239.873C155.533 238.332 154.01 237.606 152.725 237.259C150.998 236.789 149.196 236.979 147.594 237.712C147.777 235.52 147.518 233.224 147.466 231.049C147.398 228.075 147.312 225.102 147.231 222.128C147.085 216.78 147.392 210.998 146.269 205.736C149.607 205.868 152.946 206.047 156.284 206.278C156.818 206.313 157.365 205.667 157.152 205.141C148.969 185.104 147.675 163.212 141.666 142.564C147.817 144.116 152.708 148.125 155.831 153.713C159.653 160.547 160.097 168.448 160.029 176.097C158.761 175.957 157.376 176.829 156.807 177.953C155.89 179.763 157.174 181.791 158.95 182.399C160.842 183.047 162.779 182.023 163.422 180.148C163.874 178.92 163.493 176.042 161.922 175.724ZM3.57023 177.147C2.79326 176.982 2.04687 176.309 2.2382 175.454C2.45998 174.46 3.54545 173.9 4.483 174.148C4.6219 174.183 4.75213 174.192 4.865 174.174C5.79787 175.316 5.40632 177.539 3.57023 177.147ZM15.6358 239.272C14.6591 239.332 10.8696 238.71 13.3271 237.404C15.0726 236.476 17.0907 237.614 18.8398 238.279C17.8369 238.812 16.7905 239.198 15.6358 239.272ZM26.6193 125.29C19.2706 123.768 14.6807 116.378 16.3244 109.073C17.9421 101.889 24.4982 98.8223 31.2094 98.6947C31.2788 98.7251 31.357 98.7555 31.4438 98.7685C38.6102 100.13 44.0251 107.017 42.6418 114.392C41.2368 121.884 34.1286 126.847 26.6193 125.29ZM37.7584 237.071C38.8437 236.819 41.9867 236.534 41.921 238.105C41.8509 239.707 39.0597 239.489 37.9441 239.324C36.9067 239.167 35.9345 238.828 35.0187 238.359C35.8871 237.834 36.6991 237.318 37.7584 237.071ZM53.1169 180.826C52.7696 180.843 52.4526 181.06 52.2789 181.355C51.5495 181.542 50.9029 181.151 50.799 180.382C50.6864 179.562 51.2726 179.215 51.568 178.616C52.2755 178.768 52.9787 178.99 53.2779 179.75C53.4427 180.158 53.3471 180.535 53.1169 180.826ZM75.2596 238.487C75.2205 238.596 75.1771 238.7 75.138 238.809C74.5433 238.682 74.2999 239.399 74.7035 239.716C74.495 240.011 74.2171 240.245 73.7743 240.353C72.9798 240.544 72.2985 239.962 72.1078 239.211C71.9171 238.447 72.3471 237.822 73.0851 237.614C73.4759 237.506 73.8709 237.523 74.2616 237.623C74.4569 237.675 74.6479 237.745 74.8215 237.849L75.1122 238.062C75.2424 238.153 75.3162 238.253 75.3335 238.362C75.3031 238.405 75.277 238.44 75.2596 238.487ZM93.2574 238.421C94.2038 238.43 94.5595 238.886 94.3378 239.793L93.274 240.374C92.8574 239.983 92.5711 239.549 92.402 239.08C92.6235 238.802 92.9014 238.577 93.2574 238.421ZM91.0638 163.746C91.2993 161.042 94.3612 157.14 97.4299 158.066C99.4352 158.67 100.02 161.049 101.131 162.613C102.576 164.64 104.941 165.527 107.16 164.833C105.517 169.568 96.8826 170.09 93.9452 166.321C93.6936 165.996 93.3072 166.035 93.0293 166.243C92.4523 165.357 91.7884 164.528 91.0464 163.798C91.0508 163.781 91.0595 163.768 91.0638 163.746ZM70.6683 167.784C68.2237 169.215 65.8275 169.319 63.497 167.551C61.8089 166.274 60.2903 164.324 59.8917 162.201C61.732 162.923 63.6857 162.364 65.2838 160.845C66.6995 159.5 67.9418 157.503 70.2163 157.947C72.7816 158.443 73.7834 160.87 74.3208 163.145C72.9312 164.407 71.8106 166.009 71.0807 167.684C70.9505 167.671 70.8115 167.701 70.6683 167.784ZM71.7602 172.82C72.1357 167.203 75.8447 162.711 81.3883 162.175C81.5402 162.331 81.7529 162.427 82.0177 162.41C88.0128 162.008 92.4952 166.737 93.4046 172.455C93.8852 175.481 93.1547 178.623 90.5451 180.454C88.2264 182.081 85.0918 182.926 82.2832 182.964C76.4619 183.045 71.3541 178.932 71.7602 172.82ZM97.471 220.047C88.5721 219.761 79.6687 219.671 70.7653 219.785C75.2149 208.435 79.3043 196.794 81.9482 184.887C83.3851 184.905 84.8307 184.724 86.2373 184.377C89.5101 196.398 93.3386 208.285 97.471 220.047ZM111.549 186.813C110.936 187.325 108.961 187.828 108.949 186.591C108.932 185.124 110.469 184.009 111.875 183.888C111.997 184.04 112.166 184.148 112.353 184.2C112.474 185.168 112.343 186.149 111.549 186.813ZM120.362 239.421C118.765 238.37 121.092 237.203 122.169 237.533C123.111 237.824 123.887 238.532 124.643 239.132C124.686 239.166 124.729 239.192 124.773 239.214C124.894 239.397 125.09 239.505 125.302 239.544C123.674 239.683 121.82 240.376 120.362 239.421ZM151.036 238.621C151.557 238.639 152.073 238.721 152.573 238.873C153.532 239.173 153.415 239.382 152.59 239.863C151.066 240.761 149.36 240.235 147.919 239.375C148.896 238.872 149.925 238.577 151.036 238.621ZM126.327 125.641C125.375 119.642 129.44 114.634 134.958 112.969C135.053 113.455 135.496 113.92 136.125 113.829C142.099 112.972 148.123 116.364 149.141 122.607C150.132 128.698 145.103 133.857 139.338 134.762C133.369 135.707 127.289 131.719 126.327 125.641ZM154.956 204.42C143.44 203.677 131.897 203.521 120.363 203.946C126.692 181.862 132.631 159.365 136.347 136.676C136.885 136.715 137.423 136.72 137.961 136.694C137.966 136.715 137.97 136.733 137.974 136.754C145.632 158.797 146.382 182.655 154.956 204.42ZM161.868 179.34C161.638 180.326 160.826 181.046 159.784 180.841C158.877 180.663 158.004 179.842 158.261 178.857C158.561 177.715 159.716 177.36 160.749 177.517C160.961 177.551 161.183 177.439 161.313 177.278C161.487 177.456 161.652 177.647 161.756 177.89C161.96 178.346 161.981 178.854 161.868 179.34Z" fill="#BAD266"/>
<path d="M137.945 111.025C136.314 108.194 132.776 107.876 129.928 108.886C126.129 110.231 123.254 113.542 121.681 117.166C120.056 120.916 119.768 125.213 120.987 129.121C122.053 132.537 124.517 136.805 127.946 138.304C128.341 138.478 128.754 138.031 128.428 137.68C126.042 135.122 123.655 133.167 122.393 129.742C121.265 126.677 121.123 123.304 121.967 120.152C122.849 116.841 124.761 113.742 127.544 111.698C130.145 109.789 134.751 108.35 137.025 111.563C137.411 112.119 138.292 111.633 137.945 111.025Z" fill="#BAD266"/>
<path d="M146.791 124.82C146.674 124.065 145.659 124.255 145.446 124.82C144.138 128.257 141.428 129.962 137.708 130.143C134.166 130.315 130.815 128.348 129.788 124.848C129.636 124.327 128.763 124.401 128.807 124.983C129.161 129.723 133.635 132.208 138.072 131.906C141.606 131.668 147.489 129.274 146.791 124.82Z" fill="#BAD266"/>
<path d="M139.967 124.622C139.933 124.388 139.681 124.27 139.477 124.249C139.008 124.196 138.665 124.648 138.274 124.851C137.888 125.051 137.315 125.203 136.92 124.929C136.503 124.638 136.347 123.718 136.938 123.531C137.389 123.388 137.337 122.598 136.821 122.663C135.41 122.84 135.006 124.707 135.895 125.701C136.459 126.331 137.366 126.466 138.156 126.293C138.925 126.119 140.106 125.538 139.967 124.622Z" fill="#BAD266"/>
<path d="M132.026 118.607C132.025 119.327 132.081 120.07 132.19 120.777C132.233 121.055 132.502 121.251 132.745 121.333C132.849 121.368 132.971 121.403 133.079 121.364C133.11 121.355 133.14 121.342 133.171 121.333C133.414 121.247 133.687 121.056 133.726 120.778C133.835 120.066 133.892 119.324 133.892 118.607C133.897 117.401 132.022 117.4 132.026 118.607Z" fill="#BAD266"/>
<path d="M141.98 118.007C141.654 117.868 141.407 117.903 141.133 118.116C140.695 118.454 140.82 118.971 140.829 119.448C140.833 119.891 140.785 120.308 140.668 120.733C140.455 121.497 141.622 122.044 141.987 121.289C142.352 120.521 143.108 118.49 141.98 118.007Z" fill="#BAD266"/>
<path d="M109.908 6.5535C104.914 1.32818 96.2218 0.375661 89.9889 3.80455C84.128 7.02643 80.759 13.016 79.4742 19.3983C76.5042 13.6354 71.3415 9.11822 64.5675 8.39626C56.7478 7.56199 49.8355 12.2189 47.8461 19.8374C45.7948 27.673 49.3 35.428 55.1443 40.6442C62.5165 47.221 72.5855 49.4996 82.1375 50.4939C82.4687 50.5283 82.7311 50.4129 82.918 50.232C83.197 50.3474 83.5323 50.3493 83.9056 50.1615C93.3628 45.4907 101.897 38.72 108.055 30.0887C112.847 23.3594 116.47 13.433 109.908 6.5535ZM102.56 32.3821C97.0978 38.6693 90.398 43.775 82.9393 47.4589C82.4226 47.715 82.1647 48.1652 82.101 48.6274C69.4436 45.4828 49.8992 40.9346 50.0924 24.3113C50.1805 16.6028 56.0788 10.4714 63.9952 11.215C72.0544 11.9742 77.1959 18.9035 78.9405 26.2813C79.3292 27.9358 81.7541 27.2343 81.7346 25.6953C81.6513 18.476 84.3796 10.5534 90.8283 6.62572C96.3751 3.24579 104.782 4.18637 108.741 9.62095C114.156 17.0463 107.473 26.727 102.56 32.3821Z" fill="#BAD266"/>
<path d="M103.086 4.03848C90.3236 -1.14623 82.2584 12.9566 79.8211 20.656C77.7717 16.2801 70.2827 8.32578 56.7228 11.5164C43.8275 18.1634 49.0233 31.0143 53.233 36.6089C57.2213 40.8187 68.5877 49.2382 82.1476 49.2382C95.4417 44.9841 105.966 31.1805 109.567 24.8104C112.724 20.0467 115.848 9.22318 103.086 4.03848Z" fill="#BAD266"/>
<path d="M67.887 61.8743C65.492 60.5563 62.756 61.5056 61.1014 63.5186C59.6304 65.3058 59.3902 67.4499 59.7409 69.5647C58.2624 68.8065 56.6501 68.4317 54.8985 68.9047C52.3123 69.6049 50.7182 71.9229 51.3661 74.5901C52.9307 80.9818 62.2554 83.3072 67.6747 81.393C68.0645 81.2556 68.234 80.9212 68.2418 80.5791C68.6417 80.5828 69.054 80.3986 69.316 80.0061C72.159 75.6783 73.3879 64.8978 67.887 61.8743ZM67.1829 79.2882C67.1541 79.4256 67.1564 79.5479 67.1651 79.6698C63.7324 79.9791 60.4194 79.6161 57.4647 77.6806C56.8629 77.2853 56.2986 76.8743 55.7852 76.3631C55.3107 75.9458 54.9026 75.4657 54.5609 74.9229L55.4438 71.6695C57.0503 70.3367 60.2331 73.1196 61.363 74.0509C62.3495 74.87 64.147 73.8652 63.5571 72.5537C62.6092 70.4686 61.1886 66.7286 63.4208 64.9515C66.4157 62.5722 68.3782 65.6871 68.738 68.3813C69.2603 72.2693 67.8854 75.5836 67.1829 79.2882Z" fill="#BAD266"/>
<path d="M106.131 85.417C106.492 82.7035 104.614 80.5043 102.132 79.6888C99.9341 78.9626 97.8532 79.5171 96.0044 80.6158C96.1763 78.96 95.9433 77.3202 94.8661 75.8631C93.275 73.7078 90.5346 73.059 88.2882 74.6373C82.8985 78.4121 84.1139 87.9482 87.8599 92.3022C88.1269 92.6119 88.5034 92.6495 88.8176 92.5368C88.9601 92.9069 89.2798 93.2322 89.7442 93.3279C94.8161 94.4034 105.299 91.6381 106.131 85.417ZM89.6413 91.073C89.5012 91.0959 89.3885 91.1426 89.2827 91.1952C87.7475 88.1079 86.8862 84.8887 87.6194 81.4332C87.7687 80.7265 87.9529 80.0559 88.2342 79.3913C88.4496 78.7959 88.7519 78.2458 89.1275 77.7291L92.4796 77.374C94.3048 78.3846 92.8676 82.3608 92.3998 83.7541C91.9902 84.9693 93.5859 86.2862 94.5887 85.2544C96.1929 83.6188 99.1594 80.9321 101.628 82.3738C104.936 84.3034 102.737 87.2576 100.356 88.5747C96.9394 90.4685 93.3497 90.383 89.6413 91.073Z" fill="#BAD266"/>
</svg>
