<svg width="1824" height="5800" viewBox="0 0 1824 5800" fill="none" xmlns="http://www.w3.org/2000/svg">
<path d="M1657.39 3392.3C1650.97 3383.12 1638.51 3381.98 1628.7 3385.74C1615.3 3390.89 1608.05 3404.5 1602.07 3416.79C1601.6 3416.05 1601.13 3415.32 1600.63 3414.6C1599.71 3413.27 1598.73 3412.07 1597.63 3411.13C1600.13 3408.41 1600.99 3404.11 1599.59 3400.69C1598.24 3397.39 1594.85 3395.29 1591.36 3395.1C1590.17 3392.12 1589.59 3389.06 1589.92 3385.82C1590.25 3382.5 1591.84 3379.92 1592.94 3376.85C1593.23 3376.02 1592.12 3375.42 1591.51 3375.99C1586.68 3380.52 1587.09 3389.41 1589.95 3395.13C1589.18 3395.21 1588.44 3395.37 1587.71 3395.64C1587.12 3395.86 1586.57 3396.15 1586.07 3396.51C1582.29 3391.36 1575.49 3387.59 1569.13 3388.91C1567.94 3389.16 1568.15 3390.94 1569.33 3391.01C1575.57 3391.36 1580.82 3392.84 1584.85 3397.55C1582.73 3399.77 1581.89 3403.16 1582.81 3406.2C1583.7 3409.14 1586.49 3411.55 1589.33 3411.37C1589.81 3414.64 1590.45 3417.86 1591.22 3421.06C1567.79 3404.55 1521.81 3431.47 1532.45 3460.88C1537.33 3474.35 1550.95 3481.55 1564.81 3480.58C1579.04 3479.58 1590.47 3471.03 1598.56 3459.93C1596.58 3468.88 1594.92 3477.94 1594.64 3487.1C1594.44 3493.73 1593.56 3507.57 1600.65 3511.57C1614.83 3519.6 1612.82 3483.79 1611.05 3468.8C1615.02 3476.16 1620 3483.07 1627.36 3485.67C1628.19 3485.95 1629.18 3485.25 1629.16 3484.37C1628.99 3476.8 1627.32 3469.62 1624.84 3462.66C1630.53 3468.36 1637.96 3472.02 1645.98 3473.35C1650.95 3474.17 1661.68 3475.46 1664.38 3469.71C1667.8 3462.43 1658.54 3458.21 1653.5 3456.15C1644.3 3452.37 1634.78 3449.48 1625.1 3447.34C1637.33 3444.93 1648.63 3440.64 1655.87 3429.41C1662.69 3418.87 1664.93 3403.08 1657.39 3392.3ZM1585.01 3402.13C1585.28 3401.02 1585.81 3400.06 1586.54 3399.32C1586.97 3399.38 1587.42 3399.07 1587.37 3398.62C1588.49 3397.84 1589.89 3397.45 1591.42 3397.57C1594.49 3397.82 1597.21 3399.99 1597.69 3403.1C1598.1 3405.75 1597.07 3407.9 1595.42 3409.69C1594.37 3409.2 1593.43 3409.31 1592.15 3409.32C1591.97 3409.25 1591.99 3409.64 1591.78 3409.75C1591.56 3409.87 1591.03 3409.38 1590.74 3409.42C1590.51 3409.46 1590.21 3409.34 1590.06 3409.45C1589.81 3409.46 1589.51 3409.5 1589.35 3409.72C1586.21 3409.77 1584.3 3405 1585.01 3402.13ZM1604.39 3455.2C1605.53 3457.45 1606.68 3459.94 1607.92 3462.52C1607.65 3462.81 1607.5 3463.18 1607.6 3463.68C1609.45 3472.26 1610.35 3480.93 1610.05 3489.71C1609.91 3493.8 1609.65 3497.99 1608.83 3502C1608.63 3503.87 1608.06 3505.64 1607.14 3507.3L1601.42 3508.42C1599.85 3507.85 1598.99 3503.66 1598.64 3502.24C1594.86 3486.23 1599.56 3468.43 1603.22 3452.82C1603.61 3453.62 1604 3454.41 1604.39 3455.2ZM1600.63 3451.15C1593.85 3463.25 1583.53 3473.95 1569.48 3476.85C1556.21 3479.59 1541.78 3474.47 1535.98 3461.53C1523.46 3433.59 1569.31 3407.89 1591.17 3423.12C1591.39 3423.27 1591.61 3423.3 1591.79 3423.26C1594.27 3432.63 1597.9 3441.7 1602.09 3450.46C1601.55 3450.35 1600.98 3450.52 1600.63 3451.15ZM1614.52 3446.24C1620.29 3457.61 1625.47 3469.32 1626.28 3482.13C1620.56 3479.25 1617.41 3473.39 1614.3 3467.92C1610.89 3461.89 1607.59 3455.78 1604.56 3449.56C1598.64 3437.44 1594.05 3424.93 1591.1 3411.8C1591.13 3411.8 1591.15 3411.79 1591.18 3411.79C1592.01 3411.66 1592.8 3411.74 1593.55 3411.97C1593.61 3412.69 1594.45 3413.36 1595.25 3412.97C1595.29 3412.94 1595.35 3412.92 1595.39 3412.89C1599.76 3415.87 1602.68 3423.91 1604.62 3427.47C1607.97 3433.68 1611.32 3439.93 1614.52 3446.24ZM1646.26 3456.25C1649.33 3457.34 1654.21 3458.39 1656.67 3460.46C1659.32 3461.09 1659.82 3462.97 1658.16 3466.13C1659.53 3469.77 1658.84 3471.44 1656.08 3471.15C1654.64 3471.55 1652.81 3471.42 1651.31 3471.38C1647.8 3471.31 1644.27 3470.74 1640.91 3469.7C1634.23 3467.62 1628.53 3463.81 1623.5 3459.01C1622.14 3455.58 1620.61 3452.22 1618.99 3448.89C1624.83 3450.01 1630.62 3451.35 1636.33 3453.02C1639.68 3454.01 1642.99 3455.08 1646.26 3456.25ZM1651.4 3430.87C1642.98 3441.46 1630.14 3443.93 1617.46 3445.79C1616.31 3443.52 1615.14 3441.25 1613.95 3439C1610.68 3432.72 1607.58 3426.05 1603.94 3419.84C1609.09 3409.17 1614.7 3397.25 1625.08 3390.76C1634.9 3384.62 1649.89 3384.49 1656.15 3395.71C1662.32 3406.74 1658.85 3421.48 1651.4 3430.87Z" fill="#BAD266" fill-opacity="0.8"/>
<path d="M1773.96 1799.73C1772.66 1794.96 1765.94 1793.36 1761.91 1795.46C1760.88 1795.99 1760.03 1796.74 1759.33 1797.58C1759.1 1797.43 1758.87 1797.31 1758.65 1797.14C1756.46 1795.56 1754.51 1793.68 1752.78 1791.6C1758.55 1788 1763.51 1783.18 1767 1777.06C1777.11 1759.35 1766.56 1741.02 1751.36 1730.7C1761.18 1729.34 1768.55 1718.11 1763.39 1708.86C1759.97 1702.71 1751.7 1701.44 1746.89 1705.47C1746.42 1700.72 1742.73 1695.94 1738.5 1694.38C1733.03 1692.36 1727.09 1694.64 1723.91 1699.16C1722.79 1691.53 1718.6 1683.04 1709.81 1687.01C1698.95 1691.91 1694.87 1707.34 1692.46 1717.97C1687.22 1718.82 1682.18 1720.26 1677.57 1722.39C1685.85 1696.71 1654.62 1680.39 1635.58 1695.89C1635.52 1695.81 1635.44 1695.71 1635.34 1695.64C1630.58 1692.51 1625.2 1690.18 1620.13 1687.59C1619.01 1687.03 1617.33 1687.99 1617.83 1689.36C1619.43 1693.79 1622.17 1698.89 1622.92 1703.51C1623.47 1706.94 1622.39 1707.56 1619.69 1709.27C1617.38 1710.76 1615.08 1712.24 1612.77 1713.72C1611.57 1714.49 1611.82 1716.26 1613.15 1716.69C1617.38 1718.07 1621.54 1719.62 1625.8 1720.94C1628.45 1735.84 1643.69 1748.38 1660.99 1744.15C1661.26 1744.09 1661.48 1743.97 1661.64 1743.84C1660.31 1750.82 1661.16 1758.4 1664.17 1765.28C1672.76 1784.95 1693.74 1797.31 1714.49 1799.59C1718.42 1800.03 1722.49 1800.08 1726.57 1799.76C1727.37 1802.41 1728.7 1804.98 1730.43 1807.18C1728.67 1808.54 1727.3 1810.51 1726.9 1812.99C1726.74 1813.99 1728.2 1814.44 1728.47 1813.43C1728.97 1811.51 1730.13 1809.78 1731.71 1808.66C1733.71 1810.74 1736.11 1812.34 1738.85 1813.06C1740.03 1813.36 1740.6 1811.83 1739.65 1811.16C1737.9 1809.94 1736.32 1808.71 1734.91 1807.41C1734.92 1807.41 1734.94 1807.39 1734.96 1807.39C1738.27 1806.99 1740.85 1809.01 1742.71 1811.54C1743.29 1812.33 1744.77 1811.91 1744.42 1810.83C1742.64 1805.49 1737.5 1804.16 1733.23 1805.69C1731.6 1803.88 1730.26 1801.89 1729.3 1799.54C1736.85 1798.64 1744.31 1796.43 1750.86 1792.74C1752.78 1795.26 1755.26 1797.84 1758.02 1799.84C1756.97 1802.41 1757.04 1805.44 1758.44 1807.96C1759.03 1809.06 1760.62 1808.09 1760.1 1806.99C1759.23 1805.16 1759.27 1802.98 1760.02 1801.13C1761.86 1802.19 1763.79 1802.96 1765.77 1803.21C1766.84 1803.34 1766.99 1801.86 1766.27 1801.38C1764.81 1800.38 1763.18 1799.63 1761.6 1798.83C1762.13 1798.33 1762.71 1797.89 1763.43 1797.59C1767.04 1796.13 1769.83 1798.29 1772.26 1800.71C1772.95 1801.48 1774.24 1800.73 1773.96 1799.73ZM1702.43 1698.11C1705.34 1693.56 1710.11 1687.96 1716.3 1689.79C1721.91 1691.46 1721.3 1700.69 1721.43 1705.07C1721.48 1706.84 1724.01 1706.81 1724.14 1705.07C1724.19 1704.44 1724.21 1703.76 1724.21 1703.04C1726.57 1698.39 1731.95 1695.23 1737.19 1696.99C1743.19 1699.02 1743.69 1704.99 1743.49 1710.31C1743.44 1711.54 1745.14 1711.91 1745.74 1710.92C1746.04 1710.42 1746.26 1709.91 1746.44 1709.37C1750.45 1703.76 1759.37 1705.34 1761.4 1712.42C1763.89 1721.14 1756.34 1725.69 1749.37 1727.94C1748.88 1728.09 1748.58 1728.45 1748.45 1728.85C1733.73 1720.06 1713.04 1715.24 1694.64 1717.62C1696.64 1710.92 1698.62 1704.06 1702.43 1698.11ZM1625.47 1718.44C1622.74 1717.24 1619.98 1716.11 1617.23 1714.96C1620.89 1713.02 1625.68 1710.54 1626.68 1707.41C1627.4 1705.16 1625.92 1702.51 1625.19 1700.51C1624.19 1697.74 1623.17 1694.98 1622.16 1692.21C1625.9 1694.18 1629.68 1696.14 1633.59 1697.68C1633.47 1697.79 1633.36 1697.88 1633.24 1697.99C1627.17 1704.17 1624.92 1711.47 1625.47 1718.44ZM1660.11 1741.07C1637.22 1746.07 1617.76 1718.59 1635.57 1700.31C1652.44 1682.99 1681.63 1698.34 1675.62 1722.17C1675.5 1722.6 1675.67 1722.94 1675.94 1723.14C1675.77 1723.22 1675.59 1723.29 1675.42 1723.39C1674.99 1723.62 1674.8 1723.97 1674.77 1724.32C1667.98 1728.42 1663.76 1734.87 1661.98 1742.12C1661.71 1741.42 1661.04 1740.87 1660.11 1741.07ZM1749.95 1788.61C1743.36 1792.73 1735.86 1795.06 1728.12 1795.89C1728.05 1795.56 1727.95 1795.24 1727.89 1794.89C1727.67 1793.66 1725.61 1793.93 1725.69 1795.19C1725.71 1795.49 1725.74 1795.79 1725.79 1796.11C1712.16 1797.01 1698.02 1793.28 1686.9 1785.98C1667.85 1773.48 1652.32 1740.75 1676.04 1725.79C1676.17 1725.8 1676.3 1725.82 1676.45 1725.79C1688.25 1723.69 1699.13 1720.77 1711.3 1721.62C1723.09 1722.44 1735.07 1725.74 1745.39 1731.6C1755.02 1737.09 1764.53 1745.83 1766.72 1757.2C1769.28 1770.46 1760.62 1781.93 1749.95 1788.61Z" fill="#F18E85" fill-opacity="0.8"/>
<path d="M1708.97 1771.2C1708.39 1770.15 1706.73 1770.87 1707.04 1772.02C1709.38 1780.35 1699.34 1782.48 1693.61 1779.26C1690.27 1777.38 1687.8 1774.36 1686.27 1770.87C1683.41 1764.39 1684.11 1757.39 1687.76 1751.4C1688.3 1750.53 1687 1749.48 1686.34 1750.29C1679.4 1759.01 1681.02 1772.67 1689.52 1779.85C1693.79 1783.43 1700.5 1785.62 1705.61 1782.52C1709.63 1780.1 1711.23 1775.32 1708.97 1771.2Z" fill="#F18E85" fill-opacity="0.8"/>
<path d="M1729.76 1763.32C1728.79 1762.39 1726.97 1763.65 1727.82 1764.8C1730.9 1769.02 1730.9 1775.69 1726.22 1778.88C1721.08 1782.38 1713.87 1778.78 1712.18 1773.27C1711.76 1771.9 1709.71 1772.47 1710.04 1773.85C1711.72 1781.05 1720.72 1785.41 1727.33 1781.58C1733.62 1777.95 1735.03 1768.37 1729.76 1763.32Z" fill="#F18E85" fill-opacity="0.8"/>
<path d="M1746.44 1755.04C1744.97 1752.84 1741.58 1750.12 1738.68 1751.28C1737.91 1751.59 1737.53 1752.7 1738.42 1753.14C1740.17 1754.03 1741.99 1754.23 1743.38 1755.8C1744.87 1757.48 1745.64 1760 1744.68 1762.09C1742.91 1765.94 1737.07 1766.47 1734.15 1763.63C1733.01 1762.51 1731.24 1764.21 1732.35 1765.36C1736.43 1769.54 1744.58 1768.67 1747.23 1763.36C1748.55 1760.67 1748.09 1757.48 1746.44 1755.04Z" fill="#F18E85" fill-opacity="0.8"/>
<path d="M1646.7 1701.09C1642.19 1700.35 1638.16 1704.14 1638 1708.59C1637.97 1709.45 1639.41 1709.69 1639.53 1708.79C1639.96 1705.64 1642.91 1702.81 1646.22 1703.41C1649.44 1704 1651.02 1707.74 1650.49 1710.71C1650.25 1712.06 1652 1712.51 1652.5 1711.27C1654.25 1706.99 1651.23 1701.84 1646.7 1701.09Z" fill="#F18E85" fill-opacity="0.8"/>
<path d="M1786.36 603.091C1780.21 601.146 1773.37 605.865 1767.8 608.319C1760.66 611.489 1753.54 614.858 1747 619.132C1746.71 618.969 1746.36 618.969 1746.02 619.186C1732.79 628.365 1721.05 640.428 1709.55 651.64C1697.02 663.848 1684.82 676.417 1673.12 689.438C1673.11 689.457 1673.1 689.477 1673.09 689.496C1669.98 690.195 1667.71 692.363 1666.8 695.339C1662.62 696.684 1660.86 699.332 1660.6 702.424C1656.38 704.994 1650.87 710.855 1650.88 716.019C1650.89 720.528 1654.8 724.241 1657.7 727.24C1660.91 730.554 1664.88 734.977 1669.75 735.617C1675.35 736.37 1680.37 730.75 1684.45 727.69C1684.95 727.316 1685.11 726.828 1685.1 726.353C1688.04 726.114 1690.76 724.552 1692.84 720.908C1692.87 720.85 1692.87 720.803 1692.9 720.745C1696.12 720.242 1698.8 718.026 1700.05 712.866C1700.39 712.791 1700.72 712.64 1701 712.329C1722.94 688.49 1746.92 665.423 1766.81 639.825C1767.42 640.018 1768.14 639.866 1768.49 639.088C1773.73 627.358 1779.66 616.16 1786.85 605.48C1787.35 604.755 1787.4 603.415 1786.36 603.091ZM1675.81 691.778C1687.22 679.401 1698.82 667.199 1710.83 655.432C1721.76 644.748 1733.71 634.872 1744.32 623.854C1744.25 625.043 1744.57 626.269 1745.33 627.236C1746.04 628.157 1747.1 628.746 1748.23 629.02C1724.09 650.487 1702.31 675.242 1680.1 698.671C1679.83 698.944 1679.76 699.24 1679.74 699.535C1677.14 696.765 1674.67 693.612 1675.27 692.182C1675.46 692.063 1675.65 691.963 1675.81 691.778ZM1749.33 630.661C1749.37 631.572 1749.63 632.467 1750.16 633.231C1751.03 634.461 1752.44 635.145 1753.9 635.316C1729.11 656.126 1706.86 680.685 1684.91 704.401C1684.84 704.345 1684.77 704.29 1684.71 704.235C1684.1 703.739 1682.67 702.457 1681.11 700.903C1681.49 700.941 1681.89 700.826 1682.22 700.466C1704.38 677.153 1728.19 654.897 1749.33 630.661ZM1668.32 731.781C1665.38 731.176 1661.84 726.817 1659.83 724.725C1658.54 723.392 1657.15 721.986 1656.07 720.448C1653.67 716.999 1654.85 714.129 1656.76 710.709C1658.11 708.29 1659.6 706.741 1660.62 704.569C1661.15 709.178 1664.24 714.241 1667.28 717.218C1670.81 720.656 1676.09 724.731 1681.22 726.01C1677.55 728.888 1673 732.759 1668.32 731.781ZM1666.35 698.085C1666.23 703.87 1670.57 708.558 1674.49 712.271C1678.06 715.66 1683.87 719.655 1689.14 720.626C1680.98 730.307 1654.92 707.102 1666.35 698.085ZM1672.68 692.165C1672.59 696.79 1677.54 702.09 1680.55 704.981C1684.97 709.212 1690.58 712.386 1696.59 713.613C1689.98 728.36 1659.98 699.953 1672.68 692.165ZM1698.11 709.842C1697.9 710.075 1697.77 710.316 1697.68 710.556C1694.06 709.494 1690.73 708.234 1687.6 706.295C1709.84 682.296 1733.94 660.061 1756.17 636.1C1756.39 636.93 1756.83 637.678 1757.42 638.308C1758.71 639.66 1760.68 640.281 1762.67 640.276C1739.76 661.805 1719.36 686.714 1698.11 709.842ZM1766.23 636.973C1766.16 637.013 1766.11 637.034 1766.07 637.063C1766.07 637.063 1766.06 637.082 1766.04 637.073C1764.18 636.999 1762.33 637.817 1760.5 637.077C1759.62 636.711 1758.8 635.974 1758.63 634.981C1758.41 633.725 1759.54 632.85 1760.22 631.949C1760.94 630.971 1759.68 629.96 1758.82 630.752C1758.46 631.075 1758.08 631.389 1757.74 631.701C1757.61 631.686 1757.45 631.681 1757.32 631.713C1756.47 631.925 1755.8 632.455 1754.88 632.517C1753.99 632.569 1753.04 632.31 1752.46 631.613C1751.6 630.601 1751.75 629.382 1752.32 628.361C1752.74 628.065 1753.07 627.677 1753.24 627.197C1753.37 627.07 1753.52 626.953 1753.67 626.835C1754.32 626.343 1754.02 625.05 1753.09 625.227C1752.41 625.349 1751.84 625.668 1751.32 626.061C1750.89 626.234 1750.45 626.426 1749.94 626.468C1749.08 626.557 1748.18 626.297 1747.56 625.677C1746.16 624.271 1747.01 621.998 1748.41 620.965C1748.62 620.826 1748.72 620.615 1748.76 620.424C1754.22 618.039 1759.57 615.363 1764.98 612.884C1766.8 612.048 1769.44 610.564 1772.27 609.169C1773.03 611.684 1774.98 613.987 1777.49 614.812C1773.28 621.939 1769.48 629.302 1766.23 636.973Z" fill="#FACA4E" fill-opacity="0.8"/>
<path d="M59.3831 1055.17C56.6093 1052.96 52.2156 1053.19 49.3997 1055.57C45.1849 1059.18 47.0012 1065.87 50.8816 1069.17C55.1992 1072.86 62.0686 1072.82 64.9824 1067.74C67.6891 1062.96 64.9186 1056.45 59.3831 1055.17ZM53.6653 1065.77C51.9629 1064.22 50.6688 1061.43 51.9784 1059.37C52.9958 1057.79 55.1763 1057.22 57.0524 1057.68C57.1721 1058.05 57.3853 1058.4 57.7673 1058.62C60.1147 1060.13 62.6728 1062.48 60.9659 1065.47C59.4571 1068.11 55.7959 1067.65 53.6653 1065.77Z" fill="#BAD266" fill-opacity="0.8"/>
<path d="M162.166 1078.98C162.952 1078.62 163.585 1077.94 163.757 1076.87C165.574 1065.1 166.406 1051.61 159.307 1041.31C154.527 1034.36 146.363 1030.08 138.295 1031.81C146.186 1005.05 133.771 975.621 106.004 966.486C74.0034 955.93 56.5811 984.512 55.5839 1013.18C45.462 1007.99 33.1166 1010.37 24.5809 1018.21C14.3066 1027.6 11.6123 1043.17 14.79 1056.27C14.0908 1056.98 14.0982 1058.38 15.2888 1058.8C15.4466 1058.87 15.6515 1058.93 15.8287 1058.97C16.3607 1059.5 17.05 1059.7 17.7086 1059.58C22.2602 1061.01 27.1437 1062.27 31.8353 1062.85C32.9448 1071 38.0032 1078.98 44.5676 1083.13C55.0984 1089.8 70.1164 1086.89 77.4729 1076.79C78.4287 1075.48 79.2183 1074.05 79.8391 1072.62C83.4186 1073.5 87.0504 1074.13 90.7125 1074.66C94.2805 1075.21 98.1255 1075.94 101.77 1075.55C102.291 1084.9 107.94 1093.74 116.802 1097.85C128.094 1103.07 142.271 1098.29 147.606 1086.78C148.627 1084.61 149.161 1082.42 149.404 1080.24C150.902 1080.33 152.38 1080.46 153.874 1080.67C155.77 1080.96 157.739 1081.79 159.643 1081.72C161.378 1081.65 162.326 1080.28 162.166 1078.98ZM49.6662 1079.59C40.9047 1075.64 34.5797 1064.22 37.8022 1054.63C41.3832 1044.05 55.8327 1042.31 65.2992 1045.72C65.1592 1046.57 65.4122 1047.45 66.4674 1048.06C86.8458 1059.6 70.3543 1088.91 49.6662 1079.59ZM120.806 1093.33C97.9911 1085.29 107.526 1050.44 130.704 1056.84C130.807 1057.28 131.023 1057.68 131.411 1057.95C138.586 1063.35 146.385 1072 143.437 1081.9C140.66 1091.27 129.921 1096.54 120.806 1093.33ZM154.234 1076.14C152.642 1076.06 151.076 1076.13 149.471 1076.25C148.734 1066.91 141.934 1058.42 133.327 1054.25C133.141 1054.16 132.992 1054.14 132.815 1054.1C122.73 1047.62 109.027 1053.01 103.99 1063.73C102.92 1066.04 102.231 1068.45 101.927 1070.84C98.6629 1070.09 95.176 1070.14 91.8463 1069.84C88.2261 1069.55 84.6471 1069.08 81.0378 1068.71C83.156 1059.05 78.6723 1048.3 69.5528 1043.56C69.0986 1043.33 68.6225 1043.25 68.1908 1043.28C59.6731 1035.37 42.3916 1038.52 35.5096 1047.47C33.0895 1050.65 31.8767 1054.34 31.6741 1058.12C27.7042 1057.09 23.4636 1056.45 19.3588 1056.02C18.7672 1046 18.8586 1035.59 24.7225 1026.93C31.6306 1016.76 44.9537 1012.92 55.915 1018.73C57.657 1019.66 59.3989 1018.39 59.5712 1016.91C59.5822 1016.83 59.6209 1016.78 59.6402 1016.75C61.6763 1005.67 63.7306 993.735 69.953 984.084C79.9537 968.649 97.6137 967.081 112.803 976.331C132.515 988.356 139.135 1011.4 131.762 1032.75C130.753 1035.67 134.135 1037.49 136.195 1036.24C159.563 1033.33 160.135 1060.04 158.202 1076.34C156.838 1076.18 155.432 1076.19 154.234 1076.14Z" fill="#BAD266" fill-opacity="0.8"/>
<path d="M131.562 1069.23C128.663 1066.08 123.783 1065.19 120.131 1067.9C115.747 1071.19 115.167 1078.1 119.106 1082.05C122.771 1085.69 129.38 1085.93 132.833 1082.03C136.153 1078.32 135.467 1072.23 131.562 1069.23ZM129.251 1079.21C127.361 1080.81 123.934 1080.48 122.256 1078.59C120.569 1076.65 120.892 1073.23 122.717 1071.55C124.072 1070.32 126.094 1069.95 127.94 1070.3C128 1070.75 128.18 1071.2 128.557 1071.54C130.71 1073.4 131.676 1077.14 129.251 1079.21Z" fill="#BAD266" fill-opacity="0.8"/>
<path d="M93.7779 1017.42C94.9309 1005.25 95.1176 992.446 95.0392 980.203C95.044 979.959 94.9266 979.712 94.8176 979.512C95.2692 979.041 95.1831 978.155 94.6455 977.74C82.8203 968.478 71.7371 988.861 69.2423 997.495C67.8285 1002.38 63.9026 1012 67.1793 1016.68C70.5565 1021.5 83.6584 1020.91 88.6045 1021.59C90.2282 1021.81 91.1059 1020.72 91.2245 1019.48C92.3917 1019.47 93.6569 1018.78 93.7779 1017.42ZM73.7718 1013.08C71.0195 1010.92 71.683 1010.68 72.3426 1007.3C72.9611 1004.09 73.599 1000.86 74.5734 997.734C77.5767 988.131 82.6481 981.497 92.5958 980.032C89.6763 991.593 88.2812 1004.59 89.2034 1016.51C89.1284 1016.5 89.1199 1016.45 89.0449 1016.44C84.3264 1015.68 77.5242 1016.07 73.7718 1013.08Z" fill="#BAD266" fill-opacity="0.8"/>
<path d="M127.367 1024.12C129.258 1006.32 123.797 982.952 104.074 978.369C103.515 978.229 103.06 978.411 102.716 978.671C102.143 978.729 101.607 979.145 101.532 979.841C100.096 992.803 100.394 1006.81 101.602 1019.74C101.778 1021.6 103.914 1022.01 105.21 1021.21C111.108 1023.28 117.226 1024.79 123.317 1026.29C123.848 1026.41 124.3 1026.35 124.716 1026.22C125.931 1026.36 127.204 1025.71 127.367 1024.12ZM104.432 981.859C119.986 989.608 123.002 1004.71 122.703 1020.75C117.281 1019.47 111.821 1018.25 106.292 1017.47C106.663 1005.81 106.174 993.376 104.432 981.859Z" fill="#BAD266" fill-opacity="0.8"/>
<path d="M1625.02 88.6266C1634.1 82.7473 1635.42 68.8157 1625.7 62.4093C1620.91 59.2519 1614.73 58.676 1609.61 61.3509C1604.41 64.0618 1601.14 69.0858 1598.36 74.114C1595.88 67.2362 1589.63 61.937 1582.09 61.5161C1581.37 61.4734 1580.65 61.4994 1579.94 61.544C1578.61 39.1862 1560.66 18.3476 1540.27 10.7106C1517.17 2.0563 1490.36 7.71484 1473.21 25.5274C1464.75 34.308 1459.08 45.3291 1456.83 57.2644C1456.72 57.2447 1456.6 57.2852 1456.53 57.4238C1455.97 58.4242 1456.04 59.561 1456.38 60.6116C1453.76 60.3724 1451.15 60.7768 1448.74 62.3895C1444.93 64.9401 1442.75 69.6309 1443.23 74.1789C1444.3 84.4415 1454.29 88.3565 1463.07 86.507C1459.67 91.6132 1461.28 99.3498 1467.33 102.55C1476.53 107.417 1485.79 100.93 1489.28 92.3312C1490.69 92.9858 1492.1 93.6498 1493.5 94.3044C1494.1 94.5836 1494.57 94.2172 1494.72 93.727C1502.95 95.2237 1508.91 84.6318 1502.23 78.3079C1510.01 74.7797 1512.4 64.5441 1505.66 58.2824C1501.42 54.3554 1497.27 54.4248 1493.61 56.4251C1499.6 44.7067 1514.35 31.8634 1527.68 37.5063C1534.37 40.3386 1539.01 46.4532 1541.52 53.1018C1542.8 56.5193 1543.56 60.1092 1544.11 63.7138C1544.35 65.312 1544.53 66.913 1544.7 68.5208C1544.74 68.9184 1545.27 72.6325 1545.72 74.6357C1545.62 74.6091 1545.52 74.5995 1545.41 74.6323C1545.32 74.6574 1545.22 74.691 1545.12 74.7162C1544.78 74.8207 1544.39 75.0916 1544.39 75.5114L1544.39 75.9482C1544.4 76.4366 1544.6 76.7815 1545.04 76.9937C1545.07 77.0139 1545.1 77.0256 1545.14 77.0465C1545.05 77.1488 1544.94 77.2418 1544.85 77.3526C1540.88 82.054 1541.15 89.8784 1546.06 93.6296C1537.65 99.8632 1533.02 112.284 1541.82 120.453C1550.88 128.868 1561.57 120.187 1568.05 112.813C1570.74 120.523 1578.28 127.1 1586.88 125.224C1593.69 123.736 1598.42 117.121 1597.83 110.439C1607.19 117.401 1620.83 120.668 1629.6 110.856C1635.94 103.775 1633.68 91.9273 1625.02 88.6266ZM1457.47 59.5846C1463.22 29.6342 1489.87 7.33504 1520.63 8.79474C1535.5 9.4985 1549.68 15.5718 1560.23 26.114C1570.28 36.1559 1575.14 48.1887 1578.01 61.798C1575.09 62.344 1572.37 63.6454 1570.07 65.4822C1569.96 53.4438 1564.29 39.8354 1556.64 30.792C1548.47 21.1248 1537.37 16.3262 1524.82 15.7403C1501.68 14.6408 1474.76 25.5622 1470.1 50.531C1466.47 52.85 1464.79 58.3334 1464.07 62.6998C1461.87 61.8409 1459.56 61.0573 1457.23 60.7265C1457.19 60.474 1457.16 60.2317 1457.15 59.9824C1457.3 59.9112 1457.43 59.7866 1457.47 59.5846ZM1527.11 25.9037C1508.45 24.0461 1487.34 33.4286 1479.18 50.8493C1478.21 50.3042 1477.16 49.8884 1476.02 49.6352C1474.23 49.2345 1472.69 49.3626 1471.36 49.871C1477.69 26.4561 1502.76 16.2064 1525.49 17.7041C1537.74 18.5105 1548.29 23.5733 1555.98 33.2373C1559.45 37.6061 1562.1 42.6079 1564.03 47.8409C1566.28 53.9694 1566.85 60.23 1568.47 66.4782C1568.5 66.5925 1568.55 66.6829 1568.61 66.7657C1566.32 69.0061 1564.56 71.8102 1563.61 74.9218C1563.59 74.972 1563.6 75.0152 1563.59 75.0661C1561.86 74.2258 1559.97 73.6019 1558.04 73.2656C1561.61 53.4336 1548.55 28.0412 1527.11 25.9037ZM1502.2 58.2216C1510.59 62.6611 1508.89 74.4424 1500.19 77.2327C1499.54 77.4373 1499.55 78.3887 1500.04 78.7346C1508.13 84.4469 1500.66 96.0088 1491.99 91.3971C1491.94 91.3753 1491.9 91.3713 1491.86 91.3588C1490.93 90.9288 1490.02 90.4911 1489.09 90.0611C1488.61 89.8365 1487.98 90.1622 1487.82 90.6346C1485.35 97.6955 1478.67 104.127 1470.61 101.747C1463.08 99.529 1460.14 89.1572 1467.44 85.0278C1467.75 84.8777 1468.07 84.7191 1468.37 84.5588C1469.48 83.9617 1468.71 82.2545 1467.53 82.7681C1467.21 82.9081 1466.9 83.076 1466.6 83.2447C1458.75 86.9463 1447.97 85.2338 1445.5 75.6006C1444.37 71.196 1446.04 66.5174 1449.9 64.0055C1454.55 60.9778 1459.85 63.0622 1464.5 64.9406C1465.11 65.1865 1465.73 64.7312 1465.81 64.1226C1466.19 61.2991 1466.55 58.4222 1467.94 55.8907C1470.23 51.7159 1474.85 50.209 1479.03 53.1721C1483.38 56.2547 1485.14 61.7201 1484.27 66.8337C1484.11 67.7691 1485.56 68.3429 1486.04 67.4981C1487.58 64.7759 1489.54 61.6647 1491.97 59.549C1492.07 59.5154 1492.16 59.4385 1492.23 59.3338C1494.96 57.1173 1498.24 56.1266 1502.2 58.2216ZM1543.91 53.7307C1541.35 46.2207 1536.39 39.2624 1528.98 35.9514C1514.08 29.2868 1496.52 43.979 1491.62 57.7267C1489.67 59.2283 1487.9 61.2106 1486.42 63.3134C1486.11 58.6872 1483.89 54.0257 1480.1 51.4243C1488.8 35.5102 1507.43 26.6298 1525.33 27.73C1536.44 28.412 1545.1 35.283 1550.52 44.7237C1555.6 53.5852 1556.79 63.0117 1556.13 73.0258C1553.05 72.8027 1549.99 73.3953 1547.43 75.0708C1547.89 72.658 1546.93 69.3227 1546.71 67.3327C1546.18 62.7366 1545.41 58.1265 1543.91 53.7307ZM1624.49 112.436C1615.14 118.144 1604.41 113.577 1596.88 107.035C1596.01 106.286 1595.05 107.445 1595.34 108.303C1597.76 115.286 1592.05 122.879 1584.88 123.426C1577.26 123.998 1571.15 117.531 1569.49 110.577C1569.28 109.71 1568.24 109.483 1567.67 110.165C1562.32 116.654 1552.77 126.426 1543.9 119.63C1534.43 112.375 1540.37 99.6668 1548.47 94.3712C1548.97 94.0419 1548.95 93.0727 1548.41 92.7822C1543.1 89.9085 1542.72 82.4077 1546.67 78.1669C1551.45 73.0201 1559.58 74.2849 1565.12 77.3246C1565.78 77.6873 1566.49 76.7777 1565.83 76.3387C1565.66 76.2285 1565.48 76.1345 1565.31 76.0243C1565.39 75.9297 1565.47 75.8081 1565.51 75.6585C1567.73 68.7364 1574.35 63.2843 1581.87 63.6952C1589.39 64.106 1595.46 69.9447 1596.94 77.1646C1597.18 78.3167 1598.57 78.2768 1599.06 77.3642C1603.79 68.5234 1611.51 57.653 1622.96 63.3572C1633.56 68.6393 1632.11 83.4494 1621.67 87.9852C1620.66 88.4207 1621.01 89.8749 1622.02 90.0127C1626.98 90.7038 1630.5 94.8629 1631.21 99.7159C1632.01 105.056 1628.89 109.743 1624.49 112.436Z" fill="#F18E85" fill-opacity="0.8"/>
<path d="M170.76 1752.71C162.44 1752.61 156.524 1757.87 152.884 1764.65C150.07 1749.45 131.483 1741.37 118.89 1752.92C100.409 1769.85 125.539 1790.13 138.804 1800.17C138.813 1801.66 139.927 1803.07 141.756 1802.52C158.273 1797.47 191.013 1790.74 187.259 1766.74C185.946 1758.46 179.105 1752.8 170.76 1752.71ZM180.507 1777.54C178.753 1780.74 175.761 1783.28 172.821 1785.3C163.521 1791.75 151.332 1794.14 140.661 1797.53C140.635 1797.54 140.635 1797.54 140.61 1797.56C132.819 1788.71 115.017 1777.33 117.553 1764.63C119.214 1756.35 127.238 1750.93 135.573 1752.22C143.908 1753.52 148.305 1760.41 149.12 1768.31C149.27 1769.75 150.824 1770.16 151.998 1769.72C152.663 1770.05 153.524 1770.01 153.97 1769.26C155.998 1765.65 159.059 1761.65 162.612 1759.43C167.129 1756.56 175.904 1756.84 179.693 1760.88C183.431 1764.89 182.964 1773.02 180.507 1777.54Z" fill="#FACA4E" fill-opacity="0.8"/>
<path d="M1713.55 2592.44C1713.91 2592.55 1714.31 2592.46 1714.49 2592.02C1719.67 2579.12 1725.86 2566.31 1729.94 2553C1729.98 2553.04 1730.01 2553.08 1730.06 2553.1C1736.46 2556.52 1741.5 2557.49 1748.21 2554.11C1753.45 2551.46 1757.86 2547.24 1758.51 2541.19C1759.56 2531.6 1747.73 2523.24 1740.53 2530.86C1740.34 2530.92 1740.16 2530.97 1739.97 2531.04C1740.12 2525.47 1738.01 2519.65 1733.29 2516.33C1728.7 2513.1 1723.56 2515.27 1720.41 2519.41C1720.31 2519.55 1720.3 2519.7 1720.35 2519.82C1711.73 2526.33 1717.49 2542.16 1724.09 2548.68C1716.69 2560.6 1712.11 2575.33 1707.75 2588.53C1707.7 2588.68 1707.68 2588.82 1707.7 2588.96C1707.5 2589.1 1707.38 2589.3 1707.44 2589.58C1707.75 2590.83 1708.48 2591.82 1709.61 2592.43C1710.65 2593.01 1712.19 2593.26 1713.29 2592.67C1713.39 2592.6 1713.48 2592.53 1713.55 2592.44ZM1754.2 2547.27C1748.82 2553.99 1741.37 2555.43 1734.16 2552.91C1741.45 2553.31 1749.43 2549.58 1752.26 2542.99C1753.84 2539.29 1753.35 2534.35 1750.09 2531.69C1749.03 2530.82 1747.87 2530.34 1746.66 2530.12C1754.52 2530 1760.33 2539.59 1754.2 2547.27ZM1724.41 2517.84C1727.49 2516.2 1730.62 2515.81 1733.76 2518.92C1737.03 2522.17 1738.54 2526.62 1738.35 2531.19C1738.34 2531.37 1738.39 2531.5 1738.46 2531.63C1738.08 2531.8 1737.69 2531.98 1737.32 2532.14C1737.71 2524.75 1731.86 2516.1 1724.41 2517.84ZM1718.33 2528.2C1719.02 2521.65 1725.56 2517.71 1731.26 2521.82C1735.21 2524.68 1735.7 2529.63 1735.51 2534.05C1735.48 2534.95 1736.6 2535.17 1736.94 2534.42C1737.04 2534.41 1737.14 2534.39 1737.24 2534.35C1740.85 2532.7 1746.22 2530.01 1749.63 2534.29C1753.15 2538.7 1749.71 2544.34 1745.98 2547.08C1740.36 2551.24 1732.18 2552.75 1726.49 2548.06C1721.54 2543.97 1717.65 2534.67 1718.33 2528.2ZM1712.85 2591.02C1711.99 2591.18 1711.31 2591.29 1710.48 2590.92C1709.91 2590.68 1709.44 2590.3 1709.1 2589.81C1709.3 2589.71 1709.47 2589.57 1709.57 2589.29C1711.97 2582.38 1714.45 2575.48 1717.14 2568.68C1719.67 2562.31 1722.87 2556.07 1725.06 2549.57C1725.12 2549.62 1725.16 2549.66 1725.21 2549.71C1726.33 2550.61 1727.6 2551.29 1728.94 2551.8C1722.63 2564.33 1718.29 2577.98 1713.15 2591.01C1713.08 2590.99 1712.97 2590.99 1712.85 2591.02Z" fill="#F18E85" fill-opacity="0.8"/>
<path d="M1814.88 5134.08C1808.83 5123.09 1786.97 5118.95 1778.55 5129.37C1766.35 5120.3 1750.1 5115.94 1734.95 5115.72C1734.69 5115.72 1734.49 5115.79 1734.31 5115.87C1735.68 5101.7 1716.05 5093.72 1704.41 5096.17C1689.11 5099.39 1686.1 5121.54 1695.98 5131.96C1696 5131.98 1696.02 5131.99 1696.05 5132C1693.31 5135.36 1691.1 5139.12 1689.57 5143.16C1681.89 5163.53 1690.47 5186.23 1707.32 5199.03C1725.35 5212.73 1749.56 5219.07 1770.69 5208.84C1786.67 5201.1 1797.29 5184.76 1797.71 5167.32C1811.89 5164.14 1822.39 5147.73 1814.88 5134.08ZM1813.6 5137.33C1818.77 5150.73 1808.37 5159.68 1797.71 5164.93C1797.63 5162.2 1797.29 5159.47 1796.7 5156.73C1796.46 5155.66 1796.18 5154.63 1795.88 5153.6C1800.66 5153.69 1803.63 5147.33 1801.89 5143.14C1799.59 5137.59 1793.27 5136.69 1788.39 5138.97C1785.92 5135.77 1783.06 5132.91 1779.89 5130.41C1788.37 5121.04 1809.35 5126.33 1813.6 5137.33ZM1795.07 5151.15C1793.62 5147.14 1791.67 5143.48 1789.3 5140.19C1792.96 5138.81 1797.22 5139.33 1799.41 5143.01C1801.85 5147.12 1798.99 5150.51 1795.07 5151.15ZM1707.93 5098.32C1718.67 5097.74 1731.97 5104.57 1731.86 5116.49C1727.98 5116.05 1724.1 5116.29 1720.31 5117.08C1719.05 5112.64 1713.06 5109.91 1708.81 5111.41C1703.76 5113.18 1701.76 5119.75 1704.31 5124.22C1701.6 5126.18 1699.11 5128.44 1696.92 5130.96C1688.85 5119.85 1691.94 5099.17 1707.93 5098.32ZM1717.91 5117.65C1713.61 5118.84 1709.49 5120.74 1705.76 5123.22C1704.23 5119.65 1705.62 5114.82 1709.56 5113.5C1713.38 5112.21 1716.24 5114.62 1717.91 5117.65ZM1775.59 5202.55C1741.3 5226.18 1684.19 5195.72 1689.99 5152.83C1692.22 5136.39 1704.32 5124.12 1719.27 5119.97C1719.69 5120.14 1720.22 5120.05 1720.44 5119.65C1725.41 5118.42 1730.66 5118.08 1735.95 5118.79C1736.13 5118.8 1736.27 5118.77 1736.38 5118.72C1758.32 5119.73 1781.78 5128.33 1791.25 5149.8C1799.5 5168.51 1792.21 5191.11 1775.59 5202.55Z" fill="#F18E85" fill-opacity="0.8"/>
<path d="M1753.98 5194.7C1754.35 5193.63 1752.97 5192.43 1752.13 5193.48C1749.59 5196.65 1745.23 5197.97 1741.72 5195.14C1739.07 5193.01 1737.99 5189.64 1737.79 5186.38C1739.85 5186.3 1741.83 5185.56 1743.46 5184.12C1744.22 5183.44 1743.52 5182.37 1742.75 5182.14C1739.31 5181.12 1735.83 5180.45 1732.26 5180.12C1731.33 5180.03 1730.73 5180.74 1730.95 5181.64C1731.54 5184.05 1733 5186.03 1735.13 5187.22C1734.82 5189.58 1733.86 5191.75 1731.65 5193.07C1727.96 5195.26 1722.95 5192.48 1724.56 5187.99C1724.99 5186.8 1723.31 5185.35 1722.47 5186.62C1719.21 5191.48 1724.12 5197.45 1729.64 5196.67C1733.25 5196.16 1735.57 5193.73 1736.59 5190.71C1737.3 5193.8 1739 5196.61 1742.04 5198.19C1746.01 5200.26 1752.39 5199.27 1753.98 5194.7ZM1734.75 5183.33C1734.42 5183.17 1734.13 5183.18 1733.87 5183.25C1733.77 5183.05 1733.68 5182.84 1733.59 5182.61C1734.13 5182.68 1734.67 5182.79 1735.21 5182.87C1735.17 5182.95 1735.15 5183.06 1735.15 5183.18C1735.16 5183.27 1735.17 5183.38 1735.18 5183.48C1735.04 5183.43 1734.91 5183.39 1734.75 5183.33ZM1736.54 5183.08C1737.51 5183.26 1738.49 5183.47 1739.46 5183.71C1738.6 5183.97 1737.69 5184.03 1736.8 5183.9C1736.71 5183.63 1736.63 5183.36 1736.54 5183.08Z" fill="#F18E85" fill-opacity="0.8"/>
<path d="M1703.83 5162.44C1702.69 5161.51 1700.31 5161.42 1699.96 5163.33C1699.92 5163.53 1699.97 5163.75 1700.09 5163.93C1699.88 5164.24 1699.75 5164.58 1699.77 5164.92C1699.9 5166.73 1702.14 5167.11 1703.45 5166.39C1704.97 5165.56 1705.09 5163.49 1703.83 5162.44ZM1701.69 5164.94C1701.57 5164.91 1701.34 5164.72 1701.35 5164.74C1701.35 5164.69 1701.37 5164.65 1701.4 5164.6C1701.75 5164.92 1702.38 5164.65 1702.51 5164.13C1702.67 5164.23 1702.81 5164.38 1702.76 5164.55C1702.64 5164.93 1701.99 5165.04 1701.69 5164.94Z" fill="#F18E85" fill-opacity="0.8"/>
<path d="M1776.72 5181.94C1776.59 5180.63 1775.26 5180.19 1774.31 5179.63C1773.95 5179.42 1773.45 5179.52 1773.1 5179.76C1772.42 5180.24 1771.92 5181 1771.74 5181.83C1771.55 5182.71 1771.69 5183.86 1772.48 5184.3C1772.85 5184.5 1773.2 5184.48 1773.51 5184.33C1774.07 5184.75 1774.84 5184.85 1775.62 5184.33C1776.36 5183.83 1776.81 5182.84 1776.72 5181.94Z" fill="#F18E85" fill-opacity="0.8"/>
<path d="M367.025 5723.34C344.663 5726.59 322.3 5730.11 299.976 5733.89C299.514 5726.51 298.704 5719.11 297.785 5711.72C304.77 5711.54 311.575 5710.29 318.651 5710.7C326.325 5711.16 333.848 5712.6 341.183 5714.89C342.111 5715.18 342.954 5714.35 342.598 5713.41C332.06 5686.3 319.1 5654.28 292.312 5639.28C292.279 5639.17 292.212 5639.07 292.092 5639.02C291.689 5638.85 291.285 5638.68 290.88 5638.5C290.713 5638.41 290.552 5638.32 290.383 5638.22C290.299 5638.17 290.213 5638.17 290.136 5638.17C290.108 5638.16 290.09 5638.15 290.062 5638.14C289.549 5637.93 289.002 5637.66 288.437 5637.56C288.123 5635.27 287.794 5632.99 287.455 5630.71C287.419 5630.47 287.301 5630.32 287.15 5630.23C286.895 5629.91 286.433 5629.75 286.092 5630.1C258.925 5658 244.066 5698.37 242.425 5736.87C242.385 5737.73 243.148 5738.29 243.962 5738C261.112 5731.75 278.546 5726.91 296.152 5722.19C296.688 5726.22 297.284 5730.24 297.984 5734.22C273.436 5738.4 248.938 5742.89 224.555 5747.69C224.518 5747.62 224.483 5747.56 224.454 5747.49C224.062 5746.71 222.955 5747.22 223.233 5748.03C223.249 5748.08 223.273 5748.13 223.288 5748.17C223.115 5748.5 223.255 5748.96 223.631 5749.07C226.071 5755.63 229.613 5761.81 233.615 5767.52C237.649 5773.27 240.074 5774.54 246.901 5773.49C263.716 5770.91 280.51 5768.18 297.306 5765.52C314.093 5762.86 330.992 5760.6 347.716 5757.58C353.063 5756.62 355.3 5753.89 357.48 5749.05C360.978 5741.29 364.289 5733.44 367.639 5725.62C367.683 5725.51 367.71 5725.41 367.72 5725.31C368.624 5724.82 368.26 5723.16 367.025 5723.34ZM288.633 5639.07C288.956 5639.16 289.292 5639.23 289.613 5639.31C289.783 5639.35 289.943 5639.39 290.111 5639.42C301.988 5647.75 311.789 5657.72 319.658 5669.96C328.114 5683.1 334.08 5697.66 339.75 5712.18C332.952 5710.21 325.995 5708.93 318.91 5708.52C312.069 5708.12 304.18 5707.88 297.556 5709.93C296.381 5700.74 295.052 5691.56 293.962 5682.43C292.225 5667.97 290.604 5653.49 288.633 5639.07ZM244.691 5735.41C245.679 5716.57 249.754 5698.01 256.841 5680.51C264.034 5662.75 274.284 5647.21 286.215 5632.37C287.745 5649.19 289.852 5665.97 291.812 5682.74C293.254 5695.09 294.288 5707.63 295.867 5720.04C278.513 5723.82 261.377 5729.37 244.691 5735.41ZM356.869 5744.91C355.61 5747.81 354.411 5752.05 351.727 5753.99C349.028 5755.94 344.224 5755.96 341.081 5756.45C326.977 5758.69 312.884 5760.95 298.778 5763.18C284.975 5765.37 271.18 5767.56 257.375 5769.74C253.772 5770.31 250.177 5770.88 246.572 5771.45C243.562 5771.91 240.962 5772.71 238.095 5770.11C237.009 5769.13 236.024 5767.45 235.193 5766.27C231.282 5760.77 228.183 5754.89 225.151 5748.91C271.845 5741.42 318.534 5733.73 365.158 5725.85C362.364 5732.19 359.625 5738.55 356.869 5744.91Z" fill="#BAD266" fill-opacity="0.8"/>
<path d="M1091.03 4674.17C1082.93 4674.02 1077.19 4679.16 1073.68 4685.78C1070.86 4670.86 1052.72 4662.84 1040.52 4674.11C1022.61 4690.61 1047.19 4710.63 1060.15 4720.54C1060.17 4722 1061.26 4723.39 1063.04 4722.86C1079.1 4717.99 1110.94 4711.56 1107.17 4688C1105.84 4679.87 1099.15 4674.29 1091.03 4674.17ZM1100.65 4698.56C1098.95 4701.69 1096.05 4704.16 1093.2 4706.13C1084.18 4712.41 1072.32 4714.69 1061.95 4717.96C1061.92 4717.97 1061.92 4717.97 1061.9 4717.98C1054.27 4709.27 1036.87 4698.02 1039.28 4685.58C1040.85 4677.47 1048.64 4672.2 1056.76 4673.51C1064.88 4674.82 1069.2 4681.6 1070.04 4689.35C1070.19 4690.77 1071.7 4691.17 1072.85 4690.75C1073.49 4691.08 1074.33 4691.04 1074.76 4690.3C1076.72 4686.77 1079.68 4682.87 1083.13 4680.71C1087.51 4677.92 1096.06 4678.24 1099.77 4682.22C1103.43 4686.17 1103.01 4694.14 1100.65 4698.56Z" fill="#F18E85" fill-opacity="0.8"/>
<path d="M647.585 2680.43C642.755 2680.36 639.328 2683.42 637.225 2687.36C635.569 2678.5 624.766 2673.77 617.473 2680.48C606.771 2690.31 621.39 2702.16 629.105 2708.03C629.112 2708.9 629.762 2709.73 630.822 2709.41C640.403 2706.49 659.399 2702.62 657.184 2688.63C656.409 2683.8 652.429 2680.5 647.585 2680.43ZM653.28 2694.91C652.267 2696.77 650.534 2698.25 648.83 2699.42C643.441 2703.17 636.369 2704.54 630.179 2706.5C630.164 2706.5 630.164 2706.5 630.149 2706.51C625.614 2701.35 615.262 2694.69 616.715 2687.29C617.667 2682.47 622.317 2679.33 627.157 2680.1C631.998 2680.86 634.561 2684.89 635.046 2689.49C635.135 2690.33 636.038 2690.57 636.719 2690.32C637.105 2690.51 637.605 2690.49 637.863 2690.05C639.034 2687.95 640.805 2685.62 642.865 2684.33C645.482 2682.67 650.577 2682.85 652.783 2685.21C654.958 2687.55 654.699 2692.28 653.28 2694.91Z" fill="#F18E85" fill-opacity="0.8"/>
<path d="M95.4174 5041.16C88.4414 5045.52 86.41 5053.06 87.1001 5060.64C76.417 5049.5 56.5204 5052.71 52.3852 5069.05C46.3051 5093.01 78.3424 5096.46 94.8893 5097.72C95.7129 5098.96 97.4171 5099.54 98.6339 5098.1C109.601 5085.07 133.138 5061.97 116.84 5044.01C111.202 5037.82 102.407 5036.77 95.4174 5041.16ZM117.152 5056.6C117.453 5060.2 116.357 5063.91 115.021 5067.17C110.828 5077.51 101.998 5086.01 94.9823 5094.53C94.9686 5094.56 94.9685 5094.56 94.9548 5094.58C83.6188 5091.39 62.5616 5091.43 57.6989 5079.51C54.5359 5071.73 58.2375 5062.94 65.8801 5059.56C73.5227 5056.18 80.9652 5059.56 85.9789 5065.7C86.8961 5066.82 88.4103 5066.33 89.1501 5065.34C89.8819 5065.25 90.5777 5064.76 90.5332 5063.89C90.2375 5059.81 90.5881 5054.84 92.3252 5051.1C94.5105 5046.3 101.963 5041.84 107.334 5043.18C112.641 5044.51 116.714 5051.53 117.152 5056.6Z" fill="#BAD266" fill-opacity="0.8"/>
<path d="M1577.92 5740.7C1573.94 5739.81 1569.71 5739.98 1565.65 5739.77C1561.73 5739.57 1557.84 5739.29 1553.93 5739.29C1555.64 5730.4 1553.99 5721.76 1549.87 5714.63C1553.24 5712.9 1556.54 5710.98 1559.84 5709.05C1564.31 5706.43 1569.09 5704.05 1573.11 5700.78C1575.76 5698.61 1572.39 5695.1 1569.71 5696.34C1564.62 5698.71 1559.98 5702.43 1555.33 5705.53C1552.65 5707.32 1550.04 5709.15 1547.5 5711.04C1541.82 5703.53 1533.06 5698.4 1522.57 5697.61C1525.18 5690.86 1527.28 5682.56 1527.62 5675.6C1527.8 5672.39 1523.33 5672.15 1522.33 5674.87C1520.92 5678.8 1520.44 5683.25 1519.75 5687.34C1519.24 5690.48 1518.68 5693.65 1518.51 5696.85C1508.41 5694.13 1498.13 5695.89 1489.5 5700.74C1488.6 5697.27 1487.23 5693.89 1485.95 5690.55C1484.65 5687.1 1483.65 5683.38 1481.28 5680.52C1479.94 5678.91 1476.67 5680.18 1476.95 5682.32C1477.43 5686.04 1479.39 5689.27 1481.04 5692.62C1482.69 5695.99 1484.27 5699.5 1486.37 5702.64C1478.6 5707.94 1472.55 5715.94 1469.73 5725.48C1466.12 5724.07 1462.23 5723.45 1458.45 5722.65C1453.64 5721.62 1448.82 5720.35 1443.91 5719.9C1440.43 5719.59 1439.95 5724.86 1443.12 5725.82C1447.89 5727.23 1453.02 5727.82 1457.93 5728.65C1461.44 5729.23 1465.09 5730.02 1468.66 5730.09C1467.11 5739.19 1469.07 5747.49 1473.37 5754.34C1469.42 5756.45 1465.74 5759.13 1462.03 5761.58C1458.42 5763.96 1454.53 5766.23 1451.47 5769.29C1450.34 5770.43 1451.47 5772.64 1453.09 5772.08C1457.18 5770.67 1460.89 5768.19 1464.6 5766.02C1468.59 5763.68 1472.79 5761.48 1476.5 5758.68C1482.89 5766.16 1492.42 5771.33 1503.21 5772.95C1503.59 5773.01 1504 5773.01 1504.38 5773.08C1502.87 5780.73 1501.98 5788.55 1500.33 5796.2C1499.5 5800.02 1505.21 5801.64 1506.2 5797.82C1508.16 5790.2 1509.54 5781.42 1508.89 5773.39C1517.55 5773.63 1526.04 5771.5 1533.37 5767.33C1536.43 5774.57 1539.18 5781.66 1541.62 5789.17C1542.75 5792.72 1548.15 5791.27 1547.26 5787.62C1545.33 5779.84 1541.69 5771.67 1537.04 5764.99C1544.23 5759.92 1549.87 5752.73 1552.76 5743.77C1560.32 5745.53 1569.64 5747.15 1577.17 5746.28C1580.12 5745.97 1581.36 5741.46 1577.92 5740.7ZM1538.73 5755.24C1528.76 5766.02 1512.7 5769.4 1498.81 5765.4C1479.04 5759.72 1468.87 5739.64 1478.63 5720.72C1486.71 5705.05 1502.32 5700.23 1518.44 5700.99C1518.65 5702.4 1519.61 5703.74 1521.44 5703.84C1531.13 5704.5 1538.21 5708.94 1542.61 5715.21C1542.27 5716.04 1542.96 5716.9 1543.82 5717.11C1550.32 5728.27 1548.97 5744.15 1538.73 5755.24Z" fill="#FACA4E" fill-opacity="0.8"/>
<path d="M1185.45 5254.72C1182.28 5253.72 1179.15 5252.61 1176.06 5251.41C1173.1 5250.24 1170.19 5248.51 1167.08 5247.8C1167.16 5247.51 1167.2 5247.17 1167.14 5246.82L1163.56 5224.52C1163.33 5223.06 1161.03 5222.45 1160.12 5223.6C1154.88 5230.14 1149.44 5236.61 1144.71 5243.53C1144.54 5243.42 1144.4 5243.32 1144.19 5243.26C1136.47 5240.8 1128.51 5239 1120.63 5237.21C1118.96 5236.84 1117.5 5238.25 1117.92 5239.92C1119.67 5247.22 1121.76 5255.01 1125.63 5261.54C1125.59 5261.58 1125.55 5261.6 1125.53 5261.64C1120.92 5268.14 1117.94 5275.92 1115.1 5283.34C1114.75 5284.26 1115.35 5285.15 1116.04 5285.65C1119.09 5287.88 1124.01 5285.11 1127.05 5284.03C1132.22 5282.19 1137.66 5280.17 1142.35 5277.29C1142.69 5277.08 1142.87 5276.79 1143.02 5276.48C1147.98 5283.09 1153.49 5289.3 1158.39 5295.99C1159.53 5297.55 1161.6 5297.24 1162.3 5295.47C1165.18 5288.19 1168.48 5278.04 1166.62 5270.14C1166.72 5270.12 1166.83 5270.1 1166.93 5270.06C1173.56 5266.75 1179.78 5262.62 1186.01 5258.62C1187.55 5257.64 1187.24 5255.28 1185.45 5254.72ZM1165.12 5267.81C1164.79 5268.08 1164.66 5268.37 1164.64 5268.68C1163.99 5268.77 1163.39 5269.14 1163.2 5269.89C1162.2 5273.92 1162.49 5278.21 1161.72 5282.32C1161.2 5285.09 1160.45 5287.82 1159.55 5290.49C1155.2 5284.65 1150.61 5278.86 1145.23 5274.02C1144.44 5273.31 1143.25 5273.6 1142.67 5274.29C1142.25 5273.81 1141.62 5273.56 1140.87 5273.87C1136.97 5275.42 1133.24 5277.34 1129.32 5278.86C1127.63 5279.5 1122.78 5281.98 1119.9 5282.36C1122.55 5275.79 1125.72 5269.46 1128.2 5262.83C1128.22 5262.77 1128.22 5262.7 1128.22 5262.66C1128.45 5262.39 1128.59 5262.01 1128.49 5261.56C1127.03 5255.07 1124.8 5248.78 1123.07 5242.36C1129.76 5243.94 1136.39 5245.71 1143.06 5247.32C1143.65 5247.47 1144.15 5247.36 1144.56 5247.13C1145.06 5247.32 1145.65 5247.26 1146.09 5246.8C1151.15 5241.55 1155.7 5235.77 1160.26 5230.04C1161.22 5236.02 1162.16 5242 1163.12 5247.99C1163.26 5248.86 1163.81 5249.3 1164.45 5249.42C1164.35 5249.95 1164.47 5250.49 1165.02 5250.93C1168.98 5254.09 1174.58 5255.97 1179.78 5257.55C1174.77 5260.74 1169.77 5264.06 1165.12 5267.81Z" fill="#FACA4E" fill-opacity="0.8"/>
<path d="M1773.43 4138C1780 4127.21 1774.67 4112.46 1762.49 4107.97C1750.93 4103.72 1737.51 4110.94 1731.06 4121.2C1725.85 4100.53 1708.62 4090.24 1686.8 4099.32C1673.4 4104.87 1662.9 4122.04 1670.61 4134.62C1661.07 4132.08 1649.13 4138 1645.79 4147.49C1643.8 4153.1 1645.66 4158.67 1650.34 4162.24C1656.11 4166.61 1664.01 4166.3 1670.77 4165C1659.95 4179.41 1674.68 4197.45 1689.68 4202.25C1706.91 4207.8 1724.15 4199.65 1732.42 4184.71C1735.68 4190.07 1743.43 4193.23 1749.38 4192.09C1758.18 4190.38 1763.95 4182.6 1764.57 4174.17C1775.45 4181.3 1792.12 4179.53 1797.52 4166.14C1804.02 4149.9 1787.88 4138.4 1773.43 4138ZM1790.6 4166.08C1784 4176.03 1772.84 4172.93 1764.13 4168.25C1764.01 4167.69 1763.88 4167.14 1763.7 4166.61C1762.61 4163.26 1758.06 4164.69 1758.55 4168.03C1759.67 4175.54 1757.68 4183.97 1749.47 4186.45C1742.12 4188.65 1737.85 4184.18 1735.18 4178.48C1735.27 4178.23 1735.4 4177.98 1735.46 4177.7C1736.51 4174.48 1731.59 4173.21 1730.44 4176.31C1725.29 4190.32 1713.05 4199.87 1697.77 4198.35C1682.61 4196.83 1664.38 4181.3 1675.3 4165.21C1676.38 4163.6 1674.21 4161.8 1672.75 4162.73C1672.82 4161.37 1671.95 4159.88 1670.3 4159.98C1666.18 4160.19 1661.87 4161 1657.81 4159.82C1652.2 4158.18 1648.7 4153.34 1651.95 4147.58C1656.45 4139.58 1667.92 4137.01 1675.64 4141.29C1676.75 4141.91 1677.87 4141.13 1678.09 4140.14C1678.77 4139.52 1679.11 4138.53 1678.52 4137.75C1667.79 4123.56 1677.59 4107.41 1693.46 4103.26C1701.52 4101.15 1710.1 4100.71 1716.86 4106.2C1723.59 4111.66 1725.36 4120.09 1726.97 4128.11C1727.62 4131.37 1731.96 4130.19 1732.14 4127.28C1737.2 4120.24 1745.13 4113.21 1753.97 4112.74C1768.72 4111.93 1773.21 4126.63 1767.39 4137.88C1766.74 4139.12 1767.26 4140.48 1768.22 4141.22C1768.25 4142.65 1769.15 4143.98 1771.01 4143.92C1782.08 4143.42 1799.5 4152.63 1790.6 4166.08Z" fill="#BAD266" fill-opacity="0.8"/>
<path d="M143.153 2896.9C132.075 2894.27 121.007 2891.51 109.835 2889.22C109.058 2888.45 107.662 2888.32 107.138 2889.6C101.122 2904.44 95.1107 2919.29 89.0996 2934.14C88.586 2935.4 89.6552 2937.01 91.1372 2936.46C94.1794 2935.35 97.2164 2934.22 100.243 2933.11C91.6747 2944.28 83.4121 2955.64 75.481 2967.26C74.5829 2968.57 75.5368 2970.45 77.2681 2969.93C80.6527 2968.91 84.0425 2967.85 87.422 2966.81C82.2959 2975.41 77.149 2984 72.0178 2992.59C71.025 2994.24 73.5019 2995.75 74.7532 2994.41C88.0642 2980.05 101.013 2965.38 113.697 2950.49C114.72 2949.29 113.517 2947.34 111.967 2947.89C109.965 2948.59 107.963 2949.29 105.977 2949.99C115.209 2940.45 124.069 2930.57 132.53 2920.33C133.322 2919.38 132.701 2917.46 131.256 2917.7C127.874 2918.26 124.486 2918.8 121.103 2919.36C128.657 2912.85 136.18 2906.3 143.713 2899.78C144.719 2898.9 144.616 2897.23 143.153 2896.9ZM115.764 2923.52C119.615 2922.86 123.455 2922.21 127.311 2921.57C118.214 2932.35 108.709 2942.73 98.7481 2952.73C97.5805 2953.91 99.0014 2955.89 100.504 2955.36C102.766 2954.55 105.049 2953.76 107.311 2952.96C99.3939 2962.18 91.3576 2971.3 83.192 2980.3C86.2803 2975.1 89.3685 2969.9 92.4619 2964.72C93.23 2963.44 91.7705 2962.07 90.476 2962.45C87.2474 2963.42 84.0345 2964.39 80.811 2965.37C88.9765 2953.56 97.458 2941.98 106.302 2930.65C107.262 2929.42 106.169 2927.38 104.536 2927.99C100.89 2929.32 97.2501 2930.67 93.6048 2932C99.0442 2918.67 104.468 2905.33 109.887 2891.98C119.672 2894.63 129.551 2896.94 139.425 2899.29C131.1 2906.45 122.755 2913.6 114.466 2920.81C113.418 2921.73 114.424 2923.76 115.764 2923.52Z" fill="#FACA4E" fill-opacity="0.8"/>
<path d="M1556.21 3201.63C1555.25 3201.13 1554.27 3200.76 1553.26 3200.53C1554.43 3199.76 1555.51 3198.82 1556.36 3197.65C1558.49 3194.76 1558.95 3190.64 1556.63 3187.7C1552.63 3182.63 1545.53 3185.86 1542.15 3190.71C1541.89 3187.3 1540.96 3183.95 1538.6 3181.36C1535.9 3178.38 1531.45 3176.98 1527.7 3178.84C1523.96 3180.69 1522.74 3185.21 1523.76 3189.05C1524.25 3190.91 1525.29 3192.63 1526.61 3194.12C1524.58 3193.75 1522.49 3193.74 1520.48 3194C1516.97 3194.49 1511.09 3196.26 1510.14 3200.21C1509.28 3203.8 1512.6 3207.03 1515.56 3208.39C1518.11 3209.56 1520.85 3209.67 1523.53 3209.16C1518.76 3214.26 1515.39 3221.35 1521.05 3225.73C1524.5 3228.4 1528.9 3226.43 1531.63 3223.74C1533.49 3221.92 1534.81 3219.79 1535.72 3217.48C1536.2 3219.36 1536.99 3221.13 1538.11 3222.62C1540.37 3225.59 1544.59 3227.35 1548.14 3225.61C1551.3 3224.07 1552.48 3220.31 1551.99 3217.02C1551.81 3215.69 1551.32 3214.49 1550.68 3213.37C1554.89 3214.54 1559.12 3214.06 1560.66 3210.06C1562 3206.6 1559.12 3203.15 1556.21 3201.63ZM1546.93 3189.1C1549.91 3187.35 1554.47 3186.68 1555.67 3190.88C1557.62 3197.58 1548.81 3200.09 1544.04 3201.21C1543.92 3199.46 1543.17 3197.75 1541.95 3196.45C1542 3196.33 1542.05 3196.21 1542.06 3196.06C1542.1 3195.71 1542.11 3195.36 1542.13 3195.02C1543 3192.55 1544.57 3190.51 1546.93 3189.1ZM1527.5 3190.71C1525.84 3187.62 1525.64 3182.88 1529.49 3181.34C1533.01 3179.94 1536.37 3182.48 1537.91 3185.51C1539.4 3188.42 1539.43 3191.68 1539.32 3194.86C1537.12 3194.59 1534.66 3195.31 1532.92 3196.7C1532.72 3196.55 1532.5 3196.43 1532.29 3196.3C1530.59 3194.52 1528.69 3192.93 1527.5 3190.71ZM1520.13 3206.75C1516.6 3206.41 1510.59 3203.35 1514.77 3199.05C1516.57 3197.22 1520.88 3196.68 1523.28 3196.68C1526.24 3196.7 1528.6 3197.62 1531.25 3198.74C1530.46 3200.24 1530.31 3201.98 1530.73 3203.62C1529.62 3204.14 1528.37 3204.92 1527.1 3205.91C1524.82 3206.46 1522.47 3206.96 1520.13 3206.75ZM1535.11 3213.09C1534.55 3215.04 1533.73 3216.92 1532.6 3218.65C1530.46 3221.97 1523.71 3228.17 1521.49 3221.08C1519.56 3214.91 1527.43 3209.06 1531.93 3206.05C1532.29 3206.5 1532.67 3206.93 1533.16 3207.28C1533.84 3207.78 1534.61 3208.12 1535.4 3208.32C1535.15 3209.82 1535.05 3211.45 1535.11 3213.09ZM1534.14 3204.56C1532.59 3202.73 1532.85 3200.01 1534.78 3198.57C1536.17 3197.53 1537.83 3197.47 1539.45 3197.22C1539.45 3197.52 1539.55 3197.83 1539.84 3198.12C1541.61 3199.84 1542.06 3202.85 1540.14 3204.69C1538.51 3206.25 1535.63 3206.3 1534.14 3204.56ZM1547.25 3223.07C1543.37 3225.36 1539.79 3221.31 1538.66 3217.9C1537.66 3214.81 1537.81 3211.65 1537.94 3208.45C1539.12 3208.3 1540.27 3207.9 1541.26 3207.22C1542.23 3208.77 1544.07 3210.33 1546.25 3211.55C1547.13 3212.47 1547.94 3213.47 1548.54 3214.62C1549.98 3217.3 1550.2 3221.33 1547.25 3223.07ZM1557.1 3210.13C1555 3211.85 1551.4 3210.88 1549.13 3209.96C1546.57 3208.92 1544.96 3207.18 1542.92 3205.48C1543.28 3204.91 1543.6 3204.32 1543.79 3203.69C1543.99 3203.75 1544.19 3203.77 1544.44 3203.74C1546.01 3203.42 1547.65 3203.04 1549.21 3202.5C1550.23 3202.47 1551.27 3202.55 1552.31 3202.8C1555.15 3203.49 1560.83 3207.05 1557.1 3210.13Z" fill="#F18E85" fill-opacity="0.8"/>
<path d="M111.963 3763.45C107.616 3763.22 103.297 3763.05 98.9502 3762.86C95.9298 3762.71 92.7965 3762.35 89.7761 3762.69C89.7479 3762.55 89.7479 3762.43 89.6632 3762.29C86.4452 3755.41 82.6626 3748.76 79.1342 3742.05C78.2309 3740.34 75.7186 3740.87 75.1823 3742.56C73.0934 3749.19 71.3433 3756.12 70.694 3763.05C62.8466 3761.87 54.2089 3762.94 46.3333 3763.28C44.4702 3763.36 43.1153 3765.82 44.6961 3767.2C49.2972 3771.2 53.4467 3775.85 58.2172 3779.63C58.3866 3779.74 58.556 3779.82 58.7254 3779.91C55.3945 3784.67 52.9668 3790.2 50.4545 3795.41C49.4101 3797.55 47.7729 3800.79 50.3981 3802.6C53.0515 3804.43 57.9632 3801.61 60.4755 3800.74C65.6412 3798.93 70.7223 3796.9 75.7468 3794.73C75.7751 3794.73 75.775 3794.71 75.8033 3794.71C81.4489 3799.27 87.6025 3803.22 93.9538 3806.71C95.4217 3807.53 97.4259 3806.52 97.3695 3804.74C97.1719 3796.48 97.68 3788.34 98.6679 3780.16C98.6962 3779.85 98.6679 3779.54 98.5833 3779.29C103.241 3775.03 107.701 3770.92 112.98 3767.39C114.758 3766.18 114.08 3763.56 111.963 3763.45ZM95.7605 3776.53C95.3088 3777.03 95.1959 3777.6 95.2524 3778.13C94.7443 3778.39 94.3208 3778.81 94.2361 3779.51C93.2199 3786.56 92.8247 3793.63 92.8247 3800.74C87.4896 3797.69 82.2675 3794.48 77.0171 3791.24C76.5654 3790.96 76.0856 3790.96 75.6622 3791.13C75.0694 3790.76 74.3354 3790.62 73.5732 3790.96C69.9601 3792.48 66.3186 3793.95 62.6208 3795.27C60.9553 3795.86 59.2899 3796.45 57.6245 3796.99C57.2857 3797.1 54.1242 3797.89 52.9951 3798.34C53.4185 3798.12 53.8702 3797.86 54.2936 3797.64C54.8017 3796.54 55.3098 3795.47 55.8179 3794.37C56.5801 3792.73 57.3139 3791.07 58.0479 3789.44C59.3181 3786.56 60.6449 3783.69 61.4635 3780.61C61.6046 3780.11 61.4635 3779.68 61.1812 3779.4C61.7458 3778.87 61.9716 3778.08 61.3223 3777.2C58.6971 3773.76 55.4792 3770.69 52.2047 3767.76C58.6972 3767.68 65.4154 3767.62 71.4844 3766.07C71.936 3765.96 72.2183 3765.65 72.3877 3765.25C72.8111 3765.11 73.1781 3764.83 73.3475 3764.35C74.9 3759.22 76.2267 3754.01 77.7228 3748.88C80.3762 3754.12 83.0014 3759.39 85.9371 3764.43C86.1347 3764.77 86.3887 3765 86.6428 3765.2C86.8122 3765.45 87.038 3765.65 87.3485 3765.76C90.9335 3767.06 95.083 3766.83 98.8656 3767.03C101.18 3767.14 103.495 3767.25 105.81 3767.37C102.253 3770.1 98.7244 3773.12 95.7605 3776.53Z" fill="#BAD266" fill-opacity="0.8"/>
<path d="M196.055 4409.67C197.173 4407.84 197.937 4405.81 198.182 4403.58C198.755 4398.37 195.891 4392.83 191.063 4390.66C185.281 4388.06 176.063 4393.54 173.253 4399.83C167.798 4393.76 154.843 4394.01 149.606 4399.72C143.333 4406.55 146.006 4414.75 152.225 4418.78C144.37 4422.49 140.96 4434.28 147.315 4441.66C153.288 4448.6 164.253 4447.2 168.862 4440.84C170.799 4447.09 176.935 4451.92 184.245 4450.85C194.064 4449.42 194.746 4440.15 191.282 4432.86C198.7 4434.2 206.692 4430.69 207.892 4421.91C208.928 4414.2 202.328 4409.02 196.055 4409.67ZM192.209 4395.49C198.346 4401.47 193.273 4409.81 187.491 4413.57C186.454 4411.51 184.899 4409.7 183.045 4408.58C184.763 4406.85 186.645 4405.42 188.8 4404.08C190.191 4403.2 189.291 4400.62 187.627 4401.28C184.599 4402.51 181.954 4404.76 180.072 4407.48C179.308 4407.37 178.49 4407.34 177.672 4407.48C177.644 4407.01 177.372 4406.57 176.826 4406.38C176.69 4406.33 176.553 4406.3 176.417 4406.27C174.317 4398.84 186.236 4389.7 192.209 4395.49ZM152.525 4403.2C156.97 4397.52 170.253 4398.02 172.435 4405.92C172.435 4405.97 172.462 4405.97 172.49 4406.03C169.789 4406.44 167.226 4408.06 165.235 4410.17C164.007 4408.11 161.825 4406.44 159.916 4405.2C158.77 4404.46 157.843 4406.22 158.88 4407.01C159.916 4407.78 160.843 4408.66 161.689 4409.65C162.398 4410.47 162.943 4411.38 163.625 4412.2C162.589 4413.68 161.798 4415.27 161.389 4416.83C161.252 4417.33 161.225 4417.82 161.143 4418.29C160.98 4418.18 160.762 4418.07 160.489 4418.01C160.08 4417.9 159.671 4417.9 159.261 4417.82C153.179 4415.08 146.988 4410.25 152.525 4403.2ZM168.535 4431.32C167.253 4439.69 157.843 4446.6 150.834 4439.05C147.752 4435.76 146.988 4430.91 149.443 4426.98C151.843 4423.17 155.798 4421.94 159.998 4421.47C160.243 4421.44 160.461 4421.36 160.652 4421.25C160.789 4421.25 160.925 4421.25 161.062 4421.25C161.198 4422.62 161.607 4423.91 162.18 4425.09C159.534 4427.15 157.434 4430 155.988 4432.83C155.307 4434.2 157.298 4435.41 158.061 4434.03C159.589 4431.35 161.525 4429.43 163.789 4427.67C165.044 4429.18 166.68 4430.41 168.562 4431.24C168.562 4431.29 168.535 4431.29 168.535 4431.32ZM166.926 4415.11C168.889 4411.84 171.78 4410.63 174.972 4409.46C174.917 4410.11 175.272 4410.77 176.09 4411.02C180.672 4412.39 185.309 4414.53 184.299 4420.37C183.427 4425.48 178.408 4428.41 173.499 4427.94C166.926 4427.29 163.489 4420.84 166.926 4415.11ZM183.454 4446.93C174.89 4447.81 170.826 4439.66 173.035 4432.44C173.199 4432.47 173.362 4432.5 173.526 4432.5C174.399 4432.55 175.272 4432.53 176.117 4432.42C176.117 4432.44 176.117 4432.44 176.117 4432.47C176.663 4435.49 178.326 4438.84 181.081 4440.34C182.608 4441.17 183.918 4439.27 182.854 4438.01C181.217 4436.04 179.526 4434.34 178.544 4431.92C180.399 4431.4 182.117 4430.58 183.618 4429.45C184.463 4430.14 185.39 4430.69 186.318 4431.18C189.836 4436.92 192.509 4446 183.454 4446.93ZM202.873 4424.54C199.273 4430.96 191.909 4429.78 186.563 4426.63C186.536 4426.6 186.509 4426.57 186.481 4426.55C187.327 4425.39 187.954 4424.08 188.363 4422.65C191.118 4422.27 193.273 4423.09 195.782 4423.99C197.5 4424.63 198.291 4422.13 196.955 4421.17C194.691 4419.61 191.609 4419.3 188.882 4419.66C188.936 4418.7 188.854 4417.68 188.609 4416.67C188.691 4416.64 188.772 4416.62 188.882 4416.56C189.182 4416.37 189.482 4416.15 189.782 4415.96C190.109 4415.96 190.436 4415.87 190.709 4415.63C197.391 4409.48 207.565 4416.23 202.873 4424.54Z" fill="#F18E85" fill-opacity="0.8"/>
</svg>
