<svg width="642" height="4944" viewBox="0 0 642 4944" fill="none" xmlns="http://www.w3.org/2000/svg">
<path d="M613.899 47.4466C618.769 44.3017 619.478 36.8471 614.261 33.4177C611.693 31.7276 608.376 31.4187 605.628 32.8493C602.842 34.2993 601.087 36.9872 599.597 39.6774C598.265 35.9968 594.91 33.1604 590.869 32.9342C590.48 32.9113 590.094 32.9251 589.715 32.9489C589 20.985 579.365 9.83198 568.425 5.74281C556.036 1.10895 541.65 4.13339 532.454 13.6627C527.919 18.3601 524.878 24.2568 523.673 30.643C523.61 30.6325 523.548 30.6541 523.509 30.7283C523.211 31.2635 523.249 31.8719 523.431 32.4341C522.024 32.3058 520.626 32.5218 519.333 33.3844C517.289 34.7488 516.12 37.2585 516.377 39.6923C516.95 45.1839 522.312 47.2801 527.024 46.2916C525.201 49.0235 526.063 53.1635 529.312 54.8768C534.245 57.4822 539.214 54.0123 541.086 49.4115C541.838 49.7619 542.594 50.1174 543.346 50.4679C543.667 50.6173 543.92 50.4213 544.004 50.159C548.419 50.961 551.612 45.294 548.03 41.9092C552.202 40.0223 553.482 34.5455 549.864 31.1941C547.593 29.0922 545.363 29.1288 543.402 30.1986C546.616 23.9289 554.524 17.0584 561.676 20.0796C565.265 21.596 567.757 24.8685 569.101 28.4265C569.791 30.2554 570.197 32.1764 570.493 34.1054C570.623 34.9605 570.721 35.8172 570.81 36.6776C570.831 36.8904 571.116 38.8779 571.359 39.9498C571.305 39.9356 571.251 39.9304 571.194 39.948C571.142 39.9614 571.09 39.9794 571.038 39.9928C570.854 40.0487 570.643 40.1936 570.644 40.4183L570.645 40.652C570.648 40.9133 570.759 41.0979 570.992 41.2115C571.009 41.2223 571.027 41.2286 571.049 41.2398C570.998 41.2945 570.943 41.3443 570.891 41.4035C568.762 43.9187 568.908 48.1056 571.542 50.1135C567.03 53.448 564.547 60.0937 569.272 64.4659C574.135 68.9703 579.868 64.3266 583.344 60.3812C584.786 64.5073 588.833 68.0276 593.446 67.0251C597.097 66.2296 599.636 62.6903 599.317 59.1146C604.336 62.8413 611.659 64.5915 616.361 59.3418C619.758 55.5539 618.544 49.2139 613.899 47.4466ZM524.015 31.8847C527.095 15.859 541.39 3.93009 557.889 4.71513C565.87 5.09363 573.473 8.34528 579.133 13.9877C584.53 19.3624 587.135 25.8019 588.678 33.0845C587.113 33.3763 585.656 34.0724 584.42 35.055C584.358 28.6131 581.314 21.3306 577.212 16.4905C572.825 11.3165 566.87 8.74739 560.141 8.43223C547.728 7.84093 533.283 13.6815 530.79 27.0417C528.841 28.2821 527.944 31.2161 527.558 33.5525C526.375 33.0926 525.134 32.673 523.888 32.4957C523.864 32.3606 523.849 32.2309 523.843 32.0975C523.925 32.0594 523.996 31.9928 524.015 31.8847ZM561.368 13.871C551.357 12.8746 540.033 17.8924 535.659 27.2132C535.14 26.9214 534.578 26.6988 533.966 26.5631C533.004 26.3485 532.176 26.4168 531.466 26.6887C534.858 14.1602 548.305 8.67881 560.501 9.48316C567.072 9.91623 572.729 12.6267 576.854 17.7989C578.718 20.1371 580.14 22.8139 581.175 25.6143C582.385 28.8939 582.693 32.2441 583.561 35.5877C583.578 35.6488 583.606 35.6972 583.639 35.7415C582.41 36.9401 581.464 38.4403 580.954 40.1053C580.946 40.1321 580.949 40.1552 580.946 40.1824C580.015 39.7326 579 39.3985 577.966 39.2183C579.878 28.6066 572.87 15.0175 561.368 13.871ZM548.012 31.1611C552.512 33.5377 551.6 39.8417 546.932 41.3337C546.586 41.443 546.593 41.9521 546.856 42.1373C551.195 45.195 547.19 51.3808 542.538 48.9119C542.512 48.9003 542.489 48.8981 542.467 48.8914C541.97 48.6612 541.478 48.4269 540.98 48.1967C540.726 48.0764 540.388 48.2506 540.3 48.5034C538.978 52.2814 535.394 55.7218 531.07 54.4474C527.032 53.2596 525.449 47.7093 529.367 45.5006C529.535 45.4203 529.704 45.3355 529.864 45.2498C530.459 44.9304 530.049 44.0167 529.417 44.2914C529.24 44.3663 529.076 44.4561 528.916 44.5464C524.707 46.5261 518.921 45.6083 517.595 40.4533C516.987 38.0963 517.884 35.5929 519.953 34.2493C522.448 32.6298 525.29 33.7458 527.789 34.7515C528.116 34.8833 528.447 34.6397 528.491 34.314C528.694 32.8032 528.885 31.2638 529.628 29.9094C530.859 27.6757 533.336 26.87 535.578 28.4561C537.915 30.1062 538.86 33.0309 538.39 35.7671C538.306 36.2676 539.085 36.5748 539.344 36.1229C540.17 34.6664 541.218 33.0018 542.523 31.87C542.576 31.8521 542.625 31.811 542.663 31.7549C544.125 30.5692 545.887 30.0395 548.012 31.1611ZM570.387 28.7633C569.013 24.7444 566.348 21.0204 562.375 19.2477C554.379 15.6796 544.963 23.5391 542.335 30.8949C541.286 31.6982 540.341 32.7586 539.546 33.8837C539.381 31.4082 538.189 28.9135 536.153 27.521C540.819 19.0065 550.813 14.257 560.412 14.848C566.373 15.2143 571.021 18.8921 573.927 23.9445C576.656 28.687 577.295 33.7313 576.945 39.0897C575.29 38.97 573.648 39.2867 572.274 40.1829C572.524 38.8918 572.009 37.107 571.889 36.0421C571.603 33.5827 571.188 31.1157 570.387 28.7633ZM613.618 60.1866C608.605 63.2401 602.845 60.7948 598.805 57.2935C598.342 56.8925 597.825 57.5124 597.983 57.9717C599.278 61.7083 596.218 65.7708 592.371 66.0623C588.283 66.3678 585.006 62.9065 584.114 59.1851C584.001 58.721 583.444 58.5995 583.138 58.9646C580.267 62.4358 575.145 67.664 570.388 64.0262C565.305 60.1424 568.491 53.3433 572.836 50.5107C573.105 50.3345 573.094 49.8159 572.806 49.6604C569.953 48.1219 569.749 44.1083 571.869 41.8395C574.434 39.0861 578.796 39.7639 581.764 41.3912C582.122 41.5853 582.499 41.0987 582.144 40.8637C582.054 40.8047 581.957 40.7544 581.867 40.6954C581.913 40.6448 581.951 40.5797 581.977 40.4997C583.162 36.7959 586.716 33.8794 590.749 34.1002C594.782 34.321 598.041 37.4461 598.837 41.3096C598.962 41.9261 599.708 41.905 599.97 41.4167C602.511 36.6866 606.651 30.8709 612.79 33.9246C618.477 36.7525 617.701 44.6771 612.104 47.1029C611.564 47.3358 611.752 48.114 612.291 48.1879C614.951 48.5583 616.839 50.7843 617.222 53.3812C617.65 56.2388 615.976 58.7467 613.618 60.1866Z" fill="#F18E85" fill-opacity="0.8"/>
<path d="M564.173 4103.81C558.627 4103.74 554.683 4107.25 552.256 4111.77C550.38 4101.63 537.988 4096.25 529.593 4103.95C517.273 4115.23 534.026 4128.75 542.869 4135.45C542.875 4136.44 543.618 4137.38 544.837 4137.01C555.849 4133.65 577.675 4129.16 575.173 4113.16C574.297 4107.64 569.737 4103.87 564.173 4103.81ZM570.671 4120.36C569.502 4122.49 567.507 4124.18 565.548 4125.53C559.348 4129.83 551.222 4131.42 544.107 4133.69C544.09 4133.69 544.09 4133.69 544.073 4133.7C538.88 4127.81 527.012 4120.22 528.702 4111.75C529.809 4106.23 535.159 4102.62 540.715 4103.48C546.272 4104.34 549.203 4108.94 549.747 4114.21C549.846 4115.17 550.883 4115.44 551.666 4115.15C552.109 4115.37 552.683 4115.34 552.98 4114.84C554.332 4112.43 556.373 4109.76 558.741 4108.28C561.753 4106.37 567.602 4106.56 570.129 4109.26C572.62 4111.92 572.309 4117.34 570.671 4120.36Z" fill="#F18E85" fill-opacity="0.8"/>
<path d="M544.849 4917.18C531.683 4918.37 518.507 4919.71 505.345 4921.21C505.313 4916.91 505.079 4912.59 504.78 4908.28C508.866 4908.39 512.881 4907.88 517.001 4908.34C521.468 4908.84 525.816 4909.91 530.027 4911.47C530.56 4911.67 531.079 4911.21 530.901 4910.66C525.62 4894.61 519.082 4875.62 503.919 4866.08C503.903 4866.02 503.867 4865.96 503.799 4865.93C503.569 4865.82 503.339 4865.7 503.108 4865.59C503.013 4865.53 502.922 4865.47 502.827 4865.41C502.779 4865.38 502.728 4865.38 502.684 4865.38C502.668 4865.37 502.657 4865.36 502.642 4865.36C502.349 4865.22 502.038 4865.04 501.711 4864.96C501.601 4863.63 501.483 4862.3 501.358 4860.96C501.345 4860.82 501.281 4860.73 501.196 4860.68C501.057 4860.48 500.792 4860.37 500.582 4860.57C483.814 4875.9 473.833 4898.86 471.633 4921.14C471.582 4921.64 472.01 4921.99 472.494 4921.84C482.713 4918.75 493.053 4916.49 503.489 4914.3C503.672 4916.66 503.89 4919.01 504.171 4921.34C489.698 4922.99 475.243 4924.83 460.846 4926.86C460.827 4926.82 460.808 4926.78 460.794 4926.74C460.59 4926.27 459.927 4926.54 460.063 4927.01C460.071 4927.04 460.083 4927.07 460.091 4927.1C459.979 4927.28 460.046 4927.56 460.262 4927.63C461.476 4931.51 463.345 4935.21 465.499 4938.64C467.67 4942.1 469.045 4942.92 473.067 4942.52C482.972 4941.55 492.869 4940.49 502.765 4939.47C512.657 4938.45 522.6 4937.67 532.466 4936.44C535.62 4936.05 537.015 4934.54 538.445 4931.79C540.738 4927.41 542.925 4922.95 545.134 4918.52C545.163 4918.46 545.182 4918.41 545.192 4918.34C545.735 4918.09 545.576 4917.11 544.849 4917.18ZM501.777 4865.85C501.962 4865.91 502.157 4865.96 502.342 4866.02C502.439 4866.05 502.532 4866.07 502.629 4866.1C509.298 4871.3 514.701 4877.39 518.903 4884.73C523.418 4892.62 526.434 4901.25 529.277 4909.86C525.37 4908.5 521.347 4907.54 517.223 4907.08C513.239 4906.63 508.639 4906.25 504.704 4907.23C504.314 4901.87 503.834 4896.5 503.492 4891.17C502.943 4882.72 502.463 4874.27 501.777 4865.85ZM473.004 4920.36C474.188 4909.47 477.167 4898.82 481.871 4888.9C486.645 4878.82 493.133 4870.12 500.58 4861.89C500.932 4871.69 501.621 4881.49 502.226 4891.28C502.67 4898.49 502.869 4905.8 503.392 4913.04C493.133 4914.69 482.945 4917.38 473.004 4920.36ZM538.221 4929.38C537.392 4931.02 536.555 4933.44 534.925 4934.48C533.286 4935.53 530.479 4935.39 528.627 4935.58C520.317 4936.44 512.012 4937.31 503.701 4938.16C495.568 4939 487.44 4939.84 479.306 4940.67C477.183 4940.89 475.064 4941.11 472.941 4941.33C471.167 4941.5 469.623 4941.88 468.032 4940.29C467.43 4939.68 466.908 4938.68 466.461 4937.97C464.354 4934.65 462.733 4931.15 461.155 4927.58C488.671 4924.7 516.19 4921.69 543.678 4918.58C541.841 4922.17 540.036 4925.77 538.221 4929.38Z" fill="#BAD266" fill-opacity="0.8"/>
<path d="M640.939 4455.65C638.902 4455.19 636.742 4455.28 634.67 4455.18C632.668 4455.07 630.683 4454.93 628.681 4454.93C629.559 4450.38 628.716 4445.95 626.609 4442.31C628.33 4441.42 630.016 4440.44 631.702 4439.45C633.985 4438.11 636.426 4436.89 638.481 4435.22C639.833 4434.11 638.112 4432.31 636.742 4432.94C634.143 4434.16 631.772 4436.06 629.401 4437.65C628.031 4438.57 626.697 4439.5 625.397 4440.47C622.5 4436.63 618.021 4434 612.665 4433.6C614 4430.14 615.071 4425.89 615.247 4422.33C615.335 4420.69 613.052 4420.57 612.542 4421.96C611.822 4423.97 611.576 4426.24 611.225 4428.34C610.962 4429.95 610.681 4431.57 610.593 4433.21C605.43 4431.81 600.179 4432.71 595.771 4435.2C595.315 4433.42 594.612 4431.69 593.962 4429.98C593.295 4428.22 592.786 4426.31 591.574 4424.85C590.889 4424.02 589.221 4424.67 589.361 4425.77C589.607 4427.67 590.608 4429.33 591.451 4431.04C592.294 4432.77 593.102 4434.57 594.173 4436.17C590.204 4438.88 587.113 4442.98 585.673 4447.86C583.829 4447.14 581.845 4446.82 579.913 4446.41C577.455 4445.88 574.996 4445.23 572.485 4445C570.711 4444.84 570.465 4447.54 572.081 4448.04C574.522 4448.76 577.138 4449.06 579.65 4449.48C581.441 4449.78 583.302 4450.19 585.129 4450.22C584.339 4454.88 585.34 4459.12 587.535 4462.63C585.515 4463.71 583.636 4465.08 581.74 4466.34C579.896 4467.55 577.911 4468.72 576.348 4470.28C575.769 4470.87 576.348 4471.99 577.174 4471.71C579.263 4470.99 581.16 4469.72 583.057 4468.61C585.094 4467.41 587.236 4466.28 589.133 4464.85C592.399 4468.68 597.264 4471.32 602.778 4472.15C602.971 4472.19 603.182 4472.19 603.375 4472.22C602.603 4476.14 602.146 4480.14 601.303 4484.05C600.881 4486.01 603.797 4486.84 604.306 4484.88C605.307 4480.99 606.009 4476.49 605.676 4472.38C610.101 4472.51 614.439 4471.41 618.18 4469.28C619.743 4472.98 621.147 4476.61 622.394 4480.46C622.974 4482.27 625.731 4481.53 625.274 4479.66C624.291 4475.68 622.429 4471.5 620.059 4468.08C623.729 4465.49 626.609 4461.8 628.084 4457.22C631.948 4458.12 636.707 4458.95 640.553 4458.51C642.063 4458.35 642.695 4456.04 640.939 4455.65ZM620.919 4463.09C615.826 4468.61 607.625 4470.34 600.53 4468.29C590.432 4465.38 585.234 4455.1 590.222 4445.43C594.349 4437.4 602.322 4434.94 610.558 4435.32C610.663 4436.05 611.155 4436.73 612.086 4436.79C617.038 4437.12 620.656 4439.4 622.904 4442.6C622.728 4443.03 623.079 4443.47 623.518 4443.57C626.837 4449.29 626.152 4457.41 620.919 4463.09Z" fill="#FACA4E" fill-opacity="0.8"/>
<path d="M65.8834 4806.78C69.2544 4801.19 66.5194 4793.54 60.2704 4791.21C54.3393 4789 47.4542 4792.75 44.1468 4798.07C41.4755 4787.35 32.6346 4782.01 21.4403 4786.72C14.5711 4789.6 9.18072 4798.5 13.14 4805.03C8.24257 4803.71 2.12075 4806.78 0.403449 4811.7C-0.614209 4814.6 0.339848 4817.5 2.74089 4819.35C5.69846 4821.61 9.75318 4821.45 13.2196 4820.78C7.67016 4828.25 15.2231 4837.6 22.9192 4840.09C31.7601 4842.97 40.6009 4838.74 44.8465 4831C46.5161 4833.78 50.4913 4835.42 53.5443 4834.82C58.0601 4833.94 61.0177 4829.9 61.3357 4825.53C66.9169 4829.23 75.4716 4828.31 78.2384 4821.37C81.5776 4812.95 73.2932 4806.99 65.8834 4806.78ZM74.6925 4821.34C71.3056 4826.5 65.5813 4824.89 61.1131 4822.46C61.0495 4822.17 60.9859 4821.89 60.8905 4821.61C60.334 4819.88 57.9965 4820.62 58.2509 4822.35C58.8234 4826.24 57.8057 4830.61 53.592 4831.9C49.8235 4833.04 47.6292 4830.72 46.2617 4827.77C46.3094 4827.64 46.373 4827.51 46.4048 4827.37C46.9454 4825.69 44.4172 4825.04 43.8288 4826.64C41.1893 4833.91 34.9084 4838.86 27.0693 4838.07C19.2937 4837.28 9.94398 4829.23 15.5411 4820.89C16.0976 4820.05 14.9846 4819.12 14.2372 4819.6C14.269 4818.9 13.8238 4818.12 12.9811 4818.17C10.8663 4818.29 8.65598 4818.7 6.57296 4818.09C3.6949 4817.24 1.89812 4814.73 3.56772 4811.74C5.87335 4807.6 11.7567 4806.26 15.716 4808.48C16.2884 4808.8 16.8609 4808.4 16.9722 4807.89C17.322 4807.57 17.4969 4807.05 17.1948 4806.65C11.6931 4799.29 16.7177 4790.92 24.859 4788.76C28.9933 4787.67 33.3978 4787.44 36.8642 4790.29C40.3147 4793.12 41.2211 4797.49 42.048 4801.65C42.3819 4803.34 44.608 4802.73 44.7034 4801.22C47.2952 4797.57 51.3659 4793.92 55.8976 4793.68C63.4665 4793.26 65.7721 4800.88 62.7827 4806.71C62.4488 4807.36 62.7191 4808.06 63.2121 4808.45C63.228 4809.19 63.6891 4809.88 64.6431 4809.85C70.3198 4809.59 79.2561 4814.36 74.6925 4821.34Z" fill="#F18E85" fill-opacity="0.8"/>
</svg>
