<svg width="311" height="2481" viewBox="0 0 311 2481" fill="none" xmlns="http://www.w3.org/2000/svg">
<path d="M110.832 2469.97C103.439 2468.76 96.0179 2467.64 88.5834 2466.6C89.1731 2464.24 89.6556 2461.83 90.1019 2459.42C92.328 2460.06 94.6039 2460.35 96.7992 2461.18C99.1798 2462.09 101.415 2463.29 103.505 2464.74C103.77 2464.93 104.119 2464.75 104.1 2464.42C103.471 2454.87 102.567 2443.52 95.5942 2436.15C95.5942 2436.11 95.5832 2436.07 95.5505 2436.04C95.4399 2435.95 95.3293 2435.85 95.2192 2435.76C95.1748 2435.71 95.1336 2435.67 95.0896 2435.62C95.0676 2435.6 95.0407 2435.59 95.0161 2435.58C95.0086 2435.58 95.0035 2435.57 94.9961 2435.56C94.8551 2435.45 94.7089 2435.31 94.5406 2435.22C94.6694 2434.47 94.7923 2433.72 94.9128 2432.97C94.9249 2432.89 94.903 2432.83 94.8642 2432.79C94.8156 2432.67 94.6856 2432.57 94.5426 2432.65C83.1723 2438.69 74.4504 2449.88 70.093 2461.79C69.9941 2462.06 70.1795 2462.31 70.466 2462.3C76.511 2462.05 82.5046 2462.27 88.5414 2462.54C88.309 2463.86 88.0961 2465.18 87.9206 2466.5C79.7442 2465.37 71.5514 2464.33 63.3643 2463.41C63.3599 2463.38 63.355 2463.36 63.3533 2463.33C63.3064 2463.05 62.9055 2463.1 62.9127 2463.38C62.9129 2463.4 62.9158 2463.42 62.9165 2463.43C62.829 2463.52 62.8266 2463.68 62.9351 2463.75C63.0527 2466.05 63.5559 2468.34 64.2517 2470.53C64.9537 2472.74 65.5937 2473.38 67.8564 2473.73C73.4301 2474.6 79.0112 2475.42 84.586 2476.26C90.158 2477.1 95.726 2478.07 101.314 2478.79C103.1 2479.02 104.079 2478.39 105.252 2477.09C107.13 2475 108.96 2472.87 110.799 2470.75C110.823 2470.72 110.842 2470.69 110.856 2470.66C111.19 2470.6 111.241 2470.04 110.832 2469.97ZM94.4515 2435.71C94.5446 2435.77 94.6442 2435.83 94.7378 2435.89C94.7871 2435.92 94.8341 2435.94 94.8839 2435.97C97.8078 2439.77 99.9119 2443.88 101.18 2448.5C102.543 2453.47 102.978 2458.63 103.322 2463.75C101.37 2462.46 99.2973 2461.36 97.0992 2460.52C94.9763 2459.72 92.5056 2458.86 90.2076 2458.84C90.7521 2455.84 91.2475 2452.82 91.8135 2449.85C92.706 2445.14 93.6373 2440.43 94.4515 2435.71ZM70.9552 2461.56C73.145 2455.75 76.2842 2450.33 80.2691 2445.55C84.3138 2440.69 89.1044 2436.84 94.3547 2433.37C93.1616 2438.8 92.1552 2444.27 91.1029 2449.73C90.3274 2453.75 89.4038 2457.79 88.6661 2461.84C82.8027 2461.3 76.8316 2461.33 70.9552 2461.56ZM105.47 2475.73C104.784 2476.51 103.981 2477.72 102.94 2478.07C101.892 2478.41 100.372 2477.93 99.3289 2477.78C94.6466 2477.07 89.9663 2476.38 85.2845 2475.67C80.7027 2474.98 76.1237 2474.29 71.5424 2473.6C70.346 2473.42 69.1524 2473.24 67.9565 2473.06C66.9583 2472.9 66.0574 2472.89 65.4097 2471.79C65.1648 2471.38 65.0208 2470.75 64.8753 2470.3C64.1877 2468.18 63.7933 2466.03 63.4319 2463.85C78.9398 2466.16 94.4663 2468.4 109.992 2470.57C108.477 2472.28 106.976 2474.01 105.47 2475.73Z" fill="#BAD266" fill-opacity="0.8"/>
<path d="M259.761 2440.31C261.59 2437.28 260.106 2433.13 256.714 2431.86C253.495 2430.67 249.758 2432.7 247.962 2435.59C246.512 2429.77 241.714 2426.87 235.638 2429.43C231.909 2430.99 228.983 2435.82 231.132 2439.36C228.474 2438.65 225.151 2440.31 224.219 2442.98C223.667 2444.56 224.184 2446.13 225.488 2447.14C227.093 2448.37 229.294 2448.28 231.175 2447.91C228.163 2451.97 232.263 2457.05 236.44 2458.4C241.239 2459.96 246.038 2457.66 248.342 2453.46C249.248 2454.97 251.406 2455.86 253.063 2455.54C255.514 2455.06 257.12 2452.87 257.292 2450.49C260.322 2452.5 264.965 2452 266.467 2448.23C268.279 2443.66 263.783 2440.43 259.761 2440.31ZM264.542 2448.22C262.704 2451.02 259.597 2450.15 257.171 2448.83C257.137 2448.67 257.102 2448.51 257.051 2448.37C256.749 2447.42 255.48 2447.82 255.618 2448.77C255.929 2450.88 255.376 2453.25 253.089 2453.95C251.044 2454.57 249.853 2453.31 249.11 2451.71C249.136 2451.64 249.171 2451.57 249.188 2451.49C249.481 2450.58 248.109 2450.22 247.79 2451.1C246.357 2455.04 242.948 2457.73 238.693 2457.3C234.472 2456.87 229.397 2452.5 232.436 2447.97C232.738 2447.52 232.133 2447.01 231.728 2447.28C231.745 2446.89 231.503 2446.47 231.046 2446.5C229.898 2446.56 228.698 2446.79 227.568 2446.46C226.006 2445.99 225.03 2444.63 225.937 2443.01C227.188 2440.76 230.381 2440.03 232.53 2441.24C232.841 2441.41 233.152 2441.2 233.212 2440.92C233.402 2440.74 233.497 2440.46 233.333 2440.24C230.347 2436.25 233.074 2431.7 237.493 2430.54C239.737 2429.94 242.128 2429.82 244.009 2431.36C245.882 2432.9 246.374 2435.27 246.823 2437.53C247.004 2438.45 248.213 2438.12 248.264 2437.3C249.671 2435.32 251.881 2433.34 254.341 2433.2C258.449 2432.98 259.7 2437.11 258.078 2440.28C257.896 2440.63 258.043 2441.01 258.311 2441.22C258.319 2441.62 258.57 2442 259.088 2441.98C262.169 2441.84 267.019 2444.43 264.542 2448.22Z" fill="#F18E85" fill-opacity="0.8"/>
<path d="M305.014 2237.29C306.481 2234.86 305.291 2231.53 302.571 2230.51C299.989 2229.55 296.992 2231.18 295.552 2233.5C294.389 2228.83 290.541 2226.51 285.669 2228.56C282.678 2229.81 280.332 2233.69 282.056 2236.53C279.924 2235.96 277.259 2237.29 276.512 2239.43C276.069 2240.7 276.484 2241.96 277.529 2242.76C278.816 2243.75 280.581 2243.68 282.09 2243.39C279.675 2246.64 282.962 2250.71 286.312 2251.79C290.161 2253.05 294.009 2251.21 295.857 2247.83C296.584 2249.04 298.314 2249.76 299.643 2249.5C301.608 2249.11 302.896 2247.36 303.034 2245.46C305.464 2247.06 309.187 2246.67 310.392 2243.64C311.845 2239.98 308.239 2237.38 305.014 2237.29ZM308.848 2243.63C307.374 2245.88 304.882 2245.18 302.937 2244.12C302.91 2243.99 302.882 2243.87 302.84 2243.75C302.598 2242.99 301.581 2243.32 301.692 2244.07C301.941 2245.76 301.498 2247.67 299.664 2248.23C298.023 2248.72 297.068 2247.72 296.473 2246.43C296.494 2246.37 296.521 2246.32 296.535 2246.25C296.77 2245.53 295.67 2245.24 295.414 2245.94C294.265 2249.1 291.531 2251.26 288.119 2250.91C284.734 2250.57 280.664 2247.06 283.101 2243.43C283.343 2243.07 282.858 2242.66 282.533 2242.87C282.547 2242.57 282.353 2242.23 281.986 2242.25C281.066 2242.3 280.104 2242.48 279.197 2242.22C277.944 2241.85 277.162 2240.75 277.889 2239.45C278.893 2237.65 281.453 2237.07 283.177 2238.03C283.426 2238.17 283.675 2238 283.724 2237.77C283.876 2237.63 283.952 2237.41 283.821 2237.24C281.426 2234.03 283.613 2230.39 287.157 2229.45C288.956 2228.97 290.873 2228.88 292.382 2230.11C293.884 2231.35 294.279 2233.25 294.639 2235.06C294.784 2235.79 295.753 2235.53 295.795 2234.87C296.923 2233.28 298.695 2231.7 300.667 2231.59C303.962 2231.41 304.965 2234.72 303.664 2237.26C303.519 2237.54 303.636 2237.85 303.851 2238.02C303.858 2238.34 304.059 2238.64 304.474 2238.63C306.945 2238.52 310.835 2240.59 308.848 2243.63Z" fill="#BAD266" fill-opacity="0.8"/>
<path d="M271.273 2060.29C268.81 2060.26 267.059 2061.82 265.981 2063.82C265.148 2059.32 259.646 2056.93 255.918 2060.35C250.448 2065.36 257.887 2071.37 261.813 2074.34C261.816 2074.78 262.146 2075.2 262.687 2075.03C267.577 2073.54 277.268 2071.55 276.157 2064.44C275.768 2061.99 273.743 2060.32 271.273 2060.29ZM274.158 2067.64C273.639 2068.59 272.753 2069.34 271.883 2069.94C269.13 2071.85 265.522 2072.55 262.363 2073.56C262.355 2073.56 262.355 2073.56 262.348 2073.56C260.042 2070.95 254.772 2067.58 255.523 2063.82C256.014 2061.37 258.389 2059.76 260.857 2060.15C263.324 2060.53 264.626 2062.57 264.867 2064.91C264.911 2065.33 265.371 2065.45 265.719 2065.33C265.916 2065.42 266.171 2065.41 266.303 2065.19C266.903 2064.12 267.809 2062.93 268.861 2062.28C270.198 2061.43 272.796 2061.51 273.917 2062.71C275.024 2063.89 274.886 2066.3 274.158 2067.64Z" fill="#F18E85" fill-opacity="0.8"/>
<path d="M227.232 2217.87C226.511 2217.71 225.747 2217.74 225.015 2217.7C224.307 2217.67 223.605 2217.62 222.897 2217.62C223.207 2216.01 222.909 2214.44 222.164 2213.15C222.773 2212.84 223.369 2212.49 223.965 2212.14C224.772 2211.67 225.636 2211.24 226.362 2210.65C226.84 2210.25 226.232 2209.62 225.747 2209.84C224.828 2210.27 223.99 2210.95 223.152 2211.51C222.667 2211.83 222.195 2212.16 221.736 2212.5C220.711 2211.15 219.128 2210.22 217.233 2210.07C217.705 2208.85 218.084 2207.35 218.146 2206.09C218.177 2205.51 217.37 2205.47 217.19 2205.96C216.935 2206.67 216.848 2207.47 216.724 2208.22C216.631 2208.78 216.532 2209.36 216.501 2209.94C214.675 2209.44 212.818 2209.76 211.259 2210.64C211.098 2210.01 210.85 2209.4 210.62 2208.8C210.384 2208.17 210.204 2207.5 209.775 2206.98C209.533 2206.69 208.943 2206.92 208.993 2207.31C209.08 2207.98 209.434 2208.56 209.732 2209.17C210.03 2209.78 210.316 2210.42 210.694 2210.98C209.291 2211.94 208.198 2213.39 207.689 2215.12C207.037 2214.86 206.335 2214.75 205.652 2214.61C204.782 2214.42 203.913 2214.19 203.025 2214.11C202.398 2214.05 202.311 2215 202.882 2215.18C203.745 2215.43 204.671 2215.54 205.559 2215.69C206.192 2215.8 206.85 2215.94 207.496 2215.95C207.217 2217.6 207.571 2219.1 208.347 2220.34C207.633 2220.72 206.968 2221.21 206.298 2221.65C205.646 2222.08 204.944 2222.49 204.391 2223.05C204.186 2223.25 204.391 2223.65 204.683 2223.55C205.422 2223.3 206.093 2222.85 206.763 2222.45C207.484 2222.03 208.241 2221.63 208.912 2221.13C210.067 2222.48 211.787 2223.41 213.737 2223.71C213.806 2223.72 213.88 2223.72 213.948 2223.73C213.675 2225.12 213.514 2226.53 213.216 2227.92C213.067 2228.61 214.097 2228.9 214.278 2228.21C214.631 2226.83 214.88 2225.24 214.762 2223.79C216.327 2223.83 217.861 2223.45 219.183 2222.69C219.736 2224 220.233 2225.29 220.674 2226.64C220.879 2227.29 221.854 2227.02 221.692 2226.36C221.345 2224.95 220.686 2223.48 219.848 2222.27C221.146 2221.35 222.164 2220.05 222.686 2218.43C224.052 2218.75 225.735 2219.04 227.095 2218.88C227.629 2218.83 227.853 2218.01 227.232 2217.87ZM220.152 2220.5C218.351 2222.45 215.451 2223.07 212.942 2222.34C209.372 2221.31 207.533 2217.68 209.297 2214.26C210.756 2211.42 213.576 2210.55 216.488 2210.68C216.526 2210.94 216.699 2211.18 217.029 2211.2C218.78 2211.32 220.059 2212.12 220.854 2213.26C220.792 2213.41 220.916 2213.56 221.071 2213.6C222.245 2215.62 222.003 2218.5 220.152 2220.5Z" fill="#FACA4E" fill-opacity="0.8"/>
<path d="M17.2809 1882.76C16.9793 1882.52 16.4959 1882.55 16.1827 1882.82C15.7139 1883.23 15.9036 1883.97 16.3252 1884.33C16.7944 1884.73 17.5497 1884.72 17.8776 1884.15C18.1824 1883.61 17.8876 1882.9 17.2809 1882.76ZM16.6364 1883.95C16.4515 1883.78 16.3134 1883.47 16.4605 1883.24C16.5748 1883.06 16.8153 1883 17.0209 1883.04C17.0335 1883.08 17.0564 1883.12 17.0981 1883.15C17.3539 1883.31 17.6316 1883.57 17.4395 1883.9C17.2696 1884.2 16.8678 1884.15 16.6364 1883.95Z" fill="#FACA4E" fill-opacity="0.8"/>
<path d="M28.3014 1885.18C28.3864 1885.15 28.455 1885.07 28.474 1884.96C28.674 1883.68 28.7682 1882.22 28.0048 1881.11C27.4906 1880.36 26.61 1879.9 25.738 1880.09C26.599 1877.19 25.2673 1874 22.2707 1873.02C18.8173 1871.89 16.926 1874.99 16.8091 1878.1C15.7173 1877.54 14.3829 1877.8 13.4583 1878.65C12.3454 1879.67 12.0493 1881.36 12.3884 1882.77C12.3126 1882.85 12.313 1883 12.4415 1883.05C12.4585 1883.05 12.4806 1883.06 12.4997 1883.07C12.557 1883.12 12.6314 1883.14 12.7026 1883.13C13.1938 1883.28 13.721 1883.42 14.2276 1883.48C14.3448 1884.36 14.8887 1885.22 15.5965 1885.67C16.7319 1886.39 18.3552 1886.07 19.1531 1884.98C19.2568 1884.83 19.3426 1884.68 19.4101 1884.52C19.7965 1884.62 20.1886 1884.68 20.584 1884.74C20.9693 1884.8 21.3844 1884.88 21.7782 1884.83C21.8315 1885.85 22.4389 1886.8 23.3949 1887.24C24.6131 1887.8 26.1461 1887.28 26.726 1886.03C26.837 1885.8 26.8954 1885.56 26.9224 1885.33C27.0841 1885.34 27.2438 1885.35 27.4052 1885.37C27.6099 1885.4 27.8223 1885.49 28.028 1885.48C28.2155 1885.47 28.3183 1885.33 28.3014 1885.18ZM16.1484 1885.29C15.2032 1884.86 14.5236 1883.63 14.8748 1882.59C15.2651 1881.44 16.8266 1881.25 17.8481 1881.62C17.8327 1881.71 17.8597 1881.8 17.9735 1881.87C20.1712 1883.11 18.3802 1886.29 16.1484 1885.29ZM23.8288 1886.75C21.3669 1885.89 22.4081 1882.11 24.9099 1882.8C24.9208 1882.85 24.9441 1882.89 24.9859 1882.92C25.7592 1883.5 26.5989 1884.43 26.2773 1885.51C25.9742 1886.52 24.8124 1887.1 23.8288 1886.75ZM27.4454 1884.88C27.2736 1884.87 27.1043 1884.88 26.9309 1884.89C26.8543 1883.88 26.1224 1882.97 25.194 1882.52C25.174 1882.51 25.1579 1882.5 25.1387 1882.5C24.0514 1881.8 22.5694 1882.39 22.0219 1883.55C21.9055 1883.8 21.8303 1884.06 21.7967 1884.32C21.4444 1884.24 21.0677 1884.25 20.7081 1884.22C20.3171 1884.19 19.9306 1884.14 19.5408 1884.1C19.7728 1883.05 19.2919 1881.89 18.3083 1881.38C18.2593 1881.36 18.2079 1881.35 18.1612 1881.35C17.2436 1880.5 15.3758 1880.84 14.6295 1881.81C14.367 1882.16 14.2348 1882.56 14.2117 1882.97C13.7832 1882.86 13.3253 1882.79 12.882 1882.75C12.8213 1881.66 12.8346 1880.53 13.4708 1879.59C14.2203 1878.49 15.6608 1878.07 16.843 1878.7C17.0309 1878.8 17.2195 1878.66 17.2386 1878.5C17.2398 1878.49 17.244 1878.48 17.2461 1878.48C17.4696 1877.28 17.6954 1875.99 18.3707 1874.94C19.4559 1873.27 21.3642 1873.09 23.002 1874.09C25.1275 1875.38 25.8352 1877.88 25.032 1880.19C24.922 1880.51 25.2867 1880.7 25.5097 1880.57C28.0349 1880.24 28.0881 1883.13 27.8741 1884.9C27.7268 1884.88 27.5749 1884.88 27.4454 1884.88Z" fill="#FACA4E" fill-opacity="0.8"/>
<path d="M25.1925 1884.27C24.8556 1883.92 24.3064 1883.8 23.9094 1884.08C23.4329 1884.42 23.3964 1885.17 23.853 1885.61C24.2775 1886.03 25.0172 1886.08 25.3871 1885.67C25.743 1885.28 25.6413 1884.61 25.1925 1884.27ZM24.9752 1885.35C24.7705 1885.51 24.3861 1885.46 24.1908 1885.25C23.9943 1885.03 24.0163 1884.66 24.2134 1884.49C24.3598 1884.36 24.5843 1884.33 24.7921 1884.37C24.8006 1884.42 24.8226 1884.47 24.8661 1884.51C25.1144 1884.72 25.2378 1885.13 24.9752 1885.35Z" fill="#FACA4E" fill-opacity="0.8"/>
<path d="M21.192 1878.57C21.2948 1877.25 21.2895 1875.85 21.2559 1874.51C21.2559 1874.48 21.2424 1874.46 21.2299 1874.44C21.279 1874.38 21.2677 1874.29 21.2073 1874.24C19.8796 1873.21 18.6943 1875.41 18.4357 1876.35C18.2891 1876.88 17.8742 1877.92 18.2464 1878.44C18.63 1878.97 20.079 1878.93 20.6278 1879.02C20.808 1879.04 20.9029 1878.93 20.9135 1878.79C21.0427 1878.79 21.1813 1878.72 21.192 1878.57ZM18.9688 1878.06C18.6597 1877.82 18.7327 1877.79 18.7988 1877.42C18.8607 1877.07 18.9248 1876.72 19.0263 1876.38C19.3392 1875.34 19.887 1874.63 20.9851 1874.49C20.6854 1875.74 20.5575 1877.16 20.6838 1878.46C20.6754 1878.46 20.6744 1878.46 20.6661 1878.45C20.1423 1878.36 19.3902 1878.39 18.9688 1878.06Z" fill="#FACA4E" fill-opacity="0.8"/>
<path d="M24.6417 1879.27C24.8266 1877.35 24.2017 1874.81 22.0422 1874.29C21.981 1874.27 21.9315 1874.29 21.8942 1874.32C21.8317 1874.32 21.7737 1874.37 21.7664 1874.44C21.6253 1875.85 21.6749 1877.36 21.8225 1878.76C21.844 1878.97 22.0777 1879.01 22.2183 1878.93C22.8649 1879.16 23.535 1879.33 24.202 1879.5C24.2602 1879.51 24.3094 1879.51 24.3546 1879.49C24.4875 1879.51 24.6257 1879.44 24.6417 1879.27ZM22.0855 1874.67C23.7936 1875.52 24.1413 1877.16 24.1282 1878.9C23.5345 1878.75 22.9367 1878.62 22.3319 1878.53C22.3583 1877.26 22.2897 1875.91 22.0855 1874.67Z" fill="#FACA4E" fill-opacity="0.8"/>
<path d="M116.903 451.35C117.184 450.987 116.809 450.376 116.362 450.418C114.064 450.617 111.729 450.745 109.452 451.101C109.452 451.001 109.437 450.902 109.372 450.795C108.039 448.541 106.432 446.486 104.573 444.63C104.285 444.339 103.672 444.445 103.586 444.886C103.168 447.14 102.692 449.444 102.512 451.734C100.22 451.755 97.9144 452.125 95.6228 452.26C95.0751 452.296 94.794 452.914 95.176 453.319C96.7109 454.948 98.8584 456.846 101.1 457.394C101.136 457.401 101.164 457.401 101.2 457.401C100.602 459.641 100.66 462.13 100.682 464.412C100.689 464.953 101.33 465.18 101.719 464.839C103.636 463.139 105.337 461.255 106.857 459.207C108.904 460.907 111.289 462.222 113.667 463.402C114.136 463.637 114.777 463.246 114.604 462.691C113.963 460.665 113.545 458.624 113.055 456.562C113.04 456.491 113.004 456.434 112.968 456.377C113.012 456.342 113.062 456.313 113.098 456.263C114.366 454.628 115.642 452.992 116.903 451.35ZM107.189 458.347C107.052 458.269 106.908 458.283 106.785 458.347C106.519 458.183 106.13 458.169 105.892 458.489C104.695 460.11 103.362 461.603 101.914 463.004C101.979 461.02 102.173 459.029 102.051 457.067C102.036 456.853 101.878 456.733 101.705 456.711C101.669 456.612 101.604 456.519 101.503 456.441C100.624 455.815 99.6078 455.396 98.7215 454.77C98.1306 454.358 97.5901 453.888 97.064 453.405C98.9881 453.277 100.97 453.106 102.8 452.601C102.966 452.559 103.06 452.438 103.096 452.31C103.139 452.274 103.175 452.224 103.189 452.168C103.78 450.262 104.148 448.264 104.515 446.287C105.964 447.858 107.239 449.551 108.327 451.392C108.421 451.556 108.558 451.634 108.702 451.663C108.738 451.89 108.911 452.111 109.178 452.111C111.116 452.118 113.062 451.94 115 451.769C114.006 453.063 113.012 454.351 112.017 455.645C111.83 455.886 111.873 456.121 112.024 456.285C111.902 456.384 111.83 456.526 111.851 456.718C112.046 458.368 112.449 460.011 112.932 461.611C110.987 460.587 109.113 459.435 107.189 458.347Z" fill="#FACA4E" fill-opacity="0.8"/>
<path d="M13.6552 275.668C13.8267 275.447 13.598 275.073 13.3253 275.099C11.9221 275.221 10.497 275.299 9.10706 275.516C9.10706 275.455 9.09826 275.395 9.05868 275.329C8.24495 273.954 7.26407 272.699 6.12925 271.567C5.9533 271.389 5.57943 271.454 5.52665 271.723C5.27153 273.099 4.98123 274.505 4.87126 275.902C3.47253 275.915 2.06499 276.141 0.666258 276.224C0.331969 276.245 0.160424 276.623 0.393547 276.87C1.33044 277.864 2.6412 279.023 4.00915 279.357C4.03114 279.362 4.04874 279.362 4.07073 279.362C3.70565 280.729 3.74084 282.248 3.75403 283.641C3.75843 283.971 4.1499 284.11 4.38742 283.901C5.55744 282.864 6.59549 281.714 7.52359 280.464C8.77277 281.501 10.2287 282.304 11.6802 283.025C11.9661 283.168 12.3576 282.929 12.252 282.591C11.8605 281.354 11.6054 280.108 11.3063 278.849C11.2975 278.806 11.2755 278.771 11.2535 278.737C11.2799 278.715 11.3107 278.697 11.3327 278.667C12.1069 277.669 12.8854 276.671 13.6552 275.668ZM7.72592 279.939C7.64235 279.891 7.55437 279.9 7.4796 279.939C7.31685 279.839 7.07933 279.83 6.93418 280.026C6.20402 281.015 5.39029 281.927 4.50619 282.782C4.54577 281.571 4.66453 280.355 4.58976 279.158C4.58096 279.027 4.48419 278.954 4.37863 278.941C4.35664 278.88 4.31705 278.823 4.25547 278.776C3.71885 278.394 3.09865 278.138 2.55763 277.756C2.19695 277.504 1.86706 277.217 1.54597 276.922C2.72038 276.844 3.92998 276.74 5.04721 276.432C5.14837 276.406 5.20555 276.332 5.22755 276.254C5.25394 276.232 5.27593 276.202 5.28473 276.167C5.64541 275.004 5.86973 273.784 6.09406 272.578C6.97817 273.537 7.75671 274.57 8.42089 275.694C8.47807 275.794 8.56164 275.842 8.64961 275.859C8.6716 275.998 8.77717 276.132 8.93991 276.132C10.1231 276.137 11.3107 276.028 12.4939 275.924C11.8869 276.714 11.2799 277.5 10.6729 278.29C10.5586 278.437 10.585 278.58 10.6773 278.68C10.6026 278.741 10.5586 278.828 10.5718 278.945C10.6905 279.952 10.9369 280.954 11.2316 281.931C10.0439 281.306 8.90033 280.603 7.72592 279.939Z" fill="#F18E85" fill-opacity="0.8"/>
<path d="M294.674 7.6954C292.941 1.73687 286.2 2.48168 282.784 6.14901C281.928 0.807618 274.988 -1.73894 271.194 3.24068C265.146 11.1854 273.341 17.2219 279.846 20.719C279.86 21.1376 280.202 21.549 280.744 21.4071C285.944 20.0664 296.678 14.5903 294.674 7.6954ZM291.093 13.6823C288.24 16.7467 284.532 18.6336 280.602 19.9104C280.566 19.8749 280.545 19.8324 280.495 19.7969C277.314 17.4844 271.772 14.8598 270.681 10.8165C269.889 7.87983 271.501 4.11318 274.026 2.61646C277.87 0.332355 282.228 3.75851 281.472 8.05716C281.343 8.76651 282.321 9.29852 282.713 8.58208C284.054 6.12064 286.735 3.92875 289.781 4.7516C294.417 6.00715 293.64 10.9513 291.093 13.6823Z" fill="#FACA4E" fill-opacity="0.8"/>
</svg>
