<svg width="295" height="2078" viewBox="0 0 295 2078" fill="none" xmlns="http://www.w3.org/2000/svg">
<path d="M124.415 1662.48C117.022 1661.27 109.601 1660.14 102.166 1659.11C102.756 1656.74 103.239 1654.34 103.685 1651.93C105.911 1652.57 108.187 1652.85 110.382 1653.69C112.763 1654.6 114.998 1655.8 117.088 1657.25C117.353 1657.43 117.702 1657.26 117.683 1656.93C117.054 1647.37 116.15 1636.03 109.177 1628.65C109.177 1628.62 109.166 1628.58 109.134 1628.55C109.023 1628.46 108.912 1628.36 108.802 1628.26C108.758 1628.22 108.717 1628.18 108.673 1628.13C108.651 1628.11 108.624 1628.1 108.599 1628.09C108.592 1628.08 108.587 1628.08 108.579 1628.07C108.438 1627.95 108.292 1627.81 108.124 1627.73C108.252 1626.98 108.375 1626.23 108.496 1625.48C108.508 1625.4 108.486 1625.34 108.447 1625.3C108.399 1625.17 108.269 1625.08 108.126 1625.15C96.7553 1631.2 88.0335 1642.38 83.676 1654.3C83.5771 1654.57 83.7625 1654.82 84.049 1654.81C90.094 1654.56 96.0877 1654.78 102.124 1655.05C101.892 1656.37 101.679 1657.69 101.504 1659.01C93.3272 1657.87 85.1344 1656.84 76.9473 1655.91C76.9429 1655.89 76.938 1655.87 76.9363 1655.84C76.8894 1655.56 76.4885 1655.61 76.4957 1655.89C76.4959 1655.91 76.4989 1655.92 76.4995 1655.94C76.4121 1656.02 76.4096 1656.18 76.5181 1656.25C76.6357 1658.56 77.1389 1660.85 77.8347 1663.04C78.5367 1665.25 79.1767 1665.89 81.4394 1666.24C87.0131 1667.1 92.5942 1667.92 98.169 1668.76C103.741 1669.6 109.309 1670.58 114.897 1671.3C116.683 1671.53 117.662 1670.9 118.835 1669.59C120.713 1667.51 122.543 1665.38 124.382 1663.26C124.406 1663.23 124.425 1663.2 124.439 1663.17C124.773 1663.1 124.824 1662.55 124.415 1662.48ZM108.035 1628.22C108.128 1628.28 108.227 1628.34 108.321 1628.39C108.37 1628.42 108.417 1628.45 108.467 1628.48C111.391 1632.28 113.495 1636.38 114.763 1641.01C116.126 1645.97 116.561 1651.14 116.905 1656.26C114.953 1654.96 112.88 1653.87 110.682 1653.03C108.559 1652.22 106.089 1651.36 103.791 1651.34C104.335 1648.34 104.83 1645.33 105.397 1642.36C106.289 1637.65 107.22 1632.94 108.035 1628.22ZM84.5382 1654.07C86.728 1648.26 89.8672 1642.84 93.8521 1638.05C97.8968 1633.2 102.687 1629.34 107.938 1625.88C106.745 1631.31 105.738 1636.78 104.686 1642.24C103.91 1646.26 102.987 1650.3 102.249 1654.35C96.3857 1653.8 90.4147 1653.84 84.5382 1654.07ZM119.053 1668.24C118.367 1669.02 117.564 1670.23 116.523 1670.57C115.475 1670.91 113.955 1670.44 112.912 1670.28C108.23 1669.58 103.549 1668.88 98.8675 1668.18C94.2857 1667.49 89.7067 1666.8 85.1254 1666.1C83.929 1665.92 82.7354 1665.75 81.5395 1665.56C80.5413 1665.41 79.6404 1665.4 78.9927 1664.3C78.7478 1663.88 78.6038 1663.26 78.4583 1662.8C77.7707 1660.69 77.3763 1658.54 77.0149 1656.36C92.5228 1658.66 108.049 1660.91 123.575 1663.08C122.06 1664.79 120.559 1666.52 119.053 1668.24Z" fill="#BAD266" fill-opacity="0.8"/>
<path d="M275.678 1430.48C277.145 1428.05 275.955 1424.72 273.235 1423.7C270.653 1422.74 267.656 1424.37 266.216 1426.69C265.054 1422.02 261.205 1419.7 256.333 1421.75C253.343 1423 250.996 1426.88 252.72 1429.72C250.588 1429.14 247.923 1430.48 247.176 1432.62C246.733 1433.89 247.148 1435.15 248.193 1435.95C249.48 1436.94 251.245 1436.87 252.754 1436.57C250.339 1439.83 253.626 1443.9 256.976 1444.98C260.825 1446.23 264.673 1444.39 266.521 1441.02C267.248 1442.23 268.978 1442.95 270.307 1442.69C272.273 1442.3 273.56 1440.55 273.698 1438.64C276.128 1440.25 279.851 1439.85 281.056 1436.83C282.509 1433.17 278.903 1430.57 275.678 1430.48ZM279.512 1436.82C278.038 1439.06 275.546 1438.36 273.601 1437.31C273.574 1437.18 273.546 1437.06 273.505 1436.94C273.262 1436.18 272.245 1436.5 272.356 1437.26C272.605 1438.95 272.162 1440.85 270.328 1441.41C268.687 1441.91 267.732 1440.9 267.137 1439.62C267.158 1439.56 267.185 1439.5 267.199 1439.44C267.435 1438.71 266.334 1438.43 266.078 1439.13C264.929 1442.29 262.195 1444.44 258.783 1444.1C255.398 1443.76 251.328 1440.25 253.765 1436.62C254.007 1436.26 253.523 1435.85 253.197 1436.06C253.211 1435.75 253.017 1435.42 252.65 1435.44C251.73 1435.49 250.768 1435.67 249.861 1435.4C248.608 1435.03 247.826 1433.94 248.553 1432.64C249.557 1430.84 252.117 1430.26 253.841 1431.22C254.09 1431.36 254.339 1431.19 254.388 1430.96C254.54 1430.82 254.616 1430.6 254.485 1430.42C252.09 1427.22 254.277 1423.58 257.821 1422.64C259.62 1422.16 261.537 1422.06 263.046 1423.3C264.548 1424.53 264.943 1426.44 265.303 1428.25C265.448 1428.98 266.417 1428.72 266.459 1428.06C267.587 1426.47 269.359 1424.88 271.331 1424.78C274.626 1424.6 275.629 1427.91 274.328 1430.45C274.183 1430.73 274.301 1431.04 274.515 1431.21C274.522 1431.53 274.723 1431.83 275.138 1431.82C277.609 1431.7 281.499 1433.78 279.512 1436.82Z" fill="#BAD266" fill-opacity="0.8"/>
<path d="M271.273 2060.29C268.81 2060.26 267.059 2061.82 265.981 2063.82C265.148 2059.32 259.646 2056.93 255.918 2060.35C250.448 2065.36 257.887 2071.37 261.813 2074.34C261.816 2074.78 262.146 2075.2 262.687 2075.03C267.577 2073.54 277.268 2071.55 276.157 2064.44C275.768 2061.99 273.743 2060.32 271.273 2060.29ZM274.158 2067.64C273.639 2068.59 272.753 2069.34 271.883 2069.94C269.13 2071.85 265.522 2072.55 262.363 2073.56C262.355 2073.56 262.355 2073.56 262.348 2073.56C260.042 2070.95 254.772 2067.58 255.523 2063.82C256.014 2061.37 258.389 2059.76 260.857 2060.15C263.324 2060.53 264.626 2062.57 264.867 2064.91C264.911 2065.33 265.371 2065.45 265.719 2065.33C265.916 2065.42 266.171 2065.41 266.303 2065.19C266.903 2064.12 267.809 2062.93 268.861 2062.28C270.198 2061.43 272.796 2061.51 273.917 2062.71C275.024 2063.89 274.886 2066.3 274.158 2067.64Z" fill="#F18E85" fill-opacity="0.8"/>
<path d="M270.732 1633.25C270.011 1633.09 269.247 1633.12 268.515 1633.08C267.807 1633.05 267.105 1633 266.397 1633C266.707 1631.39 266.409 1629.82 265.664 1628.53C266.273 1628.22 266.869 1627.87 267.465 1627.52C268.272 1627.05 269.136 1626.62 269.862 1626.03C270.34 1625.63 269.732 1625 269.247 1625.22C268.328 1625.65 267.49 1626.33 266.652 1626.89C266.167 1627.21 265.695 1627.54 265.236 1627.89C264.211 1626.53 262.628 1625.6 260.733 1625.45C261.205 1624.23 261.584 1622.73 261.646 1621.47C261.677 1620.89 260.87 1620.85 260.69 1621.34C260.435 1622.05 260.348 1622.85 260.224 1623.6C260.131 1624.16 260.032 1624.74 260.001 1625.32C258.175 1624.82 256.318 1625.14 254.759 1626.02C254.598 1625.39 254.35 1624.78 254.12 1624.18C253.884 1623.55 253.704 1622.88 253.275 1622.36C253.033 1622.07 252.443 1622.3 252.493 1622.69C252.58 1623.36 252.934 1623.95 253.232 1624.55C253.53 1625.16 253.816 1625.8 254.194 1626.36C252.791 1627.32 251.698 1628.77 251.189 1630.5C250.537 1630.24 249.835 1630.13 249.152 1629.99C248.282 1629.8 247.413 1629.57 246.525 1629.49C245.898 1629.43 245.811 1630.39 246.382 1630.56C247.245 1630.82 248.171 1630.92 249.059 1631.07C249.692 1631.18 250.35 1631.32 250.996 1631.33C250.717 1632.98 251.071 1634.48 251.847 1635.72C251.133 1636.1 250.468 1636.59 249.798 1637.03C249.146 1637.46 248.444 1637.87 247.891 1638.43C247.686 1638.63 247.891 1639.03 248.183 1638.93C248.922 1638.68 249.593 1638.23 250.263 1637.84C250.984 1637.41 251.741 1637.01 252.412 1636.51C253.567 1637.86 255.287 1638.8 257.237 1639.09C257.306 1639.1 257.38 1639.1 257.448 1639.11C257.175 1640.5 257.014 1641.91 256.716 1643.3C256.567 1643.99 257.597 1644.28 257.778 1643.59C258.131 1642.21 258.38 1640.62 258.262 1639.17C259.827 1639.21 261.361 1638.83 262.683 1638.07C263.236 1639.38 263.733 1640.67 264.174 1642.03C264.379 1642.67 265.354 1642.41 265.192 1641.74C264.845 1640.34 264.186 1638.86 263.348 1637.65C264.646 1636.73 265.664 1635.43 266.186 1633.81C267.552 1634.13 269.235 1634.42 270.595 1634.26C271.129 1634.21 271.353 1633.39 270.732 1633.25ZM263.652 1635.88C261.851 1637.84 258.951 1638.45 256.442 1637.72C252.872 1636.69 251.033 1633.06 252.797 1629.64C254.256 1626.8 257.076 1625.93 259.988 1626.06C260.026 1626.32 260.199 1626.56 260.529 1626.58C262.28 1626.7 263.559 1627.51 264.354 1628.64C264.292 1628.79 264.416 1628.95 264.571 1628.98C265.745 1631 265.503 1633.88 263.652 1635.88Z" fill="#FACA4E" fill-opacity="0.8"/>
<path d="M17.2809 1882.76C16.9793 1882.52 16.4959 1882.55 16.1827 1882.82C15.7139 1883.23 15.9036 1883.97 16.3252 1884.33C16.7944 1884.73 17.5497 1884.72 17.8776 1884.15C18.1824 1883.61 17.8876 1882.9 17.2809 1882.76ZM16.6364 1883.95C16.4515 1883.78 16.3134 1883.47 16.4605 1883.24C16.5748 1883.06 16.8153 1883 17.0209 1883.04C17.0335 1883.08 17.0564 1883.12 17.0981 1883.15C17.3539 1883.31 17.6316 1883.57 17.4395 1883.9C17.2696 1884.2 16.8678 1884.15 16.6364 1883.95Z" fill="#FACA4E" fill-opacity="0.8"/>
<path d="M28.3014 1885.18C28.3864 1885.15 28.455 1885.07 28.474 1884.96C28.674 1883.68 28.7682 1882.22 28.0048 1881.11C27.4906 1880.36 26.61 1879.9 25.738 1880.09C26.599 1877.19 25.2673 1874 22.2707 1873.02C18.8173 1871.89 16.926 1874.99 16.8091 1878.1C15.7173 1877.54 14.3829 1877.8 13.4583 1878.65C12.3454 1879.67 12.0493 1881.36 12.3884 1882.77C12.3126 1882.85 12.313 1883 12.4415 1883.05C12.4585 1883.05 12.4806 1883.06 12.4997 1883.07C12.557 1883.12 12.6314 1883.14 12.7026 1883.13C13.1938 1883.28 13.721 1883.42 14.2276 1883.48C14.3448 1884.36 14.8887 1885.22 15.5965 1885.67C16.7319 1886.39 18.3552 1886.07 19.1531 1884.98C19.2568 1884.83 19.3426 1884.68 19.4101 1884.52C19.7965 1884.62 20.1886 1884.68 20.584 1884.74C20.9693 1884.8 21.3844 1884.88 21.7782 1884.83C21.8315 1885.85 22.4389 1886.8 23.3949 1887.24C24.6131 1887.8 26.1461 1887.28 26.726 1886.03C26.837 1885.8 26.8954 1885.56 26.9224 1885.33C27.0841 1885.34 27.2438 1885.35 27.4052 1885.37C27.6099 1885.4 27.8223 1885.49 28.028 1885.48C28.2155 1885.47 28.3183 1885.33 28.3014 1885.18ZM16.1484 1885.29C15.2032 1884.86 14.5236 1883.63 14.8748 1882.59C15.2651 1881.44 16.8266 1881.25 17.8481 1881.62C17.8327 1881.71 17.8597 1881.8 17.9735 1881.87C20.1712 1883.11 18.3802 1886.29 16.1484 1885.29ZM23.8288 1886.75C21.3669 1885.89 22.4081 1882.11 24.9099 1882.8C24.9208 1882.85 24.9441 1882.89 24.9859 1882.92C25.7592 1883.5 26.5989 1884.43 26.2773 1885.51C25.9742 1886.52 24.8124 1887.1 23.8288 1886.75ZM27.4454 1884.88C27.2736 1884.87 27.1043 1884.88 26.9309 1884.89C26.8543 1883.88 26.1224 1882.97 25.194 1882.52C25.174 1882.51 25.1579 1882.5 25.1387 1882.5C24.0514 1881.8 22.5694 1882.39 22.0219 1883.55C21.9055 1883.8 21.8303 1884.06 21.7967 1884.32C21.4444 1884.24 21.0677 1884.25 20.7081 1884.22C20.3171 1884.19 19.9306 1884.14 19.5408 1884.1C19.7728 1883.05 19.2919 1881.89 18.3083 1881.38C18.2593 1881.36 18.2079 1881.35 18.1612 1881.35C17.2436 1880.5 15.3758 1880.84 14.6295 1881.81C14.367 1882.16 14.2348 1882.56 14.2117 1882.97C13.7832 1882.86 13.3253 1882.79 12.882 1882.75C12.8213 1881.66 12.8346 1880.53 13.4708 1879.59C14.2203 1878.49 15.6608 1878.07 16.843 1878.7C17.0309 1878.8 17.2195 1878.66 17.2386 1878.5C17.2398 1878.49 17.244 1878.48 17.2461 1878.48C17.4696 1877.28 17.6954 1875.99 18.3707 1874.94C19.4559 1873.27 21.3642 1873.09 23.002 1874.09C25.1275 1875.38 25.8352 1877.88 25.032 1880.19C24.922 1880.51 25.2867 1880.7 25.5097 1880.57C28.0349 1880.24 28.0881 1883.13 27.8741 1884.9C27.7268 1884.88 27.5749 1884.88 27.4454 1884.88Z" fill="#FACA4E" fill-opacity="0.8"/>
<path d="M25.1925 1884.27C24.8556 1883.92 24.3064 1883.8 23.9094 1884.08C23.4329 1884.42 23.3964 1885.17 23.853 1885.61C24.2775 1886.03 25.0172 1886.08 25.3871 1885.67C25.743 1885.28 25.6413 1884.61 25.1925 1884.27ZM24.9752 1885.35C24.7705 1885.51 24.3861 1885.46 24.1908 1885.25C23.9943 1885.03 24.0163 1884.66 24.2134 1884.49C24.3598 1884.36 24.5843 1884.33 24.7921 1884.37C24.8006 1884.42 24.8226 1884.47 24.8661 1884.51C25.1144 1884.72 25.2378 1885.13 24.9752 1885.35Z" fill="#FACA4E" fill-opacity="0.8"/>
<path d="M21.192 1878.57C21.2948 1877.25 21.2895 1875.85 21.2559 1874.51C21.2559 1874.48 21.2424 1874.46 21.2299 1874.44C21.279 1874.38 21.2677 1874.29 21.2073 1874.24C19.8796 1873.21 18.6943 1875.41 18.4357 1876.35C18.2891 1876.88 17.8742 1877.92 18.2464 1878.44C18.63 1878.97 20.079 1878.93 20.6278 1879.02C20.808 1879.04 20.9029 1878.93 20.9135 1878.79C21.0427 1878.79 21.1813 1878.72 21.192 1878.57ZM18.9688 1878.06C18.6597 1877.82 18.7327 1877.79 18.7988 1877.42C18.8607 1877.07 18.9248 1876.72 19.0263 1876.38C19.3392 1875.34 19.887 1874.63 20.9851 1874.49C20.6854 1875.74 20.5575 1877.16 20.6838 1878.46C20.6754 1878.46 20.6744 1878.46 20.6661 1878.45C20.1423 1878.36 19.3902 1878.39 18.9688 1878.06Z" fill="#FACA4E" fill-opacity="0.8"/>
<path d="M24.6417 1879.27C24.8266 1877.35 24.2017 1874.81 22.0422 1874.29C21.981 1874.27 21.9315 1874.29 21.8942 1874.32C21.8317 1874.32 21.7737 1874.37 21.7664 1874.44C21.6253 1875.85 21.6749 1877.36 21.8225 1878.76C21.844 1878.97 22.0777 1879.01 22.2183 1878.93C22.8649 1879.16 23.535 1879.33 24.202 1879.5C24.2602 1879.51 24.3094 1879.51 24.3546 1879.49C24.4875 1879.51 24.6257 1879.44 24.6417 1879.27ZM22.0855 1874.67C23.7936 1875.52 24.1413 1877.16 24.1282 1878.9C23.5345 1878.75 22.9367 1878.62 22.3319 1878.53C22.3583 1877.26 22.2897 1875.91 22.0855 1874.67Z" fill="#FACA4E" fill-opacity="0.8"/>
<path d="M116.903 451.35C117.184 450.987 116.809 450.376 116.362 450.418C114.064 450.617 111.729 450.745 109.452 451.101C109.452 451.001 109.437 450.902 109.372 450.795C108.039 448.541 106.432 446.486 104.573 444.63C104.285 444.339 103.672 444.445 103.586 444.886C103.168 447.14 102.692 449.444 102.512 451.734C100.22 451.755 97.9144 452.125 95.6228 452.26C95.0751 452.296 94.794 452.914 95.176 453.319C96.7109 454.948 98.8584 456.846 101.1 457.394C101.136 457.401 101.164 457.401 101.2 457.401C100.602 459.641 100.66 462.13 100.682 464.412C100.689 464.953 101.33 465.18 101.719 464.839C103.636 463.139 105.337 461.255 106.857 459.207C108.904 460.907 111.289 462.222 113.667 463.402C114.136 463.637 114.777 463.246 114.604 462.691C113.963 460.665 113.545 458.624 113.055 456.562C113.04 456.491 113.004 456.434 112.968 456.377C113.012 456.342 113.062 456.313 113.098 456.263C114.366 454.628 115.642 452.992 116.903 451.35ZM107.189 458.347C107.052 458.269 106.908 458.283 106.785 458.347C106.519 458.183 106.13 458.169 105.892 458.489C104.695 460.11 103.362 461.603 101.914 463.004C101.979 461.02 102.173 459.029 102.051 457.067C102.036 456.853 101.878 456.733 101.705 456.711C101.669 456.612 101.604 456.519 101.503 456.441C100.624 455.815 99.6078 455.396 98.7215 454.77C98.1306 454.358 97.5901 453.888 97.064 453.405C98.9881 453.277 100.97 453.106 102.8 452.601C102.966 452.559 103.06 452.438 103.096 452.31C103.139 452.274 103.175 452.224 103.189 452.168C103.78 450.262 104.148 448.264 104.515 446.287C105.964 447.858 107.239 449.551 108.327 451.392C108.421 451.556 108.558 451.634 108.702 451.663C108.738 451.89 108.911 452.111 109.178 452.111C111.116 452.118 113.062 451.94 115 451.769C114.006 453.063 113.012 454.351 112.017 455.645C111.83 455.886 111.873 456.121 112.024 456.285C111.902 456.384 111.83 456.526 111.851 456.718C112.046 458.368 112.449 460.011 112.932 461.611C110.987 460.587 109.113 459.435 107.189 458.347Z" fill="#FACA4E" fill-opacity="0.8"/>
<path d="M13.6552 275.668C13.8267 275.447 13.598 275.073 13.3253 275.099C11.9221 275.221 10.497 275.299 9.10706 275.516C9.10706 275.455 9.09826 275.395 9.05868 275.329C8.24495 273.954 7.26407 272.699 6.12925 271.567C5.9533 271.389 5.57943 271.454 5.52665 271.723C5.27153 273.099 4.98123 274.505 4.87126 275.902C3.47253 275.915 2.06499 276.141 0.666258 276.224C0.331969 276.245 0.160424 276.623 0.393547 276.87C1.33044 277.864 2.6412 279.023 4.00915 279.357C4.03114 279.362 4.04874 279.362 4.07073 279.362C3.70565 280.729 3.74084 282.248 3.75403 283.641C3.75843 283.971 4.1499 284.11 4.38742 283.901C5.55744 282.864 6.59549 281.714 7.52359 280.464C8.77277 281.501 10.2287 282.304 11.6802 283.025C11.9661 283.168 12.3576 282.929 12.252 282.591C11.8605 281.354 11.6054 280.108 11.3063 278.849C11.2975 278.806 11.2755 278.771 11.2535 278.737C11.2799 278.715 11.3107 278.697 11.3327 278.667C12.1069 277.669 12.8854 276.671 13.6552 275.668ZM7.72592 279.939C7.64235 279.891 7.55437 279.9 7.4796 279.939C7.31685 279.839 7.07933 279.83 6.93418 280.026C6.20402 281.015 5.39029 281.927 4.50619 282.782C4.54577 281.571 4.66453 280.355 4.58976 279.158C4.58096 279.027 4.48419 278.954 4.37863 278.941C4.35664 278.88 4.31705 278.823 4.25547 278.776C3.71885 278.394 3.09865 278.138 2.55763 277.756C2.19695 277.504 1.86706 277.217 1.54597 276.922C2.72038 276.844 3.92998 276.74 5.0472 276.432C5.14837 276.406 5.20555 276.332 5.22755 276.254C5.25394 276.232 5.27593 276.202 5.28473 276.167C5.64541 275.004 5.86973 273.784 6.09406 272.578C6.97817 273.537 7.75671 274.57 8.42089 275.694C8.47807 275.794 8.56164 275.842 8.64961 275.859C8.67161 275.998 8.77717 276.132 8.93991 276.132C10.1231 276.137 11.3107 276.028 12.4939 275.924C11.8869 276.714 11.2799 277.5 10.6729 278.29C10.5586 278.437 10.585 278.58 10.6773 278.68C10.6026 278.741 10.5586 278.828 10.5718 278.945C10.6905 279.952 10.9369 280.954 11.2316 281.931C10.0439 281.306 8.90033 280.603 7.72592 279.939Z" fill="#F18E85" fill-opacity="0.8"/>
<path d="M294.674 7.6954C292.941 1.73687 286.2 2.48168 282.784 6.14901C281.928 0.807618 274.988 -1.73894 271.194 3.24068C265.146 11.1854 273.341 17.2219 279.846 20.719C279.86 21.1376 280.202 21.549 280.744 21.4071C285.944 20.0664 296.678 14.5903 294.674 7.6954ZM291.093 13.6823C288.24 16.7467 284.532 18.6336 280.602 19.9104C280.566 19.8749 280.545 19.8324 280.495 19.7969C277.314 17.4844 271.772 14.8598 270.681 10.8165C269.889 7.87983 271.501 4.11318 274.026 2.61646C277.87 0.332355 282.228 3.75851 281.472 8.05716C281.343 8.76651 282.321 9.29852 282.713 8.58208C284.054 6.12064 286.735 3.92875 289.781 4.7516C294.417 6.00715 293.64 10.9513 291.093 13.6823Z" fill="#FACA4E" fill-opacity="0.8"/>
<path d="M189.752 1250.18C188.008 1244.18 181.227 1244.93 177.789 1248.62C176.928 1243.24 169.946 1240.68 166.128 1245.69C160.043 1253.69 168.288 1259.76 174.833 1263.28C174.847 1263.7 175.192 1264.11 175.737 1263.97C180.968 1262.62 191.769 1257.11 189.752 1250.18ZM186.15 1256.2C183.279 1259.28 179.548 1261.18 175.593 1262.47C175.558 1262.43 175.536 1262.39 175.486 1262.35C172.285 1260.02 166.709 1257.38 165.611 1253.32C164.815 1250.36 166.437 1246.57 168.977 1245.06C172.845 1242.77 177.23 1246.21 176.469 1250.54C176.34 1251.25 177.323 1251.79 177.718 1251.07C179.067 1248.59 181.765 1246.39 184.829 1247.21C189.494 1248.48 188.712 1253.45 186.15 1256.2Z" fill="#F18E85" fill-opacity="0.8"/>
</svg>
