<svg width="18" height="11" viewBox="0 0 18 11" fill="none" xmlns="http://www.w3.org/2000/svg">
<path d="M0.795915 0.929232C1.03517 0.688987 1.35963 0.554024 1.69794 0.554024C2.03625 0.554024 2.36071 0.688987 2.59997 0.929232L8.91543 7.27269L15.2309 0.929232C15.4715 0.695795 15.7938 0.566627 16.1283 0.569547C16.4629 0.572466 16.7829 0.707241 17.0194 0.944843C17.256 1.18244 17.3901 1.50386 17.393 1.83987C17.396 2.17588 17.2674 2.49959 17.035 2.74128L9.81746 9.99076C9.5782 10.231 9.25374 10.366 8.91543 10.366C8.57712 10.366 8.25266 10.231 8.01341 9.99076L0.795915 2.74128C0.55673 2.50096 0.422363 2.17507 0.422363 1.83526C0.422363 1.49545 0.55673 1.16955 0.795915 0.929232Z" fill="#B4B4B4"/>
</svg>
