<svg width="16" height="26" viewBox="0 0 16 26" fill="none" xmlns="http://www.w3.org/2000/svg">
<path d="M1.2095 24.9497C0.849426 24.5973 0.647148 24.1193 0.647148 23.6209C0.647148 23.1225 0.849426 22.6446 1.2095 22.2921L10.7169 12.9887L1.2095 3.68519C0.859629 3.33072 0.666034 2.85595 0.67041 2.36316C0.674786 1.87036 0.876783 1.39896 1.23289 1.05049C1.589 0.702018 2.07074 0.504356 2.57433 0.500074C3.07793 0.495792 3.5631 0.685233 3.92535 1.0276L14.7907 11.6599C15.1507 12.0123 15.353 12.4903 15.353 12.9887C15.353 13.487 15.1507 13.965 14.7907 14.3175L3.92535 24.9497C3.56517 25.3021 3.07672 25.5 2.56742 25.5C2.05813 25.5 1.56968 25.3021 1.2095 24.9497Z" fill="black"/>
</svg>
