<svg width="1778" height="1301" viewBox="0 0 1778 1301" fill="none" xmlns="http://www.w3.org/2000/svg">
<path d="M48.1266 761.274C55.59 758.76 50.7156 748.845 50.5486 743.641C50.4564 740.792 50.8423 737.945 52.2531 735.421C54.5555 731.302 58.6041 729.284 63.075 729.332C59.2321 726.198 56.5031 721.624 55.0887 716.91C51.1337 715.995 47.36 712.572 45.8514 709.243C43.8646 704.834 45.004 699.174 48.8508 696.715C48.7766 696.627 48.7142 696.545 48.6599 696.421C43.2658 682.652 40.467 665.678 48.1298 652.023C50.9431 647.018 55.6765 642.227 61.5659 641.395C65.3765 640.854 64.4203 640.491 65.6928 636.749C66.8363 633.404 68.6417 630.257 70.8802 627.524C81.0816 615.024 98.2362 611.789 113.423 611.328C129.367 610.839 145.677 614.258 158.61 623.914C173.863 635.305 179.715 653.315 180.542 671.937C184.031 673.576 186.673 676.867 186.894 681.007C187.12 685.275 184.599 689.537 180.848 691.299C181.046 693.848 180.826 696.397 180.271 698.884C180.309 698.843 180.348 698.802 180.416 698.762C186.215 695.411 192.725 697.864 196.464 703.065C202.526 711.519 198.723 723.051 207.387 730.085C208.027 730.599 207.839 731.931 206.874 731.97C196.53 732.31 178.974 727.913 175.259 716.505C173.283 722.417 170.288 727.915 166.431 732.134C156.569 742.948 139.364 748.374 125.453 750.783C111.42 753.216 94.9769 753.63 82.4337 746.098C79.6664 744.441 77.1509 742.471 74.8458 740.291C79.8831 755.611 62.3518 765.824 48.4113 763.309C47.4325 763.152 47.0731 761.638 48.1266 761.274ZM72.0661 737.439C71.3561 736.636 70.6763 735.834 70.0231 734.984C69.6146 735.521 69.2297 736.072 68.9138 736.692C68.4501 737.605 67.9495 738.169 68.7163 738.926C69.7662 739.951 71.0582 738.579 72.0661 737.439ZM68.6389 733.147C68.4244 732.84 68.2033 732.544 67.9888 732.236C67.977 732.23 67.9519 732.247 67.9401 732.241C67.1922 731.947 66.4776 731.594 65.783 731.206C65.7456 731.466 65.6176 731.723 65.3248 731.887C64.858 732.142 63.6796 732.702 63.4508 733.277C62.4956 735.649 65.4334 734.652 66.0026 734.407C66.9333 733.959 67.7211 733.462 68.6389 733.147ZM66.8196 730.457C64.0563 726.083 61.8566 721.336 60.2215 716.437C59.1537 716.965 58.0357 717.168 56.8931 717.138C58.7581 722.76 62.2866 726.844 66.8196 730.457ZM166.168 634.142C157.992 624.162 146.092 617.912 133.619 615.233C111.288 610.447 70.5538 613.37 66.6015 642.727C66.517 643.321 65.9437 643.766 65.3612 643.674C53.3018 642.024 47.2356 656.305 46.0083 666.105C44.7369 676.177 47.0606 686.259 50.6957 695.544C50.7331 695.643 50.7402 695.74 50.7474 695.838C51.1713 695.716 51.6069 695.6 52.0696 695.546C52.0824 694.694 53.4845 694.259 53.9872 695.213C55.4482 698.046 57.1283 700.736 58.9656 703.31C58.1772 699.385 58.2605 695.337 59.596 691.427C59.6323 691.306 59.7025 691.236 59.7962 691.179C59.7557 690.782 59.9702 690.37 60.4647 690.287C62.1124 690.021 63.8027 689.873 65.4848 689.767C64.077 685.041 64.1819 680.208 65.631 675.487C65.8491 674.765 67.0786 674.749 67.29 675.477C68.3871 679.044 69.669 682.668 70.4579 686.344C70.5633 686.294 70.6805 686.25 70.8382 686.244C86.3865 685.33 101.864 683.658 117.237 680.957C132.341 678.294 146.981 674.138 161.881 670.595C161.826 670.501 161.765 670.389 161.747 670.254C160.821 665.22 159.89 660.167 158.964 655.133C158.802 654.261 160.116 653.652 160.61 654.428C165.812 662.761 169.141 671.764 170.628 681.379C171.519 675.86 171.422 670.337 170.344 664.717C170.148 663.685 171.596 663.417 172.014 664.245C173.128 666.4 173.959 668.536 174.55 670.852C174.605 670.836 174.649 670.813 174.716 670.804C176.113 670.71 177.484 670.883 178.803 671.261C176.318 658.01 175.075 645 166.168 634.142ZM179.902 691.692C179.021 691.996 178.092 692.164 177.129 692.173C177.79 695.277 178.033 698.601 177.923 701.978C179.06 698.644 179.667 695.264 179.902 691.692ZM179.907 700.696C179.877 700.695 179.86 700.67 179.83 700.669C179.523 701.716 179.173 702.755 178.747 703.767C180.683 704.037 184.85 704.461 185.193 702.934C185.636 701.009 181.094 700.923 179.907 700.696ZM178.053 705.285C177.948 705.445 177.828 705.55 177.669 705.586C177.539 706.841 177.348 708.094 177.127 709.346C177.733 709.95 178.439 710.455 179.271 710.764C180.138 711.093 182.43 711.749 182.297 710.3C182.205 709.248 181.154 707.895 180.541 707.083C180.087 706.485 179.569 705.946 179.038 705.43C178.659 705.39 178.317 705.339 178.053 705.285ZM204.05 729.89C200.792 726.427 199.376 722.353 198.698 717.317C197.523 708.58 193.136 695.609 181.807 699.509C184.242 699.605 187.351 700.484 187.24 703.032C187.136 705.349 184.009 705.772 181.291 705.658C181.948 706.307 182.529 707.038 182.998 707.801C183.71 708.934 184.872 710.865 183.832 712.143C182.85 713.375 180.537 713.035 179.242 712.67C178.304 712.411 177.455 711.967 176.709 711.394C176.657 711.599 176.604 711.804 176.558 711.997C176.595 712.096 176.633 712.195 176.643 712.342C177.101 724.381 193.363 729.461 204.05 729.89ZM82.1542 743.363C93.952 751.15 109.625 751.009 123.173 748.945C136.483 746.919 151.737 742.136 162.293 733.288C174.484 723.089 176.065 706.408 175.554 691.729C175.53 690.887 176.51 690.654 176.885 691.255C180.885 689.601 184.7 686.452 184.673 681.718C184.658 676.49 179.994 672.725 174.966 672.928C174.328 672.962 173.929 672.489 173.832 671.997C173.738 671.945 173.657 671.868 173.603 671.744C173.35 671.118 173.09 670.504 172.813 669.895C173.302 675.545 172.778 681.128 171.234 686.765C170.99 687.645 169.575 687.853 169.484 686.771C168.697 677.314 166.077 668.425 161.742 660.171C162.339 663.444 162.944 666.704 163.553 669.983C163.606 670.247 163.535 670.457 163.423 670.629C163.707 671.006 163.685 671.682 163.142 671.878C134.213 682.576 101.661 686.841 71.1049 688.394C70.9959 688.395 70.9002 688.373 70.8045 688.351C70.721 688.804 70.0253 688.915 69.8068 688.449C68.4579 685.554 67.5021 682.425 66.575 679.328C66.054 682.693 66.3079 686.054 67.2028 689.43C67.2729 689.72 67.17 689.959 66.998 690.129C67.0799 690.424 66.9473 690.772 66.5368 690.871C64.6146 691.296 62.6269 691.7 60.6669 691.916C60.5998 691.926 60.5645 691.906 60.5041 691.903C59.9094 697.447 60.2053 702.613 62.3651 707.791C62.8028 708.832 61.4008 709.627 60.6923 708.793C57.7401 705.282 55.2061 701.52 53.0064 697.493C46.2433 698.367 45.5928 706.332 49.3466 710.87C52.2839 714.435 55.7659 715.007 59.9363 715.371C59.9025 714.243 61.6056 713.601 61.9972 714.836C65.6519 726.132 72.1368 736.76 82.1542 743.363ZM72.1097 739.214C70.92 740.596 69.111 741.537 67.5287 740.746C65.6152 739.801 66.4363 737.447 67.5496 735.538C65.6633 736.452 63.6582 737.44 62.0344 735.673C60.2791 733.753 62.2473 731.697 64.0087 730.62C58.6154 730.979 53.8722 734.405 52.8669 740.047C52.0905 744.394 53.6626 748.383 54.194 752.603C54.6261 756.033 54.1301 759.381 51.8788 761.529C64.169 761.965 78.1882 752.975 72.1097 739.214Z" fill="#F18E85"/>
<path d="M176.328 679.238C177.656 679.389 178.92 680.04 179.908 680.93C179.972 680.994 180.008 681.057 180.033 681.141C180.425 679.826 179.873 678.362 178.371 677.395C177.959 677.137 178.355 676.555 178.772 676.704C182.271 677.929 182.405 683.257 178.821 684.406C178.004 684.668 177.591 683.62 178.302 683.215C179.037 682.795 179.549 682.236 179.852 681.617C179.727 681.688 179.582 681.692 179.431 681.579C178.478 680.806 177.415 680.409 176.21 680.214C175.586 680.105 175.707 679.172 176.328 679.238Z" fill="#F18E85"/>
<path d="M48.6963 705.945C49.2618 705.594 49.8928 705.356 50.5649 705.216C50.6246 703.414 51.2532 701.658 52.4552 700.283C52.9069 699.762 53.7287 700.389 53.3626 700.957C52.5473 702.215 52.1197 703.583 52.1228 705.071C53.8506 705.082 55.6336 705.655 56.878 706.761C57.2847 707.124 56.9506 707.923 56.3815 707.62C54.9131 706.829 53.6013 706.505 52.2432 706.579C52.3206 706.987 52.4289 707.396 52.5746 707.796C52.6915 708.104 54.1806 710.696 54.4699 710.236C54.9069 709.54 56.1701 710.095 56.0279 710.895C55.8508 711.873 55.1042 712.289 54.0635 712.026C52.6963 711.686 51.8903 710.37 51.341 709.199C50.9929 708.443 50.7511 707.64 50.633 706.846C50.2527 706.952 49.8783 707.076 49.4787 707.217C48.7284 707.525 47.98 706.394 48.6963 705.945Z" fill="#F18E85"/>
<path d="M116.038 707.185C117.205 707.261 118.311 707.393 119.479 707.119C120.048 706.982 120.762 706.774 121.211 706.371C121.943 705.702 121.477 704.879 120.929 704.284C119.407 702.627 117.368 702.748 115.317 702.892C114.712 702.934 114.33 702.173 114.856 701.768C117.581 699.616 122.472 701.47 123.474 704.674C124.795 708.908 118.161 709.877 115.521 708.993C114.497 708.633 115.035 707.11 116.038 707.185Z" fill="#F18E85"/>
<path d="M138.905 694.429C139.694 688.981 143.931 684.429 149.531 683.943C152.606 683.675 161.373 686.022 159.578 690.535C159.405 690.976 158.713 690.888 158.666 690.413C158.156 686.226 150.632 685.426 147.742 686.321C143.896 687.519 141.494 690.78 140.839 694.688C140.61 695.921 138.728 695.676 138.905 694.429Z" fill="#F18E85"/>
<path d="M76.9331 707.425C78.1419 697.15 92.6343 692.219 97.8818 702.532C98.1872 703.117 97.3463 703.49 96.9495 703.068C90.9216 696.691 80.1355 697.805 78.979 707.71C78.8311 709.023 76.7852 708.738 76.9331 707.425Z" fill="#F18E85"/>
<path d="M111.069 726.645C111.23 725.613 112.608 725.723 112.858 726.677C114.316 732.194 116.798 738.682 124.064 737.815C127.389 737.417 129.877 735.168 130.427 731.896C130.863 729.313 129.774 726.769 130.234 724.23C130.279 723.978 130.597 723.895 130.77 724.1C135.768 729.921 131.447 739.026 124.391 739.919C117.267 740.819 109.987 733.674 111.069 726.645Z" fill="#F18E85"/>
<path d="M1659.68 99.7557C1659.56 91.0149 1651.6 85.7621 1643.7 87.813C1644.29 82.5792 1642.3 77.5145 1638.45 74.7271C1642.37 48.6191 1622.32 26.6969 1597.22 22.6782C1574.59 19.044 1546.69 32.1754 1545.28 57.523C1544.71 57.4267 1544.13 57.347 1543.55 57.306C1534.48 56.8586 1525.6 63.9796 1526.81 73.1291C1520.53 67.6901 1510.04 67.0184 1505.56 75.3756C1500.46 84.9084 1510.68 91.9124 1519.31 91.6102C1516.08 97.2844 1520.44 105.15 1525.9 107.912C1531.5 110.74 1540.69 110.379 1545.07 105.412C1547.6 113.044 1557.36 116.789 1564.76 113.286C1571.55 110.064 1573.63 100.554 1567.98 96.1285C1571.14 95.7847 1574.28 94.9545 1576.41 92.4491C1579.23 89.1602 1578.93 84.4069 1577.16 80.6845C1575.94 78.1147 1573.85 75.8484 1571.39 74.2697C1577.54 57.1341 1606.35 64.0404 1603.85 82.2229L1603.84 82.2396C1603.29 82.7016 1602.75 83.2243 1602.27 83.8406C1598.49 88.7106 1601.39 94.9203 1605.88 98.1575C1604.23 99.068 1602.86 100.812 1602.13 102.392C1600.49 105.829 1600.79 109.808 1603.03 112.914C1607.24 118.762 1616.06 118.835 1620.34 113.227C1621.46 118.634 1628.53 122.343 1633.59 122.011C1638.53 121.696 1643.11 117.585 1642.04 112.969C1650.74 115.336 1659.82 109.071 1659.68 99.7557ZM1595.74 25.6721C1619.34 28.997 1637.86 48.9814 1635.22 73.0808C1633.81 72.6186 1632.22 72.4118 1630.52 72.4986C1629.47 72.5598 1628.29 72.7266 1627.06 73.0044C1625.3 53.8117 1612.33 36.6936 1592.35 34.2389C1574.99 32.107 1555.83 44.1782 1554.28 62.1397C1552.25 60.2268 1549.73 58.759 1547.1 57.9719C1553.01 35.4025 1572.47 22.3787 1595.74 25.6721ZM1617.05 81.9065C1616.74 81.7312 1616.42 81.5726 1616.11 81.4141C1617.75 65.7079 1609.49 51.8204 1593.3 49.0627C1578.86 46.5994 1561.46 55.5147 1563.24 71.9152C1561.49 72.0244 1559.8 72.537 1558.29 73.607C1559.14 70.3179 1558.2 67.1218 1556.27 64.4288C1560.28 47.9907 1572.61 35.504 1590.9 37.2603C1609.81 39.0685 1622.41 55.2596 1623.77 73.4539C1623.78 73.6418 1623.84 73.7908 1623.9 73.9397C1620.08 75.4482 1616.72 78.0655 1617.05 81.9065ZM1574.6 81.2074C1576.41 84.8521 1576.73 89.2792 1573 91.8321C1570.58 93.5043 1567.24 93.5505 1564.41 93.638C1562.69 93.6808 1562.54 96.3908 1564.28 96.3369C1564.41 96.3417 1564.53 96.3246 1564.65 96.3294C1572.65 100.233 1567.81 110.24 1560.69 111.59C1554.13 112.826 1548.49 108.295 1547.14 102.077C1547.08 101.856 1546.98 101.674 1546.84 101.52C1546.79 101.449 1546.72 101.388 1546.63 101.323C1546.6 101.295 1546.56 101.262 1546.53 101.251C1545.71 100.78 1544.41 101.13 1544.48 102.274C1544.49 102.407 1544.52 102.545 1544.53 102.678C1540.73 106.879 1533.76 107.598 1528.63 105.641C1521.81 103.042 1520.77 97.2196 1522.6 90.9948C1522.81 90.2914 1522.3 89.6087 1521.68 89.4407C1521.5 89.2537 1521.26 89.1389 1520.95 89.1296C1516.73 89.1088 1512.3 88.9287 1509.24 85.573C1506.44 82.5253 1506.44 78.1077 1509.18 75.0514C1514.84 68.7722 1522.96 72.6252 1528.25 77.1684C1529.05 77.8551 1529.87 76.5955 1529.37 75.8795C1529.25 75.7142 1529.12 75.5601 1528.99 75.4061C1528.62 67.5402 1532.75 60.8547 1541.11 60.0565C1550.97 59.1281 1557.1 66.5031 1555.08 75.8695C1554.97 76.3843 1555.24 76.8417 1555.63 77.0774C1555.87 77.5626 1556.53 77.8686 1556.98 77.374C1562.47 71.7204 1571.26 74.486 1574.6 81.2074ZM1569.57 73.2513C1568 72.497 1566.32 72.0419 1564.67 71.9239C1566.55 56.0007 1581.62 48.0382 1596.55 52.6109C1609.11 56.4614 1614.19 68.1494 1613.19 80.3687C1611.03 79.883 1608.77 79.9342 1606.74 80.6477C1607.75 61.1852 1573.99 53.488 1569.57 73.2513ZM1642.31 109.799C1641.65 109.62 1641.11 109.85 1640.77 110.233C1640.11 109.595 1638.98 110.531 1639.36 111.391C1642.23 117.739 1633.91 120.058 1629.47 118.44C1625.56 117.013 1624.37 114.029 1622.16 110.95C1621.89 110.57 1621.43 110.512 1621.05 110.624C1620.55 109.947 1619.43 109.71 1618.75 110.61C1615.73 114.569 1610.37 116.052 1606.46 112.364C1604.63 110.644 1603.74 108.31 1604.05 105.781C1604.34 103.446 1606.41 99.5258 1609.18 99.5658C1610.14 99.5881 1610.44 98.3424 1609.69 97.8765C1609.65 97.5672 1609.47 97.2696 1609.13 97.0116C1605.53 94.3058 1600.91 89.7588 1604.9 85.1973C1608.43 81.147 1613.58 82.7219 1617.83 84.5727C1617.83 84.5727 1617.83 84.5893 1617.84 84.5947C1618.13 85.1848 1618.64 85.298 1619.08 85.1297C1619.1 85.1351 1619.12 85.1405 1619.13 85.146C1619.71 85.4082 1620.21 84.6148 1619.88 84.1577C1619.9 84.0525 1619.91 83.964 1619.91 83.8534C1619.35 77.4538 1626.66 75.174 1631.89 75.5431C1639.18 76.0501 1641.23 82.5353 1640.74 88.7582C1640.63 90.119 1642.63 90.6996 1643.3 89.7228C1649.93 88.2705 1656.89 93.0478 1656.68 100.226C1656.46 107.752 1649.11 111.658 1642.31 109.799Z" fill="#BAD266"/>
<path d="M97.7104 1175.38C96.8768 1174.58 95.5216 1175.1 95.0579 1176C86.3992 1193.04 77.0249 1210.41 71.3187 1228.73C71.2595 1228.93 71.259 1229.08 71.2941 1229.25C71.0476 1229.72 71.1505 1230.33 71.5516 1230.71C71.2017 1239.79 71.7298 1248.79 72.5638 1257.83C72.9979 1262.59 72.4545 1272.58 75.0104 1276.88C76.7095 1279.74 78.1154 1279.77 81.2391 1279.88C88.8632 1280.14 97.4193 1277.73 104.991 1276.71C112.637 1275.7 121.308 1275.66 128.742 1273.54C132.303 1272.52 132.785 1271.89 133.69 1268.46C137.214 1255.08 134.35 1237.66 132.201 1224.33C132.114 1223.77 131.814 1223.41 131.441 1223.17C131.744 1222.75 131.844 1222.24 131.563 1221.69C122.802 1204.57 111.53 1188.83 97.7104 1175.38ZM97.6647 1274.15C97.2406 1269.56 98.9274 1262.59 102.795 1260.45C110.261 1256.31 111.809 1266.86 112.933 1272.28C109.594 1272.67 106.263 1273.02 102.955 1273.46C101.211 1273.68 99.4381 1273.91 97.6647 1274.15ZM130.941 1255.85C130.928 1256.77 131.171 1266.31 130.192 1267.89C128.817 1270.12 123.972 1270.48 121.63 1270.94C119.636 1271.34 117.594 1271.63 115.557 1271.9C115.143 1265.42 111.587 1253.76 103.064 1256.96C97.3999 1259.09 93.8854 1268.38 95.403 1274.45C92.2797 1274.87 89.1313 1275.28 86.0081 1275.7C77.8834 1276.79 77.8036 1273.37 76.889 1266.03C75.4238 1254.39 74.8723 1242.7 73.8807 1231.01C92.3237 1231 110.865 1229.04 129.139 1226.68C130.497 1236.36 131.176 1246.08 130.941 1255.85ZM128.384 1223.27C110.167 1225.38 91.882 1226.67 73.6388 1228.55C82.0032 1212.55 88.7734 1195.74 97.0354 1179.67C109.454 1192.91 119.888 1207.19 128.384 1223.27Z" fill="#FACA4E"/>
<path d="M93.2886 1238.39C91.0693 1238.25 88.6104 1239.16 86.4553 1239.79C84.4268 1240.37 81.0181 1240.83 79.5083 1242.5C78.4139 1243.73 78.6279 1245.54 78.605 1246.99C78.5791 1249.99 78.6138 1253.06 79.4073 1255.92C79.6835 1256.93 80.8061 1256.84 81.414 1256.21C81.4393 1256.22 81.4493 1256.23 81.4645 1256.22C84.3976 1255.92 92.2956 1255.61 94.0052 1252.58C94.8828 1251.02 94.5236 1248.45 94.5722 1246.81C94.6373 1244.45 95.1331 1241.58 94.4598 1239.34C94.3091 1238.87 93.8144 1238.43 93.2886 1238.39ZM81.7736 1245.09C82.3978 1243.88 83.5461 1243.54 84.8613 1243.2C84.5705 1244.63 84.6888 1246.21 84.7164 1247.67C83.5123 1248.1 82.3333 1248.59 81.1897 1249.1C81.1166 1247.61 81.2002 1246.18 81.7736 1245.09ZM81.7611 1254.45C81.6924 1253.32 81.4825 1251.99 81.3232 1250.67C82.4615 1250.32 83.5896 1250.01 84.7329 1249.69C84.7252 1251.07 84.7125 1252.47 85.0032 1253.78C83.7893 1254.06 82.631 1254.26 81.7611 1254.45ZM91.5556 1245.86C91.538 1247.16 91.8933 1249.11 91.5218 1250.36C91.0538 1251.89 88.8022 1252.8 86.4246 1253.43C86.7458 1252.05 86.789 1250.57 86.8321 1249.15C88.0664 1248.83 89.3107 1248.52 90.5703 1248.21C91.936 1247.88 91.8843 1245.78 90.4378 1246.06C89.2745 1246.28 88.106 1246.6 86.9576 1246.94C87.0716 1245.49 87.2109 1243.98 86.8899 1242.62C88.3772 1242.15 90.1227 1241.55 91.6853 1241.41C91.809 1242.84 91.5682 1244.53 91.5556 1245.86Z" fill="#FACA4E"/>
<path d="M123.89 1239.45C121.352 1239.16 118.818 1238.84 116.279 1238.55C115.098 1238.41 113.149 1237.81 112.097 1238.69C111.217 1239.42 111.394 1240.81 111.392 1241.86C111.344 1244.69 111.281 1247.54 111.395 1250.39C111.414 1250.87 111.782 1251.12 112.154 1251.17C112.293 1251.51 112.556 1251.79 112.978 1251.85C115.048 1252.14 117.144 1252.17 119.196 1251.98C120.646 1251.85 123.15 1251.85 124.28 1250.87C124.99 1250.26 124.993 1249.72 125.088 1248.81C125.361 1246.17 124.97 1243.22 124.916 1240.57C124.901 1240.07 124.386 1239.52 123.89 1239.45ZM113.57 1243.23C113.593 1242.81 113.613 1242.42 113.636 1242C113.289 1241 113.502 1240.58 114.271 1240.77C114.972 1240.48 116.311 1240.75 117.429 1240.98C117.378 1242.11 117.372 1243.27 117.395 1244.41C116.079 1244.58 114.759 1244.79 113.46 1245.02C113.508 1244.43 113.546 1243.82 113.57 1243.23ZM113.161 1249.56C113.246 1248.55 113.307 1247.53 113.379 1246.52C114.747 1246.51 116.109 1246.45 117.488 1246.37C117.557 1247.45 117.64 1248.53 117.8 1249.59C116.249 1249.65 114.722 1249.61 113.161 1249.56ZM122.67 1247.79C122.875 1249.07 122.295 1249.57 120.893 1249.29C120.298 1249.38 119.693 1249.45 119.116 1249.5C119.174 1248.42 119.207 1247.33 119.251 1246.25C120.373 1246.19 121.499 1246.1 122.621 1246.04L122.636 1246.03C122.65 1246.62 122.655 1247.2 122.67 1247.79ZM122.597 1243.79C122.523 1243.78 122.449 1243.76 122.372 1243.77C121.365 1243.91 120.359 1244.04 119.341 1244.16C119.378 1243.23 119.428 1242.28 119.464 1241.34C120.494 1241.48 121.527 1241.59 122.547 1241.72C122.572 1242.41 122.586 1243.09 122.597 1243.79Z" fill="#FACA4E"/>
<path d="M1764.8 1184.23C1772.06 1175.24 1771.1 1161.7 1760.99 1154.87C1750.27 1147.63 1737.38 1155.28 1730.9 1164.62C1724.6 1146.24 1687.96 1161.89 1698.91 1179.33C1690.93 1178.24 1682.79 1184.14 1682.06 1192.43C1681.22 1201.85 1689.91 1206.37 1698.11 1205.19C1697.11 1210.09 1699.35 1215.9 1703.93 1218.1C1707.87 1220 1713.57 1218.93 1715.9 1215.18C1721.07 1234.28 1754.24 1225.3 1752.61 1209.73C1760.64 1215.38 1772.82 1212.88 1776.89 1203.36C1780.69 1194.48 1774.24 1184.36 1764.8 1184.23ZM1773.86 1203.36C1769.03 1212.03 1758.68 1211.23 1751.82 1205.63C1750.53 1204.59 1748.84 1206.2 1749.98 1207.46C1749.99 1207.47 1750.01 1207.49 1750.02 1207.5C1750.65 1215.89 1742.44 1222.17 1734.63 1223.24C1726.71 1224.32 1720.29 1219.88 1717.95 1212.43C1717.48 1210.93 1715.53 1211.45 1715.46 1212.81C1715.37 1212.87 1715.28 1212.92 1715.21 1213.03C1712.82 1216.35 1708.31 1217.74 1704.61 1215.51C1700.54 1213.07 1700.42 1208.54 1701.14 1204.48C1701.42 1204.38 1701.71 1204.3 1701.99 1204.2C1703.09 1203.77 1703.1 1201.74 1701.68 1201.93C1701.39 1201.98 1701.08 1202 1700.79 1202.03C1700.32 1201.72 1699.69 1201.7 1699.26 1202.19C1692.44 1202.8 1684.27 1202.12 1684.74 1193.08C1685.16 1184.94 1693.26 1181.05 1700.61 1181.66C1700.67 1181.71 1700.71 1181.79 1700.77 1181.84C1701.24 1182.37 1701.93 1182.15 1702.27 1181.69C1702.85 1181.4 1702.92 1180.51 1702.15 1180.21C1702.12 1180.2 1702.1 1180.2 1702.08 1180.18C1693.01 1163.42 1721.99 1150.1 1729.18 1168.19C1729.78 1169.7 1731.83 1169.1 1731.6 1167.53C1731.58 1167.41 1731.55 1167.31 1731.53 1167.21C1737.27 1159.86 1748.09 1151.17 1757.9 1156.39C1768.2 1161.86 1768.78 1174.93 1762.07 1183.35C1761.74 1183.78 1761.71 1184.26 1761.85 1184.68C1761.39 1185.16 1761.68 1186.21 1762.5 1186.2C1771.61 1186.04 1778.58 1194.92 1773.86 1203.36Z" fill="#FACA4E"/>
<path d="M100.801 180.079C101.376 179.337 100.61 178.086 99.6959 178.173C94.9938 178.581 90.218 178.843 85.5601 179.57C85.5601 179.366 85.5306 179.163 85.398 178.944C82.671 174.334 79.384 170.13 75.5811 166.334C74.9914 165.738 73.7385 165.956 73.5617 166.858C72.7067 171.468 71.7339 176.181 71.3654 180.864C66.678 180.908 61.9612 181.664 57.2738 181.941C56.1536 182.013 55.5787 183.279 56.36 184.108C59.4996 187.438 63.8922 191.322 68.4763 192.442C68.55 192.456 68.609 192.456 68.6827 192.456C67.4593 197.038 67.5772 202.129 67.6214 206.797C67.6361 207.903 68.948 208.368 69.744 207.67C73.6648 204.194 77.1435 200.34 80.2537 196.151C84.4399 199.627 89.3188 202.318 94.1831 204.732C95.1412 205.212 96.453 204.412 96.0993 203.278C94.7874 199.132 93.9325 194.958 92.9302 190.74C92.9007 190.595 92.827 190.478 92.7533 190.362C92.8417 190.289 92.9449 190.231 93.0186 190.129C95.6129 186.784 98.2219 183.439 100.801 180.079ZM80.9317 194.391C80.6517 194.231 80.3568 194.26 80.1063 194.391C79.5609 194.056 78.7649 194.027 78.2785 194.682C75.8316 197.998 73.1047 201.052 70.142 203.918C70.2746 199.86 70.6726 195.787 70.422 191.773C70.3925 191.336 70.0683 191.089 69.7145 191.046C69.6408 190.842 69.5081 190.653 69.3018 190.493C67.5035 189.213 65.4251 188.355 63.6121 187.075C62.4034 186.231 61.2979 185.271 60.2219 184.282C64.1575 184.02 68.211 183.671 71.955 182.639C72.294 182.551 72.4856 182.304 72.5593 182.042C72.6478 181.97 72.7215 181.868 72.751 181.752C73.9596 177.854 74.7114 173.766 75.4631 169.723C78.4259 172.937 81.0349 176.399 83.2606 180.166C83.4523 180.501 83.7323 180.661 84.0271 180.719C84.1008 181.184 84.4546 181.635 85 181.635C88.9651 181.65 92.9449 181.286 96.91 180.937C94.8759 183.584 92.8417 186.217 90.8076 188.864C90.4243 189.358 90.5128 189.838 90.8223 190.173C90.5717 190.376 90.4243 190.667 90.4686 191.06C90.8665 194.434 91.692 197.794 92.6796 201.067C88.6997 198.972 84.8673 196.616 80.9317 194.391Z" fill="#FACA4E"/>
<path d="M1144.5 589.35C1141.02 577.36 1127.45 578.859 1120.58 586.238C1118.86 575.49 1104.89 570.365 1097.26 580.386C1085.09 596.373 1101.58 608.521 1114.67 615.558C1114.69 616.4 1115.38 617.228 1116.47 616.943C1126.94 614.245 1148.54 603.225 1144.5 589.35ZM1137.3 601.398C1131.56 607.564 1124.1 611.361 1116.19 613.931C1116.12 613.859 1116.07 613.774 1115.97 613.702C1109.57 609.049 1098.42 603.767 1096.22 595.631C1094.63 589.721 1097.87 582.142 1102.95 579.13C1110.69 574.533 1119.46 581.428 1117.94 590.078C1117.68 591.506 1119.65 592.576 1120.44 591.135C1123.13 586.181 1128.53 581.771 1134.66 583.426C1143.99 585.953 1142.42 595.902 1137.3 601.398Z" fill="#BAD266"/>
<path d="M671.504 257.35C668.017 245.36 654.454 246.859 647.579 254.238C645.856 243.49 631.892 238.365 624.256 248.386C612.085 264.373 628.576 276.521 641.666 283.558C641.694 284.4 642.383 285.228 643.474 284.943C653.937 282.245 675.538 271.225 671.504 257.35ZM664.3 269.398C658.558 275.564 651.095 279.361 643.187 281.931C643.115 281.859 643.072 281.774 642.972 281.702C636.57 277.049 625.419 271.767 623.223 263.631C621.629 257.721 624.873 250.142 629.954 247.13C637.69 242.533 646.459 249.428 644.938 258.078C644.68 259.506 646.646 260.576 647.435 259.135C650.134 254.181 655.53 249.771 661.659 251.426C670.988 253.953 669.423 263.902 664.3 269.398Z" fill="#FACA4E"/>
<path d="M1617.07 541.632C1618.45 538.193 1621.53 536.133 1624.83 535.795C1626.51 528.591 1629.08 521.805 1632.6 515.356C1631.89 515.569 1631.14 515.714 1630.28 515.815C1629.54 515.905 1628.96 515.345 1629.14 514.573C1632.05 502.32 1642.71 493.533 1654.98 492.877C1653.44 491.176 1651.79 489.664 1649.91 488.226C1649.31 487.775 1649.34 486.645 1650.21 486.504C1656.96 485.422 1663.52 487.346 1668.13 492.339C1668.81 487.739 1671.18 483.931 1675.1 481.007C1675.7 480.559 1676.61 480.718 1676.8 481.54C1677.25 483.595 1677.44 485.438 1677.39 487.398C1690.31 479.104 1705.66 483.907 1719.13 488.922C1719.77 489.156 1720.16 489.956 1719.72 490.571L1717.98 493.115C1739.36 496.804 1757.12 513.069 1762.66 534.404C1762.89 535.282 1761.77 536.18 1761.01 535.589C1760.09 534.87 1759.18 534.139 1758.26 533.421C1762.93 550.621 1759.42 569.192 1748.67 583.453C1749.6 585.697 1749.65 588.382 1748.57 590.792C1746.8 594.752 1742.47 597.285 1738.45 596.733C1735.88 605.385 1728 611.873 1719.75 614.606C1719.44 614.707 1719.2 614.619 1719.04 614.452C1715.68 616.968 1712.05 619.069 1708.37 620.664C1694.72 626.57 1679.28 626.069 1665.26 621.804C1651.11 617.494 1637.55 610.135 1630.29 596.602C1629.76 595.608 1629.26 594.601 1628.8 593.581C1618.32 583.181 1617.49 567.128 1619.88 553.09C1619.91 552.873 1620.01 552.739 1620.12 552.62C1616.91 550.209 1615.39 545.825 1617.07 541.632ZM1755.18 530.7C1754.88 529.821 1756.1 528.966 1756.81 529.529C1757.73 530.247 1758.66 530.979 1759.57 531.697C1753.21 512.371 1736.14 497.799 1716.05 495.041C1715.28 494.94 1714.64 494.093 1715.16 493.343C1715.8 492.406 1716.45 491.469 1717.09 490.531C1704.16 485.776 1689.06 481.143 1676.9 490.219C1676.25 490.693 1675.08 490.405 1675.18 489.426C1675.38 487.456 1675.35 485.589 1675.07 483.689C1672.03 486.377 1670.12 489.775 1669.31 493.8C1669.49 494.118 1669.4 494.442 1669.18 494.641C1669.14 494.912 1669.09 495.183 1669.06 495.455C1668.97 496.188 1667.91 496.175 1667.9 495.412C1667.9 495.017 1667.91 494.622 1667.92 494.241C1663.66 490.047 1658.57 487.806 1652.75 488.121C1654.53 489.638 1656.14 491.286 1657.67 493.136C1658.18 493.748 1657.77 494.733 1656.95 494.712C1645.11 494.452 1634.67 502.346 1631.35 513.717C1632.44 513.486 1633.47 513.062 1634.43 512.406C1635.3 511.91 1636.19 512.995 1635.7 513.814C1631.63 520.739 1628.7 528.006 1626.83 535.791C1628.32 535.951 1629.79 536.479 1631.13 537.398C1632.84 530.55 1637.34 525.842 1643.96 523.245C1653.73 519.407 1662.29 517.363 1666.56 506.384C1666.86 505.615 1668.09 505.292 1668.47 506.201C1678.49 530.306 1705.4 521.836 1724.34 531.416C1741.38 540.035 1745.77 561.272 1741.64 578.671C1744.12 578.625 1746.12 579.751 1747.46 581.434C1758.1 566.816 1761.01 547.943 1755.18 530.7ZM1737.42 596.543C1736.26 596.228 1735.14 595.641 1734.14 594.717C1734.09 594.674 1734.06 594.619 1734.04 594.564C1731.9 601.225 1727.64 607.069 1722.35 611.771C1729.11 608.551 1733.68 603.191 1737.42 596.543ZM1621.8 553.698C1619.61 566.255 1620.33 578.75 1627.02 589.191C1623.09 578.153 1622.67 565.979 1624.91 554.485C1624.9 554.485 1624.88 554.498 1624.86 554.484C1623.76 554.374 1622.73 554.075 1621.79 553.629C1621.78 553.67 1621.8 553.684 1621.8 553.698ZM1625.08 553.141C1625.12 553.155 1625.13 553.169 1625.17 553.184C1625.2 553.021 1625.24 552.845 1625.28 552.683C1625.58 551.328 1627.61 551.979 1627.31 553.32C1624.23 567.408 1625.35 582.76 1632.22 595.589C1639.21 608.597 1652.33 615.577 1665.9 619.736C1693.3 628.155 1722.05 619.146 1733.91 591.632C1734.14 591.093 1734.9 591.317 1734.76 591.899C1734.6 592.617 1734.41 593.307 1734.2 594.01C1734.35 593.877 1734.58 593.829 1734.78 593.943C1738.68 596.289 1744 595.171 1746.41 591.146C1747.73 588.932 1747.89 586.362 1747.09 584.271C1746.56 584.081 1746.18 583.553 1746.44 582.988C1745.34 581.325 1743.47 580.215 1740.95 580.315C1740.16 580.349 1740.03 579.461 1740.46 578.981C1740.36 578.87 1740.29 578.705 1740.32 578.515C1741.93 567.55 1742.05 556.165 1736.6 546.192C1730.7 535.377 1720.53 530.815 1708.93 528.995C1692.76 526.445 1675.68 525.345 1667.62 509.23C1664.89 514.95 1660.53 519.307 1654.56 521.811C1645 525.819 1635.31 526.975 1632.91 539.215C1632.73 540.204 1631.6 540.121 1631.1 539.482C1630.97 539.465 1630.84 539.421 1630.7 539.322C1629.3 538.374 1627.73 537.843 1626.16 537.763C1625.87 537.96 1625.49 537.936 1625.17 537.765C1622.4 537.94 1619.83 539.536 1618.7 542.668C1616.91 547.607 1620.4 552.068 1625.08 553.141Z" fill="#BAD266"/>
<path d="M1736.22 585.608C1738.3 584.563 1741.34 584.891 1743.13 586.405C1743.19 585.64 1743 584.801 1742.5 583.915C1742.11 583.217 1743.08 582.634 1743.66 583.151C1745.2 584.513 1745.21 586.776 1744.32 588.46C1743.24 590.509 1740.96 591.603 1738.61 591.834C1737.9 591.909 1737.64 591.002 1738.35 590.809C1740.44 590.24 1742.21 589.081 1742.88 587.497C1740.84 586.202 1739 585.903 1736.66 586.717C1735.99 586.925 1735.62 585.91 1736.22 585.608Z" fill="#BAD266"/>
<path d="M1621.55 542.702C1621.9 542.673 1622.25 542.732 1622.59 542.803C1623.66 541.444 1625.51 540.667 1627.6 541.07C1628.22 541.186 1628.05 542.205 1627.42 542.127C1625.94 541.939 1624.7 542.445 1623.94 543.324C1625.2 544.043 1626.23 545.255 1626.53 546.436C1626.68 546.989 1625.87 547.243 1625.58 546.774C1625.08 545.975 1624.62 545.251 1623.8 544.694C1623.63 544.59 1623.48 544.498 1623.31 544.419C1623.07 545.175 1623.07 546.036 1623.42 546.931C1623.74 547.739 1622.24 548.275 1621.92 547.455C1621.42 546.219 1621.47 544.997 1621.89 543.946C1621.71 543.892 1621.52 543.85 1621.33 543.795C1620.68 543.616 1620.91 542.748 1621.55 542.702Z" fill="#BAD266"/>
<path d="M1675.44 569.63C1678.66 566.277 1686.1 567.829 1685.87 572.889C1685.84 573.57 1684.83 573.624 1684.63 573.004C1683.56 569.716 1679.26 567.789 1676.75 571.133C1674.37 574.308 1677.35 577.484 1680.91 577.789C1682.35 577.919 1682.26 579.748 1680.85 579.845C1675.08 580.207 1671.68 573.558 1675.44 569.63Z" fill="#BAD266"/>
<path d="M1651.39 586.019C1648.08 607.966 1678.23 616.99 1691.28 601.342C1691.73 600.789 1692.88 601.121 1692.54 601.94C1688.63 611.463 1672.66 613.084 1664.19 610.195C1654.16 606.769 1647.56 596.524 1649.15 585.962C1649.36 584.534 1651.6 584.59 1651.39 586.019Z" fill="#BAD266"/>
<path d="M1725.23 582.573C1724.71 583.357 1723.32 582.786 1723.68 581.847C1728.23 569.92 1707.48 564.519 1703.92 576.54C1703.51 577.889 1701.48 577.246 1701.82 575.896C1706.14 559.734 1733.4 570.23 1725.23 582.573Z" fill="#BAD266"/>
<path d="M1654.68 546.909C1658.02 548.503 1660.49 551.343 1661.73 554.686C1662.4 556.452 1663.73 560.132 1661.17 560.935C1660.76 561.058 1660.3 560.592 1660.48 560.209C1662.44 555.839 1656.22 549.619 1652.53 548.364C1646.49 546.301 1640.97 549.793 1639.88 555.56C1639.65 556.703 1637.65 556.371 1637.76 555.213C1638.56 547.328 1647.49 543.482 1654.68 546.909Z" fill="#BAD266"/>
</svg>
