<svg width="768" height="315" viewBox="0 0 768 315" fill="none" xmlns="http://www.w3.org/2000/svg">
<path d="M637.246 -9H809V317H563.004C562.819 310.833 568.766 294.544 594.031 278.722C625.611 258.945 612.868 220.667 608.99 197.063C605.112 173.458 610.098 165.802 642.787 107.748C668.937 61.3037 649.989 10.5643 637.246 -9Z" fill="url(#paint0_linear_90_1206)"/>
<ellipse cx="-13" cy="324.5" rx="40" ry="40.5" fill="white"/>
<path d="M33.5 319.5C33.5 341.597 15.8094 359.5 -6 359.5C-27.8094 359.5 -45.5 341.597 -45.5 319.5C-45.5 297.403 -27.8094 279.5 -6 279.5C15.8094 279.5 33.5 297.403 33.5 319.5Z" stroke="#BAD266"/>
<path d="M824.5 -19.5C824.5 2.59726 806.809 20.5 785 20.5C763.191 20.5 745.5 2.59726 745.5 -19.5C745.5 -41.5973 763.191 -59.5 785 -59.5C806.809 -59.5 824.5 -41.5973 824.5 -19.5Z" stroke="#FACA4E"/>
<path d="M814.5 -10.5C814.5 11.5973 796.809 29.5 775 29.5C753.191 29.5 735.5 11.5973 735.5 -10.5C735.5 -32.5973 753.191 -50.5 775 -50.5C796.809 -50.5 814.5 -32.5973 814.5 -10.5Z" stroke="white"/>
<defs>
<linearGradient id="paint0_linear_90_1206" x1="700.276" y1="-29.1836" x2="657.695" y2="426.303" gradientUnits="userSpaceOnUse">
<stop stop-color="#9BC40F"/>
<stop offset="0.481141" stop-color="#A4CC1A" stop-opacity="0.85"/>
<stop offset="0.75" stop-color="#BAD266" stop-opacity="0.97"/>
<stop offset="1" stop-color="#F1D985"/>
</linearGradient>
</defs>
</svg>
