<svg width="360" height="211" viewBox="0 0 360 211" fill="none" xmlns="http://www.w3.org/2000/svg">
<rect width="360" height="190" fill="url(#paint0_linear_166_1423)"/>
<path d="M324.563 0H361V190H270.003C269.867 186.041 274.238 175.582 292.804 165.425C316.013 152.727 306.648 128.152 303.798 112.997C300.948 97.8423 304.612 92.9272 328.635 55.6545C347.853 25.8364 333.928 12.5608 324.563 0Z" fill="url(#paint1_linear_166_1423)"/>
<ellipse cx="353.7" cy="177.126" rx="23" ry="36" transform="rotate(30.83 353.7 177.126)" fill="white"/>
<path d="M365.17 184.904C358.721 192.362 350.965 197.426 343.66 199.6C336.348 201.777 329.562 201.044 324.931 197.039C320.3 193.035 318.595 186.425 319.693 178.876C320.791 171.334 324.682 162.928 331.132 155.47C337.581 148.011 345.337 142.947 352.642 140.773C359.954 138.597 366.741 139.33 371.371 143.334C376.002 147.338 377.707 153.948 376.609 161.497C375.511 169.04 371.62 177.445 365.17 184.904Z" stroke="white"/>
<ellipse cx="-1.69982" cy="-7.29977" rx="23" ry="36" transform="rotate(30.83 -1.69982 -7.29977)" fill="url(#paint2_linear_166_1423)"/>
<defs>
<linearGradient id="paint0_linear_166_1423" x1="9.07121" y1="38.0038" x2="373.792" y2="53.2663" gradientUnits="userSpaceOnUse">
<stop stop-color="#FE6F62" stop-opacity="0.97"/>
<stop offset="1" stop-color="#F18E85" stop-opacity="0.9"/>
</linearGradient>
<linearGradient id="paint1_linear_166_1423" x1="320.781" y1="-11.7634" x2="282.176" y2="250.338" gradientUnits="userSpaceOnUse">
<stop stop-color="#9BC40F"/>
<stop offset="0.481141" stop-color="#A4CC1A" stop-opacity="0.93"/>
<stop offset="0.75" stop-color="#BAD266" stop-opacity="0.97"/>
<stop offset="1" stop-color="#F1D985"/>
</linearGradient>
<linearGradient id="paint2_linear_166_1423" x1="-24.0045" y1="-30.6986" x2="20.8417" y2="-30.2683" gradientUnits="userSpaceOnUse">
<stop stop-color="#FABD20"/>
<stop offset="1" stop-color="#FFD363"/>
</linearGradient>
</defs>
</svg>
