<svg width="1920" height="573" viewBox="0 0 1920 573" fill="none" xmlns="http://www.w3.org/2000/svg">
<path d="M1568.11 0H1920V580H1416.01C1415.63 569.028 1427.81 540.047 1479.57 511.898C1544.28 476.712 1518.17 408.611 1510.22 366.614C1502.28 324.618 1512.49 310.998 1579.47 207.71C1633.04 125.08 1594.22 34.8076 1568.11 0Z" fill="url(#paint0_linear_2_724)"/>
<path d="M144.28 656.81L145.78 656.831L145.752 658.757L143.892 658.259L144.28 656.81ZM-235.913 554.937L-236.302 556.386L-236.841 556.242L-237.155 555.779L-235.913 554.937ZM142.78 656.788C143.5 606.419 97.1885 494.587 -96.032 455.28L-95.434 452.34C98.8812 491.87 146.525 604.717 145.78 656.831L142.78 656.788ZM-96.032 455.28C-144.393 445.442 -179.307 443.735 -203.943 447.415C-228.568 451.093 -242.746 460.117 -249.971 471.591C-257.211 483.09 -257.688 497.395 -254.148 512.092C-250.612 526.778 -243.106 541.663 -234.672 554.095L-237.155 555.779C-245.726 543.145 -253.421 527.929 -257.065 512.794C-260.707 497.671 -260.344 482.436 -252.509 469.992C-244.658 457.524 -229.525 448.203 -204.386 444.448C-179.259 440.695 -143.957 442.469 -95.434 452.34L-96.032 455.28ZM-235.525 553.488L144.668 655.361L143.892 658.259L-236.302 556.386L-235.525 553.488Z" fill="#BAD266"/>
<path d="M144.28 697.81L145.78 697.831L145.752 699.757L143.892 699.259L144.28 697.81ZM-235.913 595.937L-236.302 597.386L-236.841 597.242L-237.155 596.779L-235.913 595.937ZM142.78 697.788C143.5 647.419 97.1885 535.587 -96.032 496.28L-95.434 493.34C98.8812 532.87 146.525 645.717 145.78 697.831L142.78 697.788ZM-96.032 496.28C-144.393 486.442 -179.307 484.735 -203.943 488.415C-228.568 492.093 -242.746 501.117 -249.971 512.591C-257.211 524.09 -257.688 538.395 -254.148 553.092C-250.612 567.778 -243.106 582.663 -234.672 595.095L-237.155 596.779C-245.726 584.145 -253.421 568.929 -257.065 553.794C-260.707 538.671 -260.344 523.436 -252.509 510.992C-244.658 498.524 -229.525 489.203 -204.386 485.448C-179.259 481.695 -143.957 483.469 -95.434 493.34L-96.032 496.28ZM-235.525 594.488L144.668 696.361L143.892 699.259L-236.302 597.386L-235.525 594.488Z" fill="#BAD266"/>
<ellipse cx="1928.75" cy="-14.453" rx="76.5" ry="140.5" transform="rotate(-41.8771 1928.75 -14.453)" fill="#F4F4F4"/>
<path d="M1992.63 -61.552C2018.35 -32.8591 2033.65 0.194027 2037.64 30.3858C2041.64 60.5863 2034.32 87.7579 2015.06 105.027C1995.79 122.295 1967.99 126.616 1938.4 119.36C1908.82 112.106 1877.63 93.3049 1851.91 64.612C1826.18 35.9192 1810.89 2.86606 1806.89 -27.3257C1802.9 -57.5262 1810.22 -84.6978 1829.48 -101.966C1848.74 -119.235 1876.55 -123.555 1906.14 -116.3C1935.71 -109.046 1966.91 -90.2448 1992.63 -61.552Z" stroke="white" stroke-width="3"/>
<g filter="url(#filter0_d_2_724)">
<path d="M1986.09 525.176L1986.08 525.179C1986.05 525.077 1986.04 524.97 1986.01 524.867C1982.25 510.756 1967.72 502.377 1953.57 506.15C1951.74 506.637 1950.03 507.3 1948.4 508.126C1940.03 497.161 1925.58 491.719 1911.4 495.501C1900.75 498.34 1892.56 505.777 1888.36 515.088C1883.68 514.088 1878.82 514.209 1874.18 515.441C1858.85 519.529 1849.36 534.53 1851.86 549.827C1835.4 555.157 1825.65 572.353 1829.95 589.309C1834.41 606.992 1852.42 617.682 1870.14 613.208C1871.52 612.858 1872.85 612.409 1874.13 611.894C1884.78 624.421 1902.1 630.451 1919.08 625.923C1929.33 623.19 1937.77 617.073 1943.51 609.093C1950.23 611.737 1957.83 612.369 1965.35 610.363C1980.79 606.247 1991.03 592.461 1991.32 577.27C1994.09 577.428 1996.93 577.175 1999.75 576.421C2013.95 572.636 2022.4 558.101 2018.63 543.946C2014.87 529.802 2000.29 521.39 1986.09 525.176Z" fill="#FACA4E"/>
</g>
<path d="M1068.52 333.216C1049.87 322.745 1029.15 313.157 1013 299" stroke="white" stroke-opacity="0.6" stroke-width="2" stroke-linecap="round"/>
<path d="M1070.41 366.101C1051.3 375.71 1031.77 387.527 1011 393" stroke="white" stroke-opacity="0.6" stroke-width="2" stroke-linecap="round"/>
<path d="M1062.75 347.146C1045.16 348.796 1026.56 352.009 1009 350" stroke="white" stroke-opacity="0.6" stroke-width="2" stroke-linecap="round"/>
<path d="M1713.48 329.216C1732.13 318.745 1752.85 309.157 1769 295" stroke="white" stroke-opacity="0.6" stroke-width="2" stroke-linecap="round"/>
<path d="M1710.59 362.101C1729.7 371.71 1749.23 383.527 1770 389" stroke="white" stroke-opacity="0.6" stroke-width="2" stroke-linecap="round"/>
<path d="M1719.25 343.146C1736.84 344.796 1755.44 348.009 1773 346" stroke="white" stroke-opacity="0.6" stroke-width="2" stroke-linecap="round"/>
<path d="M1064.18 171.69C1060.01 175.393 1059.53 180.658 1060.89 185.641C1052.4 179.413 1039.4 183.81 1038.55 195.188C1037.3 211.874 1059.24 210.547 1070.52 209.519C1071.22 210.249 1072.43 210.445 1073.08 209.347C1078.91 199.405 1092 181.317 1078.92 171.168C1074.4 167.675 1068.36 167.97 1064.18 171.69ZM1080.62 179.542C1081.25 181.914 1080.95 184.515 1080.44 186.839C1078.84 194.217 1073.91 200.891 1070.2 207.377C1070.2 207.396 1070.2 207.396 1070.19 207.414C1062.19 206.563 1048.04 208.975 1043.36 201.565C1040.31 196.732 1041.76 190.441 1046.5 187.32C1051.24 184.198 1056.64 185.617 1060.74 189.146C1061.49 189.791 1062.45 189.288 1062.83 188.546C1063.31 188.407 1063.72 188 1063.59 187.425C1062.91 184.729 1062.55 181.375 1063.28 178.678C1064.18 175.228 1068.66 171.408 1072.43 171.693C1076.16 171.983 1079.73 176.204 1080.62 179.542Z" fill="white" fill-opacity="0.5"/>
<path d="M1712.4 160.785C1716.33 162.955 1717.63 167.004 1717.44 171.156C1723.01 164.768 1733.99 165.928 1736.66 174.709C1740.58 187.586 1723.11 190.413 1714.08 191.595C1713.66 192.291 1712.74 192.659 1712.04 191.911C1705.71 185.136 1692.25 173.246 1700.73 162.974C1703.67 159.435 1708.46 158.601 1712.4 160.785ZM1700.87 169.846C1700.8 171.819 1701.49 173.808 1702.3 175.542C1704.85 181.052 1709.9 185.421 1713.95 189.858C1713.96 189.871 1713.96 189.871 1713.97 189.884C1720.1 187.806 1731.64 187.205 1734.01 180.563C1735.55 176.232 1733.3 171.55 1729.03 169.935C1724.76 168.32 1720.77 170.387 1718.17 173.879C1717.7 174.517 1716.86 174.292 1716.43 173.776C1716.03 173.753 1715.63 173.505 1715.64 173.031C1715.7 170.794 1715.38 168.1 1714.34 166.11C1713.02 163.561 1708.83 161.353 1705.92 162.241C1703.05 163.126 1700.99 167.068 1700.87 169.846Z" fill="white" fill-opacity="0.5"/>
<path d="M1779.85 455.42C1776.9 454.483 1773.62 456.724 1770.95 457.886C1767.53 459.388 1764.12 460.984 1760.99 463.014C1760.85 462.935 1760.68 462.935 1760.52 463.038C1754.18 467.398 1748.57 473.136 1743.07 478.469C1737.08 484.274 1731.24 490.254 1725.65 496.449C1725.65 496.458 1725.64 496.467 1725.64 496.476C1724.15 496.805 1723.06 497.836 1722.63 499.255C1720.62 499.89 1719.78 501.151 1719.67 502.626C1717.64 503.846 1715.01 506.634 1715.02 509.099C1715.03 511.25 1716.92 513.028 1718.31 514.464C1719.86 516.05 1721.77 518.167 1724.11 518.48C1726.8 518.848 1729.2 516.174 1731.15 514.72C1731.39 514.543 1731.46 514.31 1731.46 514.084C1732.87 513.974 1734.17 513.233 1735.16 511.497C1735.18 511.47 1735.18 511.447 1735.19 511.42C1736.74 511.185 1738.02 510.131 1738.61 507.671C1738.77 507.635 1738.93 507.564 1739.07 507.416C1749.55 496.074 1761.02 485.104 1770.52 472.919C1770.82 473.012 1771.17 472.941 1771.33 472.57C1773.83 466.981 1776.66 461.646 1780.09 456.561C1780.33 456.216 1780.35 455.576 1779.85 455.42ZM1726.94 497.57C1732.4 491.681 1737.95 485.876 1743.69 480.28C1748.92 475.199 1754.64 470.504 1759.71 465.263C1759.68 465.83 1759.83 466.416 1760.2 466.878C1760.54 467.319 1761.05 467.602 1761.59 467.734C1750.05 477.941 1739.63 489.72 1729.01 500.866C1728.89 500.995 1728.85 501.137 1728.84 501.277C1727.59 499.952 1726.4 498.443 1726.69 497.762C1726.78 497.705 1726.87 497.658 1726.94 497.57ZM1762.12 468.519C1762.14 468.954 1762.27 469.381 1762.52 469.747C1762.95 470.335 1763.62 470.664 1764.32 470.747C1752.46 480.639 1741.82 492.324 1731.33 503.607C1731.3 503.581 1731.27 503.555 1731.23 503.528C1730.94 503.29 1730.25 502.676 1729.5 501.933C1729.68 501.951 1729.88 501.897 1730.04 501.725C1740.63 490.635 1752.02 480.052 1762.12 468.519ZM1723.42 516.648C1722 516.354 1720.3 514.269 1719.33 513.267C1718.71 512.629 1718.04 511.956 1717.52 511.22C1716.36 509.571 1716.92 508.203 1717.84 506.574C1718.48 505.422 1719.19 504.685 1719.68 503.65C1719.94 505.85 1721.43 508.271 1722.89 509.696C1724.59 511.342 1727.13 513.295 1729.59 513.914C1727.84 515.282 1725.66 517.121 1723.42 516.648ZM1722.42 500.565C1722.37 503.325 1724.46 505.569 1726.34 507.347C1728.06 508.97 1730.86 510.885 1733.39 511.357C1729.49 515.964 1716.95 504.85 1722.42 500.565ZM1725.45 497.749C1725.41 499.957 1727.79 502.493 1729.24 503.878C1731.37 505.904 1734.06 507.427 1736.95 508.022C1733.8 515.049 1719.37 501.446 1725.45 497.749ZM1737.67 506.225C1737.57 506.336 1737.51 506.45 1737.47 506.565C1735.73 506.052 1734.13 505.446 1732.62 504.515C1743.26 493.098 1754.79 482.525 1765.42 471.125C1765.52 471.522 1765.74 471.879 1766.02 472.181C1766.64 472.828 1767.59 473.128 1768.54 473.128C1757.58 483.366 1747.83 495.221 1737.67 506.225ZM1770.24 471.558C1770.21 471.576 1770.18 471.586 1770.17 471.6C1770.17 471.6 1770.16 471.609 1770.15 471.605C1769.26 471.567 1768.37 471.954 1767.49 471.598C1767.07 471.422 1766.68 471.069 1766.6 470.595C1766.48 469.995 1767.03 469.58 1767.35 469.151C1767.69 468.685 1767.09 468.201 1766.68 468.577C1766.51 468.731 1766.32 468.88 1766.16 469.029C1766.1 469.021 1766.02 469.018 1765.96 469.033C1765.55 469.133 1765.23 469.385 1764.79 469.414C1764.37 469.437 1763.91 469.312 1763.63 468.978C1763.21 468.494 1763.28 467.913 1763.56 467.426C1763.76 467.286 1763.91 467.101 1764 466.872C1764.06 466.812 1764.13 466.756 1764.2 466.7C1764.51 466.466 1764.37 465.849 1763.92 465.932C1763.59 465.989 1763.32 466.14 1763.07 466.327C1762.87 466.409 1762.66 466.5 1762.41 466.519C1762 466.56 1761.56 466.435 1761.27 466.138C1760.59 465.465 1761 464.382 1761.67 463.891C1761.77 463.825 1761.81 463.724 1761.83 463.633C1764.45 462.503 1767.01 461.235 1769.61 460.06C1770.48 459.664 1771.74 458.96 1773.1 458.299C1773.46 459.5 1774.41 460.602 1775.61 461C1773.6 464.394 1771.79 467.902 1770.24 471.558Z" fill="white" fill-opacity="0.5"/>
<path d="M74.2296 64.1557C71.4618 11.317 126.257 -0.63089 154 0L-67.1419 -116.603L-232.252 196.534C-218.687 197.273 -184.51 194.518 -156.32 177.592C-121.084 156.433 -85.4772 178.136 -54.4151 181.586C27.3462 204.936 77.6893 130.204 74.2296 64.1557Z" fill="url(#paint1_linear_2_724)"/>
<path d="M62.4439 401.811C71.3483 403.273 80.6115 400.643 87.6519 395.166C87.5241 400.658 88.2684 415.187 96.2985 414.365C102.655 413.712 101.976 407.07 100.332 402.344C103.063 403.497 106.192 403.901 108.09 401.109C110.575 397.462 107.99 393.763 105.261 391.154C108.111 390.724 111.32 390.874 113.189 388.407C114.26 386.991 114.684 385.143 113.474 383.677C111.738 381.561 107.163 381.744 104.782 381.895C101.513 382.104 98.465 383.018 95.6413 384.547C104.746 364.336 74.2616 342.319 55.6914 349.937C53.1205 350.993 50.8735 352.514 48.9488 354.364C47.4686 346.147 43.5487 334.683 33.4063 335.4C26.4947 335.886 25.9712 342.398 28.6358 347.123C25.8281 346.34 22.8709 346.654 21.3428 349.679C19.6216 353.078 22.0197 356.654 24.9776 358.693C20.0485 359.205 16.7128 364.838 20.3595 369.435C24.5976 374.763 35.0425 372.884 41.0673 370.429C40.6469 373.257 40.6027 376.135 40.9503 378.914C42.459 390.771 50.5022 399.844 62.4439 401.811ZM106.888 383.775C107.986 383.801 109.072 383.934 110.151 384.166C111.747 387.655 110.762 389.206 107.224 388.807C105.693 389.051 104.377 389.093 102.865 389.599C102.217 389.812 101.731 390.759 102.373 391.301C103.224 391.979 104.036 392.707 104.804 393.471C107.947 396.224 107.963 398.222 104.858 399.456C102.17 401.451 101.352 400.751 98.7779 399.13C97.8546 398.554 96.8424 399.632 97.3034 400.544C98.5324 403 100.224 405.985 99.4245 408.855L98.1327 411.159C94.2964 412.536 92.0812 411.287 91.4777 407.427C90.0545 403.407 89.8218 399 89.8382 394.785C89.8433 394.309 89.5958 393.994 89.264 393.836C91.6065 391.758 93.6632 389.342 95.2981 386.64C95.3624 386.533 95.4023 386.432 95.4345 386.327C99.0371 384.611 102.818 383.586 106.888 383.775ZM94.0867 384.986C93.8189 385.033 93.5511 385.184 93.3596 385.485C86.464 396.086 73.4573 402.137 60.9031 399.146C60.2593 398.988 59.6369 398.811 59.0283 398.612C66.8111 397.266 74.7036 391.688 80.4358 386.57C85.6184 381.933 91.8566 375.506 92.644 368.225C95.3296 373.348 96.234 379.148 94.0867 384.986ZM91.7904 366.703C91.6833 366.794 91.6051 366.924 91.5805 367.086C90.4927 374.987 83.2535 381.884 77.2846 386.652C71.1702 391.541 64.4864 393.724 57.6759 397.226C57.3423 397.4 57.2211 397.671 57.2438 397.945C52.6689 396.016 49.1386 392.748 46.7334 388.751C46.816 388.77 46.8939 388.796 46.9903 388.791C58.2249 388.179 69.1382 381.368 76.1633 372.854C79.4943 368.821 82.508 363.982 83.8623 358.875C83.9344 358.616 83.9852 358.324 84.0207 358.023C87.0974 360.487 89.8005 363.435 91.7904 366.703ZM30.0411 370.678C28.2131 370.776 26.1618 370.812 24.4508 370.074C18.1252 367.352 20.4543 358.772 27.2755 359.908C27.3611 359.939 27.4421 359.977 27.5201 360.003C28.167 360.226 28.714 359.316 28.2188 358.841C25.9799 356.714 21.9356 355.063 22.6446 351.253C23.3258 347.593 26.9601 347.885 29.896 348.922C30.5484 349.689 31.2927 350.355 32.1167 350.871C32.6854 351.224 33.2841 350.626 33.1424 350.083C33.3506 349.875 33.4045 349.492 33.0866 349.259C32.6693 348.966 32.2198 348.675 31.7367 348.405C30.0453 346.441 28.9046 344.496 29.374 341.604C29.0918 339.269 30.2768 338.233 32.9443 338.505C34.4629 337.347 35.9315 337.19 37.3579 338.037C39.0507 338.597 40.5165 339.708 41.7329 340.991C45.4659 344.943 46.6506 350.38 47.8096 355.532C44.5953 359.094 42.4691 363.633 41.4364 368.414C37.6192 369.136 33.9711 370.46 30.0411 370.678ZM44.3955 366.124C47.8587 355.364 57.0329 349.973 67.0561 350.787C67.0131 350.928 67.0328 351.085 67.1597 351.203C68.5152 352.549 64.2514 359.258 63.4088 360.625C61.7954 363.256 59.9038 365.709 57.7662 367.931C53.6517 372.211 48.8032 374.717 43.8577 377.801C43.1047 378.274 43.5195 379.575 44.4482 379.311C51.5372 377.267 57.9694 371.279 62.2674 365.465C63.891 363.267 70.5681 353.981 68.1237 350.898C70.3506 351.176 72.6186 351.749 74.8571 352.647C77.4336 353.676 79.9806 355.083 82.3653 356.778C82.4704 358.714 78.3231 366.753 77.6797 367.719C75.3726 371.192 72.5411 374.308 69.3399 376.983C62.6665 382.576 55.1761 385.201 46.7872 386.931C46.3924 387.016 46.1734 387.311 46.1195 387.643C42.7437 381.315 42.0556 373.407 44.3955 366.124Z" fill="white" fill-opacity="0.5"/>
<path d="M995.689 498.359C983.974 502.949 976.211 489.384 979.352 479.399C979.519 478.858 980.374 478.985 980.239 479.565C978.813 485.346 979.634 491.942 984.789 495.646C987.013 497.24 989.766 498.089 992.511 497.82C997.206 497.368 1003.86 490.791 997.398 486.83C992.759 483.986 980.625 489.178 980.319 479.939C980.296 479.166 981.481 479.081 981.504 479.854C981.828 488.785 996.585 481.479 1000.52 487.97C1002.1 490.562 1001.37 493.33 999.655 495.437C1006.3 499.26 1012.91 503.556 1019.2 508.332C1019.36 508.319 1019.52 508.425 1019.54 508.593C1033.74 519.435 1046.26 532.752 1053.83 548.74C1054.18 548.99 1054.32 549.512 1053.84 549.801C1052.65 550.5 1052.05 550.273 1050.82 549.629C1047.76 548.028 1044.91 545.338 1042.19 543.228C1036.18 538.539 1030.36 533.594 1024.59 528.594C1014.44 519.797 1002.22 510.571 996.594 497.943C996.303 498.095 995.997 498.231 995.689 498.359ZM1036.26 536.631C1038.52 538.495 1040.81 540.343 1043.12 542.144C1044.46 543.189 1050.11 548.375 1052.45 548.719C1044.55 532.77 1032.51 520.92 1019.01 510.459C1017.96 513.078 1015.71 515.239 1013.28 516.547C1016.12 519.302 1019.08 521.977 1022.17 524.632C1026.84 528.676 1031.51 532.701 1036.26 536.631ZM1012.43 515.718C1012.44 515.703 1012.45 515.691 1012.47 515.686C1015.11 514.219 1016.7 512.239 1018.16 509.814C1011.97 505.072 1005.5 500.608 998.997 496.173C998.468 496.703 997.869 497.167 997.239 497.562C1001.74 504.344 1006.83 510.203 1012.43 515.718Z" fill="white" fill-opacity="0.5"/>
<defs>
<filter id="filter0_d_2_724" x="1800.93" y="461.304" width="246.593" height="189.119" filterUnits="userSpaceOnUse" color-interpolation-filters="sRGB">
<feFlood flood-opacity="0" result="BackgroundImageFix"/>
<feColorMatrix in="SourceAlpha" type="matrix" values="0 0 0 0 0 0 0 0 0 0 0 0 0 0 0 0 0 0 127 0" result="hardAlpha"/>
<feOffset dy="-5"/>
<feGaussianBlur stdDeviation="14"/>
<feComposite in2="hardAlpha" operator="out"/>
<feColorMatrix type="matrix" values="0 0 0 0 0.4836 0 0 0 0 0.5875 0 0 0 0 0.119948 0 0 0 0.4 0"/>
<feBlend mode="normal" in2="BackgroundImageFix" result="effect1_dropShadow_2_724"/>
<feBlend mode="normal" in="SourceGraphic" in2="effect1_dropShadow_2_724" result="shape"/>
</filter>
<linearGradient id="paint0_linear_2_724" x1="1697.25" y1="-35.9094" x2="1631.32" y2="776.196" gradientUnits="userSpaceOnUse">
<stop stop-color="#9BC40F"/>
<stop offset="0.481141" stop-color="#A4CC1A" stop-opacity="0.85"/>
<stop offset="0.75" stop-color="#BAD266" stop-opacity="0.97"/>
<stop offset="1" stop-color="#F1D985"/>
</linearGradient>
<linearGradient id="paint1_linear_2_724" x1="121.76" y1="53.0416" x2="-95.036" y2="-58.3478" gradientUnits="userSpaceOnUse">
<stop stop-color="#FABD20"/>
<stop offset="1" stop-color="#FFD363"/>
</linearGradient>
</defs>
</svg>
