<svg width="89" height="79" viewBox="0 0 89 79" fill="none" xmlns="http://www.w3.org/2000/svg">
<path d="M9.7682 8.22151L9.76861 8.22201C10.1624 8.70964 10.2162 9.28346 10.0403 9.91454C9.86244 10.5525 9.45486 11.2229 8.96639 11.8537C8.48018 12.4816 7.92619 13.0546 7.4719 13.4984C7.28614 13.6798 7.11815 13.8386 6.97794 13.9711C6.94672 14.0006 6.91687 14.0288 6.88852 14.0557C6.81251 14.1277 6.74615 14.1911 6.69352 14.2433C6.69064 14.2424 6.68776 14.2414 6.68489 14.2405C6.60756 14.2151 6.51246 14.1873 6.40494 14.1571C6.30538 14.1292 6.19225 14.0985 6.06918 14.065L6.03798 14.0565C5.90236 14.0197 5.75449 13.9794 5.59673 13.9352C4.9649 13.7585 4.1808 13.5217 3.42675 13.2068C2.66921 12.8905 1.96194 12.5034 1.47026 12.0348C0.984672 11.572 0.725033 11.0472 0.806271 10.4297C0.958343 9.27884 1.81636 8.72551 2.76884 8.59172C3.2466 8.52461 3.73612 8.5667 4.14682 8.69073C4.56344 8.81654 4.8669 9.01615 5.01519 9.23689L5.49767 9.95506L5.47643 9.10624C5.4708 8.88144 5.60727 8.58353 5.89686 8.28107C6.18013 7.98522 6.58205 7.71566 7.03648 7.54502C7.94272 7.20471 9.00319 7.26934 9.7682 8.22151Z" stroke="white" stroke-opacity="0.55" stroke-width="0.5"/>
<path d="M85.2581 12.439C84.7617 11.7272 83.9474 11.402 83.092 11.2005C84.6806 10.1008 84.9282 7.86536 83.6852 6.41621C82.0367 4.49575 79.1482 4.55684 76.9729 5.71693C77.1159 4.72991 76.5641 3.71475 75.4504 3.40825C74.251 3.07759 73.0657 3.7556 72.5651 4.74227C71.3407 3.75046 69.6196 2.74368 68.0704 3.80232C67.0108 4.52617 66.9522 5.81253 67.4486 6.82385C66.8368 6.82707 66.23 7.10733 65.9335 7.66207C65.5967 8.29276 65.8231 8.9905 66.328 9.42605C64.7732 10.0248 63.44 11.4497 64.2212 13.0578C65.1056 14.8779 67.4381 14.7071 69.2662 14.2931C68.8761 15.4492 69.3274 16.8074 70.5447 17.371C71.6829 17.8979 73.0363 17.5252 73.8615 16.6875C74.3097 18.2706 76.0547 19.4945 77.8967 19.1263C79.6919 18.7681 80.8202 17.0765 80.6777 15.4765C82.0749 16.1343 83.9064 15.9648 85.0217 14.8012C85.6839 14.1099 85.7972 13.2116 85.2581 12.439ZM84.2451 14.6282C83.1574 15.4782 81.4512 15.4226 80.4261 14.5742C80.1395 14.3373 79.7174 14.5835 79.8565 14.9297C80.4296 16.3486 79.4117 18.1823 77.7602 18.5101C76.0123 18.8569 74.355 17.384 74.4301 15.7998C74.4465 15.4379 73.9134 15.3591 73.7681 15.6886C73.3193 16.7069 71.9322 17.3081 70.8523 16.8003C69.7661 16.2907 69.4982 14.9253 70.1429 13.9948C70.2935 13.7758 70.0973 13.4348 69.797 13.5158C68.3248 13.912 66.3358 14.4297 65.1556 13.2318C64.5579 12.6257 64.5778 11.7378 65.0485 11.0481C65.5355 10.3329 66.3924 9.97728 67.2512 9.81454C67.5735 9.75297 67.6301 9.28304 67.2979 9.20543C66.7103 9.06536 66.2037 8.41783 66.5981 7.85413C66.9101 7.40981 67.5908 7.36007 68.0262 7.6177C68.3533 7.81068 68.7521 7.41014 68.4894 7.13239C67.7195 6.3191 67.4543 4.72057 68.78 4.17777C70.1906 3.60124 71.5223 4.73427 72.4443 5.54534C72.6837 5.75676 73.0136 5.62861 73.0771 5.33855C73.2735 4.42048 74.4101 3.73905 75.3705 4.09708C76.2588 4.427 76.6441 5.46414 76.3389 6.27737C76.2659 6.47323 76.5638 6.63822 76.6999 6.49016C76.769 6.50777 76.8478 6.49945 76.9318 6.44945C78.7437 5.36899 81.2181 5.04386 82.8452 6.52376C84.319 7.86616 84.055 10.3114 81.9641 11.0515C81.6968 11.1457 81.7129 11.5911 82.0005 11.6408C82.8242 11.7799 83.7639 11.9122 84.3898 12.4659C85.1384 13.1286 85.0336 14.0134 84.2451 14.6282Z" fill="white" fill-opacity="0.55"/>
<path d="M78.5749 11.4311C78.6115 11.2057 78.2763 11.0372 78.1047 11.2231C77.6033 11.7668 77.3135 12.3478 76.6461 12.7594C75.9786 13.1709 75.1919 13.382 74.4326 13.3354C73.0484 13.252 70.453 11.8537 71.0609 10.1588C71.116 10.0028 70.9306 9.89118 70.8009 9.99591C70.056 10.6012 70.4509 11.5382 70.8917 12.1328C71.5521 13.0244 72.55 13.6868 73.6787 13.925C74.6641 14.1328 75.7043 14.0007 76.6418 13.5272C77.45 13.1223 78.4301 12.3414 78.5749 11.4311Z" fill="white" fill-opacity="0.55"/>
<path d="M74.5056 9.71058C74.402 9.73509 74.2507 9.78137 74.1946 9.65831C74.1484 9.55592 74.2795 9.41627 74.3884 9.41213C74.5883 9.40499 74.5988 9.15891 74.4086 9.12712C74.0517 9.06632 73.7288 9.41525 73.8032 9.73806C73.8417 9.90539 73.9865 10.0347 74.1546 10.0917C74.3132 10.1458 74.5394 10.1434 74.6673 10.0215C74.7942 9.89935 74.7055 9.6626 74.5056 9.71058Z" fill="white" fill-opacity="0.55"/>
<path d="M72.5755 8.19751C72.6264 7.97605 72.6985 7.74941 72.7106 7.52169C72.733 7.07158 72.0267 6.94387 71.8694 7.3673C71.7889 7.58138 71.7671 7.81795 71.7266 8.04068C71.6867 8.26163 71.6294 8.48304 71.6314 8.70731C71.632 9.1231 72.2339 9.22974 72.3997 8.84861C72.488 8.64292 72.5253 8.41719 72.5755 8.19751Z" fill="white" fill-opacity="0.55"/>
<path d="M76.3592 9.96376C76.4558 9.49024 76.47 9.03379 76.6648 8.57922C76.7108 8.47331 76.6697 8.32275 76.5707 8.23649C76.4861 8.16167 76.4053 8.10524 76.2805 8.10888C76.102 8.1128 75.9331 8.17652 75.8812 8.33387C75.7203 8.81462 75.5986 9.41091 75.7966 9.91882C75.8814 10.1261 76.3065 10.2275 76.3592 9.96376Z" fill="white" fill-opacity="0.55"/>
<path d="M74.879 74.1381C74.5392 74.0374 74.1919 73.963 73.837 73.9103C75.0939 71.4407 75.1439 68.5132 73.6197 66.1323C73.5222 65.9813 73.3073 65.9549 73.1749 66.0772C72.3478 66.8372 71.8205 67.7076 71.5506 68.7554C68.2097 67.9737 64.7714 67.6476 61.333 67.8682C60.6384 67.9138 59.9462 67.9809 59.2565 68.0672C58.7593 68.1296 58.2645 68.2015 57.7697 68.2854C57.3899 68.3502 56.6278 68.6714 56.2979 68.5755C55.7907 68.4317 55.5908 67.873 55.2384 67.4966C54.7737 67.0003 54.2264 66.6215 53.6192 66.3002C53.2944 66.1275 53.0045 66.6023 53.3293 66.7773C54.3788 67.3455 55.0985 68.0768 55.6357 69.1126C55.6957 69.2301 55.8506 69.2709 55.9731 69.2445C61.1906 68.1344 66.4956 68.1296 71.6906 69.362C71.8355 69.3955 72.0179 69.3188 72.0504 69.1654C72.2453 68.2063 72.6476 67.4223 73.3173 66.7198C74.5817 68.9328 74.4118 71.6133 73.2099 73.8336C72.6601 73.7856 72.1079 73.7832 71.5681 73.8024C71.3582 73.8096 71.3557 74.1237 71.5681 74.1189C72.0579 74.1069 72.5377 74.1333 73.0124 74.1836C72.6726 74.7471 72.2678 75.253 71.813 75.7013C71.4457 75.603 71.0784 75.4927 70.7135 75.3561C70.5411 75.2913 70.4712 75.5527 70.6386 75.6198C70.9284 75.7373 71.2283 75.8524 71.5357 75.9627C71.1608 76.3007 70.7585 76.6052 70.3312 76.8738C70.1063 76.7803 69.8814 76.6868 69.6615 76.5908C69.4916 76.5165 69.3392 76.7563 69.5116 76.8354C69.674 76.9121 69.8365 76.9913 69.9989 77.0704C68.602 77.8688 66.9778 78.3219 65.3111 78.4226C63.3371 78.5425 61.2281 78.1925 59.3565 77.3941C59.5664 77.2574 59.7788 77.1231 59.9862 76.9817C60.1286 76.8858 60.0012 76.6628 59.8462 76.7539C59.5739 76.9145 59.304 77.0848 59.0366 77.2526C58.4544 76.9841 57.8972 76.6748 57.3799 76.3175C57.5823 76.2648 57.7847 76.2096 57.9846 76.1497C58.1445 76.1017 58.0771 75.8883 57.9172 75.9147C57.6298 75.9627 57.3449 76.0226 57.0601 76.0849C56.8477 75.9267 56.6403 75.7613 56.4429 75.5886C56.098 75.2817 55.7932 74.9557 55.5183 74.6152C56.2754 74.5912 57.0376 74.5385 57.7722 74.4474C57.9596 74.4234 57.9721 74.1596 57.7722 74.1572C56.9451 74.1501 56.0905 74.1908 55.2509 74.2675C53.7466 72.1768 53.3818 69.5538 53.3943 66.9955C53.3943 66.8492 53.1444 66.8085 53.1219 66.9595C52.7496 69.4579 53.2219 72.184 54.6487 74.3299C54.5413 74.3419 54.4338 74.3515 54.3289 74.3658C54.1589 74.3874 54.1465 74.6272 54.3289 74.6296C54.5013 74.632 54.6762 74.6296 54.8511 74.6272C55.201 75.1091 55.5983 75.5599 56.0505 75.9651C56.158 76.061 56.2704 76.1521 56.3804 76.2432C56.108 76.3103 55.8331 76.3775 55.5608 76.4446C55.3784 76.4878 55.4558 76.7539 55.6382 76.7131C55.9856 76.634 56.3354 76.5597 56.6827 76.483C57.2425 76.9097 57.8522 77.279 58.4944 77.5979C58.287 77.7321 58.0796 77.8664 57.8722 78.0007C57.7197 78.099 57.8597 78.3363 58.0171 78.2404C58.2795 78.0774 58.5419 77.9143 58.8017 77.7489C61.0032 78.7679 63.562 79.1755 65.9233 78.9309C67.6125 78.7583 69.2342 78.2284 70.6236 77.3653C70.9209 77.5044 71.2208 77.6362 71.5257 77.7441C71.6881 77.8017 71.783 77.5619 71.6406 77.4828C71.4207 77.3605 71.1933 77.2502 70.9634 77.1471C71.3907 76.8546 71.793 76.5285 72.1628 76.1689C72.7451 76.3463 73.3398 76.4782 73.9245 76.5117C74.0919 76.5213 74.1169 76.2792 73.962 76.2384C73.4597 76.0993 72.96 75.9866 72.4627 75.8644C72.9025 75.3944 73.2948 74.8741 73.6222 74.3011C73.6296 74.2867 73.6371 74.2723 73.6446 74.2579C74.022 74.3131 74.4018 74.3778 74.7841 74.4474C75.0015 74.4905 75.0914 74.2028 74.879 74.1381Z" fill="white" fill-opacity="0.55"/>
<path d="M65.8497 76.5124C65.6148 76.5124 65.4191 76.5882 65.1842 76.5101C64.9419 76.4298 64.756 76.2554 64.663 76.0328C64.9982 76.0282 65.2037 75.6954 65.194 75.404C65.1891 75.28 65.0936 75.2066 64.9689 75.1928C64.4624 75.1377 63.9559 75.0666 63.4494 75.0023C63.2659 74.9794 63.1167 75.1286 63.2072 75.2984C63.4029 75.6541 63.7186 75.9295 64.1003 76.0947C64.0562 76.2026 63.9779 76.299 63.8801 76.3724C63.7822 76.4459 63.6598 76.5055 63.5351 76.5262C63.4005 76.5491 63.2733 76.5101 63.1411 76.5606C63.0408 76.5996 62.9527 76.7167 63.0286 76.8199C63.2121 77.0655 63.5693 77.0196 63.8336 76.9186C64.1027 76.8153 64.3278 76.6157 64.455 76.3701C64.4673 76.3472 64.4771 76.3196 64.4868 76.2944C64.5945 76.5101 64.7878 76.6799 65.0227 76.7855C65.2992 76.9094 65.7127 76.976 65.9549 76.758C66.0528 76.6708 65.9794 76.5124 65.8497 76.5124ZM63.9951 75.622C63.9363 75.5692 63.8825 75.5141 63.8311 75.4567C64.11 75.4935 64.3865 75.5325 64.6655 75.5738C64.6141 75.6266 64.5456 75.6679 64.482 75.7138C64.4673 75.6954 64.4526 75.6748 64.4355 75.6587C64.3009 75.5348 64.1027 75.4843 63.9951 75.622Z" fill="white" fill-opacity="0.55"/>
<path d="M60.9928 71.8036C60.7009 70.8167 59.6024 70.8411 59.0618 71.3284C58.9191 71.4564 59.0488 71.7731 59.1959 71.6513C59.4726 71.4198 59.7905 71.3376 60.1062 71.432C60.4025 71.5234 60.5776 71.7853 60.8284 71.9833C60.9041 72.0412 61.0317 71.9407 60.9928 71.8036Z" fill="white" fill-opacity="0.55"/>
<path d="M68.9972 71.748C68.9114 71.2258 68.396 71 68.0291 71C67.61 71 67.2248 71.2527 67.0192 71.7278C66.9333 71.93 67.1572 72.0951 67.2561 71.9064C67.4383 71.5593 67.7662 71.4043 68.0837 71.4515C68.3908 71.4953 68.5496 71.7413 68.7786 71.967C68.8905 72.0748 69.0207 71.8963 68.9972 71.748Z" fill="white" fill-opacity="0.55"/>
</svg>
