<svg width="265" height="271" viewBox="0 0 265 271" fill="none" xmlns="http://www.w3.org/2000/svg">
<path d="M232.83 201.663C230.295 200.7 228.937 199.036 227.584 196.749C226.884 195.561 226.072 194.609 224.744 194.146C222.195 193.259 219.848 194.675 218.964 196.998C218.885 197.035 218.818 197.094 218.767 197.169C216.865 190.851 210.687 186.532 204.235 186.357C204.009 186.349 203.842 186.465 203.735 186.616C200.993 186.862 198.31 187.775 196.019 189.282C196.495 187.217 195.94 184.758 193.755 183.97C189.356 182.385 186.217 189.299 181.803 184.986C181.397 184.589 180.883 185.138 181.01 185.58C182.78 191.745 188.902 192.839 194.061 190.808C192.835 191.938 191.787 193.271 191.005 194.807C187.946 200.778 189.612 207.582 194.702 211.779C196.707 213.433 199.066 214.591 201.533 215.185C197.876 221.068 194.26 226.937 190.509 232.714C188.089 230.832 186.947 228.596 186.262 225.784C187.83 225.514 189.413 224.415 189.698 222.826C189.769 222.428 189.223 222.177 188.983 222.505C188.183 223.579 187.471 224.545 186.212 224.827C186.2 224.717 186.134 224.617 186.012 224.598C185.98 224.425 185.942 224.253 185.913 224.07C185.904 223.234 185.863 222.36 185.621 221.619C185.518 221.31 185.019 221.365 184.986 221.689C184.923 222.333 185.014 223.039 185.15 223.726C185.078 223.785 185.024 223.875 185.01 224.002C185.006 224.044 185.006 224.09 185.002 224.137C184.249 223.513 183.941 222.38 184.361 221.437C184.512 221.095 184.006 220.755 183.794 221.085C182.928 222.44 183.648 224.226 184.976 224.865C184.977 224.87 184.977 224.875 184.978 224.879C183.428 224.65 182.213 223.333 181.887 221.783C181.801 221.374 181.178 221.429 181.238 221.854C181.532 223.858 183.017 225.546 185.044 225.811C185.431 228.874 187.543 231.799 190.067 233.418C186.298 239.151 182.414 244.808 178.227 250.289C177.962 250.634 178.152 251.157 178.587 251.23C183.585 252.08 188.579 252.936 193.573 253.791C192.721 256.074 192.018 258.411 191.239 260.719C191.128 261.047 191.012 261.874 190.767 262.11C190.228 262.638 189.588 262.286 189.005 262.127C188.144 261.896 187.283 261.665 186.423 261.439C186.418 261.193 186.245 260.951 185.931 260.981C185.625 260.996 185.327 261.038 185.032 261.108C184.375 261.231 184.381 262.086 185.006 262.259C186.584 262.699 188.25 263.316 189.869 263.547C190.657 263.661 191.097 263.612 191.59 262.954C192.326 261.962 192.533 259.791 192.871 258.648C193.329 257.086 193.814 255.527 194.21 253.949C194.217 253.93 194.21 253.912 194.213 253.893C198.898 254.694 203.583 255.5 208.263 256.301C208.233 256.323 208.204 256.354 208.191 256.397C207.03 259.621 206.856 263.387 206.29 266.764C206.223 267.162 206.556 267.432 206.914 267.43C208.363 267.411 209.876 267.389 211.209 266.773C211.654 266.566 211.466 265.977 211.01 265.967C209.847 265.951 208.689 266.157 207.519 266.248C207.999 263.057 208.812 259.672 208.672 256.475C208.672 256.433 208.655 256.398 208.633 256.367C212.696 257.065 216.763 257.762 220.825 258.459C221.284 258.539 221.618 258.07 221.466 257.649C219.07 250.888 216.901 244.055 214.958 237.155C217.22 237.93 219.212 235.498 220.495 233.888C221.448 232.695 222.399 231.28 223.112 229.784C223.232 229.831 223.357 229.878 223.484 229.91C225.311 230.407 227.6 229.211 227.904 227.253C227.976 226.781 227.348 226.626 227.139 227.021C226.442 228.33 225.272 229.421 223.682 229.037C223.607 229.018 223.543 228.983 223.472 228.963C223.862 228 224.139 227.007 224.242 226.024C224.291 225.549 223.621 225.306 223.425 225.779C223.069 226.632 222.767 227.483 222.451 228.327C221.75 227.623 221.421 226.552 221.553 225.538C221.605 225.137 221.051 225.063 220.954 225.441C220.598 226.796 221.108 228.26 222.125 229.162C221.8 229.96 221.441 230.748 220.974 231.515C219.783 233.464 217.52 236.939 214.935 236.484C214.874 236.472 214.825 236.487 214.777 236.506C212.788 229.397 211.04 222.225 209.538 214.989C210.512 214.696 211.47 214.307 212.387 213.793C217.747 210.791 220.303 204.425 219.084 198.427C221.493 203.174 229.147 207.763 233.031 202.45C233.206 202.203 233.151 201.786 232.83 201.663ZM187.313 190.666C185.207 190.135 183.595 188.713 182.625 186.862C184.024 187.606 185.615 187.71 187.222 187.082C188.552 186.564 189.692 185.649 191.016 185.122C194.251 183.842 195.7 186.588 195.415 189.26C192.727 189.997 190.194 191.391 187.313 190.666ZM220.03 257.114C206.591 254.83 193.151 252.545 179.719 250.241C188.059 239.301 196.122 227.714 202.248 215.339C204.274 215.73 206.363 215.724 208.387 215.292C211.341 229.477 215.222 243.449 220.03 257.114ZM209.206 213.933C208.876 213.597 208.21 213.726 208.181 214.218C206.999 214.492 205.749 214.606 204.46 214.538C197.193 214.142 189.89 208.017 190.561 200.207C191.194 192.848 197.167 188.612 203.746 187.341C203.818 187.412 203.916 187.466 204.054 187.474C210.935 187.908 217.344 192.616 218.165 199.88C218.897 206.383 214.951 212.093 209.206 213.933ZM219.634 197.246C219.628 197.228 219.617 197.22 219.607 197.207C220.672 194.988 223.436 193.857 225.577 195.668C226.641 196.569 227.039 198.022 227.828 199.144C228.845 200.585 230.209 201.63 231.784 202.336C228.002 206.415 221.25 201.252 219.634 197.246Z" fill="white" fill-opacity="0.55"/>
<path d="M209.875 208.571C205.122 210.764 200.057 210.372 196.468 206.067C196.263 205.82 195.891 206.097 196.075 206.365C199.052 210.733 205.918 212.631 210.257 209.275C210.607 209.006 210.29 208.381 209.875 208.571Z" fill="white" fill-opacity="0.55"/>
<path d="M198.723 196.864C197.895 196.734 196.896 197.326 197.147 198.203C197.223 198.46 197.672 198.35 197.626 198.089C197.52 197.479 198.451 197.291 198.873 197.563C199.559 197.999 199.418 198.911 199.698 199.547C199.797 199.773 200.136 199.728 200.188 199.493C200.399 198.549 199.832 197.037 198.723 196.864Z" fill="white" fill-opacity="0.55"/>
<path d="M213.05 201.362C212.799 200.691 212.315 200.1 211.651 199.873C210.491 199.477 209.046 200.414 209.195 201.772C209.233 202.125 209.726 202.067 209.713 201.715C209.668 200.686 210.953 200.214 211.686 200.728C212.122 201.034 212.368 201.544 212.464 202.075C212.543 202.523 212.393 203 212.57 203.419C212.633 203.569 212.847 203.671 212.977 203.544C213.484 203.041 213.284 201.989 213.05 201.362Z" fill="white" fill-opacity="0.55"/>
<path d="M50.1101 28.0546C55.604 21.8926 50.5397 13.4243 43.8122 10.5144C40.1234 8.91916 35.6345 8.3464 31.8471 9.97241C28.5642 11.3832 26.2193 14.3738 25.9867 17.8526C23.626 15.5539 19.8662 14.739 16.8277 16.315C13.7694 17.9064 12.3309 21.3814 12.922 24.6065C6.56114 24.7603 0.397287 28.7926 0.0150018 35.435C-0.308167 41.0088 4.63789 45.76 10.2145 44.9489C6.96313 49.95 9.61154 56.7846 15.602 58.549C22.2191 60.4941 28.1859 55.8851 29.6086 49.7655C32.8718 52.9329 38.3538 51.4338 39.4258 47.0747C44.0251 51.9834 52.3329 51.2685 56.1242 45.5755C60.4318 39.0984 56.8572 31.076 50.1101 28.0546ZM55.5488 44.5761C52.1476 50.3075 43.6349 51.1801 39.5322 45.6485C39.2366 45.2526 38.61 45.3833 38.5785 45.8984C38.3223 50.4997 32.5013 52.2026 29.7426 48.4008C29.4312 47.9742 28.8558 48.1625 28.7888 48.6507C27.9888 54.4667 22.5974 59.164 16.4335 57.7302C10.4352 56.3349 7.59764 49.1965 11.8028 44.5107C12.1181 44.1571 11.8225 43.519 11.3062 43.6766C5.3197 45.5332 0.148999 40.0786 1.1658 34.3664C2.19442 28.5889 7.92869 25.5098 13.5566 25.6021C13.8916 25.6059 14.132 25.2792 14.0492 24.9717C12.1772 18.0256 21.0131 13.5435 25.9 18.8213C26.0301 18.9597 26.1877 18.9597 26.3099 18.8866C26.6055 18.9751 26.9878 18.8251 26.9878 18.433C26.9641 9.80712 37.7036 8.70774 43.8911 11.6407C49.9209 14.5006 54.5005 22.3501 48.8844 27.8777C48.5928 28.166 48.7622 28.5774 49.1091 28.7119C55.5133 31.1567 59.1667 38.4756 55.5488 44.5761Z" fill="white" fill-opacity="0.55"/>
<path d="M166.457 187.56L166.457 187.559C165.105 185.637 163.539 184.635 161.972 184.25C160.398 183.863 158.777 184.087 157.307 184.699C155.835 185.312 154.536 186.305 153.622 187.418C152.7 188.54 152.21 189.733 152.253 190.744L151.323 191.02C150.752 190.058 149.666 189.254 148.292 188.746C146.923 188.24 145.313 188.046 143.756 188.265C142.201 188.484 140.718 189.111 139.574 190.228C138.435 191.34 137.601 192.967 137.388 195.249L166.457 187.56ZM166.457 187.56C167.873 189.562 168.084 191.875 167.549 194.296C167.012 196.727 165.727 199.232 164.202 201.55C162.681 203.864 160.939 205.964 159.513 207.582C158.93 208.244 158.402 208.824 157.963 209.305C157.866 209.413 157.772 209.515 157.684 209.612C157.442 209.879 157.233 210.11 157.07 210.299C157.037 210.337 157.006 210.374 156.975 210.41M166.457 187.56L156.975 210.41M156.975 210.41C156.918 210.385 156.86 210.361 156.8 210.338C156.557 210.241 156.255 210.132 155.909 210.013C155.589 209.902 155.225 209.781 154.828 209.647L154.728 209.614C154.29 209.467 153.812 209.307 153.302 209.131C151.26 208.428 148.713 207.488 146.253 206.255C143.789 205.02 141.442 203.507 139.777 201.674C138.121 199.85 137.157 197.732 137.388 195.249L156.975 210.41Z" stroke="white" stroke-opacity="0.55"/>
<path d="M262.042 44.7064C260.072 41.9671 256.741 40.7751 253.476 41.1093C253.643 39.7957 253.705 38.4698 253.647 37.1463C253.454 32.4885 251.541 26.3958 248.322 21.4976C250.843 18.7564 254.208 17.3276 257.946 17.1741C258.5 17.1527 258.589 16.3021 258.006 16.2842C254.088 16.1436 250.424 17.9408 247.924 20.9122C244.689 16.2471 240.239 12.8093 234.94 13.0176C235.604 8.84823 237.966 5.64951 241.905 3.8388C242.53 3.55085 242.056 2.67844 241.442 2.89788C237.268 4.37355 234.233 8.64449 234.072 13.087C233.923 13.1036 233.775 13.1097 233.621 13.1366C233.275 13.1878 233.116 13.4432 233.108 13.714C228.397 13.2382 223.545 14.0724 219.207 16.0266C219.203 16.0104 219.209 16.0001 219.205 15.9839C218.246 13.0996 218.049 10.2239 218.446 7.20718C218.53 6.58498 217.611 6.54991 217.498 7.14352C216.927 10.2337 217.303 13.3343 218.407 16.2602C218.425 16.304 218.449 16.3375 218.479 16.3661C214.702 18.2036 211.356 20.9107 208.902 24.3853C207.697 26.0974 206.738 27.9858 206.037 29.9658C203.452 29.0315 201.478 27.0528 200.34 24.4065C200.172 24.0122 199.483 24.2373 199.623 24.6564C200.563 27.5926 202.941 29.8166 205.81 30.6848C203.909 36.644 204.273 43.383 207.162 48.8975C203.423 50.0087 199.992 49.8263 196.273 48.3636C195.853 48.197 195.497 48.8702 195.909 49.0946C199.432 51.0337 203.839 51.1805 207.495 49.4998C207.839 50.1028 208.205 50.6914 208.609 51.2559C211.27 54.9886 215.212 57.7486 219.635 59.4607C216.718 63.2394 212.933 65.6616 208.293 66.9517C207.847 67.0761 207.977 67.7392 208.434 67.6635C213.288 66.8879 217.675 63.8783 220.364 59.7437C224.045 61.0602 228.022 61.6517 231.851 61.4724C232.189 64.3629 231.714 67.1137 230.421 69.7617C230.225 70.1582 230.907 70.5126 231.113 70.1114C232.526 67.4076 233.016 64.4237 232.511 61.4369C234.574 61.2934 236.584 60.9175 238.473 60.3047C241.524 59.3177 244.213 57.62 246.443 55.4446C249.139 57.8814 250.523 61.3316 250.393 64.9941C250.372 65.546 251.205 65.6072 251.242 65.0511C251.513 61.1001 249.927 57.4341 246.998 54.8646C250.356 51.3443 252.599 46.7222 253.363 41.852C256.53 41.5644 259.298 42.9154 261.427 45.2344C261.796 45.6263 262.346 45.1205 262.042 44.7064ZM239.353 58.5707C233.76 60.7971 226.88 60.628 220.865 58.4738C220.787 58.3781 220.664 58.3326 220.541 58.3563C216.812 56.9674 213.43 54.8091 210.919 51.9749C205.938 46.3466 204.825 38.0675 207.121 30.9857C207.314 31.0146 207.507 31.0435 207.706 31.0569C208.115 31.0896 208.139 30.49 207.749 30.4265C207.613 30.4015 207.484 30.3715 207.349 30.3465C207.822 29.0162 208.409 27.7307 209.127 26.5233C214.479 17.5236 225.209 13.8329 235.14 14.7336C235.402 14.7565 235.521 14.5517 235.503 14.3536C244.808 14.4726 251.262 27.4997 252.176 35.4514C253.253 44.8135 248.289 55.0151 239.353 58.5707Z" fill="white" fill-opacity="0.55"/>
<path d="M222.641 26.7558C222.664 26.7307 222.694 26.7058 222.717 26.6807C223.029 26.3803 222.615 25.9135 222.267 26.1793C221.931 26.4351 221.59 26.7656 221.324 27.1279C221.043 27.3715 220.867 27.7023 220.881 28.062C220.794 28.4578 220.838 28.873 221.102 29.2816C221.689 30.2097 223.126 30.5097 223.647 29.3774C224.061 28.4574 223.831 26.9589 222.641 26.7558ZM222.556 29.0846C222.3 29.212 222.058 28.9709 221.911 28.704C222.022 28.5937 222.082 28.4425 222.028 28.2728C221.937 27.9776 222.331 27.7684 222.566 27.9502C222.801 28.132 222.823 28.9527 222.556 29.0846Z" fill="white" fill-opacity="0.55"/>
<path d="M239.88 28.6311C239.829 28.0159 239.372 27.5263 238.845 27.3278C238.786 27.2066 238.68 27.1128 238.523 27.1022C237.247 27.0319 236.324 28.7035 237.29 29.6607C238.185 30.5467 240.001 30.021 239.88 28.6311Z" fill="white" fill-opacity="0.55"/>
<path d="M243.926 38.3504C240.543 44.0767 235.863 48.5989 228.983 48.7932C222.502 48.9763 216.524 45.0291 213.463 39.2445C213.239 38.8229 212.61 39.1439 212.811 39.5803C215.791 46.0264 222.311 50.3353 229.304 50.0238C235.655 49.7452 242.787 45.3225 244.863 38.8362C245.054 38.2581 244.251 37.8029 243.926 38.3504Z" fill="white" fill-opacity="0.55"/>
<mask id="path-11-inside-1_39_609" fill="white">
<path d="M249.285 182.898C250.559 178.537 245.263 176.94 243.607 178.356C244.439 176.166 241.39 171.783 237.659 174.175C233.504 176.843 237.724 185.2 237.798 186.1C238.607 186.019 247.932 187.573 249.285 182.898Z"/>
</mask>
<path d="M243.607 178.356L242.673 178.001L244.257 179.116L243.607 178.356ZM237.659 174.175L237.119 173.333L237.119 173.333L237.659 174.175ZM237.798 186.1L236.801 186.182L236.885 187.196L237.897 187.095L237.798 186.1ZM250.245 183.178C250.624 181.88 250.531 180.712 250.076 179.729C249.627 178.76 248.864 178.053 248.033 177.588C247.205 177.125 246.269 176.878 245.399 176.855C244.551 176.833 243.629 177.022 242.957 177.596L244.257 179.116C244.414 178.982 244.774 178.84 245.346 178.855C245.894 178.869 246.513 179.029 247.057 179.333C247.597 179.636 248.023 180.057 248.261 180.57C248.492 181.068 248.583 181.734 248.326 182.617L250.245 183.178ZM244.542 178.711C244.857 177.881 244.776 176.947 244.502 176.126C244.224 175.291 243.716 174.472 243.034 173.823C242.349 173.171 241.457 172.662 240.414 172.52C239.358 172.376 238.231 172.62 237.119 173.333L238.199 175.017C238.953 174.533 239.606 174.428 240.144 174.502C240.697 174.577 241.215 174.853 241.655 175.271C242.097 175.692 242.429 176.23 242.605 176.759C242.785 177.3 242.773 177.736 242.673 178.001L244.542 178.711ZM237.119 173.333C235.779 174.193 235.149 175.506 234.93 176.879C234.714 178.227 234.881 179.689 235.165 181.01C235.451 182.343 235.873 183.604 236.219 184.569C236.306 184.811 236.388 185.036 236.463 185.239C236.538 185.443 236.603 185.62 236.658 185.775C236.714 185.931 236.755 186.051 236.782 186.139C236.816 186.249 236.806 186.243 236.801 186.182L238.794 186.018C238.78 185.844 238.729 185.667 238.695 185.555C238.654 185.42 238.6 185.265 238.542 185.102C238.483 184.937 238.414 184.749 238.34 184.549C238.266 184.347 238.186 184.128 238.102 183.895C237.766 182.957 237.378 181.793 237.12 180.59C236.859 179.376 236.745 178.192 236.905 177.195C237.06 176.223 237.461 175.49 238.199 175.016L237.119 173.333ZM237.897 187.095C237.862 187.098 237.875 187.094 237.994 187.101C238.093 187.106 238.224 187.115 238.392 187.128C238.721 187.153 239.168 187.19 239.683 187.221C240.713 187.284 242.049 187.327 243.416 187.219C244.772 187.111 246.228 186.85 247.463 186.262C248.718 185.664 249.806 184.694 250.246 183.176L248.325 182.619C248.088 183.439 247.503 184.028 246.603 184.456C245.684 184.894 244.504 185.126 243.259 185.225C242.024 185.323 240.793 185.285 239.805 185.225C239.31 185.195 238.886 185.16 238.545 185.134C238.377 185.121 238.224 185.11 238.097 185.103C237.99 185.098 237.835 185.091 237.699 185.105L237.897 187.095Z" fill="white" fill-opacity="0.55" mask="url(#path-11-inside-1_39_609)"/>
</svg>
