<svg width="86" height="81" viewBox="0 0 86 81" fill="none" xmlns="http://www.w3.org/2000/svg">
<path d="M74.6338 64.915C74.03 64.7241 73.6925 64.3662 73.3486 63.8693C73.1707 63.6113 72.9696 63.4068 72.6538 63.3159C72.0474 63.1421 71.5162 63.479 71.3379 64.0048C71.3199 64.0136 71.305 64.0273 71.2939 64.0445C70.7731 62.6551 69.2776 61.7505 67.7679 61.7715C67.7151 61.7718 67.6776 61.7992 67.6543 61.8339C67.0167 61.9139 66.401 62.1421 65.8839 62.499C65.9701 62.0346 65.8107 61.4922 65.2907 61.3371C64.2438 61.0247 63.594 62.5936 62.5107 61.674C62.4109 61.5894 62.2976 61.7164 62.3325 61.8136C62.8206 63.1702 64.2642 63.3572 65.4448 62.857C65.1721 63.1199 64.9435 63.4265 64.7794 63.7759C64.1369 65.1339 64.6085 66.6338 65.8484 67.5213C66.3367 67.8709 66.9019 68.1071 67.4854 68.2165C66.7023 69.5605 65.9283 70.9011 65.1219 72.2224C64.5337 71.8257 64.24 71.3382 64.0459 70.7184C64.4091 70.6438 64.7656 70.3843 64.8129 70.0279C64.8247 69.9385 64.6939 69.8876 64.642 69.963C64.4679 70.2095 64.3134 70.4312 64.0226 70.5058C64.0185 70.4813 64.0018 70.4598 63.9732 70.4566C63.9635 70.4184 63.9527 70.3803 63.9436 70.3399C63.9314 70.1538 63.9112 69.9595 63.8457 69.7968C63.8179 69.7289 63.702 69.7457 63.6982 69.8183C63.6913 69.9622 63.7212 70.1186 63.7611 70.2704C63.7451 70.2842 63.7335 70.3046 63.7318 70.3331C63.7313 70.3425 63.732 70.3529 63.7316 70.3633C63.5482 70.2314 63.4625 69.9819 63.5492 69.7679C63.5802 69.6904 63.458 69.6194 63.4125 69.6949C63.2266 70.0047 63.4163 70.3956 63.7344 70.5257C63.7346 70.5267 63.7348 70.5278 63.7349 70.5288C63.3701 70.492 63.0704 70.21 62.9754 69.8679C62.9503 69.7777 62.8054 69.7956 62.8247 69.8898C62.9175 70.3334 63.2848 70.6954 63.7615 70.7357C63.889 71.4143 64.4179 72.046 65.0272 72.3833C64.2159 73.6948 63.377 74.9906 62.465 76.25C62.4073 76.3294 62.4581 76.4441 62.5607 76.4563C63.7386 76.5993 64.9156 76.7436 66.0926 76.8878C65.9214 77.4041 65.7854 77.931 65.6311 78.4522C65.6092 78.5264 65.5921 78.7115 65.5377 78.7663C65.4182 78.8891 65.2644 78.8164 65.1264 78.7864C64.9224 78.743 64.7185 78.6995 64.5147 78.6571C64.5107 78.6024 64.4673 78.5503 64.3944 78.5598C64.3231 78.566 64.2539 78.5781 64.1857 78.5964C64.0337 78.6299 64.0456 78.8202 64.1937 78.853C64.5676 78.9364 64.9643 79.0583 65.3453 79.0948C65.5309 79.1127 65.6331 79.0979 65.7402 78.9467C65.9001 78.7189 65.9222 78.2336 65.9874 77.9758C66.0754 77.6239 66.17 77.272 66.2434 76.917C66.2448 76.9126 66.2431 76.9087 66.2434 76.9045C67.3476 77.0395 68.452 77.1754 69.5551 77.3106C69.5484 77.3157 69.5421 77.3229 69.5394 77.3327C69.3071 78.0614 69.312 78.9017 69.2206 79.659C69.2099 79.7482 69.2909 79.8053 69.3745 79.8015C69.7128 79.7837 70.066 79.7648 70.37 79.6152C70.4716 79.565 70.4204 79.4357 70.3138 79.4377C70.0418 79.4448 69.7738 79.5015 69.5015 79.5326C69.5752 78.8176 69.7242 78.0561 69.6528 77.3454C69.6523 77.3361 69.6478 77.3284 69.6423 77.3219C70.5999 77.4395 71.5585 77.557 72.5161 77.6747C72.6242 77.6882 72.6966 77.5806 72.6561 77.4884C72.0145 76.0049 71.425 74.5033 70.8877 72.9848C71.4255 73.1363 71.8615 72.5762 72.1418 72.2058C72.35 71.9314 72.5551 71.6073 72.7035 71.2675C72.7321 71.2769 72.7618 71.2862 72.792 71.2922C73.2249 71.3859 73.7451 71.0985 73.7924 70.6596C73.8035 70.5537 73.655 70.5251 73.6109 70.615C73.464 70.9129 73.2037 71.1667 72.8277 71.0961C72.8098 71.0924 72.7945 71.0852 72.7777 71.0814C72.8572 70.8633 72.9098 70.6396 72.922 70.4197C72.9277 70.3135 72.7683 70.2657 72.7282 70.3727C72.6553 70.566 72.5952 70.7583 72.5316 70.9491C72.3591 70.7989 72.2693 70.5636 72.2879 70.3365C72.2953 70.2467 72.1648 70.2354 72.1469 70.3205C72.08 70.6255 72.2169 70.9468 72.4655 71.1382C72.3991 71.319 72.3248 71.4978 72.225 71.673C71.9703 72.118 71.4835 72.9129 70.8741 72.8354C70.8597 72.8334 70.8485 72.8371 70.8374 72.8418C70.2868 71.2772 69.7918 69.6962 69.3533 68.0986C69.5772 68.0243 69.7964 67.9289 70.0044 67.8058C71.2203 67.0876 71.7406 65.6461 71.3832 64.3217C72.0034 65.3565 73.8471 66.3076 74.6904 65.0884C74.7283 65.0318 74.7104 64.9394 74.6338 64.915ZM63.8667 62.8879C63.3681 62.7892 62.9743 62.4874 62.7253 62.0842C63.0613 62.2368 63.4343 62.2453 63.8022 62.0906C64.1066 61.963 64.3617 61.7485 64.6647 61.6189C65.4049 61.3038 65.7768 61.902 65.7426 62.4997C65.1235 62.6887 64.5485 63.0226 63.8667 62.8879ZM72.314 77.3826C69.1465 76.9984 65.9791 76.6142 62.813 76.2256C64.6293 73.712 66.3728 71.0567 67.6543 68.2441C68.1325 68.3124 68.6204 68.2916 69.088 68.1768C69.9498 71.3084 71.0256 74.3839 72.314 77.3826ZM69.263 67.8665C69.1817 67.7948 69.0278 67.8297 69.027 67.9394C68.7541 68.0113 68.4634 68.0483 68.1615 68.0452C66.459 68.0243 64.6785 66.728 64.7409 64.9826C64.7998 63.3378 66.144 62.3391 67.6656 61.995C67.6833 62.0102 67.7068 62.0214 67.7393 62.0219C69.3521 62.0548 70.9063 63.0438 71.186 64.654C71.4358 66.0953 70.5829 67.4035 69.263 67.8665ZM71.4974 64.0536C71.4957 64.0497 71.4932 64.0479 71.4906 64.0452C71.7126 63.5413 72.3447 63.2638 72.8668 63.6471C73.1262 63.8379 73.2368 64.1579 73.4348 64.4004C73.6898 64.7119 74.0211 64.932 74.3975 65.0746C73.5634 66.018 71.9233 64.9309 71.4974 64.0536Z" fill="white" fill-opacity="0.55"/>
<path d="M68.9885 66.2964C67.9818 66.7057 66.8935 66.6883 66.0998 66.0067C66.0544 65.9676 65.9761 66.0171 66.0171 66.06C66.6801 66.7577 68.1629 67.0085 69.0743 66.4099C69.1478 66.3618 69.0763 66.2609 68.9885 66.2964Z" fill="white" fill-opacity="0.55"/>
<path d="M66.5562 63.3225C66.4243 63.3081 66.2715 63.4018 66.3185 63.5304C66.3326 63.5681 66.4026 63.5491 66.3931 63.5107C66.3713 63.4208 66.5169 63.3874 66.5858 63.4253C66.6977 63.486 66.6831 63.622 66.7327 63.7147C66.7501 63.7478 66.8034 63.739 66.8096 63.7039C66.835 63.5627 66.7328 63.3416 66.5562 63.3225Z" fill="white" fill-opacity="0.55"/>
<path d="M70.2259 64.5544C70.1579 64.4074 70.0358 64.2801 69.8757 64.2355C69.5958 64.1575 69.265 64.3789 69.3174 64.6796C69.331 64.758 69.447 64.7406 69.4395 64.6624C69.4158 64.4339 69.7144 64.3174 69.8947 64.4255C70.0017 64.4897 70.0665 64.601 70.096 64.7183C70.1203 64.8172 70.0906 64.9248 70.1378 65.0165C70.1546 65.0492 70.2067 65.07 70.2359 65.0408C70.3498 64.9243 70.2892 64.692 70.2259 64.5544Z" fill="white" fill-opacity="0.55"/>
<path d="M15.9434 6.31241C17.6281 4.55815 16.0751 2.14727 14.0122 1.31884C12.881 0.86468 11.5045 0.70162 10.3431 1.16454C9.33637 1.56617 8.61729 2.41758 8.54599 3.40798C7.82207 2.75355 6.66913 2.52154 5.73735 2.97023C4.79953 3.4233 4.35842 4.4126 4.5397 5.33077C2.58912 5.37455 0.698977 6.52253 0.581749 8.41359C0.482649 10.0004 1.99936 11.353 3.70943 11.1221C2.71239 12.5459 3.52453 14.4917 5.3615 14.994C7.39063 15.5477 9.22035 14.2356 9.65663 12.4934C10.6573 13.3951 12.3384 12.9683 12.6671 11.7273C14.0774 13.1248 16.625 12.9213 17.7876 11.3005C19.1086 9.45652 18.0124 7.17258 15.9434 6.31241ZM17.6112 11.016C16.5682 12.6477 13.9578 12.8961 12.6997 11.3213C12.6091 11.2086 12.4169 11.2458 12.4073 11.3924C12.3287 12.7024 10.5437 13.1872 9.69772 12.1049C9.60224 11.9834 9.4258 12.037 9.40525 12.176C9.15992 13.8318 7.50665 15.1691 5.6165 14.7609C3.77711 14.3636 2.90697 12.3314 4.19647 10.9974C4.29316 10.8967 4.20252 10.715 4.0442 10.7599C2.20844 11.2885 0.622839 9.73558 0.934641 8.10936C1.25007 6.46453 3.00848 5.58795 4.73427 5.61421C4.837 5.61531 4.91072 5.52228 4.88534 5.43474C4.31128 3.45722 7.02082 2.1812 8.5194 3.68376C8.55928 3.72315 8.60762 3.72315 8.64509 3.70236C8.73573 3.72753 8.85295 3.68485 8.85295 3.57323C8.8457 1.11748 12.139 0.80449 14.0364 1.63949C15.8854 2.45369 17.2897 4.68838 15.5676 6.26207C15.4781 6.34415 15.5301 6.46125 15.6365 6.49955C17.6003 7.19556 18.7206 9.27923 17.6112 11.016Z" fill="white" fill-opacity="0.55"/>
<path d="M58.6409 61.4767L58.6406 61.4762C58.3259 61.0605 57.9671 60.8497 57.6121 60.7686C57.2527 60.6865 56.8772 60.7331 56.5313 60.8669C56.1848 61.0009 55.8798 61.2182 55.667 61.4591C55.4496 61.7052 55.3517 61.9478 55.3601 62.1313L55.4023 63.0554L54.8956 62.2614C54.7783 62.0776 54.5425 61.9079 54.2193 61.7969C53.9004 61.6874 53.5224 61.6447 53.1564 61.6925C52.791 61.7403 52.4487 61.8766 52.1877 62.1135C51.9296 62.3477 51.7373 62.6923 51.6877 63.1853L58.6409 61.4767ZM58.6409 61.4767C58.9576 61.893 59.0108 62.3774 58.885 62.9065C58.7577 63.4415 58.4508 64.0014 58.078 64.5283C57.7069 65.0527 57.2811 65.5299 56.9307 65.8998C56.7874 66.0509 56.6579 66.1831 56.5494 66.2937C56.5252 66.3184 56.502 66.342 56.48 66.3645C56.4344 66.4111 56.393 66.4537 56.3575 66.4911M58.6409 61.4767L56.3575 66.4911M56.3575 66.4911C56.3016 66.4712 56.2369 66.4498 56.1659 66.427C56.0863 66.4015 55.9959 66.3733 55.8979 66.3428L55.873 66.3351C55.7649 66.3014 55.6473 66.2647 55.5218 66.2245C55.019 66.0637 54.3963 65.8497 53.7964 65.5704C53.1936 65.2897 52.6315 64.9509 52.2377 64.5479C51.8489 64.15 51.6359 63.7034 51.6876 63.1854L56.3575 66.4911Z" stroke="white" stroke-opacity="0.55" stroke-width="0.5"/>
<path d="M83.7408 15.6059C83.1856 14.8315 82.2091 14.4751 81.2357 14.542C81.2996 14.1794 81.3326 13.8126 81.3296 13.4455C81.3229 12.1535 80.8211 10.4505 79.9181 9.06817C80.6967 8.32858 81.7117 7.95918 82.8235 7.94604C82.9883 7.94449 83.0239 7.70951 82.8509 7.69998C81.6888 7.63023 80.5811 8.09933 79.8063 8.90288C78.8961 7.58498 77.612 6.59758 76.0357 6.61362C76.2783 5.46375 77.0147 4.59614 78.2041 4.12546C78.3928 4.05059 78.2618 3.80518 78.0767 3.86114C76.8211 4.23715 75.8733 5.39653 75.7771 6.62603C75.7329 6.62948 75.6889 6.62999 75.6427 6.63622C75.5395 6.64771 75.4894 6.7172 75.4842 6.79217C74.0901 6.6233 72.6399 6.81628 71.3304 7.32357C71.3293 7.31904 71.3312 7.31625 71.3302 7.31171C71.0766 6.50509 71.0494 5.70685 71.2002 4.87421C71.2319 4.70249 70.9593 4.68555 70.9192 4.84912C70.7161 5.70075 70.7942 6.56271 71.0902 7.382C71.0951 7.39427 71.1019 7.40375 71.1104 7.41191C69.9687 7.89128 68.9456 8.61496 68.1787 9.55826C67.8023 10.0231 67.4971 10.5388 67.2673 11.0818C66.5096 10.8026 65.9451 10.2389 65.6357 9.49685C65.59 9.38626 65.3829 9.44321 65.42 9.56042C65.6673 10.3813 66.3493 11.0161 67.192 11.2792C66.5628 12.9152 66.5976 14.7851 67.3956 16.3356C66.2731 16.614 65.2561 16.5365 64.1676 16.1021C64.0445 16.0526 63.9315 16.2363 64.0512 16.3017C65.0766 16.8666 66.384 16.9419 67.4881 16.5051C67.5836 16.6748 67.6859 16.8408 67.7998 17.0003C68.5495 18.0554 69.6904 18.851 70.9855 19.3601C70.0779 20.384 68.9276 21.0254 67.5353 21.3463C67.4017 21.3772 67.4329 21.562 67.5697 21.5446C69.0196 21.3679 70.3553 20.5686 71.1988 19.4443C72.2778 19.8379 73.4526 20.0331 74.5917 20.0135C74.6606 20.8169 74.4899 21.5753 74.0769 22.2987C74.0146 22.4071 74.2132 22.5106 74.2787 22.4011C74.7279 21.6631 74.9058 20.8403 74.7883 20.0089C75.4025 19.9853 76.0036 19.897 76.5712 19.7421C77.4882 19.4926 78.3051 19.0434 78.9913 18.4582C79.7653 19.1545 80.139 20.1213 80.0606 21.1349C80.0483 21.2877 80.295 21.3112 80.3122 21.1574C80.4354 20.0649 80.0042 19.0368 79.1624 18.3019C80.198 17.3531 80.9142 16.0902 81.194 14.7469C82.1379 14.6921 82.9453 15.0882 83.5525 15.7474C83.6577 15.8588 83.8265 15.723 83.7408 15.6059ZM76.8514 19.2686C75.166 19.8414 73.1245 19.7405 71.3614 19.0964C71.3394 19.0693 71.3032 19.0557 71.2666 19.0613C70.1742 18.6472 69.193 18.0226 68.4782 17.2177C67.0598 15.6192 66.8191 13.3168 67.5783 11.3729C67.6352 11.3824 67.6922 11.3919 67.7512 11.3972C67.8722 11.4095 67.8859 11.2436 67.7706 11.2229C67.7307 11.2149 67.6926 11.2056 67.6527 11.1976C67.8078 10.8328 67.9959 10.4812 68.2223 10.1524C69.9099 7.70113 73.1367 6.76301 76.0767 7.09063C76.1541 7.09902 76.1917 7.04321 76.1884 6.98819C78.9508 7.09433 80.7261 10.7541 80.9111 12.9643C81.1294 15.5665 79.544 18.3538 76.8514 19.2686Z" fill="white" fill-opacity="0.55"/>
<path d="M71.7786 10.2631C71.7862 10.2578 71.7956 10.2526 71.8032 10.2473C71.9035 10.1839 71.7733 10.0736 71.6616 10.1286C71.5537 10.1816 71.4439 10.2513 71.3578 10.3292C71.2677 10.3802 71.2104 10.4521 71.2137 10.5331C71.1845 10.6209 71.1969 10.7147 71.2796 10.81C71.463 11.0263 71.9196 11.1127 72.0897 10.8653C72.2247 10.6642 72.157 10.3246 71.7786 10.2631ZM71.7433 10.7851C71.6613 10.8103 71.585 10.7529 71.5391 10.691C71.5751 10.6677 71.5947 10.6345 71.5779 10.5957C71.5502 10.5282 71.6763 10.4864 71.7505 10.5304C71.8248 10.5744 71.8288 10.759 71.7433 10.7851Z" fill="white" fill-opacity="0.55"/>
<path d="M77.0985 10.5829C77.0897 10.3986 76.9497 10.2485 76.7838 10.1848C76.7666 10.1481 76.7339 10.1192 76.6838 10.1147C76.2777 10.0831 75.9633 10.575 76.2602 10.8691C76.5351 11.1413 77.1206 10.9993 77.0985 10.5829Z" fill="white" fill-opacity="0.55"/>
<path d="M78.3062 13.6816C77.2173 15.1934 75.7437 16.3727 73.6403 16.3749C71.659 16.377 69.8713 15.2747 68.9926 13.7005C68.9284 13.5858 68.733 13.6673 68.7903 13.7859C69.6378 15.5369 71.5875 16.7403 73.7265 16.7074C75.6691 16.6788 77.8906 15.5439 78.5877 13.8188C78.6517 13.665 78.4108 13.5371 78.3062 13.6816Z" fill="white" fill-opacity="0.55"/>
<mask id="path-11-inside-1_170_1965" fill="white">
<path d="M79.0064 60.1927C79.342 59.2062 78.1022 58.8874 77.6995 59.2168C77.9135 58.7199 77.227 57.7601 76.3259 58.3236C75.322 58.9519 76.254 60.7936 76.2644 60.9947C76.4565 60.9707 78.6492 61.2505 79.0064 60.1927Z"/>
</mask>
<path d="M77.6995 59.2168L77.2208 59.0441L78.0354 59.5775L77.6995 59.2168ZM76.3259 58.3236L76.0445 57.9239L76.0443 57.924L76.3259 58.3236ZM76.2644 60.9947L75.7484 61.0275L75.775 61.5417L76.3229 61.4733L76.2644 60.9947ZM79.4984 60.3309C79.6147 59.9891 79.6061 59.663 79.4755 59.3794C79.3474 59.1014 79.1219 58.9073 78.8835 58.7861C78.6472 58.666 78.3798 58.6072 78.1276 58.6087C77.8851 58.6102 77.5922 58.6692 77.3636 58.8562L78.0354 59.5775C78.0082 59.5997 78.0212 59.575 78.114 59.5745C78.197 59.5739 78.2941 59.5948 78.3762 59.6365C78.4561 59.6772 78.5028 59.7271 78.5253 59.776C78.5453 59.8194 78.5659 59.9032 78.5144 60.0546L79.4984 60.3309ZM78.1782 59.3895C78.2882 59.134 78.2679 58.8632 78.197 58.6417C78.1245 58.4151 77.9859 58.1951 77.7928 58.0215C77.598 57.8463 77.3339 57.7068 77.0149 57.6754C76.6903 57.6434 76.3577 57.7281 76.0445 57.9239L76.6072 58.7233C76.7447 58.6374 76.8358 58.6308 76.8867 58.6358C76.9431 58.6414 77.0062 58.6672 77.0689 58.7236C77.1334 58.7816 77.1826 58.8596 77.2067 58.9351C77.2325 59.0156 77.2178 59.0512 77.2208 59.0441L78.1782 59.3895ZM76.0443 57.924C75.6461 58.1733 75.4565 58.5391 75.3839 58.8967C75.3134 59.2437 75.3467 59.605 75.4064 59.914C75.4669 60.2278 75.5612 60.5204 75.6368 60.738C75.6558 60.7927 75.6738 60.8434 75.6898 60.8882C75.7061 60.9339 75.7197 60.9719 75.7311 61.0047C75.7427 61.0383 75.7497 61.0599 75.7535 61.0732C75.7604 61.0971 75.7507 61.0718 75.7484 61.0275L76.7803 60.962C76.7767 60.8925 76.7585 60.8293 76.7511 60.8038C76.7406 60.7677 76.7275 60.7284 76.7146 60.6912C76.7015 60.6533 76.6861 60.6103 76.6705 60.5665C76.6546 60.5219 76.6377 60.4744 76.6201 60.4238C76.5493 60.2199 76.4715 59.9751 76.4232 59.7247C76.374 59.4696 76.3619 59.2401 76.3988 59.0588C76.4334 58.8882 76.5037 58.7881 76.6074 58.7232L76.0443 57.924ZM76.3229 61.4733C76.2905 61.4774 76.2732 61.4756 76.303 61.4762C76.3224 61.4765 76.35 61.4775 76.3896 61.4791C76.4655 61.4823 76.5744 61.4874 76.6989 61.4907C76.948 61.4973 77.2786 61.4975 77.6216 61.4612C77.9595 61.4254 78.3428 61.3511 78.681 61.1905C79.0283 61.0256 79.3553 60.7546 79.4987 60.3298L78.514 60.0557C78.4789 60.1597 78.3979 60.2504 78.2276 60.3313C78.0482 60.4165 77.8044 60.4721 77.5253 60.5016C77.2516 60.5306 76.9756 60.5314 76.7484 60.5254C76.6347 60.5223 76.538 60.5178 76.4558 60.5144C76.4164 60.5127 76.3768 60.5112 76.3428 60.5106C76.3192 60.5102 76.2622 60.5091 76.2059 60.5161L76.3229 61.4733Z" fill="white" fill-opacity="0.55" mask="url(#path-11-inside-1_170_1965)"/>
</svg>
