<svg width="252" height="242" viewBox="0 0 252 242" fill="none" xmlns="http://www.w3.org/2000/svg">
<path d="M32.4036 6.38878L32.403 6.38784C31.0499 4.4875 29.477 3.49915 27.8978 3.12299C26.311 2.74498 24.6736 2.97497 23.1873 3.58963C21.6994 4.20495 20.3851 5.19733 19.4584 6.30745C18.5242 7.42652 18.0262 8.61165 18.065 9.61179L17.1365 9.88818C16.5671 8.93799 15.4774 8.14382 14.0926 7.64474C12.7145 7.14807 11.0912 6.96199 9.51894 7.18644C7.94837 7.41064 6.44901 8.04093 5.2903 9.15586C4.13667 10.2659 3.28994 11.8855 3.06558 14.1489L32.4036 6.38878ZM32.4036 6.38878C33.8195 8.36761 34.0226 10.6588 33.4733 13.063C32.9216 15.4781 31.6166 17.9707 30.07 20.2792C28.5267 22.583 26.7623 24.675 25.3189 26.2881C24.7284 26.9481 24.1937 27.5256 23.749 28.006C23.6502 28.1127 23.5558 28.2146 23.4663 28.3116C23.2211 28.5771 23.01 28.8077 22.8446 28.996C22.8099 29.0354 22.7762 29.0742 22.7439 29.112M32.4036 6.38878L22.7439 29.112M22.7439 29.112C22.6849 29.0872 22.6238 29.0626 22.5615 29.0384C22.3169 28.9431 22.0134 28.8369 21.6652 28.7198C21.3432 28.6116 20.9771 28.4921 20.5771 28.3616L20.4761 28.3286C20.0358 28.1849 19.5547 28.0275 19.0413 27.8553C16.9861 27.1662 14.4238 26.243 11.9497 25.0296C9.47072 23.8138 7.11273 22.322 5.44338 20.5098C3.78263 18.7069 2.82275 16.6113 3.06556 14.1491L22.7439 29.112Z" stroke="white" stroke-opacity="0.55"/>
<path d="M242.77 49.0324C240.998 46.52 238.237 45.4226 235.361 44.7733C240.449 40.688 240.888 32.6408 236.51 27.5455C230.704 20.7932 221.119 21.2622 214.092 25.6152C214.397 22.0593 212.39 18.4624 208.637 17.4583C204.596 16.3748 200.775 18.9115 199.282 22.4971C195.044 19.0422 189.153 15.5764 184.189 19.5111C180.793 22.2015 180.819 26.8248 182.642 30.4127C180.61 30.4772 178.643 31.5359 177.753 33.5531C176.743 35.8465 177.615 38.332 179.367 39.852C174.304 42.1362 170.12 47.3669 172.992 53.0727C176.242 59.531 183.961 58.7161 189.963 57.0718C188.866 61.2562 190.598 66.0933 194.739 68.0113C198.611 69.8046 203.043 68.3496 205.64 65.2708C207.401 70.9157 213.408 75.1587 219.464 73.6777C225.366 72.2365 228.824 66.0659 228.075 60.3338C232.83 62.5745 238.885 61.8077 242.39 57.5336C244.471 54.9944 244.693 51.7598 242.77 49.0324ZM239.781 56.9799C236.313 60.1254 230.636 60.0735 227.085 57.1159C226.092 56.2903 224.732 57.2105 225.254 58.4417C227.401 63.4862 224.335 70.1577 218.905 71.4773C213.158 72.8734 207.399 67.7286 207.377 62.0346C207.369 60.7338 205.584 60.497 205.158 61.6926C203.842 65.3873 199.338 67.6657 195.663 65.9361C191.967 64.2003 190.842 59.3212 192.825 55.925C193.287 55.1257 192.577 53.9184 191.593 54.2352C186.77 55.7848 180.252 57.8155 176.126 53.6166C174.036 51.4923 173.95 48.3029 175.395 45.786C176.89 43.1761 179.675 41.8255 182.5 41.167C183.56 40.9181 183.668 39.226 182.551 38.9761C180.575 38.524 178.78 36.2431 179.994 34.1852C180.954 32.563 183.207 32.3256 184.697 33.2129C185.817 33.8775 187.073 32.4049 186.153 31.4305C183.456 28.5772 182.3 22.8611 186.611 20.7977C191.197 18.6059 195.816 22.5586 199.018 25.3907C199.85 26.1291 200.924 25.6405 201.085 24.5936C201.579 21.2806 205.238 18.7358 208.49 19.9382C211.498 21.0459 212.956 24.7361 212.082 27.6821C211.873 28.3916 212.891 28.9582 213.317 28.4149C213.55 28.4721 213.81 28.4355 214.081 28.2487C219.914 24.213 228.078 22.8318 233.738 28.0042C238.864 32.6963 238.408 41.498 231.589 44.3361C230.717 44.6971 230.847 46.2948 231.811 46.4485C234.571 46.8765 237.715 47.2703 239.89 49.2041C242.49 51.5187 242.294 54.7042 239.781 56.9799Z" fill="white" fill-opacity="0.55"/>
<path d="M221.646 45.3458C221.716 44.5499 220.52 43.9534 219.975 44.6093C218.383 46.5273 217.529 48.5777 215.333 50.0282C213.136 51.4787 210.479 52.2208 207.852 52.0532C203.064 51.7532 193.778 46.8044 195.45 40.8221C195.602 40.2712 194.935 39.8764 194.515 40.2457C192.099 42.3802 193.692 45.6905 195.358 47.7919C197.854 50.9431 201.456 53.2863 205.402 54.1321C208.848 54.8699 212.397 54.4079 215.509 52.7395C218.192 51.3132 221.373 48.5598 221.646 45.3458Z" fill="white" fill-opacity="0.55"/>
<path d="M207.951 42.3301C207.45 42.4716 206.721 42.733 206.415 42.0984C206.162 41.5703 206.768 40.8245 207.3 40.7886C208.277 40.7251 208.265 39.4399 207.325 39.2991C205.562 39.0289 204.072 40.8917 204.519 42.5659C204.751 43.4338 205.494 44.0892 206.331 44.3644C207.121 44.6258 208.228 44.5835 208.823 43.931C209.413 43.277 208.917 42.0536 207.951 42.3301Z" fill="white" fill-opacity="0.55"/>
<path d="M201.023 34.096C201.139 33.4499 201.312 32.7864 201.325 32.1269C201.346 30.8233 199.452 30.537 199.069 31.7793C198.872 32.4075 198.834 33.0937 198.745 33.7422C198.658 34.3855 198.524 35.0321 198.548 35.6801C198.585 36.8818 200.199 37.1194 200.609 35.9984C200.827 35.3936 200.907 34.7368 201.023 34.096Z" fill="white" fill-opacity="0.55"/>
<path d="M215.331 39.1868C215.599 37.6044 215.635 36.0955 216.18 34.5551C216.308 34.196 216.191 33.7079 215.912 33.4441C215.673 33.215 215.445 33.0457 215.094 33.0839C214.591 33.1342 214.116 33.3798 213.972 33.9098C213.523 35.5295 213.185 37.5222 213.746 39.1564C213.986 39.8226 215.184 40.0679 215.331 39.1868Z" fill="white" fill-opacity="0.55"/>
<path d="M231.412 221.533C230.085 221.123 228.729 220.821 227.344 220.606C232.251 210.558 232.446 198.646 226.495 188.959C226.114 188.344 225.275 188.237 224.758 188.734C221.529 191.827 219.471 195.368 218.417 199.631C205.374 196.451 191.95 195.124 178.526 196.022C175.814 196.207 173.111 196.48 170.419 196.832C168.477 197.085 166.546 197.378 164.614 197.719C163.131 197.983 160.156 199.29 158.868 198.9C156.888 198.314 156.107 196.041 154.732 194.51C152.917 192.49 150.781 190.949 148.41 189.642C147.142 188.939 146.01 190.871 147.278 191.583C151.376 193.895 154.185 196.871 156.283 201.085C156.517 201.563 157.122 201.729 157.6 201.622C177.97 197.105 198.681 197.085 218.964 202.1C219.529 202.236 220.242 201.924 220.368 201.3C221.129 197.397 222.7 194.207 225.314 191.349C230.251 200.353 229.588 211.26 224.895 220.294C222.749 220.099 220.593 220.089 218.485 220.167C217.666 220.197 217.656 221.475 218.485 221.455C220.398 221.406 222.271 221.514 224.124 221.718C222.798 224.011 221.217 226.07 219.442 227.894C218.007 227.494 216.573 227.045 215.149 226.489C214.476 226.226 214.203 227.289 214.856 227.562C215.988 228.04 217.159 228.508 218.359 228.957C216.895 230.333 215.325 231.572 213.656 232.664C212.778 232.284 211.9 231.903 211.042 231.513C210.378 231.211 209.783 232.186 210.456 232.508C211.091 232.821 211.725 233.142 212.359 233.464C206.905 236.713 200.564 238.557 194.057 238.967C186.35 239.454 178.116 238.03 170.809 234.781C171.629 234.225 172.458 233.679 173.268 233.103C173.824 232.713 173.326 231.806 172.721 232.177C171.658 232.83 170.604 233.523 169.56 234.206C167.287 233.113 165.112 231.855 163.092 230.401C163.883 230.186 164.673 229.962 165.453 229.718C166.078 229.523 165.814 228.655 165.19 228.762C164.068 228.957 162.956 229.201 161.844 229.455C161.014 228.811 160.205 228.138 159.434 227.435C158.088 226.187 156.897 224.86 155.824 223.474C158.78 223.377 161.756 223.162 164.624 222.792C165.356 222.694 165.404 221.621 164.624 221.611C161.395 221.582 158.058 221.748 154.78 222.06C148.907 213.553 147.483 202.88 147.532 192.471C147.532 191.876 146.556 191.71 146.468 192.324C145.015 202.49 146.859 213.582 152.429 222.314C152.01 222.362 151.59 222.401 151.181 222.46C150.517 222.548 150.468 223.523 151.181 223.533C151.854 223.543 152.537 223.533 153.219 223.523C154.585 225.484 156.136 227.318 157.902 228.967C158.322 229.357 158.761 229.728 159.19 230.099C158.127 230.372 157.053 230.645 155.99 230.918C155.278 231.094 155.58 232.177 156.293 232.011C157.649 231.689 159.014 231.386 160.37 231.074C162.556 232.811 164.936 234.313 167.443 235.611C166.634 236.157 165.824 236.703 165.014 237.25C164.419 237.65 164.965 238.615 165.58 238.225C166.604 237.562 167.629 236.898 168.643 236.225C177.238 240.371 187.228 242.03 196.447 241.035C203.042 240.332 209.374 238.176 214.798 234.664C215.959 235.23 217.129 235.767 218.32 236.206C218.954 236.44 219.324 235.464 218.768 235.142C217.91 234.645 217.022 234.196 216.125 233.777C217.793 232.586 219.363 231.26 220.807 229.796C223.08 230.518 225.402 231.055 227.685 231.191C228.339 231.23 228.436 230.245 227.831 230.079C225.871 229.513 223.919 229.055 221.978 228.557C223.695 226.645 225.227 224.528 226.505 222.196C226.534 222.138 226.563 222.079 226.592 222.021C228.066 222.245 229.548 222.509 231.041 222.792C231.89 222.967 232.241 221.797 231.412 221.533Z" fill="white" fill-opacity="0.55"/>
<path d="M197.15 230.675C196.213 230.675 195.433 230.997 194.496 230.665C193.53 230.323 192.789 229.582 192.418 228.636C193.755 228.616 194.574 227.202 194.535 225.963C194.516 225.436 194.135 225.124 193.638 225.065C191.618 224.831 189.599 224.528 187.579 224.255C186.848 224.158 186.252 224.792 186.613 225.514C187.394 227.026 188.652 228.197 190.174 228.899C189.999 229.358 189.686 229.767 189.296 230.08C188.906 230.392 188.418 230.645 187.921 230.733C187.384 230.831 186.877 230.665 186.35 230.879C185.95 231.045 185.599 231.543 185.901 231.982C186.633 233.026 188.057 232.831 189.111 232.401C190.184 231.962 191.082 231.114 191.589 230.07C191.638 229.972 191.677 229.855 191.716 229.748C192.145 230.665 192.916 231.387 193.852 231.836C194.955 232.362 196.603 232.645 197.569 231.718C197.959 231.348 197.667 230.675 197.15 230.675ZM189.755 226.889C189.521 226.665 189.306 226.431 189.101 226.187C190.213 226.343 191.316 226.509 192.428 226.684C192.223 226.909 191.95 227.084 191.696 227.28C191.638 227.202 191.579 227.114 191.511 227.045C190.974 226.519 190.184 226.304 189.755 226.889Z" fill="white" fill-opacity="0.55"/>
<path d="M181.618 214.129C180.301 210.968 175.346 211.046 172.907 212.607C172.263 213.017 172.848 214.031 173.511 213.641C174.76 212.9 176.194 212.636 177.619 212.939C178.955 213.231 179.745 214.07 180.877 214.704C181.218 214.89 181.794 214.568 181.618 214.129Z" fill="white" fill-opacity="0.55"/>
<path d="M209.881 212.821C209.559 211.309 207.627 210.656 206.252 210.656C204.681 210.656 203.237 211.387 202.467 212.763C202.145 213.348 202.984 213.826 203.354 213.28C204.037 212.275 205.266 211.826 206.457 211.963C207.608 212.09 208.203 212.802 209.061 213.455C209.481 213.768 209.969 213.251 209.881 212.821Z" fill="white" fill-opacity="0.55"/>
</svg>
