<svg width="171" height="173" viewBox="0 0 171 173" fill="none" xmlns="http://www.w3.org/2000/svg">
<path d="M150.901 138.701C149.634 138.227 148.956 137.405 148.281 136.276C147.932 135.689 147.527 135.219 146.863 134.991C145.589 134.555 144.415 135.256 143.972 136.405C143.932 136.423 143.899 136.452 143.873 136.489C142.926 133.368 139.841 131.237 136.615 131.155C136.502 131.152 136.419 131.209 136.365 131.284C134.994 131.407 133.652 131.86 132.506 132.606C132.745 131.585 132.469 130.37 131.377 129.982C129.179 129.202 127.605 132.62 125.401 130.492C125.199 130.296 124.941 130.568 125.004 130.786C125.885 133.832 128.945 134.368 131.526 133.361C130.912 133.92 130.388 134.58 129.996 135.34C128.463 138.292 129.291 141.654 131.833 143.725C132.834 144.54 134.013 145.112 135.246 145.403C133.414 148.313 131.602 151.216 129.723 154.073C128.514 153.145 127.945 152.04 127.605 150.651C128.389 150.517 129.181 149.973 129.324 149.187C129.36 148.99 129.087 148.866 128.967 149.029C128.566 149.56 128.21 150.038 127.58 150.178C127.574 150.124 127.541 150.075 127.48 150.065C127.464 149.98 127.446 149.894 127.431 149.804C127.427 149.391 127.407 148.959 127.287 148.593C127.235 148.44 126.986 148.468 126.969 148.628C126.937 148.946 126.983 149.295 127.05 149.635C127.014 149.664 126.987 149.708 126.98 149.771C126.977 149.792 126.978 149.815 126.976 149.838C126.6 149.53 126.446 148.97 126.657 148.504C126.732 148.335 126.48 148.167 126.374 148.331C125.94 149.001 126.299 149.883 126.962 150.198C126.963 150.2 126.963 150.202 126.963 150.205C126.188 150.092 125.582 149.442 125.42 148.677C125.377 148.475 125.066 148.502 125.096 148.712C125.241 149.702 125.982 150.535 126.995 150.665C127.187 152.179 128.241 153.623 129.502 154.421C127.614 157.257 125.669 160.055 123.572 162.766C123.439 162.937 123.534 163.195 123.752 163.231C126.25 163.648 128.745 164.068 131.241 164.487C130.814 165.616 130.461 166.771 130.07 167.912C130.015 168.075 129.956 168.483 129.833 168.6C129.564 168.862 129.244 168.688 128.953 168.609C128.522 168.496 128.092 168.382 127.662 168.271C127.66 168.149 127.574 168.03 127.417 168.045C127.264 168.053 127.115 168.074 126.967 168.108C126.638 168.17 126.641 168.592 126.954 168.677C127.742 168.894 128.574 169.198 129.383 169.311C129.778 169.366 129.998 169.342 130.244 169.016C130.613 168.526 130.718 167.453 130.888 166.888C131.117 166.116 131.361 165.345 131.56 164.565C131.563 164.555 131.56 164.546 131.562 164.537C133.903 164.93 136.245 165.325 138.584 165.718C138.569 165.729 138.555 165.744 138.548 165.766C137.965 167.36 137.876 169.221 137.591 170.89C137.557 171.087 137.724 171.22 137.902 171.219C138.627 171.208 139.383 171.196 140.05 170.891C140.273 170.789 140.179 170.498 139.951 170.493C139.369 170.486 138.791 170.588 138.206 170.634C138.448 169.057 138.856 167.384 138.789 165.804C138.789 165.783 138.78 165.766 138.769 165.751C140.799 166.093 142.832 166.435 144.863 166.777C145.092 166.816 145.26 166.584 145.184 166.376C143.99 163.036 142.91 159.661 141.943 156.252C143.074 156.634 144.071 155.43 144.714 154.634C145.191 154.044 145.667 153.344 146.024 152.604C146.084 152.627 146.147 152.65 146.21 152.666C147.123 152.911 148.268 152.318 148.422 151.351C148.458 151.117 148.144 151.041 148.039 151.236C147.69 151.883 147.104 152.423 146.31 152.235C146.272 152.225 146.24 152.208 146.205 152.198C146.401 151.722 146.539 151.231 146.592 150.745C146.616 150.511 146.282 150.391 146.184 150.625C146.005 151.046 145.854 151.467 145.695 151.884C145.345 151.537 145.181 151.008 145.248 150.507C145.274 150.309 144.997 150.273 144.948 150.459C144.769 151.129 145.023 151.853 145.532 152.297C145.368 152.692 145.188 153.082 144.954 153.461C144.358 154.425 143.224 156.144 141.932 155.92C141.902 155.915 141.877 155.922 141.853 155.931C140.863 152.42 139.994 148.877 139.248 145.301C139.735 145.156 140.214 144.963 140.673 144.708C143.354 143.222 144.636 140.074 144.031 137.11C145.232 139.455 149.056 141.718 151.001 139.09C151.088 138.968 151.061 138.762 150.901 138.701ZM128.152 133.295C127.1 133.034 126.295 132.333 125.811 131.419C126.51 131.785 127.306 131.836 128.109 131.524C128.775 131.268 129.345 130.814 130.007 130.553C131.625 129.918 132.348 131.275 132.204 132.595C130.859 132.961 129.592 133.652 128.152 133.295ZM144.466 166.113C137.749 164.992 131.031 163.872 124.318 162.742C128.494 157.33 132.533 151.598 135.603 145.479C136.616 145.671 137.66 145.667 138.672 145.452C140.14 152.46 142.071 159.362 144.466 166.113ZM139.083 144.78C138.918 144.614 138.585 144.678 138.57 144.921C137.979 145.057 137.354 145.114 136.71 145.082C133.077 144.89 129.429 141.868 129.77 138.008C130.091 134.371 133.08 132.274 136.37 131.642C136.406 131.677 136.455 131.703 136.524 131.707C139.963 131.918 143.164 134.24 143.57 137.829C143.932 141.042 141.956 143.867 139.083 144.78ZM144.306 136.526C144.303 136.518 144.298 136.514 144.293 136.507C144.827 135.41 146.209 134.849 147.279 135.743C147.81 136.188 148.008 136.905 148.402 137.459C148.909 138.171 149.59 138.686 150.377 139.034C148.484 141.052 145.112 138.505 144.306 136.526Z" fill="white" fill-opacity="0.55"/>
<path d="M139.938 142.286C137.561 143.382 135.028 143.186 133.234 141.034C133.132 140.91 132.945 141.048 133.037 141.183C134.526 143.366 137.959 144.316 140.129 142.638C140.304 142.503 140.145 142.191 139.938 142.286Z" fill="white" fill-opacity="0.55"/>
<path d="M133.574 135.955C133.298 135.911 132.965 136.109 133.049 136.401C133.074 136.487 133.224 136.45 133.209 136.363C133.173 136.16 133.484 136.097 133.624 136.188C133.853 136.333 133.806 136.637 133.899 136.849C133.932 136.924 134.045 136.909 134.063 136.831C134.133 136.516 133.944 136.012 133.574 135.955Z" fill="white" fill-opacity="0.55"/>
<path d="M141.025 138.681C140.899 138.346 140.658 138.05 140.326 137.936C139.745 137.738 139.023 138.207 139.097 138.886C139.117 139.063 139.363 139.033 139.356 138.857C139.334 138.343 139.976 138.107 140.343 138.364C140.561 138.517 140.684 138.772 140.732 139.037C140.772 139.261 140.696 139.5 140.785 139.71C140.816 139.784 140.924 139.835 140.988 139.772C141.242 139.521 141.142 138.995 141.025 138.681Z" fill="white" fill-opacity="0.55"/>
<path d="M31.1028 11.8138C34.5128 7.99344 31.3694 2.74308 27.1938 0.938938C24.9042 -0.0501221 22.118 -0.405231 19.7672 0.602896C17.7295 1.47756 16.274 3.33175 16.1297 5.48862C14.6644 4.06342 12.3308 3.55816 10.4448 4.5353C8.54651 5.52198 7.65365 7.67646 8.02058 9.67603C4.07243 9.77136 0.246592 12.2714 0.00931148 16.3897C-0.191276 19.8455 2.87869 22.7912 6.34005 22.2883C4.32194 25.389 5.96578 29.6265 9.68399 30.7204C13.7911 31.9263 17.4947 29.0688 18.3777 25.2746C20.4032 27.2384 23.8058 26.3089 24.4712 23.6063C27.3259 26.6497 32.4825 26.2064 34.8357 22.6768C37.5094 18.661 35.2907 13.6871 31.1028 11.8138ZM34.4785 22.0572C32.3675 25.6106 27.0837 26.1516 24.5372 22.7221C24.3538 22.4766 23.9648 22.5576 23.9453 22.877C23.7863 25.7298 20.1732 26.7856 18.4609 24.4285C18.2677 24.164 17.9105 24.2808 17.8689 24.5834C17.3724 28.1893 14.026 31.1017 10.2001 30.2127C6.47703 29.3476 4.71578 24.9219 7.32586 22.0166C7.52156 21.7974 7.33809 21.4018 7.01764 21.4995C3.30188 22.6506 0.0924819 19.2687 0.723599 15.7272C1.36205 12.1451 4.92126 10.2361 8.41442 10.2933C8.62234 10.2957 8.77156 10.0931 8.72019 9.90244C7.55825 5.59586 13.0426 2.81696 16.0759 6.0892C16.1566 6.175 16.2544 6.175 16.3303 6.12972C16.5137 6.18453 16.751 6.09158 16.751 5.84849C16.7363 0.500415 23.4022 -0.181202 27.2427 1.63724C30.9854 3.4104 33.8279 8.27705 30.342 11.7042C30.161 11.8829 30.2662 12.138 30.4815 12.2214C34.4565 13.7371 36.7242 18.2749 34.4785 22.0572Z" fill="white" fill-opacity="0.55"/>
<path d="M117.525 131.924L117.524 131.923C116.878 131.006 116.144 130.544 115.426 130.368C114.701 130.189 113.945 130.291 113.249 130.58C112.552 130.871 111.935 131.342 111.504 131.868C111.066 132.402 110.858 132.939 110.876 133.361L109.946 133.638C109.699 133.221 109.212 132.848 108.559 132.607C107.913 132.368 107.149 132.276 106.413 132.38C105.678 132.483 104.989 132.778 104.462 133.293C103.939 133.803 103.545 134.559 103.443 135.647L117.525 131.924ZM117.525 131.924C118.181 132.852 118.287 133.931 118.03 135.094C117.771 136.267 117.147 137.49 116.392 138.638C115.641 139.781 114.778 140.82 114.069 141.626C113.779 141.955 113.517 142.243 113.297 142.484C113.248 142.538 113.201 142.589 113.157 142.638C113.067 142.737 112.986 142.827 112.915 142.906M117.525 131.924L112.915 142.906M112.915 142.906C112.804 142.864 112.676 142.818 112.536 142.77C112.375 142.715 112.192 142.653 111.994 142.587L111.943 142.57C111.725 142.497 111.486 142.417 111.232 142.329C110.215 141.979 108.954 141.513 107.739 140.904C106.519 140.293 105.376 139.553 104.574 138.669C103.779 137.794 103.336 136.802 103.443 135.648L112.915 142.906Z" stroke="white" stroke-opacity="0.55"/>
<path d="M169.172 31.6285C167.948 29.9361 165.878 29.1991 163.85 29.4047C163.953 28.5934 163.992 27.7744 163.955 26.9569C163.834 24.0799 162.645 20.3162 160.644 17.29C162.209 15.5975 164.299 14.7158 166.621 14.6218C166.965 14.6088 167.02 14.0834 166.658 14.0722C164.224 13.9844 161.949 15.0936 160.396 16.9283C158.386 14.0461 155.621 11.9216 152.329 12.049C152.74 9.47394 154.207 7.49877 156.653 6.3813C157.041 6.2036 156.747 5.66463 156.365 5.80002C153.773 6.71049 151.889 9.34777 151.79 12.0917C151.697 12.1019 151.605 12.1056 151.509 12.1222C151.295 12.1538 151.196 12.3115 151.191 12.4788C148.264 12.1837 145.251 12.6979 142.557 13.9039C142.554 13.8938 142.558 13.8875 142.555 13.8775C141.958 12.0957 141.836 10.3195 142.082 8.45624C142.134 8.07195 141.563 8.05007 141.492 8.41669C141.139 10.3253 141.373 12.2405 142.06 14.048C142.071 14.075 142.086 14.0957 142.104 14.1134C139.758 15.2474 137.681 16.9187 136.157 19.0642C135.409 20.1215 134.814 21.2876 134.378 22.5105C132.772 21.9327 131.546 20.7101 130.838 19.0753C130.734 18.8317 130.306 18.9706 130.393 19.2295C130.978 21.0433 132.455 22.4175 134.237 22.9545C133.058 26.6348 133.286 30.7974 135.082 34.2041C132.759 34.8896 130.628 34.7761 128.318 33.8718C128.057 33.7688 127.836 34.1845 128.091 34.3232C130.281 35.5217 133.018 35.6135 135.289 34.5762C135.503 34.9488 135.73 35.3124 135.981 35.6612C137.635 37.9674 140.085 39.673 142.833 40.7316C141.021 43.0649 138.671 44.5601 135.789 45.3558C135.512 45.4325 135.592 45.8422 135.877 45.7955C138.891 45.3176 141.616 43.4597 143.285 40.9066C145.572 41.7206 148.043 42.0869 150.421 41.9771C150.632 43.7625 150.338 45.4615 149.535 47.0967C149.414 47.3416 149.837 47.5606 149.965 47.3129C150.843 45.6432 151.146 43.8003 150.832 41.9553C152.113 41.8671 153.362 41.6354 154.535 41.2574C156.43 40.6485 158.1 39.6005 159.485 38.2574C161.16 39.7631 162.021 41.8945 161.941 44.1567C161.928 44.4976 162.445 44.5356 162.468 44.1921C162.635 41.7518 161.649 39.4871 159.829 37.8993C161.915 35.7257 163.306 32.8714 163.78 29.8634C165.747 29.6865 167.467 30.5216 168.79 31.9545C169.019 32.1966 169.361 31.8843 169.172 31.6285ZM155.081 40.1866C151.607 41.5604 147.333 41.4543 143.596 40.1223C143.548 40.0632 143.471 40.0351 143.395 40.0497C141.078 39.1909 138.977 37.857 137.417 36.1058C134.321 32.6282 133.627 27.5143 135.052 23.1406C135.172 23.1585 135.292 23.1764 135.416 23.1847C135.669 23.2051 135.684 22.8347 135.442 22.7954C135.358 22.7799 135.277 22.7614 135.193 22.7459C135.487 21.9243 135.851 21.1305 136.297 20.3849C139.62 14.8274 146.284 12.5503 152.454 13.109C152.616 13.1232 152.69 12.9967 152.679 12.8744C158.459 12.9501 162.471 20.998 163.041 25.9097C163.713 31.6926 160.631 37.9925 155.081 40.1866Z" fill="white" fill-opacity="0.55"/>
<path d="M144.101 20.3968C144.116 20.3844 144.136 20.3723 144.151 20.36C144.355 20.213 144.074 19.9747 143.846 20.1039C143.625 20.2283 143.401 20.39 143.228 20.5684C143.044 20.6872 142.93 20.851 142.944 21.0312C142.89 21.2284 142.924 21.4368 143.104 21.6444C143.505 22.1157 144.466 22.2819 144.8 21.7207C145.066 21.2646 144.896 20.5117 144.101 20.3968ZM144.07 21.562C143.901 21.6229 143.737 21.4994 143.636 21.3642C143.71 21.3102 143.748 21.2351 143.71 21.1495C143.646 21.0007 143.906 20.9004 144.065 20.994C144.223 21.0876 144.247 21.4988 144.07 21.562Z" fill="white" fill-opacity="0.55"/>
<path d="M154.92 21.0874C154.886 20.6773 154.581 20.3509 154.23 20.2185C154.191 20.1377 154.12 20.0752 154.015 20.0681C153.165 20.0213 152.549 21.1357 153.193 21.7738C153.79 22.3645 155 22.014 154.92 21.0874Z" fill="white" fill-opacity="0.55"/>
<path d="M157.329 27.4664C155.219 30.9883 152.296 33.7684 147.997 33.8835C143.947 33.9921 140.208 31.559 138.291 27.9971C138.151 27.7374 137.758 27.9346 137.884 28.2033C139.751 32.1723 143.828 34.8283 148.198 34.6411C152.167 34.4737 156.622 31.7565 157.915 27.766C158.034 27.4103 157.532 27.1297 157.329 27.4664Z" fill="white" fill-opacity="0.55"/>
<mask id="path-11-inside-1_81_1334" fill="white">
<path d="M158.749 129.153C159.428 127.005 156.919 126.311 156.104 127.028C156.537 125.946 155.147 123.856 153.323 125.083C151.292 126.451 153.178 130.462 153.199 130.9C153.588 130.848 158.026 131.457 158.749 129.153Z"/>
</mask>
<path d="M156.104 127.028L155.175 126.656L156.764 127.779L156.104 127.028ZM153.323 125.083L152.765 124.253L152.765 124.253L153.323 125.083ZM153.199 130.9L152.2 130.948L152.252 132.036L153.332 131.891L153.199 130.9ZM159.702 129.455C159.933 128.726 159.917 128.029 159.656 127.42C159.4 126.822 158.947 126.401 158.467 126.139C157.991 125.878 157.454 125.752 156.95 125.755C156.463 125.759 155.887 125.886 155.443 126.277L156.764 127.779C156.728 127.811 156.771 127.757 156.963 127.755C157.137 127.754 157.338 127.801 157.507 127.893C157.671 127.983 157.769 128.094 157.818 128.208C157.862 128.311 157.905 128.507 157.796 128.852L159.702 129.455ZM157.032 127.4C157.247 126.863 157.209 126.288 157.067 125.81C156.922 125.322 156.644 124.847 156.255 124.471C155.863 124.091 155.332 123.79 154.694 123.722C154.046 123.654 153.386 123.836 152.765 124.253L153.882 125.912C154.173 125.717 154.37 125.699 154.483 125.711C154.604 125.724 154.736 125.783 154.865 125.908C154.997 126.036 155.099 126.21 155.15 126.38C155.175 126.463 155.183 126.532 155.183 126.584C155.183 126.636 155.175 126.658 155.175 126.656L157.032 127.4ZM152.765 124.253C151.981 124.781 151.606 125.556 151.461 126.322C151.321 127.067 151.387 127.846 151.507 128.517C151.629 129.197 151.819 129.832 151.972 130.306C152.01 130.425 152.047 130.535 152.079 130.632C152.112 130.732 152.14 130.815 152.163 130.887C152.186 130.96 152.201 131.008 152.209 131.037C152.223 131.089 152.204 131.038 152.2 130.948L154.198 130.852C154.191 130.707 154.155 130.573 154.14 130.517C154.119 130.44 154.093 130.355 154.067 130.274C154.04 130.192 154.009 130.098 153.978 130.003C153.945 129.906 153.911 129.802 153.875 129.692C153.732 129.247 153.574 128.712 153.476 128.164C153.376 127.606 153.35 127.099 153.426 126.693C153.499 126.308 153.65 126.068 153.882 125.912L152.765 124.253ZM153.332 131.891C153.27 131.899 153.239 131.896 153.298 131.897C153.338 131.898 153.394 131.9 153.475 131.903C153.628 131.91 153.848 131.921 154.1 131.928C154.604 131.943 155.27 131.943 155.962 131.864C156.644 131.787 157.412 131.626 158.086 131.281C158.778 130.928 159.421 130.352 159.703 129.453L157.795 128.854C157.716 129.106 157.533 129.318 157.177 129.5C156.804 129.691 156.302 129.813 155.736 129.877C155.178 129.941 154.618 129.942 154.157 129.929C153.926 129.923 153.73 129.913 153.564 129.905C153.484 129.902 153.405 129.898 153.336 129.897C153.288 129.896 153.176 129.894 153.066 129.909L153.332 131.891Z" fill="white" fill-opacity="0.55" mask="url(#path-11-inside-1_81_1334)"/>
</svg>
