<svg width="171" height="156" viewBox="0 0 171 156" fill="none" xmlns="http://www.w3.org/2000/svg">
<path d="M21.5002 4.42611L21.4995 4.42518C20.5865 3.12003 19.539 2.44999 18.5022 2.19225C17.4585 1.93278 16.379 2.07985 15.3938 2.49166C14.4067 2.90425 13.5354 3.57447 12.9236 4.32484C12.3051 5.08343 11.9917 5.87237 12.0198 6.52169L11.0899 6.79842C10.7197 6.17097 10.006 5.63178 9.0822 5.28717C8.16435 4.94477 7.08354 4.81236 6.03977 4.95894C4.99799 5.10523 4.01229 5.52605 3.25515 6.2702C2.50253 7.0099 1.94371 8.10025 1.80188 9.64757L21.5002 4.42611ZM21.5002 4.42611C22.4444 5.76939 22.5921 7.32358 22.2325 8.9698C21.8707 10.6262 21.0005 12.3412 19.9589 13.9372C18.9203 15.5287 17.7297 16.9742 16.7532 18.0908C16.3538 18.5476 15.9922 18.947 15.6906 19.2801C15.6235 19.3543 15.5593 19.4252 15.4984 19.4927C15.3367 19.6718 15.1955 19.8294 15.0834 19.9597M21.5002 4.42611L15.0834 19.9597M15.0834 19.9597C15.0781 19.9575 15.0728 19.9554 15.0675 19.9533C14.8967 19.8845 14.6863 19.8083 14.4477 19.7251C14.2268 19.6482 13.9758 19.5632 13.7025 19.4708L13.6336 19.4474C13.3326 19.3455 13.0043 19.2342 12.6539 19.1125C11.2513 18.625 9.50725 17.9744 7.82392 17.1238C6.13589 16.2709 4.54002 15.2321 3.41173 13.9818C2.29148 12.7405 1.65005 11.3136 1.80186 9.6478L15.0834 19.9597Z" stroke="white" stroke-opacity="0.55"/>
<path d="M164.245 32.8956C163.042 31.1894 161.168 30.443 159.217 30.0005C162.666 27.231 162.959 21.7698 159.986 18.309C156.043 13.7228 149.542 14.0354 144.778 16.9854C144.983 14.5722 143.619 12.1298 141.073 11.4461C138.332 10.7083 135.742 12.4276 134.731 14.8602C131.854 12.5128 127.856 10.1571 124.491 12.8244C122.19 14.6483 122.21 17.7861 123.449 20.2222C122.071 20.2648 120.737 20.9821 120.134 22.3506C119.45 23.9065 120.043 25.5938 121.233 26.6265C117.8 28.1737 114.965 31.7212 116.917 35.5953C119.125 39.9804 124.361 39.432 128.431 38.3197C127.689 41.1589 128.867 44.4428 131.677 45.7471C134.304 46.9665 137.31 45.9817 139.069 43.8938C140.267 47.7259 144.345 50.6092 148.451 49.6078C152.454 48.6333 154.796 44.4474 154.284 40.5567C157.511 42.0803 161.617 41.5636 163.993 38.665C165.403 36.9429 165.551 34.7478 164.245 32.8956ZM162.222 38.2876C159.872 40.4203 156.021 40.3816 153.61 38.3722C152.937 37.8113 152.015 38.435 152.369 39.2709C153.829 42.6958 151.753 47.2217 148.071 48.114C144.173 49.0581 140.264 45.5629 140.245 41.6985C140.239 40.8157 139.029 40.6539 138.74 41.465C137.85 43.9717 134.796 45.5153 132.302 44.3392C129.794 43.1589 129.029 39.8469 130.371 37.5431C130.684 37.001 130.202 36.1812 129.535 36.3955C126.264 37.4443 121.844 38.8186 119.043 35.9663C117.624 34.5234 117.563 32.3587 118.542 30.6514C119.555 28.881 121.443 27.9661 123.359 27.5209C124.078 27.3526 124.15 26.2043 123.392 26.034C122.051 25.726 120.833 24.1768 121.655 22.7809C122.305 21.6806 123.833 21.5208 124.845 22.1239C125.604 22.5756 126.456 21.577 125.831 20.9151C123.999 18.977 123.212 15.0969 126.135 13.6991C129.245 12.2143 132.38 14.8998 134.554 16.8238C135.118 17.3255 135.846 16.9945 135.955 16.2841C136.288 14.0359 138.769 12.3111 140.975 13.1291C143.016 13.8827 144.007 16.388 143.416 18.3869C143.275 18.8683 143.966 19.2535 144.255 18.885C144.413 18.924 144.589 18.8993 144.773 18.7727C148.727 16.0372 154.264 15.1048 158.106 18.6187C161.586 21.8062 161.281 27.7795 156.658 29.7015C156.067 29.946 156.156 31.0304 156.81 31.1353C158.682 31.4275 160.815 31.6967 162.291 33.0104C164.057 34.5829 163.926 36.7447 162.222 38.2876Z" fill="white" fill-opacity="0.55"/>
<path d="M150.015 29.8161C150.057 29.2952 149.249 28.8968 148.886 29.3229C147.828 30.5689 147.266 31.9065 145.798 32.8424C144.329 33.7783 142.546 34.2472 140.778 34.1204C137.554 33.893 131.274 30.5915 132.361 26.6838C132.459 26.3239 132.008 26.061 131.728 26.3002C130.116 27.6827 131.209 29.8613 132.344 31.2485C134.043 33.3288 136.482 34.8868 139.143 35.4664C141.466 35.9719 143.851 35.6922 145.934 34.6194C147.73 33.7026 149.853 31.9196 150.015 29.8161Z" fill="white" fill-opacity="0.55"/>
<path d="M140.625 28.1447C140.324 28.2242 139.886 28.3723 139.698 27.9994C139.542 27.6892 139.902 27.2572 140.223 27.2396C140.811 27.2086 140.795 26.4575 140.228 26.3691C139.165 26.2 138.279 27.2792 138.559 28.2606C138.705 28.7693 139.156 29.1571 139.662 29.3233C140.14 29.4811 140.806 29.4634 141.16 29.0859C141.511 28.7074 141.205 27.9892 140.625 28.1447Z" fill="white" fill-opacity="0.55"/>
<path d="M136.264 22.3967C136.341 21.9467 136.46 21.4853 136.46 21.0243C136.457 20.1132 135.047 19.8854 134.781 20.7483C134.644 21.1847 134.626 21.664 134.569 22.1161C134.514 22.5646 134.424 23.0147 134.451 23.4681C134.496 24.3089 135.697 24.4986 135.985 23.7208C136.138 23.3011 136.188 22.8431 136.264 22.3967Z" fill="white" fill-opacity="0.55"/>
<path d="M145.917 25.9554C146.058 24.9938 146.038 24.0702 146.376 23.1426C146.455 22.9265 146.358 22.6238 146.153 22.4537C145.978 22.306 145.812 22.1954 145.566 22.2081C145.214 22.2237 144.886 22.3598 144.8 22.6802C144.533 23.6592 144.355 24.8702 144.8 25.8887C144.99 26.3043 145.841 26.491 145.917 25.9554Z" fill="white" fill-opacity="0.55"/>
<path d="M152.681 142.536C151.785 142.257 150.869 142.051 149.934 141.905C153.248 135.067 153.379 126.96 149.361 120.366C149.104 119.948 148.537 119.875 148.188 120.214C146.008 122.319 144.618 124.729 143.906 127.63C135.098 125.466 126.034 124.563 116.969 125.174C115.137 125.3 113.313 125.486 111.494 125.725C110.183 125.897 108.879 126.096 107.575 126.329C106.573 126.508 104.564 127.398 103.695 127.132C102.357 126.734 101.83 125.187 100.901 124.144C99.676 122.77 98.2333 121.721 96.6325 120.831C95.7761 120.353 95.0119 121.668 95.8683 122.153C98.6351 123.726 100.532 125.751 101.949 128.62C102.107 128.945 102.515 129.058 102.838 128.985C116.593 125.911 130.579 125.897 144.275 129.31C144.657 129.403 145.138 129.191 145.224 128.766C145.738 126.11 146.798 123.939 148.564 121.993C151.897 128.122 151.449 135.545 148.281 141.693C146.831 141.56 145.375 141.554 143.952 141.607C143.399 141.627 143.392 142.496 143.952 142.483C145.244 142.45 146.508 142.523 147.76 142.662C146.864 144.223 145.797 145.624 144.598 146.865C143.63 146.593 142.661 146.288 141.699 145.909C141.245 145.73 141.06 146.454 141.502 146.639C142.266 146.965 143.056 147.284 143.867 147.589C142.879 148.525 141.818 149.368 140.691 150.112C140.099 149.853 139.506 149.594 138.926 149.329C138.478 149.123 138.076 149.787 138.531 150.006C138.959 150.218 139.387 150.437 139.815 150.656C136.133 152.867 131.851 154.122 127.457 154.401C122.252 154.733 116.692 153.764 111.758 151.553C112.311 151.174 112.871 150.803 113.418 150.411C113.794 150.145 113.458 149.528 113.049 149.78C112.331 150.225 111.62 150.696 110.915 151.161C109.38 150.417 107.911 149.561 106.547 148.572C107.081 148.426 107.614 148.273 108.141 148.107C108.563 147.974 108.385 147.383 107.963 147.456C107.206 147.589 106.455 147.755 105.704 147.928C105.144 147.489 104.597 147.031 104.077 146.553C103.168 145.703 102.364 144.8 101.639 143.857C103.635 143.791 105.645 143.645 107.581 143.393C108.075 143.326 108.108 142.596 107.581 142.589C105.401 142.569 103.148 142.682 100.934 142.895C96.9684 137.105 96.0066 129.841 96.0396 122.757C96.0396 122.352 95.3808 122.239 95.3215 122.657C94.3399 129.576 95.585 137.125 99.3466 143.067C99.0633 143.101 98.7801 143.127 98.5034 143.167C98.0554 143.227 98.0225 143.891 98.5034 143.897C98.9579 143.904 99.4191 143.897 99.8802 143.891C100.803 145.225 101.85 146.473 103.042 147.596C103.326 147.861 103.622 148.113 103.912 148.366C103.194 148.552 102.469 148.738 101.751 148.923C101.27 149.043 101.474 149.78 101.955 149.667C102.871 149.448 103.793 149.242 104.709 149.03C106.185 150.212 107.792 151.234 109.485 152.117C108.938 152.489 108.392 152.861 107.845 153.233C107.443 153.505 107.812 154.162 108.227 153.897C108.919 153.445 109.61 152.994 110.295 152.535C116.099 155.357 122.845 156.486 129.071 155.809C133.524 155.331 137.799 153.863 141.462 151.473C142.246 151.858 143.037 152.223 143.84 152.522C144.269 152.682 144.519 152.018 144.143 151.798C143.564 151.46 142.964 151.154 142.358 150.869C143.485 150.059 144.545 149.156 145.52 148.16C147.055 148.651 148.623 149.016 150.165 149.109C150.606 149.136 150.672 148.465 150.263 148.352C148.939 147.967 147.622 147.655 146.311 147.317C147.47 146.015 148.504 144.575 149.367 142.988C149.387 142.948 149.407 142.908 149.427 142.868C150.422 143.021 151.423 143.2 152.431 143.393C153.004 143.512 153.241 142.715 152.681 142.536Z" fill="white" fill-opacity="0.55"/>
<path d="M129.599 149.537C128.973 149.537 128.451 149.764 127.824 149.53C127.179 149.289 126.683 148.766 126.435 148.098C127.329 148.085 127.877 147.086 127.851 146.212C127.837 145.84 127.583 145.62 127.25 145.578C125.9 145.413 124.549 145.2 123.198 145.007C122.709 144.938 122.311 145.386 122.553 145.895C123.075 146.962 123.916 147.789 124.934 148.284C124.817 148.608 124.608 148.897 124.347 149.117C124.086 149.338 123.76 149.517 123.427 149.579C123.068 149.647 122.729 149.53 122.376 149.682C122.109 149.799 121.874 150.15 122.076 150.46C122.566 151.196 123.518 151.059 124.223 150.756C124.941 150.446 125.541 149.847 125.88 149.11C125.913 149.042 125.939 148.959 125.965 148.883C126.252 149.53 126.767 150.04 127.394 150.357C128.131 150.728 129.234 150.928 129.88 150.274C130.141 150.012 129.945 149.537 129.599 149.537ZM124.653 146.866C124.497 146.708 124.353 146.542 124.216 146.37C124.96 146.48 125.697 146.597 126.441 146.721C126.304 146.88 126.122 147.004 125.952 147.141C125.913 147.086 125.874 147.024 125.828 146.976C125.469 146.604 124.941 146.453 124.653 146.866Z" fill="white" fill-opacity="0.55"/>
<path d="M118.978 137.607C118.103 135.633 114.807 135.682 113.185 136.657C112.757 136.913 113.146 137.546 113.588 137.303C114.418 136.84 115.372 136.675 116.319 136.864C117.207 137.047 117.733 137.571 118.485 137.967C118.712 138.082 119.095 137.881 118.978 137.607Z" fill="white" fill-opacity="0.55"/>
<path d="M138.993 137.496C138.778 136.452 137.49 136 136.573 136C135.525 136 134.562 136.505 134.048 137.456C133.833 137.86 134.393 138.19 134.64 137.813C135.096 137.119 135.915 136.809 136.709 136.903C137.477 136.991 137.874 137.483 138.447 137.934C138.726 138.15 139.052 137.793 138.993 137.496Z" fill="white" fill-opacity="0.55"/>
</svg>
