<svg width="34" height="38" viewBox="0 0 34 38" fill="none" xmlns="http://www.w3.org/2000/svg">
<path d="M26.4797 35.9999H1.51989C1.38401 36.0018 1.25295 35.9481 1.15551 35.8506C1.05806 35.7531 1.0022 35.6198 1.00018 35.4799V10.5201C1.00118 10.4507 1.01544 10.3823 1.04213 10.3186C1.06883 10.255 1.10745 10.1974 1.15578 10.1491C1.20411 10.1008 1.26121 10.0628 1.32382 10.0372C1.38643 10.0116 1.45331 9.99902 1.52066 10.0001H26.4797C26.5471 9.99902 26.6139 10.0116 26.6765 10.0372C26.7392 10.0628 26.7962 10.1008 26.8446 10.1491C26.8929 10.1974 26.9315 10.255 26.9582 10.3186C26.9849 10.3823 26.9992 10.4507 27.0002 10.5201V35.4799C26.9992 35.5493 26.9849 35.6177 26.9582 35.6814C26.9315 35.745 26.8929 35.8026 26.8446 35.8509C26.7962 35.8992 26.7392 35.9372 26.6765 35.9628C26.6139 35.9884 26.5471 36.001 26.4797 35.9999Z" fill="#BAD266"/>
<path d="M9.66625 18.2855C8.24575 16.23 4.92101 18.1989 6.34919 20.2702C8.79859 23.8221 10.8564 27.5551 12.4228 31.5953C13.0678 33.2413 15.6708 33.6823 16.1315 31.5953C18.3044 21.672 22.4354 10.1973 32.0104 5.60587C34.2448 4.53479 32.3021 1.14042 30.0754 2.20362C21.299 6.41705 16.5 15.8756 13.7742 25.2397C12.5716 22.8222 11.1987 20.498 9.66625 18.2855Z" fill="white"/>
<path d="M27.0002 12.4686V36.48C27.0002 36.6179 26.9454 36.7502 26.8479 36.8477C26.7504 36.9452 26.6181 37 26.4802 37H1.52018C1.38227 37 1.25001 36.9452 1.15249 36.8477C1.05497 36.7502 1.00018 36.6179 1.00018 36.48V11.52C1.00018 11.3821 1.05497 11.2498 1.15249 11.1523C1.25001 11.0548 1.38227 11 1.52018 11H17.7891" stroke="black" stroke-width="2" stroke-miterlimit="10" stroke-linecap="round" stroke-linejoin="round"/>
<path d="M9.66625 18.2855C8.24575 16.23 4.92101 18.1989 6.34919 20.2702C8.79859 23.8221 10.8564 27.5551 12.4228 31.5953C13.0678 33.2413 15.6708 33.6823 16.1315 31.5953C18.3044 21.672 22.4354 10.1973 32.0104 5.60587C34.2448 4.53479 32.3021 1.14042 30.0754 2.20362C21.299 6.41705 16.5 15.8756 13.7742 25.2397C12.5716 22.8222 11.1987 20.498 9.66625 18.2855V18.2855Z" stroke="black" stroke-width="2" stroke-miterlimit="10" stroke-linecap="round" stroke-linejoin="round"/>
</svg>
